<?xml version="1.0" encoding="utf-8" standalone="no"?>
<!DOCTYPE svg PUBLIC "-//W3C//DTD SVG 1.1//EN"
  "http://www.w3.org/Graphics/SVG/1.1/DTD/svg11.dtd">
<svg xmlns:xlink="http://www.w3.org/1999/xlink" width="576pt" height="288pt" viewBox="0 0 576 288" xmlns="http://www.w3.org/2000/svg" version="1.1">
 <metadata>
  <rdf:RDF xmlns:dc="http://purl.org/dc/elements/1.1/" xmlns:cc="http://creativecommons.org/ns#" xmlns:rdf="http://www.w3.org/1999/02/22-rdf-syntax-ns#">
   <cc:Work>
    <dc:type rdf:resource="http://purl.org/dc/dcmitype/StillImage"/>
    <dc:date>2022-12-26T16:44:12.555920</dc:date>
    <dc:format>image/svg+xml</dc:format>
    <dc:creator>
     <cc:Agent>
      <dc:title>Matplotlib v3.5.1, https://matplotlib.org/</dc:title>
     </cc:Agent>
    </dc:creator>
   </cc:Work>
  </rdf:RDF>
 </metadata>
 <defs>
  <style type="text/css">*{stroke-linejoin: round; stroke-linecap: butt}</style>
 </defs>
 <g id="figure_1">
  <g id="patch_1">
   <path d="M 0 288 
L 576 288 
L 576 0 
L 0 0 
L 0 288 
z
" style="fill: none"/>
  </g>
  <g id="axes_1">
   <g id="line2d_1">
    <path d="M 153.907115 75.350996 
L 152.373286 75.479748 
L 150.515704 75.943053 
L 148.869104 76.191202 
L 144.153143 76.363866 
L 142.693723 76.50897 
L 139.509507 77.134315 
L 135.846843 77.452719 
L 134.146524 77.9701 
L 132.452637 78.839986 
L 130.782821 79.944365 
L 129.210972 80.760302 
L 123.542157 82.817029 
L 119.889092 84.495166 
L 118.277908 85.678064 
L 115.189644 88.531166 
L 113.572469 89.822944 
L 111.824381 91.066116 
L 110.055654 92.561621 
L 106.640587 96.315227 
L 104.408304 98.737309 
L 99.709564 104.703957 
L 97.598207 107.692214 
L 95.884757 110.600096 
L 93.349391 114.342541 
L 91.806428 116.125711 
L 90.269146 118.368601 
L 88.81193 121.054485 
L 83.839862 131.471235 
L 82.874115 133.068603 
L 81.122144 137.821985 
L 80.406039 140.234131 
L 79.51732 144.760553 
L 78.966005 146.536613 
L 78.734763 148.569803 
L 78.443793 153.194756 
L 78.314484 155.462098 
L 78.363917 164.268775 
L 77.967914 168.281222 
L 78.027439 169.811647 
L 78.47496 172.52977 
L 78.501757 174.164472 
L 79.060215 177.673321 
L 80.24497 181.690187 
L 81.363846 184.694916 
L 83.089686 187.922661 
L 85.284748 190.448803 
L 86.289286 191.88534 
L 88.958233 194.892566 
L 89.858092 196.024554 
L 92.202532 197.977531 
L 94.210936 199.849715 
L 97.179349 201.759931 
L 102.005818 205.464262 
L 105.041095 207.492996 
L 108.228332 208.62676 
L 109.764611 208.849242 
L 110.96865 208.905634 
L 113.615063 209.487531 
L 116.499808 210.167213 
L 118.091225 210.655934 
L 121.534122 211.967172 
L 123.309849 212.310724 
L 125.002735 212.440313 
L 130.325478 212.445309 
L 132.605249 212.263419 
L 134.789007 211.786167 
L 136.585277 211.239079 
L 138.241111 210.597248 
L 140.194126 209.990886 
L 142.049421 209.261028 
L 144.252745 208.648309 
L 146.526835 207.570301 
L 148.76871 206.814736 
L 156.148653 203.401508 
L 157.321977 202.626949 
L 162.659018 200.009332 
L 165.665902 198.105717 
L 171.22224 193.090698 
L 175.305534 190.764966 
L 177.70087 188.473365 
L 178.950395 187.082303 
L 182.866737 181.677956 
L 184.905776 178.454785 
L 185.444594 177.054335 
L 186.439235 175.086468 
L 187.333536 173.06155 
L 188.542281 169.68257 
L 190.239481 166.485511 
L 192.150678 163.333448 
L 192.861162 161.704342 
L 193.81865 158.047325 
L 195.824276 152.518921 
L 195.9526 150.826772 
L 195.785824 145.036772 
L 195.904244 143.246949 
L 196.346482 141.331575 
L 197.280943 134.029682 
L 197.326203 131.551018 
L 196.64524 126.769955 
L 196.093245 122.52011 
L 195.546127 120.661971 
L 194.804524 118.59571 
L 193.522545 114.183896 
L 192.004651 110.075236 
L 191.408809 107.951913 
L 190.510984 105.592391 
L 185.294248 97.193749 
L 184.135383 94.887941 
L 183.428485 92.990999 
L 182.588022 91.581071 
L 181.273905 90.144637 
L 178.218768 85.99443 
L 176.783911 84.383761 
L 175.09126 82.827116 
L 173.694397 81.707666 
L 171.315373 79.482151 
L 170.18833 78.772625 
L 165.336818 77.332463 
L 162.92353 76.084996 
L 160.139204 75.216924 
L 156.136429 74.039648 
L 156.136429 74.039648 
" clip-path="url(#pe81edb1f87)" style="fill: none; stroke: #2ca02c; stroke-width: 1.5; stroke-linecap: square"/>
   </g>
   <g id="text_1">
    <!-- Mean control -->
    <g transform="translate(72.564246 28.56)scale(0.2 -0.2)">
     <defs>
      <path id="DejaVuSans-4d" d="M 628 4666 
L 1569 4666 
L 2759 1491 
L 3956 4666 
L 4897 4666 
L 4897 0 
L 4281 0 
L 4281 4097 
L 3078 897 
L 2444 897 
L 1241 4097 
L 1241 0 
L 628 0 
L 628 4666 
z
" transform="scale(0.015625)"/>
      <path id="DejaVuSans-65" d="M 3597 1894 
L 3597 1613 
L 953 1613 
Q 991 1019 1311 708 
Q 1631 397 2203 397 
Q 2534 397 2845 478 
Q 3156 559 3463 722 
L 3463 178 
Q 3153 47 2828 -22 
Q 2503 -91 2169 -91 
Q 1331 -91 842 396 
Q 353 884 353 1716 
Q 353 2575 817 3079 
Q 1281 3584 2069 3584 
Q 2775 3584 3186 3129 
Q 3597 2675 3597 1894 
z
M 3022 2063 
Q 3016 2534 2758 2815 
Q 2500 3097 2075 3097 
Q 1594 3097 1305 2825 
Q 1016 2553 972 2059 
L 3022 2063 
z
" transform="scale(0.015625)"/>
      <path id="DejaVuSans-61" d="M 2194 1759 
Q 1497 1759 1228 1600 
Q 959 1441 959 1056 
Q 959 750 1161 570 
Q 1363 391 1709 391 
Q 2188 391 2477 730 
Q 2766 1069 2766 1631 
L 2766 1759 
L 2194 1759 
z
M 3341 1997 
L 3341 0 
L 2766 0 
L 2766 531 
Q 2569 213 2275 61 
Q 1981 -91 1556 -91 
Q 1019 -91 701 211 
Q 384 513 384 1019 
Q 384 1609 779 1909 
Q 1175 2209 1959 2209 
L 2766 2209 
L 2766 2266 
Q 2766 2663 2505 2880 
Q 2244 3097 1772 3097 
Q 1472 3097 1187 3025 
Q 903 2953 641 2809 
L 641 3341 
Q 956 3463 1253 3523 
Q 1550 3584 1831 3584 
Q 2591 3584 2966 3190 
Q 3341 2797 3341 1997 
z
" transform="scale(0.015625)"/>
      <path id="DejaVuSans-6e" d="M 3513 2113 
L 3513 0 
L 2938 0 
L 2938 2094 
Q 2938 2591 2744 2837 
Q 2550 3084 2163 3084 
Q 1697 3084 1428 2787 
Q 1159 2491 1159 1978 
L 1159 0 
L 581 0 
L 581 3500 
L 1159 3500 
L 1159 2956 
Q 1366 3272 1645 3428 
Q 1925 3584 2291 3584 
Q 2894 3584 3203 3211 
Q 3513 2838 3513 2113 
z
" transform="scale(0.015625)"/>
      <path id="DejaVuSans-20" transform="scale(0.015625)"/>
      <path id="DejaVuSans-63" d="M 3122 3366 
L 3122 2828 
Q 2878 2963 2633 3030 
Q 2388 3097 2138 3097 
Q 1578 3097 1268 2742 
Q 959 2388 959 1747 
Q 959 1106 1268 751 
Q 1578 397 2138 397 
Q 2388 397 2633 464 
Q 2878 531 3122 666 
L 3122 134 
Q 2881 22 2623 -34 
Q 2366 -91 2075 -91 
Q 1284 -91 818 406 
Q 353 903 353 1747 
Q 353 2603 823 3093 
Q 1294 3584 2113 3584 
Q 2378 3584 2631 3529 
Q 2884 3475 3122 3366 
z
" transform="scale(0.015625)"/>
      <path id="DejaVuSans-6f" d="M 1959 3097 
Q 1497 3097 1228 2736 
Q 959 2375 959 1747 
Q 959 1119 1226 758 
Q 1494 397 1959 397 
Q 2419 397 2687 759 
Q 2956 1122 2956 1747 
Q 2956 2369 2687 2733 
Q 2419 3097 1959 3097 
z
M 1959 3584 
Q 2709 3584 3137 3096 
Q 3566 2609 3566 1747 
Q 3566 888 3137 398 
Q 2709 -91 1959 -91 
Q 1206 -91 779 398 
Q 353 888 353 1747 
Q 353 2609 779 3096 
Q 1206 3584 1959 3584 
z
" transform="scale(0.015625)"/>
      <path id="DejaVuSans-74" d="M 1172 4494 
L 1172 3500 
L 2356 3500 
L 2356 3053 
L 1172 3053 
L 1172 1153 
Q 1172 725 1289 603 
Q 1406 481 1766 481 
L 2356 481 
L 2356 0 
L 1766 0 
Q 1100 0 847 248 
Q 594 497 594 1153 
L 594 3053 
L 172 3053 
L 172 3500 
L 594 3500 
L 594 4494 
L 1172 4494 
z
" transform="scale(0.015625)"/>
      <path id="DejaVuSans-72" d="M 2631 2963 
Q 2534 3019 2420 3045 
Q 2306 3072 2169 3072 
Q 1681 3072 1420 2755 
Q 1159 2438 1159 1844 
L 1159 0 
L 581 0 
L 581 3500 
L 1159 3500 
L 1159 2956 
Q 1341 3275 1631 3429 
Q 1922 3584 2338 3584 
Q 2397 3584 2469 3576 
Q 2541 3569 2628 3553 
L 2631 2963 
z
" transform="scale(0.015625)"/>
      <path id="DejaVuSans-6c" d="M 603 4863 
L 1178 4863 
L 1178 0 
L 603 0 
L 603 4863 
z
" transform="scale(0.015625)"/>
     </defs>
     <use xlink:href="#DejaVuSans-4d"/>
     <use xlink:href="#DejaVuSans-65" x="86.279297"/>
     <use xlink:href="#DejaVuSans-61" x="147.802734"/>
     <use xlink:href="#DejaVuSans-6e" x="209.082031"/>
     <use xlink:href="#DejaVuSans-20" x="272.460938"/>
     <use xlink:href="#DejaVuSans-63" x="304.248047"/>
     <use xlink:href="#DejaVuSans-6f" x="359.228516"/>
     <use xlink:href="#DejaVuSans-6e" x="420.410156"/>
     <use xlink:href="#DejaVuSans-74" x="483.789062"/>
     <use xlink:href="#DejaVuSans-72" x="522.998047"/>
     <use xlink:href="#DejaVuSans-6f" x="561.861328"/>
     <use xlink:href="#DejaVuSans-6c" x="623.042969"/>
    </g>
   </g>
  </g>
  <g id="axes_2">
   <g id="line2d_2">
    <path d="M 335.745182 63.141304 
L 330.362676 66.365463 
L 328.605439 66.919537 
L 327.069957 67.737205 
L 325.961701 68.552819 
L 324.655903 69.723831 
L 323.708864 70.282104 
L 323.11402 71.205293 
L 320.840346 74.400402 
L 320.138617 76.167203 
L 318.257094 79.518101 
L 314.941948 82.46872 
L 311.101583 86.732008 
L 309.601575 87.982827 
L 306.012452 90.24697 
L 304.046041 91.765243 
L 302.092996 92.907086 
L 300.01038 94.275827 
L 297.672027 96.526341 
L 296.395093 98.564921 
L 294.343563 102.61736 
L 292.560199 105.294845 
L 291.505247 107.390847 
L 289.926681 109.946429 
L 286.797407 114.041443 
L 284.520844 116.165983 
L 281.975028 118.125965 
L 280.429711 119.641697 
L 279.344178 121.180684 
L 278.342843 123.453819 
L 276.923793 126.086419 
L 274.550004 129.123771 
L 272.349054 131.143941 
L 270.55268 133.42197 
L 269.794203 134.878877 
L 268.920709 136.826824 
L 267.661783 140.203381 
L 266.86663 142.812852 
L 265.45563 145.484311 
L 263.699185 152.36074 
L 262.226341 155.782404 
L 260.076697 159.262202 
L 257.665896 163.796861 
L 256.373689 166.789686 
L 254.714286 169.583527 
L 253.471506 172.007456 
L 251.394373 175.678099 
L 248.357127 183.133826 
L 245.929174 186.157918 
L 244.115866 188.760216 
L 242.883827 191.083439 
L 239.976194 195.57358 
L 239.002691 197.86063 
L 235.520856 204.922376 
L 235.748325 206.022802 
L 236.49792 206.934977 
L 237.302751 209.219742 
L 237.447301 211.094789 
L 237.247604 212.33931 
L 237.378057 212.872315 
L 238.558006 214.385097 
L 240.447842 215.226924 
L 241.606546 215.470678 
L 242.418546 215.937063 
L 242.894679 216.957755 
L 244.29283 218.072458 
L 248.4194 220.706048 
L 249.547886 221.139857 
L 251.132198 221.971188 
L 251.946612 222.237413 
L 253.419284 222.923816 
L 255.307176 223.601682 
L 257.431276 223.598367 
L 259.213527 223.723684 
L 260.68068 224.035069 
L 263.124003 223.930259 
L 265.429156 224.205341 
L 266.833548 224.54471 
L 269.505606 224.15583 
L 271.974656 223.631039 
L 274.111518 223.296296 
L 278.645769 222.148683 
L 280.87415 221.706756 
L 282.517238 221.243056 
L 284.082875 221.133255 
L 287.086989 220.622564 
L 289.041695 220.597964 
L 290.426876 220.284974 
L 291.787112 220.174386 
L 294.3659 220.625114 
L 297.467998 220.580299 
L 300.361997 219.308448 
L 302.099852 218.507205 
L 303.27964 217.633936 
L 305.773572 216.050695 
L 310.528122 211.805082 
L 312.475392 210.216894 
L 316.511199 208.536193 
L 319.429122 207.76531 
L 323.472639 205.788226 
L 326.618788 203.235353 
L 328.239847 201.389157 
L 329.517299 198.984372 
L 333.164783 192.96948 
L 334.700116 191.272902 
L 335.878163 189.644566 
L 337.658067 188.246021 
L 339.206735 185.117093 
L 344.999418 176.670094 
L 346.909244 174.462542 
L 347.990224 172.529381 
L 349.78133 170.54982 
L 351.203535 168.562112 
L 352.068941 166.957245 
L 353.325224 165.528723 
L 354.433453 163.837444 
L 354.879144 161.69639 
L 354.507811 160.05667 
L 354.088084 148.60789 
L 354.226993 146.551582 
L 353.930496 144.889495 
L 353.478029 138.295371 
L 352.18491 127.677879 
L 348.75353 120.895105 
L 348.429136 118.880134 
L 348.277587 112.523465 
L 348.50723 107.295884 
L 348.576562 102.89256 
L 348.29446 99.899368 
L 347.499225 98.599079 
L 346.824091 97.198408 
L 345.109194 92.747565 
L 344.43582 90.119199 
L 343.677895 87.748631 
L 342.194988 84.528171 
L 340.837895 78.953823 
L 340.208111 77.318998 
L 339.14994 75.896724 
L 337.731922 74.828873 
L 336.632377 73.710467 
L 335.196902 71.700986 
L 333.136357 66.445737 
L 332.344177 65.401792 
L 331.059953 64.0222 
L 329.906938 62.527022 
L 327.001143 62.01529 
L 325.891217 62.17183 
L 324.986537 62.927203 
L 324.986537 62.927203 
" clip-path="url(#p330fb76e8c)" style="fill: none; stroke: #2ca02c; stroke-width: 1.5; stroke-linecap: square"/>
   </g>
   <g id="text_2">
    <!-- Mean cytd -->
    <g transform="translate(243.089063 28.56)scale(0.2 -0.2)">
     <defs>
      <path id="DejaVuSans-79" d="M 2059 -325 
Q 1816 -950 1584 -1140 
Q 1353 -1331 966 -1331 
L 506 -1331 
L 506 -850 
L 844 -850 
Q 1081 -850 1212 -737 
Q 1344 -625 1503 -206 
L 1606 56 
L 191 3500 
L 800 3500 
L 1894 763 
L 2988 3500 
L 3597 3500 
L 2059 -325 
z
" transform="scale(0.015625)"/>
      <path id="DejaVuSans-64" d="M 2906 2969 
L 2906 4863 
L 3481 4863 
L 3481 0 
L 2906 0 
L 2906 525 
Q 2725 213 2448 61 
Q 2172 -91 1784 -91 
Q 1150 -91 751 415 
Q 353 922 353 1747 
Q 353 2572 751 3078 
Q 1150 3584 1784 3584 
Q 2172 3584 2448 3432 
Q 2725 3281 2906 2969 
z
M 947 1747 
Q 947 1113 1208 752 
Q 1469 391 1925 391 
Q 2381 391 2643 752 
Q 2906 1113 2906 1747 
Q 2906 2381 2643 2742 
Q 2381 3103 1925 3103 
Q 1469 3103 1208 2742 
Q 947 2381 947 1747 
z
" transform="scale(0.015625)"/>
     </defs>
     <use xlink:href="#DejaVuSans-4d"/>
     <use xlink:href="#DejaVuSans-65" x="86.279297"/>
     <use xlink:href="#DejaVuSans-61" x="147.802734"/>
     <use xlink:href="#DejaVuSans-6e" x="209.082031"/>
     <use xlink:href="#DejaVuSans-20" x="272.460938"/>
     <use xlink:href="#DejaVuSans-63" x="304.248047"/>
     <use xlink:href="#DejaVuSans-79" x="359.228516"/>
     <use xlink:href="#DejaVuSans-74" x="418.408203"/>
     <use xlink:href="#DejaVuSans-64" x="457.617188"/>
    </g>
   </g>
  </g>
  <g id="axes_3">
   <g id="line2d_3">
    <path d="M 474.493264 68.524359 
L 472.501531 69.100938 
L 470.627676 69.363877 
L 467.120026 70.623593 
L 465.438129 71.666215 
L 463.418905 73.131517 
L 459.707218 76.627472 
L 458.287185 78.226649 
L 456.671201 79.593918 
L 455.13958 81.23284 
L 453.503487 82.324368 
L 452.821601 83.592706 
L 451.620876 85.474846 
L 448.53873 89.19067 
L 447.185151 90.653313 
L 446.189473 91.964606 
L 445.76424 93.900102 
L 444.421467 96.241077 
L 442.815821 98.389451 
L 440.260912 102.396842 
L 439.403928 104.76917 
L 436.545024 109.694161 
L 434.593446 112.855328 
L 433.384747 115.419633 
L 432.315102 117.959705 
L 429.603737 123.210297 
L 427.987257 125.598489 
L 424.866463 129.644775 
L 422.929792 131.781679 
L 421.360473 134.082169 
L 417.855736 137.695131 
L 416.593326 139.128372 
L 414.993236 141.137418 
L 413.421237 142.658356 
L 412.362033 143.911285 
L 411.310277 145.810222 
L 408.994526 149.18729 
L 407.760139 151.309958 
L 406.46275 153.044504 
L 404.343402 157.246181 
L 403.008697 159.368442 
L 399.655488 162.868046 
L 398.622986 164.32754 
L 397.89111 165.799354 
L 395.762518 169.358136 
L 395.202333 170.887731 
L 394.697183 174.229998 
L 393.625017 177.021199 
L 393.59586 178.497391 
L 393.073797 184.300662 
L 393.772496 187.8305 
L 394.514737 190.102079 
L 395.363899 193.206579 
L 396.012576 194.613099 
L 396.293895 195.587374 
L 396.941865 196.559267 
L 398.408241 199.769585 
L 399.232327 200.995669 
L 401.409781 203.759889 
L 404.775423 206.095581 
L 413.339008 212.798235 
L 415.539266 213.853412 
L 417.310274 214.96283 
L 420.233677 216.310613 
L 422.010825 216.801018 
L 423.880118 217.06629 
L 425.346522 217.569945 
L 427.312667 217.361547 
L 429.131804 217.734073 
L 430.973526 217.959954 
L 432.855347 217.87796 
L 435.015438 218.035641 
L 439.412952 217.481447 
L 441.403955 217.3988 
L 443.321764 217.476357 
L 447.032661 217.064686 
L 449.091899 216.787544 
L 451.466413 216.083051 
L 453.45779 215.966331 
L 457.56615 214.934211 
L 465.085796 212.12145 
L 466.83978 211.304546 
L 468.743665 210.668206 
L 470.089601 209.670417 
L 474.347036 207.657244 
L 476.076147 206.926422 
L 477.804715 205.756206 
L 480.830862 203.084679 
L 481.732827 202.276319 
L 482.719233 200.36656 
L 484.38228 198.400897 
L 486.269043 196.857816 
L 487.854799 195.184725 
L 489.126374 193.542636 
L 491.587708 189.983645 
L 493.476298 187.985113 
L 494.469072 187.309967 
L 495.373582 186.210337 
L 496.150769 184.774687 
L 497.178875 183.516678 
L 498.137381 181.636947 
L 498.989583 180.242537 
L 499.717502 178.78874 
L 500.191161 177.216848 
L 501.004868 175.417636 
L 501.565626 173.720779 
L 502.347543 172.044349 
L 503.496777 167.637476 
L 504.074137 166.022635 
L 505.809102 162.747704 
L 506.470195 160.975548 
L 507.503117 158.694873 
L 509.517387 154.967985 
L 510.107504 153.541954 
L 510.311715 152.184354 
L 511.095643 148.61663 
L 511.618359 143.690295 
L 511.497171 139.162989 
L 512.409119 134.232761 
L 512.432086 132.412426 
L 512.311672 129.7187 
L 512.013961 127.009079 
L 510.645211 119.064297 
L 510.545268 117.281111 
L 508.44165 112.898887 
L 508.001716 110.501668 
L 506.953925 107.836551 
L 506.00983 105.753871 
L 505.342038 103.501939 
L 504.127724 100.901738 
L 503.102349 98.420787 
L 501.825428 95.788338 
L 500.829997 93.434654 
L 499.152489 90.865153 
L 496.579245 86.286208 
L 495.476436 84.271475 
L 493.246779 80.909314 
L 491.540865 79.040918 
L 490.043134 76.838409 
L 489.165331 75.913308 
L 488.018911 74.96221 
L 486.183834 73.737591 
L 484.938342 72.724803 
L 483.985906 71.681933 
L 482.889603 71.237171 
L 479.246475 70.334183 
L 477.766397 69.837403 
L 475.875808 69.845892 
L 473.87806 69.98974 
L 473.87806 69.98974 
" clip-path="url(#p0c87ad75ee)" style="fill: none; stroke: #2ca02c; stroke-width: 1.5; stroke-linecap: square"/>
   </g>
   <g id="text_3">
    <!-- Mean jasp -->
    <g transform="translate(401.863879 28.56)scale(0.2 -0.2)">
     <defs>
      <path id="DejaVuSans-6a" d="M 603 3500 
L 1178 3500 
L 1178 -63 
Q 1178 -731 923 -1031 
Q 669 -1331 103 -1331 
L -116 -1331 
L -116 -844 
L 38 -844 
Q 366 -844 484 -692 
Q 603 -541 603 -63 
L 603 3500 
z
M 603 4863 
L 1178 4863 
L 1178 4134 
L 603 4134 
L 603 4863 
z
" transform="scale(0.015625)"/>
      <path id="DejaVuSans-73" d="M 2834 3397 
L 2834 2853 
Q 2591 2978 2328 3040 
Q 2066 3103 1784 3103 
Q 1356 3103 1142 2972 
Q 928 2841 928 2578 
Q 928 2378 1081 2264 
Q 1234 2150 1697 2047 
L 1894 2003 
Q 2506 1872 2764 1633 
Q 3022 1394 3022 966 
Q 3022 478 2636 193 
Q 2250 -91 1575 -91 
Q 1294 -91 989 -36 
Q 684 19 347 128 
L 347 722 
Q 666 556 975 473 
Q 1284 391 1588 391 
Q 1994 391 2212 530 
Q 2431 669 2431 922 
Q 2431 1156 2273 1281 
Q 2116 1406 1581 1522 
L 1381 1569 
Q 847 1681 609 1914 
Q 372 2147 372 2553 
Q 372 3047 722 3315 
Q 1072 3584 1716 3584 
Q 2034 3584 2315 3537 
Q 2597 3491 2834 3397 
z
" transform="scale(0.015625)"/>
      <path id="DejaVuSans-70" d="M 1159 525 
L 1159 -1331 
L 581 -1331 
L 581 3500 
L 1159 3500 
L 1159 2969 
Q 1341 3281 1617 3432 
Q 1894 3584 2278 3584 
Q 2916 3584 3314 3078 
Q 3713 2572 3713 1747 
Q 3713 922 3314 415 
Q 2916 -91 2278 -91 
Q 1894 -91 1617 61 
Q 1341 213 1159 525 
z
M 3116 1747 
Q 3116 2381 2855 2742 
Q 2594 3103 2138 3103 
Q 1681 3103 1420 2742 
Q 1159 2381 1159 1747 
Q 1159 1113 1420 752 
Q 1681 391 2138 391 
Q 2594 391 2855 752 
Q 3116 1113 3116 1747 
z
" transform="scale(0.015625)"/>
     </defs>
     <use xlink:href="#DejaVuSans-4d"/>
     <use xlink:href="#DejaVuSans-65" x="86.279297"/>
     <use xlink:href="#DejaVuSans-61" x="147.802734"/>
     <use xlink:href="#DejaVuSans-6e" x="209.082031"/>
     <use xlink:href="#DejaVuSans-20" x="272.460938"/>
     <use xlink:href="#DejaVuSans-6a" x="304.248047"/>
     <use xlink:href="#DejaVuSans-61" x="332.03125"/>
     <use xlink:href="#DejaVuSans-73" x="393.310547"/>
     <use xlink:href="#DejaVuSans-70" x="445.410156"/>
    </g>
   </g>
  </g>
 </g>
 <defs>
  <clipPath id="pe81edb1f87">
   <rect x="72" y="34.56" width="131.294118" height="217.44"/>
  </clipPath>
  <clipPath id="p330fb76e8c">
   <rect x="229.552941" y="34.56" width="131.294118" height="217.44"/>
  </clipPath>
  <clipPath id="p0c87ad75ee">
   <rect x="387.105882" y="34.56" width="131.294118" height="217.44"/>
  </clipPath>
 </defs>
</svg>
