<?xml version="1.0" encoding="utf-8" standalone="no"?>
<!DOCTYPE svg PUBLIC "-//W3C//DTD SVG 1.1//EN"
  "http://www.w3.org/Graphics/SVG/1.1/DTD/svg11.dtd">
<svg xmlns:xlink="http://www.w3.org/1999/xlink" width="576pt" height="288pt" viewBox="0 0 576 288" xmlns="http://www.w3.org/2000/svg" version="1.1">
 <metadata>
  <rdf:RDF xmlns:dc="http://purl.org/dc/elements/1.1/" xmlns:cc="http://creativecommons.org/ns#" xmlns:rdf="http://www.w3.org/1999/02/22-rdf-syntax-ns#">
   <cc:Work>
    <dc:type rdf:resource="http://purl.org/dc/dcmitype/StillImage"/>
    <dc:date>2022-12-26T16:44:12.631231</dc:date>
    <dc:format>image/svg+xml</dc:format>
    <dc:creator>
     <cc:Agent>
      <dc:title>Matplotlib v3.5.1, https://matplotlib.org/</dc:title>
     </cc:Agent>
    </dc:creator>
   </cc:Work>
  </rdf:RDF>
 </metadata>
 <defs>
  <style type="text/css">*{stroke-linejoin: round; stroke-linecap: butt}</style>
 </defs>
 <g id="figure_1">
  <g id="patch_1">
   <path d="M 0 288 
L 576 288 
L 576 0 
L 0 0 
L 0 288 
z
" style="fill: none"/>
  </g>
  <g id="axes_1">
   <g id="line2d_1">
    <path d="M 211.581028 44.443636 
L 209.435067 44.850676 
L 206.948796 45.612982 
L 204.803633 46.153338 
L 200.34149 47.761877 
L 196.23276 49.723799 
L 194.400564 50.887833 
L 186.296386 57.013587 
L 184.236274 58.629965 
L 179.965137 62.277372 
L 173.004111 67.733196 
L 168.251703 72.094982 
L 163.252649 76.701199 
L 160.96359 79.077661 
L 158.690291 81.631839 
L 156.752808 84.363701 
L 151.843554 90.704572 
L 147.609159 96.379812 
L 140.074771 106.389757 
L 137.194021 110.052576 
L 132.675239 116.567906 
L 128.767288 122.850014 
L 121.521438 133.855035 
L 116.046013 143.70828 
L 114.571157 147.075681 
L 107.089551 167.705242 
L 105.968696 170.89135 
L 103.521118 176.785228 
L 99.653886 188.483141 
L 96.325227 198.962163 
L 95.532267 203.406177 
L 95.194719 209.743858 
L 95.337604 211.358026 
L 96.178569 214.639622 
L 97.270082 217.920362 
L 97.913828 219.419221 
L 100.724351 223.110687 
L 104.533973 226.918507 
L 105.893679 228.197497 
L 112.175696 232.551738 
L 124.522533 238.878766 
L 126.946139 239.644524 
L 129.333963 240.23042 
L 135.749609 241.148062 
L 137.787442 241.199409 
L 144.20483 241.976361 
L 146.289749 242.116364 
L 150.789664 241.898115 
L 153.692836 241.716111 
L 156.1194 241.702803 
L 166.680213 240.937589 
L 171.143222 240.426984 
L 173.649147 240.079078 
L 176.160877 239.498485 
L 181.374564 237.964326 
L 183.875742 237.039968 
L 185.946772 236.075011 
L 190.61649 233.550209 
L 195.180745 230.700147 
L 197.936541 229.141427 
L 207.240411 223.056387 
L 214.826448 217.441818 
L 217.267965 215.745607 
L 219.600514 213.981531 
L 221.814468 211.958467 
L 227.212413 205.887008 
L 229.053614 203.32669 
L 233.980608 197.169785 
L 235.24246 195.112495 
L 240.455816 185.186906 
L 241.460241 182.53074 
L 242.824798 179.734077 
L 246.439132 171.379974 
L 248.244307 165.609836 
L 249.502499 160.807412 
L 250.269201 158.312672 
L 250.917549 155.655926 
L 251.367591 152.972079 
L 251.543446 148.303892 
L 251.611806 143.098282 
L 251.714372 140.080482 
L 251.130764 129.935652 
L 249.956368 120.962581 
L 249.60648 118.215199 
L 248.162932 111.637622 
L 247.719753 108.137647 
L 247.439263 104.879093 
L 246.276853 98.068955 
L 245.430451 94.646128 
L 244.415473 91.858892 
L 240.742663 83.487612 
L 239.337923 80.70633 
L 237.699652 77.809378 
L 236.616686 74.98514 
L 235.265264 72.166202 
L 233.752401 69.289278 
L 232.084041 66.406912 
L 230.41838 63.87571 
L 228.801463 61.794764 
L 220.213959 52.117191 
L 218.470491 50.501542 
L 216.731328 49.052233 
L 214.903612 47.764469 
L 213.296527 46.871001 
L 211.77788 46.274809 
L 208.352709 45.422194 
L 204.530773 44.922216 
L 204.530773 44.922216 
" clip-path="url(#p9a2b0fc90f)" style="fill: none; stroke: #ff7f0e; stroke-width: 1.5; stroke-linecap: square"/>
   </g>
   <g id="text_1">
    <!-- Mean dlm8 -->
    <g transform="translate(117.799858 28.56)scale(0.2 -0.2)">
     <defs>
      <path id="DejaVuSans-4d" d="M 628 4666 
L 1569 4666 
L 2759 1491 
L 3956 4666 
L 4897 4666 
L 4897 0 
L 4281 0 
L 4281 4097 
L 3078 897 
L 2444 897 
L 1241 4097 
L 1241 0 
L 628 0 
L 628 4666 
z
" transform="scale(0.015625)"/>
      <path id="DejaVuSans-65" d="M 3597 1894 
L 3597 1613 
L 953 1613 
Q 991 1019 1311 708 
Q 1631 397 2203 397 
Q 2534 397 2845 478 
Q 3156 559 3463 722 
L 3463 178 
Q 3153 47 2828 -22 
Q 2503 -91 2169 -91 
Q 1331 -91 842 396 
Q 353 884 353 1716 
Q 353 2575 817 3079 
Q 1281 3584 2069 3584 
Q 2775 3584 3186 3129 
Q 3597 2675 3597 1894 
z
M 3022 2063 
Q 3016 2534 2758 2815 
Q 2500 3097 2075 3097 
Q 1594 3097 1305 2825 
Q 1016 2553 972 2059 
L 3022 2063 
z
" transform="scale(0.015625)"/>
      <path id="DejaVuSans-61" d="M 2194 1759 
Q 1497 1759 1228 1600 
Q 959 1441 959 1056 
Q 959 750 1161 570 
Q 1363 391 1709 391 
Q 2188 391 2477 730 
Q 2766 1069 2766 1631 
L 2766 1759 
L 2194 1759 
z
M 3341 1997 
L 3341 0 
L 2766 0 
L 2766 531 
Q 2569 213 2275 61 
Q 1981 -91 1556 -91 
Q 1019 -91 701 211 
Q 384 513 384 1019 
Q 384 1609 779 1909 
Q 1175 2209 1959 2209 
L 2766 2209 
L 2766 2266 
Q 2766 2663 2505 2880 
Q 2244 3097 1772 3097 
Q 1472 3097 1187 3025 
Q 903 2953 641 2809 
L 641 3341 
Q 956 3463 1253 3523 
Q 1550 3584 1831 3584 
Q 2591 3584 2966 3190 
Q 3341 2797 3341 1997 
z
" transform="scale(0.015625)"/>
      <path id="DejaVuSans-6e" d="M 3513 2113 
L 3513 0 
L 2938 0 
L 2938 2094 
Q 2938 2591 2744 2837 
Q 2550 3084 2163 3084 
Q 1697 3084 1428 2787 
Q 1159 2491 1159 1978 
L 1159 0 
L 581 0 
L 581 3500 
L 1159 3500 
L 1159 2956 
Q 1366 3272 1645 3428 
Q 1925 3584 2291 3584 
Q 2894 3584 3203 3211 
Q 3513 2838 3513 2113 
z
" transform="scale(0.015625)"/>
      <path id="DejaVuSans-20" transform="scale(0.015625)"/>
      <path id="DejaVuSans-64" d="M 2906 2969 
L 2906 4863 
L 3481 4863 
L 3481 0 
L 2906 0 
L 2906 525 
Q 2725 213 2448 61 
Q 2172 -91 1784 -91 
Q 1150 -91 751 415 
Q 353 922 353 1747 
Q 353 2572 751 3078 
Q 1150 3584 1784 3584 
Q 2172 3584 2448 3432 
Q 2725 3281 2906 2969 
z
M 947 1747 
Q 947 1113 1208 752 
Q 1469 391 1925 391 
Q 2381 391 2643 752 
Q 2906 1113 2906 1747 
Q 2906 2381 2643 2742 
Q 2381 3103 1925 3103 
Q 1469 3103 1208 2742 
Q 947 2381 947 1747 
z
" transform="scale(0.015625)"/>
      <path id="DejaVuSans-6c" d="M 603 4863 
L 1178 4863 
L 1178 0 
L 603 0 
L 603 4863 
z
" transform="scale(0.015625)"/>
      <path id="DejaVuSans-6d" d="M 3328 2828 
Q 3544 3216 3844 3400 
Q 4144 3584 4550 3584 
Q 5097 3584 5394 3201 
Q 5691 2819 5691 2113 
L 5691 0 
L 5113 0 
L 5113 2094 
Q 5113 2597 4934 2840 
Q 4756 3084 4391 3084 
Q 3944 3084 3684 2787 
Q 3425 2491 3425 1978 
L 3425 0 
L 2847 0 
L 2847 2094 
Q 2847 2600 2669 2842 
Q 2491 3084 2119 3084 
Q 1678 3084 1418 2786 
Q 1159 2488 1159 1978 
L 1159 0 
L 581 0 
L 581 3500 
L 1159 3500 
L 1159 2956 
Q 1356 3278 1631 3431 
Q 1906 3584 2284 3584 
Q 2666 3584 2933 3390 
Q 3200 3197 3328 2828 
z
" transform="scale(0.015625)"/>
      <path id="DejaVuSans-38" d="M 2034 2216 
Q 1584 2216 1326 1975 
Q 1069 1734 1069 1313 
Q 1069 891 1326 650 
Q 1584 409 2034 409 
Q 2484 409 2743 651 
Q 3003 894 3003 1313 
Q 3003 1734 2745 1975 
Q 2488 2216 2034 2216 
z
M 1403 2484 
Q 997 2584 770 2862 
Q 544 3141 544 3541 
Q 544 4100 942 4425 
Q 1341 4750 2034 4750 
Q 2731 4750 3128 4425 
Q 3525 4100 3525 3541 
Q 3525 3141 3298 2862 
Q 3072 2584 2669 2484 
Q 3125 2378 3379 2068 
Q 3634 1759 3634 1313 
Q 3634 634 3220 271 
Q 2806 -91 2034 -91 
Q 1263 -91 848 271 
Q 434 634 434 1313 
Q 434 1759 690 2068 
Q 947 2378 1403 2484 
z
M 1172 3481 
Q 1172 3119 1398 2916 
Q 1625 2713 2034 2713 
Q 2441 2713 2670 2916 
Q 2900 3119 2900 3481 
Q 2900 3844 2670 4047 
Q 2441 4250 2034 4250 
Q 1625 4250 1398 4047 
Q 1172 3844 1172 3481 
z
" transform="scale(0.015625)"/>
     </defs>
     <use xlink:href="#DejaVuSans-4d"/>
     <use xlink:href="#DejaVuSans-65" x="86.279297"/>
     <use xlink:href="#DejaVuSans-61" x="147.802734"/>
     <use xlink:href="#DejaVuSans-6e" x="209.082031"/>
     <use xlink:href="#DejaVuSans-20" x="272.460938"/>
     <use xlink:href="#DejaVuSans-64" x="304.248047"/>
     <use xlink:href="#DejaVuSans-6c" x="367.724609"/>
     <use xlink:href="#DejaVuSans-6d" x="395.507812"/>
     <use xlink:href="#DejaVuSans-38" x="492.919922"/>
    </g>
   </g>
  </g>
  <g id="axes_2">
   <g id="line2d_2">
    <path d="M 445.361366 44.443636 
L 440.659747 45.000497 
L 436.28327 45.780972 
L 427.815386 48.828003 
L 423.149665 50.953455 
L 418.866823 53.252377 
L 412.327116 57.454532 
L 409.753125 59.560947 
L 405.436701 63.690925 
L 398.602971 69.911538 
L 396.559012 71.920717 
L 394.32565 73.882986 
L 389.772798 79.073283 
L 383.834467 86.898956 
L 381.58075 89.729955 
L 379.363524 92.827015 
L 376.916901 96.046934 
L 374.306359 99.296552 
L 368.703687 106.804268 
L 365.999162 110.47216 
L 364.051664 113.774769 
L 362.346967 116.95803 
L 360.645585 119.895114 
L 358.885017 122.612628 
L 353.769848 132.820013 
L 350.712902 138.704985 
L 349.403934 141.527371 
L 346.547886 148.63404 
L 344.862382 152.522704 
L 340.813628 160.738561 
L 339.955769 163.437047 
L 339.28477 166.237185 
L 338.336766 169.147108 
L 337.208483 171.803767 
L 336.266741 174.311945 
L 335.042601 179.41492 
L 334.122467 184.237386 
L 333.172321 193.623856 
L 333.116626 195.627747 
L 333.307773 197.929093 
L 333.639545 200.20837 
L 334.392815 202.386723 
L 335.323995 204.561932 
L 336.719158 208.693107 
L 337.527213 210.087423 
L 340.33764 212.920549 
L 344.643762 216.649023 
L 348.234433 220.151523 
L 351.770115 222.925529 
L 355.782357 225.76414 
L 362.073042 230.387928 
L 364.080375 231.907237 
L 366.591503 233.466056 
L 371.544273 236.019447 
L 376.332549 237.854219 
L 382.904255 240.066927 
L 390.279805 241.852363 
L 392.907778 242.116364 
L 401.199761 242.017128 
L 403.758171 241.707725 
L 408.917562 240.835406 
L 413.713974 240.025817 
L 418.120535 239.115943 
L 422.879177 238.395923 
L 425.355043 237.83074 
L 427.760532 237.087404 
L 431.991289 235.31636 
L 437.018027 232.693281 
L 442.182137 229.77078 
L 447.255306 227.235089 
L 453.274538 224.330061 
L 458.225132 221.26865 
L 463.959952 217.213683 
L 467.301406 215.111451 
L 469.838955 213.199391 
L 472.036969 211.39221 
L 474.193011 209.468825 
L 478.711694 205.232714 
L 480.46191 203.142499 
L 482.221388 200.806886 
L 483.975215 198.901884 
L 487.262604 194.51793 
L 490.101676 189.576962 
L 491.364685 186.905095 
L 493.186012 181.559391 
L 494.225283 179.006392 
L 495.046088 176.611623 
L 497.063021 168.571077 
L 498.966926 163.096147 
L 499.6078 160.149657 
L 500.292309 154.507114 
L 500.774283 145.735205 
L 500.680536 142.725004 
L 499.913254 132.913773 
L 499.781682 129.723654 
L 499.671083 122.84145 
L 499.556573 118.834664 
L 499.334012 115.830632 
L 499.020216 113.517528 
L 497.949583 107.863125 
L 497.168807 105.044709 
L 496.274711 102.315511 
L 492.93751 94.314817 
L 490.137768 89.172981 
L 479.192709 71.5865 
L 477.317954 69.066672 
L 475.164591 66.583349 
L 467.635246 58.455433 
L 462.012497 53.370629 
L 460.028491 51.932612 
L 455.645299 49.312361 
L 453.0977 48.098419 
L 447.643594 45.91562 
L 444.925639 45.172592 
L 442.197083 44.660048 
L 442.197083 44.660048 
" clip-path="url(#p5192217f61)" style="fill: none; stroke: #ff7f0e; stroke-width: 1.5; stroke-linecap: square"/>
   </g>
   <g id="text_2">
    <!-- Mean dunn -->
    <g transform="translate(361.159517 28.56)scale(0.2 -0.2)">
     <defs>
      <path id="DejaVuSans-75" d="M 544 1381 
L 544 3500 
L 1119 3500 
L 1119 1403 
Q 1119 906 1312 657 
Q 1506 409 1894 409 
Q 2359 409 2629 706 
Q 2900 1003 2900 1516 
L 2900 3500 
L 3475 3500 
L 3475 0 
L 2900 0 
L 2900 538 
Q 2691 219 2414 64 
Q 2138 -91 1772 -91 
Q 1169 -91 856 284 
Q 544 659 544 1381 
z
M 1991 3584 
L 1991 3584 
z
" transform="scale(0.015625)"/>
     </defs>
     <use xlink:href="#DejaVuSans-4d"/>
     <use xlink:href="#DejaVuSans-65" x="86.279297"/>
     <use xlink:href="#DejaVuSans-61" x="147.802734"/>
     <use xlink:href="#DejaVuSans-6e" x="209.082031"/>
     <use xlink:href="#DejaVuSans-20" x="272.460938"/>
     <use xlink:href="#DejaVuSans-64" x="304.248047"/>
     <use xlink:href="#DejaVuSans-75" x="367.724609"/>
     <use xlink:href="#DejaVuSans-6e" x="431.103516"/>
     <use xlink:href="#DejaVuSans-6e" x="494.482422"/>
    </g>
   </g>
  </g>
 </g>
 <defs>
  <clipPath id="p9a2b0fc90f">
   <rect x="72" y="34.56" width="202.909091" height="217.44"/>
  </clipPath>
  <clipPath id="p5192217f61">
   <rect x="315.490909" y="34.56" width="202.909091" height="217.44"/>
  </clipPath>
 </defs>
</svg>
