<?xml version="1.0" encoding="utf-8" standalone="no"?>
<!DOCTYPE svg PUBLIC "-//W3C//DTD SVG 1.1//EN"
  "http://www.w3.org/Graphics/SVG/1.1/DTD/svg11.dtd">
<svg xmlns:xlink="http://www.w3.org/1999/xlink" width="576pt" height="288pt" viewBox="0 0 576 288" xmlns="http://www.w3.org/2000/svg" version="1.1">
 <metadata>
  <rdf:RDF xmlns:dc="http://purl.org/dc/elements/1.1/" xmlns:cc="http://creativecommons.org/ns#" xmlns:rdf="http://www.w3.org/1999/02/22-rdf-syntax-ns#">
   <cc:Work>
    <dc:type rdf:resource="http://purl.org/dc/dcmitype/StillImage"/>
    <dc:date>2022-12-26T16:44:00.956112</dc:date>
    <dc:format>image/svg+xml</dc:format>
    <dc:creator>
     <cc:Agent>
      <dc:title>Matplotlib v3.5.1, https://matplotlib.org/</dc:title>
     </cc:Agent>
    </dc:creator>
   </cc:Work>
  </rdf:RDF>
 </metadata>
 <defs>
  <style type="text/css">*{stroke-linejoin: round; stroke-linecap: butt}</style>
 </defs>
 <g id="figure_1">
  <g id="patch_1">
   <path d="M 0 288 
L 576 288 
L 576 0 
L 0 0 
L 0 288 
z
" style="fill: none"/>
  </g>
  <g id="axes_1">
   <g id="patch_2">
    <path d="M 41.711875 260.521875 
L 565.2 260.521875 
L 565.2 57.594062 
L 41.711875 57.594062 
z
" style="fill: #ffffff"/>
   </g>
   <g id="patch_3">
    <path d="M 41.711875 260.521875 
L 60.077501 260.521875 
L 60.077501 180.455119 
L 41.711875 180.455119 
z
" clip-path="url(#p79e7eb2d61)" style="fill: #2ca02c; opacity: 0.4"/>
   </g>
   <g id="patch_4">
    <path d="M 60.077501 260.521875 
L 78.443127 260.521875 
L 78.443127 67.257292 
L 60.077501 67.257292 
z
" clip-path="url(#p79e7eb2d61)" style="fill: #2ca02c; opacity: 0.4"/>
   </g>
   <g id="patch_5">
    <path d="M 78.443127 260.521875 
L 96.808753 260.521875 
L 96.808753 158.367738 
L 78.443127 158.367738 
z
" clip-path="url(#p79e7eb2d61)" style="fill: #2ca02c; opacity: 0.4"/>
   </g>
   <g id="patch_6">
    <path d="M 96.808753 260.521875 
L 115.174379 260.521875 
L 115.174379 208.064345 
L 96.808753 208.064345 
z
" clip-path="url(#p79e7eb2d61)" style="fill: #2ca02c; opacity: 0.4"/>
   </g>
   <g id="patch_7">
    <path d="M 115.174379 260.521875 
L 133.540005 260.521875 
L 133.540005 210.825268 
L 115.174379 210.825268 
z
" clip-path="url(#p79e7eb2d61)" style="fill: #2ca02c; opacity: 0.4"/>
   </g>
   <g id="patch_8">
    <path d="M 133.540005 260.521875 
L 151.905631 260.521875 
L 151.905631 210.825268 
L 133.540005 210.825268 
z
" clip-path="url(#p79e7eb2d61)" style="fill: #2ca02c; opacity: 0.4"/>
   </g>
   <g id="patch_9">
    <path d="M 151.905631 260.521875 
L 170.271257 260.521875 
L 170.271257 219.108036 
L 151.905631 219.108036 
z
" clip-path="url(#p79e7eb2d61)" style="fill: #2ca02c; opacity: 0.4"/>
   </g>
   <g id="patch_10">
    <path d="M 170.271257 260.521875 
L 188.636883 260.521875 
L 188.636883 210.825268 
L 170.271257 210.825268 
z
" clip-path="url(#p79e7eb2d61)" style="fill: #2ca02c; opacity: 0.4"/>
   </g>
   <g id="patch_11">
    <path d="M 188.636883 260.521875 
L 207.002509 260.521875 
L 207.002509 213.58619 
L 188.636883 213.58619 
z
" clip-path="url(#p79e7eb2d61)" style="fill: #2ca02c; opacity: 0.4"/>
   </g>
   <g id="patch_12">
    <path d="M 207.002509 260.521875 
L 225.368135 260.521875 
L 225.368135 202.5425 
L 207.002509 202.5425 
z
" clip-path="url(#p79e7eb2d61)" style="fill: #2ca02c; opacity: 0.4"/>
   </g>
   <g id="patch_13">
    <path d="M 225.368135 260.521875 
L 243.733761 260.521875 
L 243.733761 230.151726 
L 225.368135 230.151726 
z
" clip-path="url(#p79e7eb2d61)" style="fill: #2ca02c; opacity: 0.4"/>
   </g>
   <g id="patch_14">
    <path d="M 243.733761 260.521875 
L 262.099387 260.521875 
L 262.099387 241.195417 
L 243.733761 241.195417 
z
" clip-path="url(#p79e7eb2d61)" style="fill: #2ca02c; opacity: 0.4"/>
   </g>
   <g id="patch_15">
    <path d="M 262.099387 260.521875 
L 280.465013 260.521875 
L 280.465013 230.151726 
L 262.099387 230.151726 
z
" clip-path="url(#p79e7eb2d61)" style="fill: #2ca02c; opacity: 0.4"/>
   </g>
   <g id="patch_16">
    <path d="M 280.465013 260.521875 
L 298.830639 260.521875 
L 298.830639 235.673571 
L 280.465013 235.673571 
z
" clip-path="url(#p79e7eb2d61)" style="fill: #2ca02c; opacity: 0.4"/>
   </g>
   <g id="patch_17">
    <path d="M 298.830639 260.521875 
L 317.196265 260.521875 
L 317.196265 241.195417 
L 298.830639 241.195417 
z
" clip-path="url(#p79e7eb2d61)" style="fill: #2ca02c; opacity: 0.4"/>
   </g>
   <g id="patch_18">
    <path d="M 317.196265 260.521875 
L 335.561891 260.521875 
L 335.561891 255.00003 
L 317.196265 255.00003 
z
" clip-path="url(#p79e7eb2d61)" style="fill: #2ca02c; opacity: 0.4"/>
   </g>
   <g id="patch_19">
    <path d="M 335.561891 260.521875 
L 353.927517 260.521875 
L 353.927517 252.239107 
L 335.561891 252.239107 
z
" clip-path="url(#p79e7eb2d61)" style="fill: #2ca02c; opacity: 0.4"/>
   </g>
   <g id="patch_20">
    <path d="M 353.927517 260.521875 
L 372.293143 260.521875 
L 372.293143 252.239107 
L 353.927517 252.239107 
z
" clip-path="url(#p79e7eb2d61)" style="fill: #2ca02c; opacity: 0.4"/>
   </g>
   <g id="patch_21">
    <path d="M 372.293143 260.521875 
L 390.658769 260.521875 
L 390.658769 255.00003 
L 372.293143 255.00003 
z
" clip-path="url(#p79e7eb2d61)" style="fill: #2ca02c; opacity: 0.4"/>
   </g>
   <g id="patch_22">
    <path d="M 390.658769 260.521875 
L 409.024395 260.521875 
L 409.024395 257.760952 
L 390.658769 257.760952 
z
" clip-path="url(#p79e7eb2d61)" style="fill: #2ca02c; opacity: 0.4"/>
   </g>
   <g id="patch_23">
    <path d="M 104.816812 260.521875 
L 127.835971 260.521875 
L 127.835971 240.508074 
L 104.816812 240.508074 
z
" clip-path="url(#p79e7eb2d61)" style="fill: #d62728; opacity: 0.4"/>
   </g>
   <g id="patch_24">
    <path d="M 127.835971 260.521875 
L 150.855131 260.521875 
L 150.855131 228.499793 
L 127.835971 228.499793 
z
" clip-path="url(#p79e7eb2d61)" style="fill: #d62728; opacity: 0.4"/>
   </g>
   <g id="patch_25">
    <path d="M 150.855131 260.521875 
L 173.87429 260.521875 
L 173.87429 232.502553 
L 150.855131 232.502553 
z
" clip-path="url(#p79e7eb2d61)" style="fill: #d62728; opacity: 0.4"/>
   </g>
   <g id="patch_26">
    <path d="M 173.87429 260.521875 
L 196.89345 260.521875 
L 196.89345 228.499793 
L 173.87429 228.499793 
z
" clip-path="url(#p79e7eb2d61)" style="fill: #d62728; opacity: 0.4"/>
   </g>
   <g id="patch_27">
    <path d="M 196.89345 260.521875 
L 219.912609 260.521875 
L 219.912609 224.497032 
L 196.89345 224.497032 
z
" clip-path="url(#p79e7eb2d61)" style="fill: #d62728; opacity: 0.4"/>
   </g>
   <g id="patch_28">
    <path d="M 219.912609 260.521875 
L 242.931768 260.521875 
L 242.931768 224.497032 
L 219.912609 224.497032 
z
" clip-path="url(#p79e7eb2d61)" style="fill: #d62728; opacity: 0.4"/>
   </g>
   <g id="patch_29">
    <path d="M 242.931768 260.521875 
L 265.950928 260.521875 
L 265.950928 236.505313 
L 242.931768 236.505313 
z
" clip-path="url(#p79e7eb2d61)" style="fill: #d62728; opacity: 0.4"/>
   </g>
   <g id="patch_30">
    <path d="M 265.950928 260.521875 
L 288.970087 260.521875 
L 288.970087 232.502553 
L 265.950928 232.502553 
z
" clip-path="url(#p79e7eb2d61)" style="fill: #d62728; opacity: 0.4"/>
   </g>
   <g id="patch_31">
    <path d="M 288.970087 260.521875 
L 311.989247 260.521875 
L 311.989247 200.480471 
L 288.970087 200.480471 
z
" clip-path="url(#p79e7eb2d61)" style="fill: #d62728; opacity: 0.4"/>
   </g>
   <g id="patch_32">
    <path d="M 311.989247 260.521875 
L 335.008406 260.521875 
L 335.008406 208.485991 
L 311.989247 208.485991 
z
" clip-path="url(#p79e7eb2d61)" style="fill: #d62728; opacity: 0.4"/>
   </g>
   <g id="patch_33">
    <path d="M 335.008406 260.521875 
L 358.027565 260.521875 
L 358.027565 224.497032 
L 335.008406 224.497032 
z
" clip-path="url(#p79e7eb2d61)" style="fill: #d62728; opacity: 0.4"/>
   </g>
   <g id="patch_34">
    <path d="M 358.027565 260.521875 
L 381.046725 260.521875 
L 381.046725 212.488752 
L 358.027565 212.488752 
z
" clip-path="url(#p79e7eb2d61)" style="fill: #d62728; opacity: 0.4"/>
   </g>
   <g id="patch_35">
    <path d="M 381.046725 260.521875 
L 404.065884 260.521875 
L 404.065884 216.491512 
L 381.046725 216.491512 
z
" clip-path="url(#p79e7eb2d61)" style="fill: #d62728; opacity: 0.4"/>
   </g>
   <g id="patch_36">
    <path d="M 404.065884 260.521875 
L 427.085044 260.521875 
L 427.085044 204.483231 
L 404.065884 204.483231 
z
" clip-path="url(#p79e7eb2d61)" style="fill: #d62728; opacity: 0.4"/>
   </g>
   <g id="patch_37">
    <path d="M 427.085044 260.521875 
L 450.104203 260.521875 
L 450.104203 224.497032 
L 427.085044 224.497032 
z
" clip-path="url(#p79e7eb2d61)" style="fill: #d62728; opacity: 0.4"/>
   </g>
   <g id="patch_38">
    <path d="M 450.104203 260.521875 
L 473.123362 260.521875 
L 473.123362 228.499793 
L 450.104203 228.499793 
z
" clip-path="url(#p79e7eb2d61)" style="fill: #d62728; opacity: 0.4"/>
   </g>
   <g id="patch_39">
    <path d="M 473.123362 260.521875 
L 496.142522 260.521875 
L 496.142522 212.488752 
L 473.123362 212.488752 
z
" clip-path="url(#p79e7eb2d61)" style="fill: #d62728; opacity: 0.4"/>
   </g>
   <g id="patch_40">
    <path d="M 496.142522 260.521875 
L 519.161681 260.521875 
L 519.161681 244.510834 
L 496.142522 244.510834 
z
" clip-path="url(#p79e7eb2d61)" style="fill: #d62728; opacity: 0.4"/>
   </g>
   <g id="patch_41">
    <path d="M 519.161681 260.521875 
L 542.180841 260.521875 
L 542.180841 236.505313 
L 519.161681 236.505313 
z
" clip-path="url(#p79e7eb2d61)" style="fill: #d62728; opacity: 0.4"/>
   </g>
   <g id="patch_42">
    <path d="M 542.180841 260.521875 
L 565.2 260.521875 
L 565.2 248.513594 
L 542.180841 248.513594 
z
" clip-path="url(#p79e7eb2d61)" style="fill: #d62728; opacity: 0.4"/>
   </g>
   <g id="patch_43">
    <path d="M 75.773458 260.521875 
L 91.382324 260.521875 
L 91.382324 214.462914 
L 75.773458 214.462914 
z
" clip-path="url(#p79e7eb2d61)" style="fill: #9467bd; opacity: 0.4"/>
   </g>
   <g id="patch_44">
    <path d="M 91.382324 260.521875 
L 106.99119 260.521875 
L 106.99119 188.143508 
L 91.382324 188.143508 
z
" clip-path="url(#p79e7eb2d61)" style="fill: #9467bd; opacity: 0.4"/>
   </g>
   <g id="patch_45">
    <path d="M 106.99119 260.521875 
L 122.600056 260.521875 
L 122.600056 181.563657 
L 106.99119 181.563657 
z
" clip-path="url(#p79e7eb2d61)" style="fill: #9467bd; opacity: 0.4"/>
   </g>
   <g id="patch_46">
    <path d="M 122.600056 260.521875 
L 138.208921 260.521875 
L 138.208921 188.143508 
L 122.600056 188.143508 
z
" clip-path="url(#p79e7eb2d61)" style="fill: #9467bd; opacity: 0.4"/>
   </g>
   <g id="patch_47">
    <path d="M 138.208921 260.521875 
L 153.817787 260.521875 
L 153.817787 214.462914 
L 138.208921 214.462914 
z
" clip-path="url(#p79e7eb2d61)" style="fill: #9467bd; opacity: 0.4"/>
   </g>
   <g id="patch_48">
    <path d="M 153.817787 260.521875 
L 169.426653 260.521875 
L 169.426653 214.462914 
L 153.817787 214.462914 
z
" clip-path="url(#p79e7eb2d61)" style="fill: #9467bd; opacity: 0.4"/>
   </g>
   <g id="patch_49">
    <path d="M 169.426653 260.521875 
L 185.035518 260.521875 
L 185.035518 227.622617 
L 169.426653 227.622617 
z
" clip-path="url(#p79e7eb2d61)" style="fill: #9467bd; opacity: 0.4"/>
   </g>
   <g id="patch_50">
    <path d="M 185.035518 260.521875 
L 200.644384 260.521875 
L 200.644384 214.462914 
L 185.035518 214.462914 
z
" clip-path="url(#p79e7eb2d61)" style="fill: #9467bd; opacity: 0.4"/>
   </g>
   <g id="patch_51">
    <path d="M 200.644384 260.521875 
L 216.25325 260.521875 
L 216.25325 214.462914 
L 200.644384 214.462914 
z
" clip-path="url(#p79e7eb2d61)" style="fill: #9467bd; opacity: 0.4"/>
   </g>
   <g id="patch_52">
    <path d="M 216.25325 260.521875 
L 231.862116 260.521875 
L 231.862116 214.462914 
L 216.25325 214.462914 
z
" clip-path="url(#p79e7eb2d61)" style="fill: #9467bd; opacity: 0.4"/>
   </g>
   <g id="patch_53">
    <path d="M 231.862116 260.521875 
L 247.470981 260.521875 
L 247.470981 201.303211 
L 231.862116 201.303211 
z
" clip-path="url(#p79e7eb2d61)" style="fill: #9467bd; opacity: 0.4"/>
   </g>
   <g id="patch_54">
    <path d="M 247.470981 260.521875 
L 263.079847 260.521875 
L 263.079847 201.303211 
L 247.470981 201.303211 
z
" clip-path="url(#p79e7eb2d61)" style="fill: #9467bd; opacity: 0.4"/>
   </g>
   <g id="patch_55">
    <path d="M 263.079847 260.521875 
L 278.688713 260.521875 
L 278.688713 221.042766 
L 263.079847 221.042766 
z
" clip-path="url(#p79e7eb2d61)" style="fill: #9467bd; opacity: 0.4"/>
   </g>
   <g id="patch_56">
    <path d="M 278.688713 260.521875 
L 294.297578 260.521875 
L 294.297578 155.24425 
L 278.688713 155.24425 
z
" clip-path="url(#p79e7eb2d61)" style="fill: #9467bd; opacity: 0.4"/>
   </g>
   <g id="patch_57">
    <path d="M 294.297578 260.521875 
L 309.906444 260.521875 
L 309.906444 188.143508 
L 294.297578 188.143508 
z
" clip-path="url(#p79e7eb2d61)" style="fill: #9467bd; opacity: 0.4"/>
   </g>
   <g id="patch_58">
    <path d="M 309.906444 260.521875 
L 325.51531 260.521875 
L 325.51531 181.563657 
L 309.906444 181.563657 
z
" clip-path="url(#p79e7eb2d61)" style="fill: #9467bd; opacity: 0.4"/>
   </g>
   <g id="patch_59">
    <path d="M 325.51531 260.521875 
L 341.124176 260.521875 
L 341.124176 234.202469 
L 325.51531 234.202469 
z
" clip-path="url(#p79e7eb2d61)" style="fill: #9467bd; opacity: 0.4"/>
   </g>
   <g id="patch_60">
    <path d="M 341.124176 260.521875 
L 356.733041 260.521875 
L 356.733041 240.78232 
L 341.124176 240.78232 
z
" clip-path="url(#p79e7eb2d61)" style="fill: #9467bd; opacity: 0.4"/>
   </g>
   <g id="patch_61">
    <path d="M 356.733041 260.521875 
L 372.341907 260.521875 
L 372.341907 240.78232 
L 356.733041 240.78232 
z
" clip-path="url(#p79e7eb2d61)" style="fill: #9467bd; opacity: 0.4"/>
   </g>
   <g id="patch_62">
    <path d="M 372.341907 260.521875 
L 387.950773 260.521875 
L 387.950773 240.78232 
L 372.341907 240.78232 
z
" clip-path="url(#p79e7eb2d61)" style="fill: #9467bd; opacity: 0.4"/>
   </g>
   <g id="matplotlib.axis_1">
    <g id="xtick_1">
     <g id="line2d_1">
      <defs>
       <path id="m8d1828e9bd" d="M 0 0 
L 0 3.5 
" style="stroke: #000000; stroke-width: 0.8"/>
      </defs>
      <g>
       <use xlink:href="#m8d1828e9bd" x="82.084314" y="260.521875" style="stroke: #000000; stroke-width: 0.8"/>
      </g>
     </g>
     <g id="text_1">
      <!-- 0.4 -->
      <g transform="translate(74.132752 275.120313)scale(0.1 -0.1)">
       <defs>
        <path id="DejaVuSans-30" d="M 2034 4250 
Q 1547 4250 1301 3770 
Q 1056 3291 1056 2328 
Q 1056 1369 1301 889 
Q 1547 409 2034 409 
Q 2525 409 2770 889 
Q 3016 1369 3016 2328 
Q 3016 3291 2770 3770 
Q 2525 4250 2034 4250 
z
M 2034 4750 
Q 2819 4750 3233 4129 
Q 3647 3509 3647 2328 
Q 3647 1150 3233 529 
Q 2819 -91 2034 -91 
Q 1250 -91 836 529 
Q 422 1150 422 2328 
Q 422 3509 836 4129 
Q 1250 4750 2034 4750 
z
" transform="scale(0.015625)"/>
        <path id="DejaVuSans-2e" d="M 684 794 
L 1344 794 
L 1344 0 
L 684 0 
L 684 794 
z
" transform="scale(0.015625)"/>
        <path id="DejaVuSans-34" d="M 2419 4116 
L 825 1625 
L 2419 1625 
L 2419 4116 
z
M 2253 4666 
L 3047 4666 
L 3047 1625 
L 3713 1625 
L 3713 1100 
L 3047 1100 
L 3047 0 
L 2419 0 
L 2419 1100 
L 313 1100 
L 313 1709 
L 2253 4666 
z
" transform="scale(0.015625)"/>
       </defs>
       <use xlink:href="#DejaVuSans-30"/>
       <use xlink:href="#DejaVuSans-2e" x="63.623047"/>
       <use xlink:href="#DejaVuSans-34" x="95.410156"/>
      </g>
     </g>
    </g>
    <g id="xtick_2">
     <g id="line2d_2">
      <g>
       <use xlink:href="#m8d1828e9bd" x="193.732775" y="260.521875" style="stroke: #000000; stroke-width: 0.8"/>
      </g>
     </g>
     <g id="text_2">
      <!-- 0.6 -->
      <g transform="translate(185.781213 275.120313)scale(0.1 -0.1)">
       <defs>
        <path id="DejaVuSans-36" d="M 2113 2584 
Q 1688 2584 1439 2293 
Q 1191 2003 1191 1497 
Q 1191 994 1439 701 
Q 1688 409 2113 409 
Q 2538 409 2786 701 
Q 3034 994 3034 1497 
Q 3034 2003 2786 2293 
Q 2538 2584 2113 2584 
z
M 3366 4563 
L 3366 3988 
Q 3128 4100 2886 4159 
Q 2644 4219 2406 4219 
Q 1781 4219 1451 3797 
Q 1122 3375 1075 2522 
Q 1259 2794 1537 2939 
Q 1816 3084 2150 3084 
Q 2853 3084 3261 2657 
Q 3669 2231 3669 1497 
Q 3669 778 3244 343 
Q 2819 -91 2113 -91 
Q 1303 -91 875 529 
Q 447 1150 447 2328 
Q 447 3434 972 4092 
Q 1497 4750 2381 4750 
Q 2619 4750 2861 4703 
Q 3103 4656 3366 4563 
z
" transform="scale(0.015625)"/>
       </defs>
       <use xlink:href="#DejaVuSans-30"/>
       <use xlink:href="#DejaVuSans-2e" x="63.623047"/>
       <use xlink:href="#DejaVuSans-36" x="95.410156"/>
      </g>
     </g>
    </g>
    <g id="xtick_3">
     <g id="line2d_3">
      <g>
       <use xlink:href="#m8d1828e9bd" x="305.381236" y="260.521875" style="stroke: #000000; stroke-width: 0.8"/>
      </g>
     </g>
     <g id="text_3">
      <!-- 0.8 -->
      <g transform="translate(297.429674 275.120313)scale(0.1 -0.1)">
       <defs>
        <path id="DejaVuSans-38" d="M 2034 2216 
Q 1584 2216 1326 1975 
Q 1069 1734 1069 1313 
Q 1069 891 1326 650 
Q 1584 409 2034 409 
Q 2484 409 2743 651 
Q 3003 894 3003 1313 
Q 3003 1734 2745 1975 
Q 2488 2216 2034 2216 
z
M 1403 2484 
Q 997 2584 770 2862 
Q 544 3141 544 3541 
Q 544 4100 942 4425 
Q 1341 4750 2034 4750 
Q 2731 4750 3128 4425 
Q 3525 4100 3525 3541 
Q 3525 3141 3298 2862 
Q 3072 2584 2669 2484 
Q 3125 2378 3379 2068 
Q 3634 1759 3634 1313 
Q 3634 634 3220 271 
Q 2806 -91 2034 -91 
Q 1263 -91 848 271 
Q 434 634 434 1313 
Q 434 1759 690 2068 
Q 947 2378 1403 2484 
z
M 1172 3481 
Q 1172 3119 1398 2916 
Q 1625 2713 2034 2713 
Q 2441 2713 2670 2916 
Q 2900 3119 2900 3481 
Q 2900 3844 2670 4047 
Q 2441 4250 2034 4250 
Q 1625 4250 1398 4047 
Q 1172 3844 1172 3481 
z
" transform="scale(0.015625)"/>
       </defs>
       <use xlink:href="#DejaVuSans-30"/>
       <use xlink:href="#DejaVuSans-2e" x="63.623047"/>
       <use xlink:href="#DejaVuSans-38" x="95.410156"/>
      </g>
     </g>
    </g>
    <g id="xtick_4">
     <g id="line2d_4">
      <g>
       <use xlink:href="#m8d1828e9bd" x="417.029697" y="260.521875" style="stroke: #000000; stroke-width: 0.8"/>
      </g>
     </g>
     <g id="text_4">
      <!-- 1.0 -->
      <g transform="translate(409.078134 275.120313)scale(0.1 -0.1)">
       <defs>
        <path id="DejaVuSans-31" d="M 794 531 
L 1825 531 
L 1825 4091 
L 703 3866 
L 703 4441 
L 1819 4666 
L 2450 4666 
L 2450 531 
L 3481 531 
L 3481 0 
L 794 0 
L 794 531 
z
" transform="scale(0.015625)"/>
       </defs>
       <use xlink:href="#DejaVuSans-31"/>
       <use xlink:href="#DejaVuSans-2e" x="63.623047"/>
       <use xlink:href="#DejaVuSans-30" x="95.410156"/>
      </g>
     </g>
    </g>
    <g id="xtick_5">
     <g id="line2d_5">
      <g>
       <use xlink:href="#m8d1828e9bd" x="528.678158" y="260.521875" style="stroke: #000000; stroke-width: 0.8"/>
      </g>
     </g>
     <g id="text_5">
      <!-- 1.2 -->
      <g transform="translate(520.726595 275.120313)scale(0.1 -0.1)">
       <defs>
        <path id="DejaVuSans-32" d="M 1228 531 
L 3431 531 
L 3431 0 
L 469 0 
L 469 531 
Q 828 903 1448 1529 
Q 2069 2156 2228 2338 
Q 2531 2678 2651 2914 
Q 2772 3150 2772 3378 
Q 2772 3750 2511 3984 
Q 2250 4219 1831 4219 
Q 1534 4219 1204 4116 
Q 875 4013 500 3803 
L 500 4441 
Q 881 4594 1212 4672 
Q 1544 4750 1819 4750 
Q 2544 4750 2975 4387 
Q 3406 4025 3406 3419 
Q 3406 3131 3298 2873 
Q 3191 2616 2906 2266 
Q 2828 2175 2409 1742 
Q 1991 1309 1228 531 
z
" transform="scale(0.015625)"/>
       </defs>
       <use xlink:href="#DejaVuSans-31"/>
       <use xlink:href="#DejaVuSans-2e" x="63.623047"/>
       <use xlink:href="#DejaVuSans-32" x="95.410156"/>
      </g>
     </g>
    </g>
   </g>
   <g id="matplotlib.axis_2">
    <g id="ytick_1">
     <g id="line2d_6">
      <defs>
       <path id="me09415e748" d="M 0 0 
L -3.5 0 
" style="stroke: #000000; stroke-width: 0.8"/>
      </defs>
      <g>
       <use xlink:href="#me09415e748" x="41.711875" y="260.521875" style="stroke: #000000; stroke-width: 0.8"/>
      </g>
     </g>
     <g id="text_6">
      <!-- 0 -->
      <g transform="translate(28.349375 264.321094)scale(0.1 -0.1)">
       <use xlink:href="#DejaVuSans-30"/>
      </g>
     </g>
    </g>
    <g id="ytick_2">
     <g id="line2d_7">
      <g>
       <use xlink:href="#me09415e748" x="41.711875" y="231.637409" style="stroke: #000000; stroke-width: 0.8"/>
      </g>
     </g>
     <g id="text_7">
      <!-- 1 -->
      <g transform="translate(28.349375 235.436628)scale(0.1 -0.1)">
       <use xlink:href="#DejaVuSans-31"/>
      </g>
     </g>
    </g>
    <g id="ytick_3">
     <g id="line2d_8">
      <g>
       <use xlink:href="#me09415e748" x="41.711875" y="202.752943" style="stroke: #000000; stroke-width: 0.8"/>
      </g>
     </g>
     <g id="text_8">
      <!-- 2 -->
      <g transform="translate(28.349375 206.552161)scale(0.1 -0.1)">
       <use xlink:href="#DejaVuSans-32"/>
      </g>
     </g>
    </g>
    <g id="ytick_4">
     <g id="line2d_9">
      <g>
       <use xlink:href="#me09415e748" x="41.711875" y="173.868476" style="stroke: #000000; stroke-width: 0.8"/>
      </g>
     </g>
     <g id="text_9">
      <!-- 3 -->
      <g transform="translate(28.349375 177.667695)scale(0.1 -0.1)">
       <defs>
        <path id="DejaVuSans-33" d="M 2597 2516 
Q 3050 2419 3304 2112 
Q 3559 1806 3559 1356 
Q 3559 666 3084 287 
Q 2609 -91 1734 -91 
Q 1441 -91 1130 -33 
Q 819 25 488 141 
L 488 750 
Q 750 597 1062 519 
Q 1375 441 1716 441 
Q 2309 441 2620 675 
Q 2931 909 2931 1356 
Q 2931 1769 2642 2001 
Q 2353 2234 1838 2234 
L 1294 2234 
L 1294 2753 
L 1863 2753 
Q 2328 2753 2575 2939 
Q 2822 3125 2822 3475 
Q 2822 3834 2567 4026 
Q 2313 4219 1838 4219 
Q 1578 4219 1281 4162 
Q 984 4106 628 3988 
L 628 4550 
Q 988 4650 1302 4700 
Q 1616 4750 1894 4750 
Q 2613 4750 3031 4423 
Q 3450 4097 3450 3541 
Q 3450 3153 3228 2886 
Q 3006 2619 2597 2516 
z
" transform="scale(0.015625)"/>
       </defs>
       <use xlink:href="#DejaVuSans-33"/>
      </g>
     </g>
    </g>
    <g id="ytick_5">
     <g id="line2d_10">
      <g>
       <use xlink:href="#me09415e748" x="41.711875" y="144.98401" style="stroke: #000000; stroke-width: 0.8"/>
      </g>
     </g>
     <g id="text_10">
      <!-- 4 -->
      <g transform="translate(28.349375 148.783229)scale(0.1 -0.1)">
       <use xlink:href="#DejaVuSans-34"/>
      </g>
     </g>
    </g>
    <g id="ytick_6">
     <g id="line2d_11">
      <g>
       <use xlink:href="#me09415e748" x="41.711875" y="116.099544" style="stroke: #000000; stroke-width: 0.8"/>
      </g>
     </g>
     <g id="text_11">
      <!-- 5 -->
      <g transform="translate(28.349375 119.898763)scale(0.1 -0.1)">
       <defs>
        <path id="DejaVuSans-35" d="M 691 4666 
L 3169 4666 
L 3169 4134 
L 1269 4134 
L 1269 2991 
Q 1406 3038 1543 3061 
Q 1681 3084 1819 3084 
Q 2600 3084 3056 2656 
Q 3513 2228 3513 1497 
Q 3513 744 3044 326 
Q 2575 -91 1722 -91 
Q 1428 -91 1123 -41 
Q 819 9 494 109 
L 494 744 
Q 775 591 1075 516 
Q 1375 441 1709 441 
Q 2250 441 2565 725 
Q 2881 1009 2881 1497 
Q 2881 1984 2565 2268 
Q 2250 2553 1709 2553 
Q 1456 2553 1204 2497 
Q 953 2441 691 2322 
L 691 4666 
z
" transform="scale(0.015625)"/>
       </defs>
       <use xlink:href="#DejaVuSans-35"/>
      </g>
     </g>
    </g>
    <g id="ytick_7">
     <g id="line2d_12">
      <g>
       <use xlink:href="#me09415e748" x="41.711875" y="87.215078" style="stroke: #000000; stroke-width: 0.8"/>
      </g>
     </g>
     <g id="text_12">
      <!-- 6 -->
      <g transform="translate(28.349375 91.014296)scale(0.1 -0.1)">
       <use xlink:href="#DejaVuSans-36"/>
      </g>
     </g>
    </g>
    <g id="ytick_8">
     <g id="line2d_13">
      <g>
       <use xlink:href="#me09415e748" x="41.711875" y="58.330611" style="stroke: #000000; stroke-width: 0.8"/>
      </g>
     </g>
     <g id="text_13">
      <!-- 7 -->
      <g transform="translate(28.349375 62.12983)scale(0.1 -0.1)">
       <defs>
        <path id="DejaVuSans-37" d="M 525 4666 
L 3525 4666 
L 3525 4397 
L 1831 0 
L 1172 0 
L 2766 4134 
L 525 4134 
L 525 4666 
z
" transform="scale(0.015625)"/>
       </defs>
       <use xlink:href="#DejaVuSans-37"/>
      </g>
     </g>
    </g>
    <g id="text_14">
     <!-- Fraction of cells -->
     <g transform="translate(21.437812 213.889844)rotate(-90)scale(0.14 -0.14)">
      <defs>
       <path id="DejaVuSans-46" d="M 628 4666 
L 3309 4666 
L 3309 4134 
L 1259 4134 
L 1259 2759 
L 3109 2759 
L 3109 2228 
L 1259 2228 
L 1259 0 
L 628 0 
L 628 4666 
z
" transform="scale(0.015625)"/>
       <path id="DejaVuSans-72" d="M 2631 2963 
Q 2534 3019 2420 3045 
Q 2306 3072 2169 3072 
Q 1681 3072 1420 2755 
Q 1159 2438 1159 1844 
L 1159 0 
L 581 0 
L 581 3500 
L 1159 3500 
L 1159 2956 
Q 1341 3275 1631 3429 
Q 1922 3584 2338 3584 
Q 2397 3584 2469 3576 
Q 2541 3569 2628 3553 
L 2631 2963 
z
" transform="scale(0.015625)"/>
       <path id="DejaVuSans-61" d="M 2194 1759 
Q 1497 1759 1228 1600 
Q 959 1441 959 1056 
Q 959 750 1161 570 
Q 1363 391 1709 391 
Q 2188 391 2477 730 
Q 2766 1069 2766 1631 
L 2766 1759 
L 2194 1759 
z
M 3341 1997 
L 3341 0 
L 2766 0 
L 2766 531 
Q 2569 213 2275 61 
Q 1981 -91 1556 -91 
Q 1019 -91 701 211 
Q 384 513 384 1019 
Q 384 1609 779 1909 
Q 1175 2209 1959 2209 
L 2766 2209 
L 2766 2266 
Q 2766 2663 2505 2880 
Q 2244 3097 1772 3097 
Q 1472 3097 1187 3025 
Q 903 2953 641 2809 
L 641 3341 
Q 956 3463 1253 3523 
Q 1550 3584 1831 3584 
Q 2591 3584 2966 3190 
Q 3341 2797 3341 1997 
z
" transform="scale(0.015625)"/>
       <path id="DejaVuSans-63" d="M 3122 3366 
L 3122 2828 
Q 2878 2963 2633 3030 
Q 2388 3097 2138 3097 
Q 1578 3097 1268 2742 
Q 959 2388 959 1747 
Q 959 1106 1268 751 
Q 1578 397 2138 397 
Q 2388 397 2633 464 
Q 2878 531 3122 666 
L 3122 134 
Q 2881 22 2623 -34 
Q 2366 -91 2075 -91 
Q 1284 -91 818 406 
Q 353 903 353 1747 
Q 353 2603 823 3093 
Q 1294 3584 2113 3584 
Q 2378 3584 2631 3529 
Q 2884 3475 3122 3366 
z
" transform="scale(0.015625)"/>
       <path id="DejaVuSans-74" d="M 1172 4494 
L 1172 3500 
L 2356 3500 
L 2356 3053 
L 1172 3053 
L 1172 1153 
Q 1172 725 1289 603 
Q 1406 481 1766 481 
L 2356 481 
L 2356 0 
L 1766 0 
Q 1100 0 847 248 
Q 594 497 594 1153 
L 594 3053 
L 172 3053 
L 172 3500 
L 594 3500 
L 594 4494 
L 1172 4494 
z
" transform="scale(0.015625)"/>
       <path id="DejaVuSans-69" d="M 603 3500 
L 1178 3500 
L 1178 0 
L 603 0 
L 603 3500 
z
M 603 4863 
L 1178 4863 
L 1178 4134 
L 603 4134 
L 603 4863 
z
" transform="scale(0.015625)"/>
       <path id="DejaVuSans-6f" d="M 1959 3097 
Q 1497 3097 1228 2736 
Q 959 2375 959 1747 
Q 959 1119 1226 758 
Q 1494 397 1959 397 
Q 2419 397 2687 759 
Q 2956 1122 2956 1747 
Q 2956 2369 2687 2733 
Q 2419 3097 1959 3097 
z
M 1959 3584 
Q 2709 3584 3137 3096 
Q 3566 2609 3566 1747 
Q 3566 888 3137 398 
Q 2709 -91 1959 -91 
Q 1206 -91 779 398 
Q 353 888 353 1747 
Q 353 2609 779 3096 
Q 1206 3584 1959 3584 
z
" transform="scale(0.015625)"/>
       <path id="DejaVuSans-6e" d="M 3513 2113 
L 3513 0 
L 2938 0 
L 2938 2094 
Q 2938 2591 2744 2837 
Q 2550 3084 2163 3084 
Q 1697 3084 1428 2787 
Q 1159 2491 1159 1978 
L 1159 0 
L 581 0 
L 581 3500 
L 1159 3500 
L 1159 2956 
Q 1366 3272 1645 3428 
Q 1925 3584 2291 3584 
Q 2894 3584 3203 3211 
Q 3513 2838 3513 2113 
z
" transform="scale(0.015625)"/>
       <path id="DejaVuSans-20" transform="scale(0.015625)"/>
       <path id="DejaVuSans-66" d="M 2375 4863 
L 2375 4384 
L 1825 4384 
Q 1516 4384 1395 4259 
Q 1275 4134 1275 3809 
L 1275 3500 
L 2222 3500 
L 2222 3053 
L 1275 3053 
L 1275 0 
L 697 0 
L 697 3053 
L 147 3053 
L 147 3500 
L 697 3500 
L 697 3744 
Q 697 4328 969 4595 
Q 1241 4863 1831 4863 
L 2375 4863 
z
" transform="scale(0.015625)"/>
       <path id="DejaVuSans-65" d="M 3597 1894 
L 3597 1613 
L 953 1613 
Q 991 1019 1311 708 
Q 1631 397 2203 397 
Q 2534 397 2845 478 
Q 3156 559 3463 722 
L 3463 178 
Q 3153 47 2828 -22 
Q 2503 -91 2169 -91 
Q 1331 -91 842 396 
Q 353 884 353 1716 
Q 353 2575 817 3079 
Q 1281 3584 2069 3584 
Q 2775 3584 3186 3129 
Q 3597 2675 3597 1894 
z
M 3022 2063 
Q 3016 2534 2758 2815 
Q 2500 3097 2075 3097 
Q 1594 3097 1305 2825 
Q 1016 2553 972 2059 
L 3022 2063 
z
" transform="scale(0.015625)"/>
       <path id="DejaVuSans-6c" d="M 603 4863 
L 1178 4863 
L 1178 0 
L 603 0 
L 603 4863 
z
" transform="scale(0.015625)"/>
       <path id="DejaVuSans-73" d="M 2834 3397 
L 2834 2853 
Q 2591 2978 2328 3040 
Q 2066 3103 1784 3103 
Q 1356 3103 1142 2972 
Q 928 2841 928 2578 
Q 928 2378 1081 2264 
Q 1234 2150 1697 2047 
L 1894 2003 
Q 2506 1872 2764 1633 
Q 3022 1394 3022 966 
Q 3022 478 2636 193 
Q 2250 -91 1575 -91 
Q 1294 -91 989 -36 
Q 684 19 347 128 
L 347 722 
Q 666 556 975 473 
Q 1284 391 1588 391 
Q 1994 391 2212 530 
Q 2431 669 2431 922 
Q 2431 1156 2273 1281 
Q 2116 1406 1581 1522 
L 1381 1569 
Q 847 1681 609 1914 
Q 372 2147 372 2553 
Q 372 3047 722 3315 
Q 1072 3584 1716 3584 
Q 2034 3584 2315 3537 
Q 2597 3491 2834 3397 
z
" transform="scale(0.015625)"/>
      </defs>
      <use xlink:href="#DejaVuSans-46"/>
      <use xlink:href="#DejaVuSans-72" x="50.269531"/>
      <use xlink:href="#DejaVuSans-61" x="91.382812"/>
      <use xlink:href="#DejaVuSans-63" x="152.662109"/>
      <use xlink:href="#DejaVuSans-74" x="207.642578"/>
      <use xlink:href="#DejaVuSans-69" x="246.851562"/>
      <use xlink:href="#DejaVuSans-6f" x="274.634766"/>
      <use xlink:href="#DejaVuSans-6e" x="335.816406"/>
      <use xlink:href="#DejaVuSans-20" x="399.195312"/>
      <use xlink:href="#DejaVuSans-6f" x="430.982422"/>
      <use xlink:href="#DejaVuSans-66" x="492.164062"/>
      <use xlink:href="#DejaVuSans-20" x="527.369141"/>
      <use xlink:href="#DejaVuSans-63" x="559.15625"/>
      <use xlink:href="#DejaVuSans-65" x="614.136719"/>
      <use xlink:href="#DejaVuSans-6c" x="675.660156"/>
      <use xlink:href="#DejaVuSans-6c" x="703.443359"/>
      <use xlink:href="#DejaVuSans-73" x="731.226562"/>
     </g>
    </g>
   </g>
   <g id="line2d_14">
    <path d="M -1 255.670216 
L 5.396483 253.058611 
L 16.674105 243.828958 
L 27.951727 228.457058 
L 39.22935 207.465914 
L 50.506972 184.584749 
L 61.784594 165.926079 
L 73.062217 156.950052 
L 84.339839 159.235773 
L 95.617461 169.723395 
L 106.895084 183.016418 
L 118.172706 194.65643 
L 129.450328 202.830204 
L 140.72795 207.863793 
L 152.005573 210.783866 
L 163.283195 212.405792 
L 174.560817 213.277296 
L 185.83844 213.926011 
L 197.116062 214.931872 
L 208.393684 216.789899 
L 219.671307 219.705571 
L 230.948929 223.450084 
L 242.226551 227.417339 
L 253.504174 230.947363 
L 264.781796 233.736974 
L 276.059418 236.007562 
L 287.33704 238.274639 
L 298.614663 240.915199 
L 309.892285 243.894895 
L 321.169907 246.84539 
L 332.44753 249.372254 
L 343.725152 251.318558 
L 355.002774 252.803708 
L 366.280397 254.067508 
L 377.558019 255.283193 
L 388.835641 256.478651 
L 400.113263 257.583532 
L 411.390886 258.51996 
L 422.668508 259.252405 
L 433.94613 259.783723 
L 445.223753 260.136472 
L 456.501375 260.345049 
L 467.778997 260.451857 
L 479.05662 260.498259 
L 490.334242 260.51515 
L 501.611864 260.520267 
L 512.889487 260.521553 
L 524.167109 260.521821 
L 535.444731 260.521868 
L 546.722353 260.521874 
L 557.999976 260.521875 
L 569.277598 260.521875 
L 577 260.521875 
" clip-path="url(#p79e7eb2d61)" style="fill: none; stroke: #2ca02c; stroke-width: 1.5; stroke-linecap: square"/>
   </g>
   <g id="line2d_15">
    <path d="M -1 260.375797 
L 5.396483 260.311573 
L 16.674105 260.094871 
L 27.951727 259.708517 
L 39.22935 259.066739 
L 50.506972 258.07337 
L 61.784594 256.640411 
L 73.062217 254.7135 
L 84.339839 252.297136 
L 95.617461 249.469595 
L 106.895084 246.378937 
L 118.172706 243.217934 
L 129.450328 240.184581 
L 140.72795 237.441586 
L 152.005573 235.088919 
L 163.283195 233.157418 
L 174.560817 231.621761 
L 185.83844 230.42273 
L 197.116062 229.48602 
L 208.393684 228.729144 
L 219.671307 228.057215 
L 230.948929 227.357541 
L 242.226551 226.506263 
L 253.504174 225.394335 
L 264.781796 223.966956 
L 276.059418 222.257846 
L 287.33704 220.396568 
L 298.614663 218.577771 
L 309.892285 217.001042 
L 321.169907 215.807144 
L 332.44753 215.03993 
L 343.725152 214.650478 
L 355.002774 214.538472 
L 366.280397 214.608175 
L 377.558019 214.811591 
L 388.835641 215.160893 
L 400.113263 215.709498 
L 411.390886 216.516877 
L 422.668508 217.618543 
L 433.94613 219.016959 
L 445.223753 220.694852 
L 456.501375 222.638192 
L 467.778997 224.850766 
L 479.05662 227.349215 
L 490.334242 230.141625 
L 501.611864 233.203932 
L 512.889487 236.468896 
L 524.167109 239.833003 
L 535.444731 243.175358 
L 546.722353 246.377639 
L 557.999976 249.337508 
L 569.277598 251.974784 
L 577 253.521882 
" clip-path="url(#p79e7eb2d61)" style="fill: none; stroke: #d62728; stroke-width: 1.5; stroke-linecap: square"/>
   </g>
   <g id="line2d_16">
    <path d="M -1 260.114866 
L 5.396483 259.883026 
L 16.674105 258.941054 
L 27.951727 257.025836 
L 39.22935 253.589716 
L 50.506972 248.152997 
L 61.784594 240.581344 
L 73.062217 231.340905 
L 84.339839 221.552912 
L 95.617461 212.740492 
L 106.895084 206.337526 
L 118.172706 203.186325 
L 129.450328 203.263002 
L 140.72795 205.736002 
L 152.005573 209.298483 
L 163.283195 212.620835 
L 174.560817 214.753269 
L 185.83844 215.336652 
L 197.116062 214.55143 
L 208.393684 212.852383 
L 219.671307 210.647219 
L 230.948929 208.101209 
L 242.226551 205.170173 
L 253.504174 201.833066 
L 264.781796 198.3782 
L 276.059418 195.544596 
L 287.33704 194.376276 
L 298.614663 195.815264 
L 309.892285 200.246822 
L 321.169907 207.271599 
L 332.44753 215.84799 
L 343.725152 224.715514 
L 355.002774 232.849345 
L 366.280397 239.712765 
L 377.558019 245.232465 
L 388.835641 249.592859 
L 400.113263 253.017545 
L 411.390886 255.657186 
L 422.668508 257.596532 
L 433.94613 258.914446 
L 445.223753 259.724198 
L 456.501375 260.167467 
L 467.778997 260.381769 
L 479.05662 260.472811 
L 490.334242 260.506703 
L 501.611864 260.517741 
L 512.889487 260.520884 
L 524.167109 260.521666 
L 535.444731 260.521836 
L 546.722353 260.521869 
L 557.999976 260.521874 
L 569.277598 260.521875 
L 577 260.521875 
" clip-path="url(#p79e7eb2d61)" style="fill: none; stroke: #9467bd; stroke-width: 1.5; stroke-linecap: square"/>
   </g>
   <g id="patch_63">
    <path d="M 41.711875 260.521875 
L 41.711875 57.594062 
" style="fill: none; stroke: #000000; stroke-width: 0.8; stroke-linejoin: miter; stroke-linecap: square"/>
   </g>
   <g id="patch_64">
    <path d="M 565.2 260.521875 
L 565.2 57.594062 
" style="fill: none; stroke: #000000; stroke-width: 0.8; stroke-linejoin: miter; stroke-linecap: square"/>
   </g>
   <g id="patch_65">
    <path d="M 41.711875 260.521875 
L 565.2 260.521875 
" style="fill: none; stroke: #000000; stroke-width: 0.8; stroke-linejoin: miter; stroke-linecap: square"/>
   </g>
   <g id="patch_66">
    <path d="M 41.711875 57.594062 
L 565.2 57.594062 
" style="fill: none; stroke: #000000; stroke-width: 0.8; stroke-linejoin: miter; stroke-linecap: square"/>
   </g>
   <g id="text_15">
    <!-- jasp cells -->
    <g transform="translate(271.214375 51.594062)scale(0.14 -0.14)">
     <defs>
      <path id="DejaVuSans-6a" d="M 603 3500 
L 1178 3500 
L 1178 -63 
Q 1178 -731 923 -1031 
Q 669 -1331 103 -1331 
L -116 -1331 
L -116 -844 
L 38 -844 
Q 366 -844 484 -692 
Q 603 -541 603 -63 
L 603 3500 
z
M 603 4863 
L 1178 4863 
L 1178 4134 
L 603 4134 
L 603 4863 
z
" transform="scale(0.015625)"/>
      <path id="DejaVuSans-70" d="M 1159 525 
L 1159 -1331 
L 581 -1331 
L 581 3500 
L 1159 3500 
L 1159 2969 
Q 1341 3281 1617 3432 
Q 1894 3584 2278 3584 
Q 2916 3584 3314 3078 
Q 3713 2572 3713 1747 
Q 3713 922 3314 415 
Q 2916 -91 2278 -91 
Q 1894 -91 1617 61 
Q 1341 213 1159 525 
z
M 3116 1747 
Q 3116 2381 2855 2742 
Q 2594 3103 2138 3103 
Q 1681 3103 1420 2742 
Q 1159 2381 1159 1747 
Q 1159 1113 1420 752 
Q 1681 391 2138 391 
Q 2594 391 2855 752 
Q 3116 1113 3116 1747 
z
" transform="scale(0.015625)"/>
     </defs>
     <use xlink:href="#DejaVuSans-6a"/>
     <use xlink:href="#DejaVuSans-61" x="27.783203"/>
     <use xlink:href="#DejaVuSans-73" x="89.0625"/>
     <use xlink:href="#DejaVuSans-70" x="141.162109"/>
     <use xlink:href="#DejaVuSans-20" x="204.638672"/>
     <use xlink:href="#DejaVuSans-63" x="236.425781"/>
     <use xlink:href="#DejaVuSans-65" x="291.40625"/>
     <use xlink:href="#DejaVuSans-6c" x="352.929688"/>
     <use xlink:href="#DejaVuSans-6c" x="380.712891"/>
     <use xlink:href="#DejaVuSans-73" x="408.496094"/>
    </g>
   </g>
   <g id="legend_1">
    <g id="patch_67">
     <path d="M 476.810625 120.035312 
L 556.8 120.035312 
Q 559.2 120.035312 559.2 117.635312 
L 559.2 65.994062 
Q 559.2 63.594062 556.8 63.594062 
L 476.810625 63.594062 
Q 474.410625 63.594062 474.410625 65.994062 
L 474.410625 117.635312 
Q 474.410625 120.035312 476.810625 120.035312 
z
" style="fill: #ffffff; opacity: 0.8; stroke: #cccccc; stroke-linejoin: miter"/>
    </g>
    <g id="patch_68">
     <path d="M 479.210625 77.512187 
L 503.210625 77.512187 
L 503.210625 69.112187 
L 479.210625 69.112187 
z
" style="fill: #2ca02c; opacity: 0.4"/>
    </g>
    <g id="text_16">
     <!-- control -->
     <g transform="translate(512.810625 77.512187)scale(0.12 -0.12)">
      <use xlink:href="#DejaVuSans-63"/>
      <use xlink:href="#DejaVuSans-6f" x="54.980469"/>
      <use xlink:href="#DejaVuSans-6e" x="116.162109"/>
      <use xlink:href="#DejaVuSans-74" x="179.541016"/>
      <use xlink:href="#DejaVuSans-72" x="218.75"/>
      <use xlink:href="#DejaVuSans-6f" x="257.613281"/>
      <use xlink:href="#DejaVuSans-6c" x="318.794922"/>
     </g>
    </g>
    <g id="patch_69">
     <path d="M 479.210625 95.125937 
L 503.210625 95.125937 
L 503.210625 86.725937 
L 479.210625 86.725937 
z
" style="fill: #d62728; opacity: 0.4"/>
    </g>
    <g id="text_17">
     <!-- cytd -->
     <g transform="translate(512.810625 95.125937)scale(0.12 -0.12)">
      <defs>
       <path id="DejaVuSans-79" d="M 2059 -325 
Q 1816 -950 1584 -1140 
Q 1353 -1331 966 -1331 
L 506 -1331 
L 506 -850 
L 844 -850 
Q 1081 -850 1212 -737 
Q 1344 -625 1503 -206 
L 1606 56 
L 191 3500 
L 800 3500 
L 1894 763 
L 2988 3500 
L 3597 3500 
L 2059 -325 
z
" transform="scale(0.015625)"/>
       <path id="DejaVuSans-64" d="M 2906 2969 
L 2906 4863 
L 3481 4863 
L 3481 0 
L 2906 0 
L 2906 525 
Q 2725 213 2448 61 
Q 2172 -91 1784 -91 
Q 1150 -91 751 415 
Q 353 922 353 1747 
Q 353 2572 751 3078 
Q 1150 3584 1784 3584 
Q 2172 3584 2448 3432 
Q 2725 3281 2906 2969 
z
M 947 1747 
Q 947 1113 1208 752 
Q 1469 391 1925 391 
Q 2381 391 2643 752 
Q 2906 1113 2906 1747 
Q 2906 2381 2643 2742 
Q 2381 3103 1925 3103 
Q 1469 3103 1208 2742 
Q 947 2381 947 1747 
z
" transform="scale(0.015625)"/>
      </defs>
      <use xlink:href="#DejaVuSans-63"/>
      <use xlink:href="#DejaVuSans-79" x="54.980469"/>
      <use xlink:href="#DejaVuSans-74" x="114.160156"/>
      <use xlink:href="#DejaVuSans-64" x="153.369141"/>
     </g>
    </g>
    <g id="patch_70">
     <path d="M 479.210625 112.739687 
L 503.210625 112.739687 
L 503.210625 104.339687 
L 479.210625 104.339687 
z
" style="fill: #9467bd; opacity: 0.4"/>
    </g>
    <g id="text_18">
     <!-- jasp -->
     <g transform="translate(512.810625 112.739687)scale(0.12 -0.12)">
      <use xlink:href="#DejaVuSans-6a"/>
      <use xlink:href="#DejaVuSans-61" x="27.783203"/>
      <use xlink:href="#DejaVuSans-73" x="89.0625"/>
      <use xlink:href="#DejaVuSans-70" x="141.162109"/>
     </g>
    </g>
   </g>
  </g>
  <g id="text_19">
   <!-- Histograms of srv distances (a=1, b=0.5) to global mean cell -->
   <g transform="translate(-18.7375 20.956875)scale(0.2 -0.2)">
    <defs>
     <path id="DejaVuSans-48" d="M 628 4666 
L 1259 4666 
L 1259 2753 
L 3553 2753 
L 3553 4666 
L 4184 4666 
L 4184 0 
L 3553 0 
L 3553 2222 
L 1259 2222 
L 1259 0 
L 628 0 
L 628 4666 
z
" transform="scale(0.015625)"/>
     <path id="DejaVuSans-67" d="M 2906 1791 
Q 2906 2416 2648 2759 
Q 2391 3103 1925 3103 
Q 1463 3103 1205 2759 
Q 947 2416 947 1791 
Q 947 1169 1205 825 
Q 1463 481 1925 481 
Q 2391 481 2648 825 
Q 2906 1169 2906 1791 
z
M 3481 434 
Q 3481 -459 3084 -895 
Q 2688 -1331 1869 -1331 
Q 1566 -1331 1297 -1286 
Q 1028 -1241 775 -1147 
L 775 -588 
Q 1028 -725 1275 -790 
Q 1522 -856 1778 -856 
Q 2344 -856 2625 -561 
Q 2906 -266 2906 331 
L 2906 616 
Q 2728 306 2450 153 
Q 2172 0 1784 0 
Q 1141 0 747 490 
Q 353 981 353 1791 
Q 353 2603 747 3093 
Q 1141 3584 1784 3584 
Q 2172 3584 2450 3431 
Q 2728 3278 2906 2969 
L 2906 3500 
L 3481 3500 
L 3481 434 
z
" transform="scale(0.015625)"/>
     <path id="DejaVuSans-6d" d="M 3328 2828 
Q 3544 3216 3844 3400 
Q 4144 3584 4550 3584 
Q 5097 3584 5394 3201 
Q 5691 2819 5691 2113 
L 5691 0 
L 5113 0 
L 5113 2094 
Q 5113 2597 4934 2840 
Q 4756 3084 4391 3084 
Q 3944 3084 3684 2787 
Q 3425 2491 3425 1978 
L 3425 0 
L 2847 0 
L 2847 2094 
Q 2847 2600 2669 2842 
Q 2491 3084 2119 3084 
Q 1678 3084 1418 2786 
Q 1159 2488 1159 1978 
L 1159 0 
L 581 0 
L 581 3500 
L 1159 3500 
L 1159 2956 
Q 1356 3278 1631 3431 
Q 1906 3584 2284 3584 
Q 2666 3584 2933 3390 
Q 3200 3197 3328 2828 
z
" transform="scale(0.015625)"/>
     <path id="DejaVuSans-76" d="M 191 3500 
L 800 3500 
L 1894 563 
L 2988 3500 
L 3597 3500 
L 2284 0 
L 1503 0 
L 191 3500 
z
" transform="scale(0.015625)"/>
     <path id="DejaVuSans-28" d="M 1984 4856 
Q 1566 4138 1362 3434 
Q 1159 2731 1159 2009 
Q 1159 1288 1364 580 
Q 1569 -128 1984 -844 
L 1484 -844 
Q 1016 -109 783 600 
Q 550 1309 550 2009 
Q 550 2706 781 3412 
Q 1013 4119 1484 4856 
L 1984 4856 
z
" transform="scale(0.015625)"/>
     <path id="DejaVuSans-3d" d="M 678 2906 
L 4684 2906 
L 4684 2381 
L 678 2381 
L 678 2906 
z
M 678 1631 
L 4684 1631 
L 4684 1100 
L 678 1100 
L 678 1631 
z
" transform="scale(0.015625)"/>
     <path id="DejaVuSans-2c" d="M 750 794 
L 1409 794 
L 1409 256 
L 897 -744 
L 494 -744 
L 750 256 
L 750 794 
z
" transform="scale(0.015625)"/>
     <path id="DejaVuSans-62" d="M 3116 1747 
Q 3116 2381 2855 2742 
Q 2594 3103 2138 3103 
Q 1681 3103 1420 2742 
Q 1159 2381 1159 1747 
Q 1159 1113 1420 752 
Q 1681 391 2138 391 
Q 2594 391 2855 752 
Q 3116 1113 3116 1747 
z
M 1159 2969 
Q 1341 3281 1617 3432 
Q 1894 3584 2278 3584 
Q 2916 3584 3314 3078 
Q 3713 2572 3713 1747 
Q 3713 922 3314 415 
Q 2916 -91 2278 -91 
Q 1894 -91 1617 61 
Q 1341 213 1159 525 
L 1159 0 
L 581 0 
L 581 4863 
L 1159 4863 
L 1159 2969 
z
" transform="scale(0.015625)"/>
     <path id="DejaVuSans-29" d="M 513 4856 
L 1013 4856 
Q 1481 4119 1714 3412 
Q 1947 2706 1947 2009 
Q 1947 1309 1714 600 
Q 1481 -109 1013 -844 
L 513 -844 
Q 928 -128 1133 580 
Q 1338 1288 1338 2009 
Q 1338 2731 1133 3434 
Q 928 4138 513 4856 
z
" transform="scale(0.015625)"/>
    </defs>
    <use xlink:href="#DejaVuSans-48"/>
    <use xlink:href="#DejaVuSans-69" x="75.195312"/>
    <use xlink:href="#DejaVuSans-73" x="102.978516"/>
    <use xlink:href="#DejaVuSans-74" x="155.078125"/>
    <use xlink:href="#DejaVuSans-6f" x="194.287109"/>
    <use xlink:href="#DejaVuSans-67" x="255.46875"/>
    <use xlink:href="#DejaVuSans-72" x="318.945312"/>
    <use xlink:href="#DejaVuSans-61" x="360.058594"/>
    <use xlink:href="#DejaVuSans-6d" x="421.337891"/>
    <use xlink:href="#DejaVuSans-73" x="518.75"/>
    <use xlink:href="#DejaVuSans-20" x="570.849609"/>
    <use xlink:href="#DejaVuSans-6f" x="602.636719"/>
    <use xlink:href="#DejaVuSans-66" x="663.818359"/>
    <use xlink:href="#DejaVuSans-20" x="699.023438"/>
    <use xlink:href="#DejaVuSans-73" x="730.810547"/>
    <use xlink:href="#DejaVuSans-72" x="782.910156"/>
    <use xlink:href="#DejaVuSans-76" x="824.023438"/>
    <use xlink:href="#DejaVuSans-20" x="883.203125"/>
    <use xlink:href="#DejaVuSans-64" x="914.990234"/>
    <use xlink:href="#DejaVuSans-69" x="978.466797"/>
    <use xlink:href="#DejaVuSans-73" x="1006.25"/>
    <use xlink:href="#DejaVuSans-74" x="1058.349609"/>
    <use xlink:href="#DejaVuSans-61" x="1097.558594"/>
    <use xlink:href="#DejaVuSans-6e" x="1158.837891"/>
    <use xlink:href="#DejaVuSans-63" x="1222.216797"/>
    <use xlink:href="#DejaVuSans-65" x="1277.197266"/>
    <use xlink:href="#DejaVuSans-73" x="1338.720703"/>
    <use xlink:href="#DejaVuSans-20" x="1390.820312"/>
    <use xlink:href="#DejaVuSans-28" x="1422.607422"/>
    <use xlink:href="#DejaVuSans-61" x="1461.621094"/>
    <use xlink:href="#DejaVuSans-3d" x="1522.900391"/>
    <use xlink:href="#DejaVuSans-31" x="1606.689453"/>
    <use xlink:href="#DejaVuSans-2c" x="1670.3125"/>
    <use xlink:href="#DejaVuSans-20" x="1702.099609"/>
    <use xlink:href="#DejaVuSans-62" x="1733.886719"/>
    <use xlink:href="#DejaVuSans-3d" x="1797.363281"/>
    <use xlink:href="#DejaVuSans-30" x="1881.152344"/>
    <use xlink:href="#DejaVuSans-2e" x="1944.775391"/>
    <use xlink:href="#DejaVuSans-35" x="1976.5625"/>
    <use xlink:href="#DejaVuSans-29" x="2040.185547"/>
    <use xlink:href="#DejaVuSans-20" x="2079.199219"/>
    <use xlink:href="#DejaVuSans-74" x="2110.986328"/>
    <use xlink:href="#DejaVuSans-6f" x="2150.195312"/>
    <use xlink:href="#DejaVuSans-20" x="2211.376953"/>
    <use xlink:href="#DejaVuSans-67" x="2243.164062"/>
    <use xlink:href="#DejaVuSans-6c" x="2306.640625"/>
    <use xlink:href="#DejaVuSans-6f" x="2334.423828"/>
    <use xlink:href="#DejaVuSans-62" x="2395.605469"/>
    <use xlink:href="#DejaVuSans-61" x="2459.082031"/>
    <use xlink:href="#DejaVuSans-6c" x="2520.361328"/>
    <use xlink:href="#DejaVuSans-20" x="2548.144531"/>
    <use xlink:href="#DejaVuSans-6d" x="2579.931641"/>
    <use xlink:href="#DejaVuSans-65" x="2677.34375"/>
    <use xlink:href="#DejaVuSans-61" x="2738.867188"/>
    <use xlink:href="#DejaVuSans-6e" x="2800.146484"/>
    <use xlink:href="#DejaVuSans-20" x="2863.525391"/>
    <use xlink:href="#DejaVuSans-63" x="2895.3125"/>
    <use xlink:href="#DejaVuSans-65" x="2950.292969"/>
    <use xlink:href="#DejaVuSans-6c" x="3011.816406"/>
    <use xlink:href="#DejaVuSans-6c" x="3039.599609"/>
   </g>
  </g>
 </g>
 <defs>
  <clipPath id="p79e7eb2d61">
   <rect x="41.711875" y="57.594062" width="523.488125" height="202.927813"/>
  </clipPath>
 </defs>
</svg>
