<?xml version="1.0" encoding="utf-8" standalone="no"?>
<!DOCTYPE svg PUBLIC "-//W3C//DTD SVG 1.1//EN"
  "http://www.w3.org/Graphics/SVG/1.1/DTD/svg11.dtd">
<svg xmlns:xlink="http://www.w3.org/1999/xlink" width="576pt" height="576pt" viewBox="0 0 576 576" xmlns="http://www.w3.org/2000/svg" version="1.1">
 <metadata>
  <rdf:RDF xmlns:dc="http://purl.org/dc/elements/1.1/" xmlns:cc="http://creativecommons.org/ns#" xmlns:rdf="http://www.w3.org/1999/02/22-rdf-syntax-ns#">
   <cc:Work>
    <dc:type rdf:resource="http://purl.org/dc/dcmitype/StillImage"/>
    <dc:date>2022-12-26T16:44:01.226208</dc:date>
    <dc:format>image/svg+xml</dc:format>
    <dc:creator>
     <cc:Agent>
      <dc:title>Matplotlib v3.5.1, https://matplotlib.org/</dc:title>
     </cc:Agent>
    </dc:creator>
   </cc:Work>
  </rdf:RDF>
 </metadata>
 <defs>
  <style type="text/css">*{stroke-linejoin: round; stroke-linecap: butt}</style>
 </defs>
 <g id="figure_1">
  <g id="patch_1">
   <path d="M 0 576 
L 576 576 
L 576 0 
L 0 0 
L 0 576 
z
" style="fill: none"/>
  </g>
  <g id="axes_1">
   <g id="patch_2">
    <path d="M 41.711875 199.025521 
L 565.2 199.025521 
L 565.2 57.594062 
L 41.711875 57.594062 
z
" style="fill: #ffffff"/>
   </g>
   <g id="patch_3">
    <path d="M 44.60172 199.025521 
L 57.055941 199.025521 
L 57.055941 166.366312 
L 44.60172 166.366312 
z
" clip-path="url(#pc75642abba)" style="fill: #1f77b4; opacity: 0.4"/>
   </g>
   <g id="patch_4">
    <path d="M 57.055941 199.025521 
L 69.510161 199.025521 
L 69.510161 81.452369 
L 57.055941 81.452369 
z
" clip-path="url(#pc75642abba)" style="fill: #1f77b4; opacity: 0.4"/>
   </g>
   <g id="patch_5">
    <path d="M 69.510161 199.025521 
L 81.964382 199.025521 
L 81.964382 94.516052 
L 69.510161 94.516052 
z
" clip-path="url(#pc75642abba)" style="fill: #1f77b4; opacity: 0.4"/>
   </g>
   <g id="patch_6">
    <path d="M 81.964382 199.025521 
L 94.418602 199.025521 
L 94.418602 114.111578 
L 81.964382 114.111578 
z
" clip-path="url(#pc75642abba)" style="fill: #1f77b4; opacity: 0.4"/>
   </g>
   <g id="patch_7">
    <path d="M 94.418602 199.025521 
L 106.872823 199.025521 
L 106.872823 153.302628 
L 94.418602 153.302628 
z
" clip-path="url(#pc75642abba)" style="fill: #1f77b4; opacity: 0.4"/>
   </g>
   <g id="patch_8">
    <path d="M 106.872823 199.025521 
L 119.327043 199.025521 
L 119.327043 159.83447 
L 106.872823 159.83447 
z
" clip-path="url(#pc75642abba)" style="fill: #1f77b4; opacity: 0.4"/>
   </g>
   <g id="patch_9">
    <path d="M 119.327043 199.025521 
L 131.781264 199.025521 
L 131.781264 140.238945 
L 119.327043 140.238945 
z
" clip-path="url(#pc75642abba)" style="fill: #1f77b4; opacity: 0.4"/>
   </g>
   <g id="patch_10">
    <path d="M 131.781264 199.025521 
L 144.235484 199.025521 
L 144.235484 120.643419 
L 131.781264 120.643419 
z
" clip-path="url(#pc75642abba)" style="fill: #1f77b4; opacity: 0.4"/>
   </g>
   <g id="patch_11">
    <path d="M 144.235484 199.025521 
L 156.689705 199.025521 
L 156.689705 172.898154 
L 144.235484 172.898154 
z
" clip-path="url(#pc75642abba)" style="fill: #1f77b4; opacity: 0.4"/>
   </g>
   <g id="patch_12">
    <path d="M 156.689705 199.025521 
L 169.143925 199.025521 
L 169.143925 185.961837 
L 156.689705 185.961837 
z
" clip-path="url(#pc75642abba)" style="fill: #1f77b4; opacity: 0.4"/>
   </g>
   <g id="patch_13">
    <path d="M 169.143925 199.025521 
L 181.598145 199.025521 
L 181.598145 159.83447 
L 169.143925 159.83447 
z
" clip-path="url(#pc75642abba)" style="fill: #1f77b4; opacity: 0.4"/>
   </g>
   <g id="patch_14">
    <path d="M 181.598145 199.025521 
L 194.052366 199.025521 
L 194.052366 172.898154 
L 181.598145 172.898154 
z
" clip-path="url(#pc75642abba)" style="fill: #1f77b4; opacity: 0.4"/>
   </g>
   <g id="patch_15">
    <path d="M 194.052366 199.025521 
L 206.506586 199.025521 
L 206.506586 172.898154 
L 194.052366 172.898154 
z
" clip-path="url(#pc75642abba)" style="fill: #1f77b4; opacity: 0.4"/>
   </g>
   <g id="patch_16">
    <path d="M 206.506586 199.025521 
L 218.960807 199.025521 
L 218.960807 185.961837 
L 206.506586 185.961837 
z
" clip-path="url(#pc75642abba)" style="fill: #1f77b4; opacity: 0.4"/>
   </g>
   <g id="patch_17">
    <path d="M 218.960807 199.025521 
L 231.415027 199.025521 
L 231.415027 192.493679 
L 218.960807 192.493679 
z
" clip-path="url(#pc75642abba)" style="fill: #1f77b4; opacity: 0.4"/>
   </g>
   <g id="patch_18">
    <path d="M 231.415027 199.025521 
L 243.869248 199.025521 
L 243.869248 192.493679 
L 231.415027 192.493679 
z
" clip-path="url(#pc75642abba)" style="fill: #1f77b4; opacity: 0.4"/>
   </g>
   <g id="patch_19">
    <path d="M 243.869248 199.025521 
L 256.323468 199.025521 
L 256.323468 185.961837 
L 243.869248 185.961837 
z
" clip-path="url(#pc75642abba)" style="fill: #1f77b4; opacity: 0.4"/>
   </g>
   <g id="patch_20">
    <path d="M 256.323468 199.025521 
L 268.777689 199.025521 
L 268.777689 199.025521 
L 256.323468 199.025521 
z
" clip-path="url(#pc75642abba)" style="fill: #1f77b4; opacity: 0.4"/>
   </g>
   <g id="patch_21">
    <path d="M 268.777689 199.025521 
L 281.231909 199.025521 
L 281.231909 199.025521 
L 268.777689 199.025521 
z
" clip-path="url(#pc75642abba)" style="fill: #1f77b4; opacity: 0.4"/>
   </g>
   <g id="patch_22">
    <path d="M 281.231909 199.025521 
L 293.68613 199.025521 
L 293.68613 185.961837 
L 281.231909 185.961837 
z
" clip-path="url(#pc75642abba)" style="fill: #1f77b4; opacity: 0.4"/>
   </g>
   <g id="patch_23">
    <path d="M 41.711875 199.025521 
L 60.077501 199.025521 
L 60.077501 147.045021 
L 41.711875 147.045021 
z
" clip-path="url(#pc75642abba)" style="fill: #ff7f0e; opacity: 0.4"/>
   </g>
   <g id="patch_24">
    <path d="M 60.077501 199.025521 
L 78.443127 199.025521 
L 78.443127 90.113998 
L 60.077501 90.113998 
z
" clip-path="url(#pc75642abba)" style="fill: #ff7f0e; opacity: 0.4"/>
   </g>
   <g id="patch_25">
    <path d="M 78.443127 199.025521 
L 96.808753 199.025521 
L 96.808753 159.421331 
L 78.443127 159.421331 
z
" clip-path="url(#pc75642abba)" style="fill: #ff7f0e; opacity: 0.4"/>
   </g>
   <g id="patch_26">
    <path d="M 96.808753 199.025521 
L 115.174379 199.025521 
L 115.174379 174.272902 
L 96.808753 174.272902 
z
" clip-path="url(#pc75642abba)" style="fill: #ff7f0e; opacity: 0.4"/>
   </g>
   <g id="patch_27">
    <path d="M 115.174379 199.025521 
L 133.540005 199.025521 
L 133.540005 181.698688 
L 115.174379 181.698688 
z
" clip-path="url(#pc75642abba)" style="fill: #ff7f0e; opacity: 0.4"/>
   </g>
   <g id="patch_28">
    <path d="M 133.540005 199.025521 
L 151.905631 199.025521 
L 151.905631 186.649211 
L 133.540005 186.649211 
z
" clip-path="url(#pc75642abba)" style="fill: #ff7f0e; opacity: 0.4"/>
   </g>
   <g id="patch_29">
    <path d="M 151.905631 199.025521 
L 170.271257 199.025521 
L 170.271257 174.272902 
L 151.905631 174.272902 
z
" clip-path="url(#pc75642abba)" style="fill: #ff7f0e; opacity: 0.4"/>
   </g>
   <g id="patch_30">
    <path d="M 170.271257 199.025521 
L 188.636883 199.025521 
L 188.636883 169.322378 
L 170.271257 169.322378 
z
" clip-path="url(#pc75642abba)" style="fill: #ff7f0e; opacity: 0.4"/>
   </g>
   <g id="patch_31">
    <path d="M 188.636883 199.025521 
L 207.002509 199.025521 
L 207.002509 174.272902 
L 188.636883 174.272902 
z
" clip-path="url(#pc75642abba)" style="fill: #ff7f0e; opacity: 0.4"/>
   </g>
   <g id="patch_32">
    <path d="M 207.002509 199.025521 
L 225.368135 199.025521 
L 225.368135 151.995545 
L 207.002509 151.995545 
z
" clip-path="url(#pc75642abba)" style="fill: #ff7f0e; opacity: 0.4"/>
   </g>
   <g id="patch_33">
    <path d="M 225.368135 199.025521 
L 243.733761 199.025521 
L 243.733761 176.748164 
L 225.368135 176.748164 
z
" clip-path="url(#pc75642abba)" style="fill: #ff7f0e; opacity: 0.4"/>
   </g>
   <g id="patch_34">
    <path d="M 243.733761 199.025521 
L 262.099387 199.025521 
L 262.099387 186.649211 
L 243.733761 186.649211 
z
" clip-path="url(#pc75642abba)" style="fill: #ff7f0e; opacity: 0.4"/>
   </g>
   <g id="patch_35">
    <path d="M 262.099387 199.025521 
L 280.465013 199.025521 
L 280.465013 171.79764 
L 262.099387 171.79764 
z
" clip-path="url(#pc75642abba)" style="fill: #ff7f0e; opacity: 0.4"/>
   </g>
   <g id="patch_36">
    <path d="M 280.465013 199.025521 
L 298.830639 199.025521 
L 298.830639 181.698688 
L 280.465013 181.698688 
z
" clip-path="url(#pc75642abba)" style="fill: #ff7f0e; opacity: 0.4"/>
   </g>
   <g id="patch_37">
    <path d="M 298.830639 199.025521 
L 317.196265 199.025521 
L 317.196265 181.698688 
L 298.830639 181.698688 
z
" clip-path="url(#pc75642abba)" style="fill: #ff7f0e; opacity: 0.4"/>
   </g>
   <g id="patch_38">
    <path d="M 317.196265 199.025521 
L 335.561891 199.025521 
L 335.561891 194.074997 
L 317.196265 194.074997 
z
" clip-path="url(#pc75642abba)" style="fill: #ff7f0e; opacity: 0.4"/>
   </g>
   <g id="patch_39">
    <path d="M 335.561891 199.025521 
L 353.927517 199.025521 
L 353.927517 191.599735 
L 335.561891 191.599735 
z
" clip-path="url(#pc75642abba)" style="fill: #ff7f0e; opacity: 0.4"/>
   </g>
   <g id="patch_40">
    <path d="M 353.927517 199.025521 
L 372.293143 199.025521 
L 372.293143 191.599735 
L 353.927517 191.599735 
z
" clip-path="url(#pc75642abba)" style="fill: #ff7f0e; opacity: 0.4"/>
   </g>
   <g id="patch_41">
    <path d="M 372.293143 199.025521 
L 390.658769 199.025521 
L 390.658769 194.074997 
L 372.293143 194.074997 
z
" clip-path="url(#pc75642abba)" style="fill: #ff7f0e; opacity: 0.4"/>
   </g>
   <g id="patch_42">
    <path d="M 390.658769 199.025521 
L 409.024395 199.025521 
L 409.024395 196.550259 
L 390.658769 196.550259 
z
" clip-path="url(#pc75642abba)" style="fill: #ff7f0e; opacity: 0.4"/>
   </g>
   <g id="matplotlib.axis_1">
    <g id="xtick_1">
     <g id="line2d_1">
      <defs>
       <path id="m2faddcb267" d="M 0 0 
L 0 3.5 
" style="stroke: #000000; stroke-width: 0.8"/>
      </defs>
      <g>
       <use xlink:href="#m2faddcb267" x="82.084314" y="199.025521" style="stroke: #000000; stroke-width: 0.8"/>
      </g>
     </g>
    </g>
    <g id="xtick_2">
     <g id="line2d_2">
      <g>
       <use xlink:href="#m2faddcb267" x="193.732775" y="199.025521" style="stroke: #000000; stroke-width: 0.8"/>
      </g>
     </g>
    </g>
    <g id="xtick_3">
     <g id="line2d_3">
      <g>
       <use xlink:href="#m2faddcb267" x="305.381236" y="199.025521" style="stroke: #000000; stroke-width: 0.8"/>
      </g>
     </g>
    </g>
    <g id="xtick_4">
     <g id="line2d_4">
      <g>
       <use xlink:href="#m2faddcb267" x="417.029697" y="199.025521" style="stroke: #000000; stroke-width: 0.8"/>
      </g>
     </g>
    </g>
    <g id="xtick_5">
     <g id="line2d_5">
      <g>
       <use xlink:href="#m2faddcb267" x="528.678158" y="199.025521" style="stroke: #000000; stroke-width: 0.8"/>
      </g>
     </g>
    </g>
   </g>
   <g id="matplotlib.axis_2">
    <g id="ytick_1">
     <g id="line2d_6">
      <defs>
       <path id="m2813d0e2a3" d="M 0 0 
L -3.5 0 
" style="stroke: #000000; stroke-width: 0.8"/>
      </defs>
      <g>
       <use xlink:href="#m2813d0e2a3" x="41.711875" y="199.025521" style="stroke: #000000; stroke-width: 0.8"/>
      </g>
     </g>
     <g id="text_1">
      <!-- 0 -->
      <g transform="translate(28.349375 202.82474)scale(0.1 -0.1)">
       <defs>
        <path id="DejaVuSans-30" d="M 2034 4250 
Q 1547 4250 1301 3770 
Q 1056 3291 1056 2328 
Q 1056 1369 1301 889 
Q 1547 409 2034 409 
Q 2525 409 2770 889 
Q 3016 1369 3016 2328 
Q 3016 3291 2770 3770 
Q 2525 4250 2034 4250 
z
M 2034 4750 
Q 2819 4750 3233 4129 
Q 3647 3509 3647 2328 
Q 3647 1150 3233 529 
Q 2819 -91 2034 -91 
Q 1250 -91 836 529 
Q 422 1150 422 2328 
Q 422 3509 836 4129 
Q 1250 4750 2034 4750 
z
" transform="scale(0.015625)"/>
       </defs>
       <use xlink:href="#DejaVuSans-30"/>
      </g>
     </g>
    </g>
    <g id="ytick_2">
     <g id="line2d_7">
      <g>
       <use xlink:href="#m2813d0e2a3" x="41.711875" y="165.800573" style="stroke: #000000; stroke-width: 0.8"/>
      </g>
     </g>
     <g id="text_2">
      <!-- 2 -->
      <g transform="translate(28.349375 169.599792)scale(0.1 -0.1)">
       <defs>
        <path id="DejaVuSans-32" d="M 1228 531 
L 3431 531 
L 3431 0 
L 469 0 
L 469 531 
Q 828 903 1448 1529 
Q 2069 2156 2228 2338 
Q 2531 2678 2651 2914 
Q 2772 3150 2772 3378 
Q 2772 3750 2511 3984 
Q 2250 4219 1831 4219 
Q 1534 4219 1204 4116 
Q 875 4013 500 3803 
L 500 4441 
Q 881 4594 1212 4672 
Q 1544 4750 1819 4750 
Q 2544 4750 2975 4387 
Q 3406 4025 3406 3419 
Q 3406 3131 3298 2873 
Q 3191 2616 2906 2266 
Q 2828 2175 2409 1742 
Q 1991 1309 1228 531 
z
" transform="scale(0.015625)"/>
       </defs>
       <use xlink:href="#DejaVuSans-32"/>
      </g>
     </g>
    </g>
    <g id="ytick_3">
     <g id="line2d_8">
      <g>
       <use xlink:href="#m2813d0e2a3" x="41.711875" y="132.575625" style="stroke: #000000; stroke-width: 0.8"/>
      </g>
     </g>
     <g id="text_3">
      <!-- 4 -->
      <g transform="translate(28.349375 136.374844)scale(0.1 -0.1)">
       <defs>
        <path id="DejaVuSans-34" d="M 2419 4116 
L 825 1625 
L 2419 1625 
L 2419 4116 
z
M 2253 4666 
L 3047 4666 
L 3047 1625 
L 3713 1625 
L 3713 1100 
L 3047 1100 
L 3047 0 
L 2419 0 
L 2419 1100 
L 313 1100 
L 313 1709 
L 2253 4666 
z
" transform="scale(0.015625)"/>
       </defs>
       <use xlink:href="#DejaVuSans-34"/>
      </g>
     </g>
    </g>
    <g id="ytick_4">
     <g id="line2d_9">
      <g>
       <use xlink:href="#m2813d0e2a3" x="41.711875" y="99.350677" style="stroke: #000000; stroke-width: 0.8"/>
      </g>
     </g>
     <g id="text_4">
      <!-- 6 -->
      <g transform="translate(28.349375 103.149896)scale(0.1 -0.1)">
       <defs>
        <path id="DejaVuSans-36" d="M 2113 2584 
Q 1688 2584 1439 2293 
Q 1191 2003 1191 1497 
Q 1191 994 1439 701 
Q 1688 409 2113 409 
Q 2538 409 2786 701 
Q 3034 994 3034 1497 
Q 3034 2003 2786 2293 
Q 2538 2584 2113 2584 
z
M 3366 4563 
L 3366 3988 
Q 3128 4100 2886 4159 
Q 2644 4219 2406 4219 
Q 1781 4219 1451 3797 
Q 1122 3375 1075 2522 
Q 1259 2794 1537 2939 
Q 1816 3084 2150 3084 
Q 2853 3084 3261 2657 
Q 3669 2231 3669 1497 
Q 3669 778 3244 343 
Q 2819 -91 2113 -91 
Q 1303 -91 875 529 
Q 447 1150 447 2328 
Q 447 3434 972 4092 
Q 1497 4750 2381 4750 
Q 2619 4750 2861 4703 
Q 3103 4656 3366 4563 
z
" transform="scale(0.015625)"/>
       </defs>
       <use xlink:href="#DejaVuSans-36"/>
      </g>
     </g>
    </g>
    <g id="ytick_5">
     <g id="line2d_10">
      <g>
       <use xlink:href="#m2813d0e2a3" x="41.711875" y="66.12573" style="stroke: #000000; stroke-width: 0.8"/>
      </g>
     </g>
     <g id="text_5">
      <!-- 8 -->
      <g transform="translate(28.349375 69.924948)scale(0.1 -0.1)">
       <defs>
        <path id="DejaVuSans-38" d="M 2034 2216 
Q 1584 2216 1326 1975 
Q 1069 1734 1069 1313 
Q 1069 891 1326 650 
Q 1584 409 2034 409 
Q 2484 409 2743 651 
Q 3003 894 3003 1313 
Q 3003 1734 2745 1975 
Q 2488 2216 2034 2216 
z
M 1403 2484 
Q 997 2584 770 2862 
Q 544 3141 544 3541 
Q 544 4100 942 4425 
Q 1341 4750 2034 4750 
Q 2731 4750 3128 4425 
Q 3525 4100 3525 3541 
Q 3525 3141 3298 2862 
Q 3072 2584 2669 2484 
Q 3125 2378 3379 2068 
Q 3634 1759 3634 1313 
Q 3634 634 3220 271 
Q 2806 -91 2034 -91 
Q 1263 -91 848 271 
Q 434 634 434 1313 
Q 434 1759 690 2068 
Q 947 2378 1403 2484 
z
M 1172 3481 
Q 1172 3119 1398 2916 
Q 1625 2713 2034 2713 
Q 2441 2713 2670 2916 
Q 2900 3119 2900 3481 
Q 2900 3844 2670 4047 
Q 2441 4250 2034 4250 
Q 1625 4250 1398 4047 
Q 1172 3844 1172 3481 
z
" transform="scale(0.015625)"/>
       </defs>
       <use xlink:href="#DejaVuSans-38"/>
      </g>
     </g>
    </g>
    <g id="text_6">
     <!-- Fraction of cells -->
     <g transform="translate(21.437812 183.141667)rotate(-90)scale(0.14 -0.14)">
      <defs>
       <path id="DejaVuSans-46" d="M 628 4666 
L 3309 4666 
L 3309 4134 
L 1259 4134 
L 1259 2759 
L 3109 2759 
L 3109 2228 
L 1259 2228 
L 1259 0 
L 628 0 
L 628 4666 
z
" transform="scale(0.015625)"/>
       <path id="DejaVuSans-72" d="M 2631 2963 
Q 2534 3019 2420 3045 
Q 2306 3072 2169 3072 
Q 1681 3072 1420 2755 
Q 1159 2438 1159 1844 
L 1159 0 
L 581 0 
L 581 3500 
L 1159 3500 
L 1159 2956 
Q 1341 3275 1631 3429 
Q 1922 3584 2338 3584 
Q 2397 3584 2469 3576 
Q 2541 3569 2628 3553 
L 2631 2963 
z
" transform="scale(0.015625)"/>
       <path id="DejaVuSans-61" d="M 2194 1759 
Q 1497 1759 1228 1600 
Q 959 1441 959 1056 
Q 959 750 1161 570 
Q 1363 391 1709 391 
Q 2188 391 2477 730 
Q 2766 1069 2766 1631 
L 2766 1759 
L 2194 1759 
z
M 3341 1997 
L 3341 0 
L 2766 0 
L 2766 531 
Q 2569 213 2275 61 
Q 1981 -91 1556 -91 
Q 1019 -91 701 211 
Q 384 513 384 1019 
Q 384 1609 779 1909 
Q 1175 2209 1959 2209 
L 2766 2209 
L 2766 2266 
Q 2766 2663 2505 2880 
Q 2244 3097 1772 3097 
Q 1472 3097 1187 3025 
Q 903 2953 641 2809 
L 641 3341 
Q 956 3463 1253 3523 
Q 1550 3584 1831 3584 
Q 2591 3584 2966 3190 
Q 3341 2797 3341 1997 
z
" transform="scale(0.015625)"/>
       <path id="DejaVuSans-63" d="M 3122 3366 
L 3122 2828 
Q 2878 2963 2633 3030 
Q 2388 3097 2138 3097 
Q 1578 3097 1268 2742 
Q 959 2388 959 1747 
Q 959 1106 1268 751 
Q 1578 397 2138 397 
Q 2388 397 2633 464 
Q 2878 531 3122 666 
L 3122 134 
Q 2881 22 2623 -34 
Q 2366 -91 2075 -91 
Q 1284 -91 818 406 
Q 353 903 353 1747 
Q 353 2603 823 3093 
Q 1294 3584 2113 3584 
Q 2378 3584 2631 3529 
Q 2884 3475 3122 3366 
z
" transform="scale(0.015625)"/>
       <path id="DejaVuSans-74" d="M 1172 4494 
L 1172 3500 
L 2356 3500 
L 2356 3053 
L 1172 3053 
L 1172 1153 
Q 1172 725 1289 603 
Q 1406 481 1766 481 
L 2356 481 
L 2356 0 
L 1766 0 
Q 1100 0 847 248 
Q 594 497 594 1153 
L 594 3053 
L 172 3053 
L 172 3500 
L 594 3500 
L 594 4494 
L 1172 4494 
z
" transform="scale(0.015625)"/>
       <path id="DejaVuSans-69" d="M 603 3500 
L 1178 3500 
L 1178 0 
L 603 0 
L 603 3500 
z
M 603 4863 
L 1178 4863 
L 1178 4134 
L 603 4134 
L 603 4863 
z
" transform="scale(0.015625)"/>
       <path id="DejaVuSans-6f" d="M 1959 3097 
Q 1497 3097 1228 2736 
Q 959 2375 959 1747 
Q 959 1119 1226 758 
Q 1494 397 1959 397 
Q 2419 397 2687 759 
Q 2956 1122 2956 1747 
Q 2956 2369 2687 2733 
Q 2419 3097 1959 3097 
z
M 1959 3584 
Q 2709 3584 3137 3096 
Q 3566 2609 3566 1747 
Q 3566 888 3137 398 
Q 2709 -91 1959 -91 
Q 1206 -91 779 398 
Q 353 888 353 1747 
Q 353 2609 779 3096 
Q 1206 3584 1959 3584 
z
" transform="scale(0.015625)"/>
       <path id="DejaVuSans-6e" d="M 3513 2113 
L 3513 0 
L 2938 0 
L 2938 2094 
Q 2938 2591 2744 2837 
Q 2550 3084 2163 3084 
Q 1697 3084 1428 2787 
Q 1159 2491 1159 1978 
L 1159 0 
L 581 0 
L 581 3500 
L 1159 3500 
L 1159 2956 
Q 1366 3272 1645 3428 
Q 1925 3584 2291 3584 
Q 2894 3584 3203 3211 
Q 3513 2838 3513 2113 
z
" transform="scale(0.015625)"/>
       <path id="DejaVuSans-20" transform="scale(0.015625)"/>
       <path id="DejaVuSans-66" d="M 2375 4863 
L 2375 4384 
L 1825 4384 
Q 1516 4384 1395 4259 
Q 1275 4134 1275 3809 
L 1275 3500 
L 2222 3500 
L 2222 3053 
L 1275 3053 
L 1275 0 
L 697 0 
L 697 3053 
L 147 3053 
L 147 3500 
L 697 3500 
L 697 3744 
Q 697 4328 969 4595 
Q 1241 4863 1831 4863 
L 2375 4863 
z
" transform="scale(0.015625)"/>
       <path id="DejaVuSans-65" d="M 3597 1894 
L 3597 1613 
L 953 1613 
Q 991 1019 1311 708 
Q 1631 397 2203 397 
Q 2534 397 2845 478 
Q 3156 559 3463 722 
L 3463 178 
Q 3153 47 2828 -22 
Q 2503 -91 2169 -91 
Q 1331 -91 842 396 
Q 353 884 353 1716 
Q 353 2575 817 3079 
Q 1281 3584 2069 3584 
Q 2775 3584 3186 3129 
Q 3597 2675 3597 1894 
z
M 3022 2063 
Q 3016 2534 2758 2815 
Q 2500 3097 2075 3097 
Q 1594 3097 1305 2825 
Q 1016 2553 972 2059 
L 3022 2063 
z
" transform="scale(0.015625)"/>
       <path id="DejaVuSans-6c" d="M 603 4863 
L 1178 4863 
L 1178 0 
L 603 0 
L 603 4863 
z
" transform="scale(0.015625)"/>
       <path id="DejaVuSans-73" d="M 2834 3397 
L 2834 2853 
Q 2591 2978 2328 3040 
Q 2066 3103 1784 3103 
Q 1356 3103 1142 2972 
Q 928 2841 928 2578 
Q 928 2378 1081 2264 
Q 1234 2150 1697 2047 
L 1894 2003 
Q 2506 1872 2764 1633 
Q 3022 1394 3022 966 
Q 3022 478 2636 193 
Q 2250 -91 1575 -91 
Q 1294 -91 989 -36 
Q 684 19 347 128 
L 347 722 
Q 666 556 975 473 
Q 1284 391 1588 391 
Q 1994 391 2212 530 
Q 2431 669 2431 922 
Q 2431 1156 2273 1281 
Q 2116 1406 1581 1522 
L 1381 1569 
Q 847 1681 609 1914 
Q 372 2147 372 2553 
Q 372 3047 722 3315 
Q 1072 3584 1716 3584 
Q 2034 3584 2315 3537 
Q 2597 3491 2834 3397 
z
" transform="scale(0.015625)"/>
      </defs>
      <use xlink:href="#DejaVuSans-46"/>
      <use xlink:href="#DejaVuSans-72" x="50.269531"/>
      <use xlink:href="#DejaVuSans-61" x="91.382812"/>
      <use xlink:href="#DejaVuSans-63" x="152.662109"/>
      <use xlink:href="#DejaVuSans-74" x="207.642578"/>
      <use xlink:href="#DejaVuSans-69" x="246.851562"/>
      <use xlink:href="#DejaVuSans-6f" x="274.634766"/>
      <use xlink:href="#DejaVuSans-6e" x="335.816406"/>
      <use xlink:href="#DejaVuSans-20" x="399.195312"/>
      <use xlink:href="#DejaVuSans-6f" x="430.982422"/>
      <use xlink:href="#DejaVuSans-66" x="492.164062"/>
      <use xlink:href="#DejaVuSans-20" x="527.369141"/>
      <use xlink:href="#DejaVuSans-63" x="559.15625"/>
      <use xlink:href="#DejaVuSans-65" x="614.136719"/>
      <use xlink:href="#DejaVuSans-6c" x="675.660156"/>
      <use xlink:href="#DejaVuSans-6c" x="703.443359"/>
      <use xlink:href="#DejaVuSans-73" x="731.226562"/>
     </g>
    </g>
   </g>
   <g id="line2d_11">
    <path d="M -1 198.140077 
L 5.396483 197.472343 
L 16.674105 193.92856 
L 27.951727 185.677216 
L 39.22935 170.96646 
L 50.506972 151.312148 
L 61.784594 132.647021 
L 73.062217 122.150151 
L 84.339839 122.707636 
L 95.617461 130.663728 
L 106.895084 139.379142 
L 118.172706 144.930137 
L 129.450328 148.336644 
L 140.72795 152.644823 
L 152.005573 158.79726 
L 163.283195 165.108785 
L 174.560817 169.983068 
L 185.83844 173.659616 
L 197.116062 177.280984 
L 208.393684 181.283603 
L 219.671307 185.121825 
L 230.948929 188.217231 
L 242.226551 190.641283 
L 253.504174 192.691877 
L 264.781796 194.259863 
L 276.059418 195.085763 
L 287.33704 195.410951 
L 298.614663 195.863139 
L 309.892285 196.730262 
L 321.169907 197.727781 
L 332.44753 198.466161 
L 343.725152 198.842975 
L 355.002774 198.980511 
L 366.280397 199.017142 
L 377.558019 199.024343 
L 388.835641 199.025396 
L 400.113263 199.025511 
L 411.390886 199.02552 
L 422.668508 199.025521 
L 433.94613 199.025521 
L 445.223753 199.025521 
L 456.501375 199.025521 
L 467.778997 199.025521 
L 479.05662 199.025521 
L 490.334242 199.025521 
L 501.611864 199.025521 
L 512.889487 199.025521 
L 524.167109 199.025521 
L 535.444731 199.025521 
L 546.722353 199.025521 
L 557.999976 199.025521 
L 569.277598 199.025521 
L 577 199.025521 
" clip-path="url(#pc75642abba)" style="fill: none; stroke: #1f77b4; stroke-width: 1.5; stroke-linecap: square"/>
   </g>
   <g id="line2d_12">
    <path d="M -1 193.605072 
L 5.396483 191.505438 
L 16.674105 185.739981 
L 27.951727 177.943689 
L 39.22935 168.925438 
L 50.506972 160.263431 
L 61.784594 153.844425 
L 73.062217 151.102066 
L 84.339839 152.373874 
L 95.617461 156.772483 
L 106.895084 162.634971 
L 118.172706 168.246011 
L 129.450328 172.419998 
L 140.72795 174.710695 
L 152.005573 175.28673 
L 163.283195 174.65935 
L 174.560817 173.433573 
L 185.83844 172.158294 
L 197.116062 171.262415 
L 208.393684 171.024776 
L 219.671307 171.543957 
L 230.948929 172.72519 
L 242.226551 174.329248 
L 253.504174 176.091488 
L 264.781796 177.848989 
L 276.059418 179.589162 
L 287.33704 181.390224 
L 298.614663 183.310011 
L 309.892285 185.312757 
L 321.169907 187.28047 
L 332.44753 189.084653 
L 343.725152 190.656242 
L 355.002774 192.006706 
L 366.280397 193.197021 
L 377.558019 194.286576 
L 388.835641 195.29895 
L 400.113263 196.220122 
L 411.390886 197.019103 
L 422.668508 197.670665 
L 433.94613 198.167187 
L 445.223753 198.519114 
L 456.501375 198.749603 
L 467.778997 198.887886 
L 479.05662 198.963174 
L 490.334242 199.000052 
L 501.611864 199.016192 
L 512.889487 199.02247 
L 524.167109 199.024633 
L 535.444731 199.025291 
L 546.722353 199.025468 
L 557.999976 199.02551 
L 569.277598 199.025519 
L 577 199.02552 
" clip-path="url(#pc75642abba)" style="fill: none; stroke: #ff7f0e; stroke-width: 1.5; stroke-linecap: square"/>
   </g>
   <g id="patch_43">
    <path d="M 41.711875 199.025521 
L 41.711875 57.594062 
" style="fill: none; stroke: #000000; stroke-width: 0.8; stroke-linejoin: miter; stroke-linecap: square"/>
   </g>
   <g id="patch_44">
    <path d="M 565.2 199.025521 
L 565.2 57.594062 
" style="fill: none; stroke: #000000; stroke-width: 0.8; stroke-linejoin: miter; stroke-linecap: square"/>
   </g>
   <g id="patch_45">
    <path d="M 41.711875 199.025521 
L 565.2 199.025521 
" style="fill: none; stroke: #000000; stroke-width: 0.8; stroke-linejoin: miter; stroke-linecap: square"/>
   </g>
   <g id="patch_46">
    <path d="M 41.711875 57.594062 
L 565.2 57.594062 
" style="fill: none; stroke: #000000; stroke-width: 0.8; stroke-linejoin: miter; stroke-linecap: square"/>
   </g>
   <g id="text_7">
    <!-- control cells -->
    <g transform="translate(261.27875 51.594062)scale(0.14 -0.14)">
     <use xlink:href="#DejaVuSans-63"/>
     <use xlink:href="#DejaVuSans-6f" x="54.980469"/>
     <use xlink:href="#DejaVuSans-6e" x="116.162109"/>
     <use xlink:href="#DejaVuSans-74" x="179.541016"/>
     <use xlink:href="#DejaVuSans-72" x="218.75"/>
     <use xlink:href="#DejaVuSans-6f" x="257.613281"/>
     <use xlink:href="#DejaVuSans-6c" x="318.794922"/>
     <use xlink:href="#DejaVuSans-20" x="346.578125"/>
     <use xlink:href="#DejaVuSans-63" x="378.365234"/>
     <use xlink:href="#DejaVuSans-65" x="433.345703"/>
     <use xlink:href="#DejaVuSans-6c" x="494.869141"/>
     <use xlink:href="#DejaVuSans-6c" x="522.652344"/>
     <use xlink:href="#DejaVuSans-73" x="550.435547"/>
    </g>
   </g>
   <g id="legend_1">
    <g id="patch_47">
     <path d="M 487.966875 102.421562 
L 556.8 102.421562 
Q 559.2 102.421562 559.2 100.021562 
L 559.2 65.994062 
Q 559.2 63.594062 556.8 63.594062 
L 487.966875 63.594062 
Q 485.566875 63.594062 485.566875 65.994062 
L 485.566875 100.021562 
Q 485.566875 102.421562 487.966875 102.421562 
z
" style="fill: #ffffff; opacity: 0.8; stroke: #cccccc; stroke-linejoin: miter"/>
    </g>
    <g id="patch_48">
     <path d="M 490.366875 77.512187 
L 514.366875 77.512187 
L 514.366875 69.112187 
L 490.366875 69.112187 
z
" style="fill: #1f77b4; opacity: 0.4"/>
    </g>
    <g id="text_8">
     <!-- dlm8 -->
     <g transform="translate(523.966875 77.512187)scale(0.12 -0.12)">
      <defs>
       <path id="DejaVuSans-64" d="M 2906 2969 
L 2906 4863 
L 3481 4863 
L 3481 0 
L 2906 0 
L 2906 525 
Q 2725 213 2448 61 
Q 2172 -91 1784 -91 
Q 1150 -91 751 415 
Q 353 922 353 1747 
Q 353 2572 751 3078 
Q 1150 3584 1784 3584 
Q 2172 3584 2448 3432 
Q 2725 3281 2906 2969 
z
M 947 1747 
Q 947 1113 1208 752 
Q 1469 391 1925 391 
Q 2381 391 2643 752 
Q 2906 1113 2906 1747 
Q 2906 2381 2643 2742 
Q 2381 3103 1925 3103 
Q 1469 3103 1208 2742 
Q 947 2381 947 1747 
z
" transform="scale(0.015625)"/>
       <path id="DejaVuSans-6d" d="M 3328 2828 
Q 3544 3216 3844 3400 
Q 4144 3584 4550 3584 
Q 5097 3584 5394 3201 
Q 5691 2819 5691 2113 
L 5691 0 
L 5113 0 
L 5113 2094 
Q 5113 2597 4934 2840 
Q 4756 3084 4391 3084 
Q 3944 3084 3684 2787 
Q 3425 2491 3425 1978 
L 3425 0 
L 2847 0 
L 2847 2094 
Q 2847 2600 2669 2842 
Q 2491 3084 2119 3084 
Q 1678 3084 1418 2786 
Q 1159 2488 1159 1978 
L 1159 0 
L 581 0 
L 581 3500 
L 1159 3500 
L 1159 2956 
Q 1356 3278 1631 3431 
Q 1906 3584 2284 3584 
Q 2666 3584 2933 3390 
Q 3200 3197 3328 2828 
z
" transform="scale(0.015625)"/>
      </defs>
      <use xlink:href="#DejaVuSans-64"/>
      <use xlink:href="#DejaVuSans-6c" x="63.476562"/>
      <use xlink:href="#DejaVuSans-6d" x="91.259766"/>
      <use xlink:href="#DejaVuSans-38" x="188.671875"/>
     </g>
    </g>
    <g id="patch_49">
     <path d="M 490.366875 95.125937 
L 514.366875 95.125937 
L 514.366875 86.725937 
L 490.366875 86.725937 
z
" style="fill: #ff7f0e; opacity: 0.4"/>
    </g>
    <g id="text_9">
     <!-- dunn -->
     <g transform="translate(523.966875 95.125937)scale(0.12 -0.12)">
      <defs>
       <path id="DejaVuSans-75" d="M 544 1381 
L 544 3500 
L 1119 3500 
L 1119 1403 
Q 1119 906 1312 657 
Q 1506 409 1894 409 
Q 2359 409 2629 706 
Q 2900 1003 2900 1516 
L 2900 3500 
L 3475 3500 
L 3475 0 
L 2900 0 
L 2900 538 
Q 2691 219 2414 64 
Q 2138 -91 1772 -91 
Q 1169 -91 856 284 
Q 544 659 544 1381 
z
M 1991 3584 
L 1991 3584 
z
" transform="scale(0.015625)"/>
      </defs>
      <use xlink:href="#DejaVuSans-64"/>
      <use xlink:href="#DejaVuSans-75" x="63.476562"/>
      <use xlink:href="#DejaVuSans-6e" x="126.855469"/>
      <use xlink:href="#DejaVuSans-6e" x="190.234375"/>
     </g>
    </g>
   </g>
  </g>
  <g id="axes_2">
   <g id="patch_50">
    <path d="M 41.711875 373.773698 
L 565.2 373.773698 
L 565.2 232.34224 
L 41.711875 232.34224 
z
" style="fill: #ffffff"/>
   </g>
   <g id="patch_51">
    <path d="M 104.816812 373.773698 
L 127.835971 373.773698 
L 127.835971 354.121382 
L 104.816812 354.121382 
z
" clip-path="url(#pe97b83705f)" style="fill: #1f77b4; opacity: 0.4"/>
   </g>
   <g id="patch_52">
    <path d="M 127.835971 373.773698 
L 150.855131 373.773698 
L 150.855131 334.469066 
L 127.835971 334.469066 
z
" clip-path="url(#pe97b83705f)" style="fill: #1f77b4; opacity: 0.4"/>
   </g>
   <g id="patch_53">
    <path d="M 150.855131 373.773698 
L 173.87429 373.773698 
L 173.87429 339.382145 
L 150.855131 339.382145 
z
" clip-path="url(#pe97b83705f)" style="fill: #1f77b4; opacity: 0.4"/>
   </g>
   <g id="patch_54">
    <path d="M 173.87429 373.773698 
L 196.89345 373.773698 
L 196.89345 344.295224 
L 173.87429 344.295224 
z
" clip-path="url(#pe97b83705f)" style="fill: #1f77b4; opacity: 0.4"/>
   </g>
   <g id="patch_55">
    <path d="M 196.89345 373.773698 
L 219.912609 373.773698 
L 219.912609 329.555987 
L 196.89345 329.555987 
z
" clip-path="url(#pe97b83705f)" style="fill: #1f77b4; opacity: 0.4"/>
   </g>
   <g id="patch_56">
    <path d="M 219.912609 373.773698 
L 242.931768 373.773698 
L 242.931768 349.208303 
L 219.912609 349.208303 
z
" clip-path="url(#pe97b83705f)" style="fill: #1f77b4; opacity: 0.4"/>
   </g>
   <g id="patch_57">
    <path d="M 242.931768 373.773698 
L 265.950928 373.773698 
L 265.950928 354.121382 
L 242.931768 354.121382 
z
" clip-path="url(#pe97b83705f)" style="fill: #1f77b4; opacity: 0.4"/>
   </g>
   <g id="patch_58">
    <path d="M 265.950928 373.773698 
L 288.970087 373.773698 
L 288.970087 354.121382 
L 265.950928 354.121382 
z
" clip-path="url(#pe97b83705f)" style="fill: #1f77b4; opacity: 0.4"/>
   </g>
   <g id="patch_59">
    <path d="M 288.970087 373.773698 
L 311.989247 373.773698 
L 311.989247 329.555987 
L 288.970087 329.555987 
z
" clip-path="url(#pe97b83705f)" style="fill: #1f77b4; opacity: 0.4"/>
   </g>
   <g id="patch_60">
    <path d="M 311.989247 373.773698 
L 335.008406 373.773698 
L 335.008406 349.208303 
L 311.989247 349.208303 
z
" clip-path="url(#pe97b83705f)" style="fill: #1f77b4; opacity: 0.4"/>
   </g>
   <g id="patch_61">
    <path d="M 335.008406 373.773698 
L 358.027565 373.773698 
L 358.027565 363.94754 
L 335.008406 363.94754 
z
" clip-path="url(#pe97b83705f)" style="fill: #1f77b4; opacity: 0.4"/>
   </g>
   <g id="patch_62">
    <path d="M 358.027565 373.773698 
L 381.046725 373.773698 
L 381.046725 354.121382 
L 358.027565 354.121382 
z
" clip-path="url(#pe97b83705f)" style="fill: #1f77b4; opacity: 0.4"/>
   </g>
   <g id="patch_63">
    <path d="M 381.046725 373.773698 
L 404.065884 373.773698 
L 404.065884 363.94754 
L 381.046725 363.94754 
z
" clip-path="url(#pe97b83705f)" style="fill: #1f77b4; opacity: 0.4"/>
   </g>
   <g id="patch_64">
    <path d="M 404.065884 373.773698 
L 427.085044 373.773698 
L 427.085044 368.860619 
L 404.065884 368.860619 
z
" clip-path="url(#pe97b83705f)" style="fill: #1f77b4; opacity: 0.4"/>
   </g>
   <g id="patch_65">
    <path d="M 427.085044 373.773698 
L 450.104203 373.773698 
L 450.104203 373.773698 
L 427.085044 373.773698 
z
" clip-path="url(#pe97b83705f)" style="fill: #1f77b4; opacity: 0.4"/>
   </g>
   <g id="patch_66">
    <path d="M 450.104203 373.773698 
L 473.123362 373.773698 
L 473.123362 354.121382 
L 450.104203 354.121382 
z
" clip-path="url(#pe97b83705f)" style="fill: #1f77b4; opacity: 0.4"/>
   </g>
   <g id="patch_67">
    <path d="M 473.123362 373.773698 
L 496.142522 373.773698 
L 496.142522 359.034461 
L 473.123362 359.034461 
z
" clip-path="url(#pe97b83705f)" style="fill: #1f77b4; opacity: 0.4"/>
   </g>
   <g id="patch_68">
    <path d="M 496.142522 373.773698 
L 519.161681 373.773698 
L 519.161681 373.773698 
L 496.142522 373.773698 
z
" clip-path="url(#pe97b83705f)" style="fill: #1f77b4; opacity: 0.4"/>
   </g>
   <g id="patch_69">
    <path d="M 519.161681 373.773698 
L 542.180841 373.773698 
L 542.180841 359.034461 
L 519.161681 359.034461 
z
" clip-path="url(#pe97b83705f)" style="fill: #1f77b4; opacity: 0.4"/>
   </g>
   <g id="patch_70">
    <path d="M 542.180841 373.773698 
L 565.2 373.773698 
L 565.2 363.94754 
L 542.180841 363.94754 
z
" clip-path="url(#pe97b83705f)" style="fill: #1f77b4; opacity: 0.4"/>
   </g>
   <g id="patch_71">
    <path d="M 115.171882 373.773698 
L 136.829355 373.773698 
L 136.829355 369.169369 
L 115.171882 369.169369 
z
" clip-path="url(#pe97b83705f)" style="fill: #ff7f0e; opacity: 0.4"/>
   </g>
   <g id="patch_72">
    <path d="M 136.829355 373.773698 
L 158.486829 373.773698 
L 158.486829 373.773698 
L 136.829355 373.773698 
z
" clip-path="url(#pe97b83705f)" style="fill: #ff7f0e; opacity: 0.4"/>
   </g>
   <g id="patch_73">
    <path d="M 158.486829 373.773698 
L 180.144302 373.773698 
L 180.144302 369.169369 
L 158.486829 369.169369 
z
" clip-path="url(#pe97b83705f)" style="fill: #ff7f0e; opacity: 0.4"/>
   </g>
   <g id="patch_74">
    <path d="M 180.144302 373.773698 
L 201.801775 373.773698 
L 201.801775 369.169369 
L 180.144302 369.169369 
z
" clip-path="url(#pe97b83705f)" style="fill: #ff7f0e; opacity: 0.4"/>
   </g>
   <g id="patch_75">
    <path d="M 201.801775 373.773698 
L 223.459248 373.773698 
L 223.459248 373.773698 
L 201.801775 373.773698 
z
" clip-path="url(#pe97b83705f)" style="fill: #ff7f0e; opacity: 0.4"/>
   </g>
   <g id="patch_76">
    <path d="M 223.459248 373.773698 
L 245.116722 373.773698 
L 245.116722 355.356383 
L 223.459248 355.356383 
z
" clip-path="url(#pe97b83705f)" style="fill: #ff7f0e; opacity: 0.4"/>
   </g>
   <g id="patch_77">
    <path d="M 245.116722 373.773698 
L 266.774195 373.773698 
L 266.774195 364.56504 
L 245.116722 364.56504 
z
" clip-path="url(#pe97b83705f)" style="fill: #ff7f0e; opacity: 0.4"/>
   </g>
   <g id="patch_78">
    <path d="M 266.774195 373.773698 
L 288.431668 373.773698 
L 288.431668 359.960712 
L 266.774195 359.960712 
z
" clip-path="url(#pe97b83705f)" style="fill: #ff7f0e; opacity: 0.4"/>
   </g>
   <g id="patch_79">
    <path d="M 288.431668 373.773698 
L 310.089141 373.773698 
L 310.089141 346.147726 
L 288.431668 346.147726 
z
" clip-path="url(#pe97b83705f)" style="fill: #ff7f0e; opacity: 0.4"/>
   </g>
   <g id="patch_80">
    <path d="M 310.089141 373.773698 
L 331.746615 373.773698 
L 331.746615 341.543397 
L 310.089141 341.543397 
z
" clip-path="url(#pe97b83705f)" style="fill: #ff7f0e; opacity: 0.4"/>
   </g>
   <g id="patch_81">
    <path d="M 331.746615 373.773698 
L 353.404088 373.773698 
L 353.404088 341.543397 
L 331.746615 341.543397 
z
" clip-path="url(#pe97b83705f)" style="fill: #ff7f0e; opacity: 0.4"/>
   </g>
   <g id="patch_82">
    <path d="M 353.404088 373.773698 
L 375.061561 373.773698 
L 375.061561 341.543397 
L 353.404088 341.543397 
z
" clip-path="url(#pe97b83705f)" style="fill: #ff7f0e; opacity: 0.4"/>
   </g>
   <g id="patch_83">
    <path d="M 375.061561 373.773698 
L 396.719035 373.773698 
L 396.719035 341.543397 
L 375.061561 341.543397 
z
" clip-path="url(#pe97b83705f)" style="fill: #ff7f0e; opacity: 0.4"/>
   </g>
   <g id="patch_84">
    <path d="M 396.719035 373.773698 
L 418.376508 373.773698 
L 418.376508 318.521753 
L 396.719035 318.521753 
z
" clip-path="url(#pe97b83705f)" style="fill: #ff7f0e; opacity: 0.4"/>
   </g>
   <g id="patch_85">
    <path d="M 418.376508 373.773698 
L 440.033981 373.773698 
L 440.033981 318.521753 
L 418.376508 318.521753 
z
" clip-path="url(#pe97b83705f)" style="fill: #ff7f0e; opacity: 0.4"/>
   </g>
   <g id="patch_86">
    <path d="M 440.033981 373.773698 
L 461.691454 373.773698 
L 461.691454 359.960712 
L 440.033981 359.960712 
z
" clip-path="url(#pe97b83705f)" style="fill: #ff7f0e; opacity: 0.4"/>
   </g>
   <g id="patch_87">
    <path d="M 461.691454 373.773698 
L 483.348928 373.773698 
L 483.348928 341.543397 
L 461.691454 341.543397 
z
" clip-path="url(#pe97b83705f)" style="fill: #ff7f0e; opacity: 0.4"/>
   </g>
   <g id="patch_88">
    <path d="M 483.348928 373.773698 
L 505.006401 373.773698 
L 505.006401 336.939068 
L 483.348928 336.939068 
z
" clip-path="url(#pe97b83705f)" style="fill: #ff7f0e; opacity: 0.4"/>
   </g>
   <g id="patch_89">
    <path d="M 505.006401 373.773698 
L 526.663874 373.773698 
L 526.663874 364.56504 
L 505.006401 364.56504 
z
" clip-path="url(#pe97b83705f)" style="fill: #ff7f0e; opacity: 0.4"/>
   </g>
   <g id="patch_90">
    <path d="M 526.663874 373.773698 
L 548.321347 373.773698 
L 548.321347 359.960712 
L 526.663874 359.960712 
z
" clip-path="url(#pe97b83705f)" style="fill: #ff7f0e; opacity: 0.4"/>
   </g>
   <g id="matplotlib.axis_3">
    <g id="xtick_6">
     <g id="line2d_13">
      <g>
       <use xlink:href="#m2faddcb267" x="82.084314" y="373.773698" style="stroke: #000000; stroke-width: 0.8"/>
      </g>
     </g>
    </g>
    <g id="xtick_7">
     <g id="line2d_14">
      <g>
       <use xlink:href="#m2faddcb267" x="193.732775" y="373.773698" style="stroke: #000000; stroke-width: 0.8"/>
      </g>
     </g>
    </g>
    <g id="xtick_8">
     <g id="line2d_15">
      <g>
       <use xlink:href="#m2faddcb267" x="305.381236" y="373.773698" style="stroke: #000000; stroke-width: 0.8"/>
      </g>
     </g>
    </g>
    <g id="xtick_9">
     <g id="line2d_16">
      <g>
       <use xlink:href="#m2faddcb267" x="417.029697" y="373.773698" style="stroke: #000000; stroke-width: 0.8"/>
      </g>
     </g>
    </g>
    <g id="xtick_10">
     <g id="line2d_17">
      <g>
       <use xlink:href="#m2faddcb267" x="528.678158" y="373.773698" style="stroke: #000000; stroke-width: 0.8"/>
      </g>
     </g>
    </g>
   </g>
   <g id="matplotlib.axis_4">
    <g id="ytick_6">
     <g id="line2d_18">
      <g>
       <use xlink:href="#m2813d0e2a3" x="41.711875" y="373.773698" style="stroke: #000000; stroke-width: 0.8"/>
      </g>
     </g>
     <g id="text_10">
      <!-- 0 -->
      <g transform="translate(28.349375 377.572917)scale(0.1 -0.1)">
       <use xlink:href="#DejaVuSans-30"/>
      </g>
     </g>
    </g>
    <g id="ytick_7">
     <g id="line2d_19">
      <g>
       <use xlink:href="#m2813d0e2a3" x="41.711875" y="340.54875" style="stroke: #000000; stroke-width: 0.8"/>
      </g>
     </g>
     <g id="text_11">
      <!-- 2 -->
      <g transform="translate(28.349375 344.347969)scale(0.1 -0.1)">
       <use xlink:href="#DejaVuSans-32"/>
      </g>
     </g>
    </g>
    <g id="ytick_8">
     <g id="line2d_20">
      <g>
       <use xlink:href="#m2813d0e2a3" x="41.711875" y="307.323802" style="stroke: #000000; stroke-width: 0.8"/>
      </g>
     </g>
     <g id="text_12">
      <!-- 4 -->
      <g transform="translate(28.349375 311.123021)scale(0.1 -0.1)">
       <use xlink:href="#DejaVuSans-34"/>
      </g>
     </g>
    </g>
    <g id="ytick_9">
     <g id="line2d_21">
      <g>
       <use xlink:href="#m2813d0e2a3" x="41.711875" y="274.098854" style="stroke: #000000; stroke-width: 0.8"/>
      </g>
     </g>
     <g id="text_13">
      <!-- 6 -->
      <g transform="translate(28.349375 277.898073)scale(0.1 -0.1)">
       <use xlink:href="#DejaVuSans-36"/>
      </g>
     </g>
    </g>
    <g id="ytick_10">
     <g id="line2d_22">
      <g>
       <use xlink:href="#m2813d0e2a3" x="41.711875" y="240.873907" style="stroke: #000000; stroke-width: 0.8"/>
      </g>
     </g>
     <g id="text_14">
      <!-- 8 -->
      <g transform="translate(28.349375 244.673125)scale(0.1 -0.1)">
       <use xlink:href="#DejaVuSans-38"/>
      </g>
     </g>
    </g>
    <g id="text_15">
     <!-- Fraction of cells -->
     <g transform="translate(21.437812 357.889844)rotate(-90)scale(0.14 -0.14)">
      <use xlink:href="#DejaVuSans-46"/>
      <use xlink:href="#DejaVuSans-72" x="50.269531"/>
      <use xlink:href="#DejaVuSans-61" x="91.382812"/>
      <use xlink:href="#DejaVuSans-63" x="152.662109"/>
      <use xlink:href="#DejaVuSans-74" x="207.642578"/>
      <use xlink:href="#DejaVuSans-69" x="246.851562"/>
      <use xlink:href="#DejaVuSans-6f" x="274.634766"/>
      <use xlink:href="#DejaVuSans-6e" x="335.816406"/>
      <use xlink:href="#DejaVuSans-20" x="399.195312"/>
      <use xlink:href="#DejaVuSans-6f" x="430.982422"/>
      <use xlink:href="#DejaVuSans-66" x="492.164062"/>
      <use xlink:href="#DejaVuSans-20" x="527.369141"/>
      <use xlink:href="#DejaVuSans-63" x="559.15625"/>
      <use xlink:href="#DejaVuSans-65" x="614.136719"/>
      <use xlink:href="#DejaVuSans-6c" x="675.660156"/>
      <use xlink:href="#DejaVuSans-6c" x="703.443359"/>
      <use xlink:href="#DejaVuSans-73" x="731.226562"/>
     </g>
    </g>
   </g>
   <g id="line2d_23">
    <path d="M -1 373.28403 
L 5.396483 373.125472 
L 16.674105 372.682867 
L 27.951727 372.015744 
L 39.22935 371.058575 
L 50.506972 369.751486 
L 61.784594 368.052968 
L 73.062217 365.953222 
L 84.339839 363.484772 
L 95.617461 360.726802 
L 106.895084 357.800826 
L 118.172706 354.857501 
L 129.450328 352.05695 
L 140.72795 349.546934 
L 152.005573 347.443729 
L 163.283195 345.819489 
L 174.560817 344.697719 
L 185.83844 344.05625 
L 197.116062 343.835734 
L 208.393684 343.951503 
L 219.671307 344.307258 
L 230.948929 344.809617 
L 242.226551 345.38244 
L 253.504174 345.978953 
L 264.781796 346.588807 
L 276.059418 347.237293 
L 287.33704 347.975567 
L 298.614663 348.863611 
L 309.892285 349.950412 
L 321.169907 351.257132 
L 332.44753 352.768049 
L 343.725152 354.431184 
L 355.002774 356.167225 
L 366.280397 357.883154 
L 377.558019 359.486628 
L 388.835641 360.898393 
L 400.113263 362.061631 
L 411.390886 362.948129 
L 422.668508 363.56118 
L 433.94613 363.934629 
L 445.223753 364.127452 
L 456.501375 364.21405 
L 467.778997 364.271923 
L 479.05662 364.369637 
L 490.334242 364.558121 
L 501.611864 364.867109 
L 512.889487 365.306543 
L 524.167109 365.871022 
L 535.444731 366.544726 
L 546.722353 367.304985 
L 557.999976 368.124086 
L 569.277598 368.970207 
L 577 369.544439 
" clip-path="url(#pe97b83705f)" style="fill: none; stroke: #1f77b4; stroke-width: 1.5; stroke-linecap: square"/>
   </g>
   <g id="line2d_24">
    <path d="M -1 373.76835 
L 5.396483 373.765206 
L 16.674105 373.751631 
L 27.951727 373.721953 
L 39.22935 373.664159 
L 50.506972 373.564174 
L 61.784594 373.411027 
L 73.062217 373.204075 
L 84.339839 372.957954 
L 95.617461 372.699538 
L 106.895084 372.454653 
L 118.172706 372.229899 
L 129.450328 372.000788 
L 140.72795 371.715196 
L 152.005573 371.310758 
L 163.283195 370.735295 
L 174.560817 369.959368 
L 185.83844 368.979137 
L 197.116062 367.814924 
L 208.393684 366.508074 
L 219.671307 365.11043 
L 230.948929 363.660299 
L 242.226551 362.151671 
L 253.504174 360.518356 
L 264.781796 358.65385 
L 276.059418 356.466098 
L 287.33704 353.939496 
L 298.614663 351.166157 
L 309.892285 348.323902 
L 321.169907 345.608988 
L 332.44753 343.157717 
L 343.725152 340.998903 
L 355.002774 339.066123 
L 366.280397 337.270271 
L 377.558019 335.598926 
L 388.835641 334.184843 
L 400.113263 333.290556 
L 411.390886 333.199044 
L 422.668508 334.063983 
L 433.94613 335.8132 
L 445.223753 338.17609 
L 456.501375 340.824813 
L 467.778997 343.537344 
L 479.05662 346.274712 
L 490.334242 349.13064 
L 501.611864 352.204956 
L 512.889487 355.496648 
L 524.167109 358.879769 
L 535.444731 362.15541 
L 546.722353 365.127734 
L 557.999976 367.657379 
L 569.277598 369.678799 
L 577 370.715833 
" clip-path="url(#pe97b83705f)" style="fill: none; stroke: #ff7f0e; stroke-width: 1.5; stroke-linecap: square"/>
   </g>
   <g id="patch_91">
    <path d="M 41.711875 373.773698 
L 41.711875 232.34224 
" style="fill: none; stroke: #000000; stroke-width: 0.8; stroke-linejoin: miter; stroke-linecap: square"/>
   </g>
   <g id="patch_92">
    <path d="M 565.2 373.773698 
L 565.2 232.34224 
" style="fill: none; stroke: #000000; stroke-width: 0.8; stroke-linejoin: miter; stroke-linecap: square"/>
   </g>
   <g id="patch_93">
    <path d="M 41.711875 373.773698 
L 565.2 373.773698 
" style="fill: none; stroke: #000000; stroke-width: 0.8; stroke-linejoin: miter; stroke-linecap: square"/>
   </g>
   <g id="patch_94">
    <path d="M 41.711875 232.34224 
L 565.2 232.34224 
" style="fill: none; stroke: #000000; stroke-width: 0.8; stroke-linejoin: miter; stroke-linecap: square"/>
   </g>
   <g id="text_16">
    <!-- cytd cells -->
    <g transform="translate(270.359062 226.34224)scale(0.14 -0.14)">
     <defs>
      <path id="DejaVuSans-79" d="M 2059 -325 
Q 1816 -950 1584 -1140 
Q 1353 -1331 966 -1331 
L 506 -1331 
L 506 -850 
L 844 -850 
Q 1081 -850 1212 -737 
Q 1344 -625 1503 -206 
L 1606 56 
L 191 3500 
L 800 3500 
L 1894 763 
L 2988 3500 
L 3597 3500 
L 2059 -325 
z
" transform="scale(0.015625)"/>
     </defs>
     <use xlink:href="#DejaVuSans-63"/>
     <use xlink:href="#DejaVuSans-79" x="54.980469"/>
     <use xlink:href="#DejaVuSans-74" x="114.160156"/>
     <use xlink:href="#DejaVuSans-64" x="153.369141"/>
     <use xlink:href="#DejaVuSans-20" x="216.845703"/>
     <use xlink:href="#DejaVuSans-63" x="248.632812"/>
     <use xlink:href="#DejaVuSans-65" x="303.613281"/>
     <use xlink:href="#DejaVuSans-6c" x="365.136719"/>
     <use xlink:href="#DejaVuSans-6c" x="392.919922"/>
     <use xlink:href="#DejaVuSans-73" x="420.703125"/>
    </g>
   </g>
   <g id="legend_2">
    <g id="patch_95">
     <path d="M 487.966875 277.16974 
L 556.8 277.16974 
Q 559.2 277.16974 559.2 274.76974 
L 559.2 240.74224 
Q 559.2 238.34224 556.8 238.34224 
L 487.966875 238.34224 
Q 485.566875 238.34224 485.566875 240.74224 
L 485.566875 274.76974 
Q 485.566875 277.16974 487.966875 277.16974 
z
" style="fill: #ffffff; opacity: 0.8; stroke: #cccccc; stroke-linejoin: miter"/>
    </g>
    <g id="patch_96">
     <path d="M 490.366875 252.260365 
L 514.366875 252.260365 
L 514.366875 243.860365 
L 490.366875 243.860365 
z
" style="fill: #1f77b4; opacity: 0.4"/>
    </g>
    <g id="text_17">
     <!-- dlm8 -->
     <g transform="translate(523.966875 252.260365)scale(0.12 -0.12)">
      <use xlink:href="#DejaVuSans-64"/>
      <use xlink:href="#DejaVuSans-6c" x="63.476562"/>
      <use xlink:href="#DejaVuSans-6d" x="91.259766"/>
      <use xlink:href="#DejaVuSans-38" x="188.671875"/>
     </g>
    </g>
    <g id="patch_97">
     <path d="M 490.366875 269.874115 
L 514.366875 269.874115 
L 514.366875 261.474115 
L 490.366875 261.474115 
z
" style="fill: #ff7f0e; opacity: 0.4"/>
    </g>
    <g id="text_18">
     <!-- dunn -->
     <g transform="translate(523.966875 269.874115)scale(0.12 -0.12)">
      <use xlink:href="#DejaVuSans-64"/>
      <use xlink:href="#DejaVuSans-75" x="63.476562"/>
      <use xlink:href="#DejaVuSans-6e" x="126.855469"/>
      <use xlink:href="#DejaVuSans-6e" x="190.234375"/>
     </g>
    </g>
   </g>
  </g>
  <g id="axes_3">
   <g id="patch_98">
    <path d="M 41.711875 548.521875 
L 565.2 548.521875 
L 565.2 407.090417 
L 41.711875 407.090417 
z
" style="fill: #ffffff"/>
   </g>
   <g id="patch_99">
    <path d="M 75.773458 548.521875 
L 87.988679 548.521875 
L 87.988679 487.296135 
L 75.773458 487.296135 
z
" clip-path="url(#p835f0611e6)" style="fill: #1f77b4; opacity: 0.4"/>
   </g>
   <g id="patch_100">
    <path d="M 87.988679 548.521875 
L 100.203901 548.521875 
L 100.203901 438.315544 
L 87.988679 438.315544 
z
" clip-path="url(#p835f0611e6)" style="fill: #1f77b4; opacity: 0.4"/>
   </g>
   <g id="patch_101">
    <path d="M 100.203901 548.521875 
L 112.419122 548.521875 
L 112.419122 413.825248 
L 100.203901 413.825248 
z
" clip-path="url(#p835f0611e6)" style="fill: #1f77b4; opacity: 0.4"/>
   </g>
   <g id="patch_102">
    <path d="M 112.419122 548.521875 
L 124.634343 548.521875 
L 124.634343 487.296135 
L 112.419122 487.296135 
z
" clip-path="url(#p835f0611e6)" style="fill: #1f77b4; opacity: 0.4"/>
   </g>
   <g id="patch_103">
    <path d="M 124.634343 548.521875 
L 136.849564 548.521875 
L 136.849564 462.80584 
L 124.634343 462.80584 
z
" clip-path="url(#p835f0611e6)" style="fill: #1f77b4; opacity: 0.4"/>
   </g>
   <g id="patch_104">
    <path d="M 136.849564 548.521875 
L 149.064785 548.521875 
L 149.064785 475.050988 
L 136.849564 475.050988 
z
" clip-path="url(#p835f0611e6)" style="fill: #1f77b4; opacity: 0.4"/>
   </g>
   <g id="patch_105">
    <path d="M 149.064785 548.521875 
L 161.280006 548.521875 
L 161.280006 499.541283 
L 149.064785 499.541283 
z
" clip-path="url(#p835f0611e6)" style="fill: #1f77b4; opacity: 0.4"/>
   </g>
   <g id="patch_106">
    <path d="M 161.280006 548.521875 
L 173.495227 548.521875 
L 173.495227 511.786431 
L 161.280006 511.786431 
z
" clip-path="url(#p835f0611e6)" style="fill: #1f77b4; opacity: 0.4"/>
   </g>
   <g id="patch_107">
    <path d="M 173.495227 548.521875 
L 185.710448 548.521875 
L 185.710448 536.276727 
L 173.495227 536.276727 
z
" clip-path="url(#p835f0611e6)" style="fill: #1f77b4; opacity: 0.4"/>
   </g>
   <g id="patch_108">
    <path d="M 185.710448 548.521875 
L 197.925669 548.521875 
L 197.925669 536.276727 
L 185.710448 536.276727 
z
" clip-path="url(#p835f0611e6)" style="fill: #1f77b4; opacity: 0.4"/>
   </g>
   <g id="patch_109">
    <path d="M 197.925669 548.521875 
L 210.14089 548.521875 
L 210.14089 499.541283 
L 197.925669 499.541283 
z
" clip-path="url(#p835f0611e6)" style="fill: #1f77b4; opacity: 0.4"/>
   </g>
   <g id="patch_110">
    <path d="M 210.14089 548.521875 
L 222.356111 548.521875 
L 222.356111 548.521875 
L 210.14089 548.521875 
z
" clip-path="url(#p835f0611e6)" style="fill: #1f77b4; opacity: 0.4"/>
   </g>
   <g id="patch_111">
    <path d="M 222.356111 548.521875 
L 234.571332 548.521875 
L 234.571332 536.276727 
L 222.356111 536.276727 
z
" clip-path="url(#p835f0611e6)" style="fill: #1f77b4; opacity: 0.4"/>
   </g>
   <g id="patch_112">
    <path d="M 234.571332 548.521875 
L 246.786554 548.521875 
L 246.786554 536.276727 
L 234.571332 536.276727 
z
" clip-path="url(#p835f0611e6)" style="fill: #1f77b4; opacity: 0.4"/>
   </g>
   <g id="patch_113">
    <path d="M 246.786554 548.521875 
L 259.001775 548.521875 
L 259.001775 536.276727 
L 246.786554 536.276727 
z
" clip-path="url(#p835f0611e6)" style="fill: #1f77b4; opacity: 0.4"/>
   </g>
   <g id="patch_114">
    <path d="M 259.001775 548.521875 
L 271.216996 548.521875 
L 271.216996 548.521875 
L 259.001775 548.521875 
z
" clip-path="url(#p835f0611e6)" style="fill: #1f77b4; opacity: 0.4"/>
   </g>
   <g id="patch_115">
    <path d="M 271.216996 548.521875 
L 283.432217 548.521875 
L 283.432217 548.521875 
L 271.216996 548.521875 
z
" clip-path="url(#p835f0611e6)" style="fill: #1f77b4; opacity: 0.4"/>
   </g>
   <g id="patch_116">
    <path d="M 283.432217 548.521875 
L 295.647438 548.521875 
L 295.647438 548.521875 
L 283.432217 548.521875 
z
" clip-path="url(#p835f0611e6)" style="fill: #1f77b4; opacity: 0.4"/>
   </g>
   <g id="patch_117">
    <path d="M 295.647438 548.521875 
L 307.862659 548.521875 
L 307.862659 524.031579 
L 295.647438 524.031579 
z
" clip-path="url(#p835f0611e6)" style="fill: #1f77b4; opacity: 0.4"/>
   </g>
   <g id="patch_118">
    <path d="M 307.862659 548.521875 
L 320.07788 548.521875 
L 320.07788 536.276727 
L 307.862659 536.276727 
z
" clip-path="url(#p835f0611e6)" style="fill: #1f77b4; opacity: 0.4"/>
   </g>
   <g id="patch_119">
    <path d="M 126.84061 548.521875 
L 139.896118 548.521875 
L 139.896118 526.09024 
L 126.84061 526.09024 
z
" clip-path="url(#p835f0611e6)" style="fill: #ff7f0e; opacity: 0.4"/>
   </g>
   <g id="patch_120">
    <path d="M 139.896118 548.521875 
L 152.951626 548.521875 
L 152.951626 541.044663 
L 139.896118 541.044663 
z
" clip-path="url(#p835f0611e6)" style="fill: #ff7f0e; opacity: 0.4"/>
   </g>
   <g id="patch_121">
    <path d="M 152.951626 548.521875 
L 166.007134 548.521875 
L 166.007134 541.044663 
L 152.951626 541.044663 
z
" clip-path="url(#p835f0611e6)" style="fill: #ff7f0e; opacity: 0.4"/>
   </g>
   <g id="patch_122">
    <path d="M 166.007134 548.521875 
L 179.062643 548.521875 
L 179.062643 548.521875 
L 166.007134 548.521875 
z
" clip-path="url(#p835f0611e6)" style="fill: #ff7f0e; opacity: 0.4"/>
   </g>
   <g id="patch_123">
    <path d="M 179.062643 548.521875 
L 192.118151 548.521875 
L 192.118151 503.658605 
L 179.062643 503.658605 
z
" clip-path="url(#p835f0611e6)" style="fill: #ff7f0e; opacity: 0.4"/>
   </g>
   <g id="patch_124">
    <path d="M 192.118151 548.521875 
L 205.173659 548.521875 
L 205.173659 526.09024 
L 192.118151 526.09024 
z
" clip-path="url(#p835f0611e6)" style="fill: #ff7f0e; opacity: 0.4"/>
   </g>
   <g id="patch_125">
    <path d="M 205.173659 548.521875 
L 218.229167 548.521875 
L 218.229167 503.658605 
L 205.173659 503.658605 
z
" clip-path="url(#p835f0611e6)" style="fill: #ff7f0e; opacity: 0.4"/>
   </g>
   <g id="patch_126">
    <path d="M 218.229167 548.521875 
L 231.284675 548.521875 
L 231.284675 526.09024 
L 218.229167 526.09024 
z
" clip-path="url(#p835f0611e6)" style="fill: #ff7f0e; opacity: 0.4"/>
   </g>
   <g id="patch_127">
    <path d="M 231.284675 548.521875 
L 244.340183 548.521875 
L 244.340183 496.181394 
L 231.284675 496.181394 
z
" clip-path="url(#p835f0611e6)" style="fill: #ff7f0e; opacity: 0.4"/>
   </g>
   <g id="patch_128">
    <path d="M 244.340183 548.521875 
L 257.395691 548.521875 
L 257.395691 511.135817 
L 244.340183 511.135817 
z
" clip-path="url(#p835f0611e6)" style="fill: #ff7f0e; opacity: 0.4"/>
   </g>
   <g id="patch_129">
    <path d="M 257.395691 548.521875 
L 270.4512 548.521875 
L 270.4512 488.704182 
L 257.395691 488.704182 
z
" clip-path="url(#p835f0611e6)" style="fill: #ff7f0e; opacity: 0.4"/>
   </g>
   <g id="patch_130">
    <path d="M 270.4512 548.521875 
L 283.506708 548.521875 
L 283.506708 488.704182 
L 270.4512 488.704182 
z
" clip-path="url(#p835f0611e6)" style="fill: #ff7f0e; opacity: 0.4"/>
   </g>
   <g id="patch_131">
    <path d="M 283.506708 548.521875 
L 296.562216 548.521875 
L 296.562216 458.795336 
L 283.506708 458.795336 
z
" clip-path="url(#p835f0611e6)" style="fill: #ff7f0e; opacity: 0.4"/>
   </g>
   <g id="patch_132">
    <path d="M 296.562216 548.521875 
L 309.617724 548.521875 
L 309.617724 488.704182 
L 296.562216 488.704182 
z
" clip-path="url(#p835f0611e6)" style="fill: #ff7f0e; opacity: 0.4"/>
   </g>
   <g id="patch_133">
    <path d="M 309.617724 548.521875 
L 322.673232 548.521875 
L 322.673232 488.704182 
L 309.617724 488.704182 
z
" clip-path="url(#p835f0611e6)" style="fill: #ff7f0e; opacity: 0.4"/>
   </g>
   <g id="patch_134">
    <path d="M 322.673232 548.521875 
L 335.72874 548.521875 
L 335.72874 496.181394 
L 322.673232 496.181394 
z
" clip-path="url(#p835f0611e6)" style="fill: #ff7f0e; opacity: 0.4"/>
   </g>
   <g id="patch_135">
    <path d="M 335.72874 548.521875 
L 348.784248 548.521875 
L 348.784248 541.044663 
L 335.72874 541.044663 
z
" clip-path="url(#p835f0611e6)" style="fill: #ff7f0e; opacity: 0.4"/>
   </g>
   <g id="patch_136">
    <path d="M 348.784248 548.521875 
L 361.839756 548.521875 
L 361.839756 518.613029 
L 348.784248 518.613029 
z
" clip-path="url(#p835f0611e6)" style="fill: #ff7f0e; opacity: 0.4"/>
   </g>
   <g id="patch_137">
    <path d="M 361.839756 548.521875 
L 374.895265 548.521875 
L 374.895265 541.044663 
L 361.839756 541.044663 
z
" clip-path="url(#p835f0611e6)" style="fill: #ff7f0e; opacity: 0.4"/>
   </g>
   <g id="patch_138">
    <path d="M 374.895265 548.521875 
L 387.950773 548.521875 
L 387.950773 526.09024 
L 374.895265 526.09024 
z
" clip-path="url(#p835f0611e6)" style="fill: #ff7f0e; opacity: 0.4"/>
   </g>
   <g id="matplotlib.axis_5">
    <g id="xtick_11">
     <g id="line2d_25">
      <g>
       <use xlink:href="#m2faddcb267" x="82.084314" y="548.521875" style="stroke: #000000; stroke-width: 0.8"/>
      </g>
     </g>
     <g id="text_19">
      <!-- 0.4 -->
      <g transform="translate(74.132752 563.120312)scale(0.1 -0.1)">
       <defs>
        <path id="DejaVuSans-2e" d="M 684 794 
L 1344 794 
L 1344 0 
L 684 0 
L 684 794 
z
" transform="scale(0.015625)"/>
       </defs>
       <use xlink:href="#DejaVuSans-30"/>
       <use xlink:href="#DejaVuSans-2e" x="63.623047"/>
       <use xlink:href="#DejaVuSans-34" x="95.410156"/>
      </g>
     </g>
    </g>
    <g id="xtick_12">
     <g id="line2d_26">
      <g>
       <use xlink:href="#m2faddcb267" x="193.732775" y="548.521875" style="stroke: #000000; stroke-width: 0.8"/>
      </g>
     </g>
     <g id="text_20">
      <!-- 0.6 -->
      <g transform="translate(185.781213 563.120312)scale(0.1 -0.1)">
       <use xlink:href="#DejaVuSans-30"/>
       <use xlink:href="#DejaVuSans-2e" x="63.623047"/>
       <use xlink:href="#DejaVuSans-36" x="95.410156"/>
      </g>
     </g>
    </g>
    <g id="xtick_13">
     <g id="line2d_27">
      <g>
       <use xlink:href="#m2faddcb267" x="305.381236" y="548.521875" style="stroke: #000000; stroke-width: 0.8"/>
      </g>
     </g>
     <g id="text_21">
      <!-- 0.8 -->
      <g transform="translate(297.429674 563.120312)scale(0.1 -0.1)">
       <use xlink:href="#DejaVuSans-30"/>
       <use xlink:href="#DejaVuSans-2e" x="63.623047"/>
       <use xlink:href="#DejaVuSans-38" x="95.410156"/>
      </g>
     </g>
    </g>
    <g id="xtick_14">
     <g id="line2d_28">
      <g>
       <use xlink:href="#m2faddcb267" x="417.029697" y="548.521875" style="stroke: #000000; stroke-width: 0.8"/>
      </g>
     </g>
     <g id="text_22">
      <!-- 1.0 -->
      <g transform="translate(409.078134 563.120312)scale(0.1 -0.1)">
       <defs>
        <path id="DejaVuSans-31" d="M 794 531 
L 1825 531 
L 1825 4091 
L 703 3866 
L 703 4441 
L 1819 4666 
L 2450 4666 
L 2450 531 
L 3481 531 
L 3481 0 
L 794 0 
L 794 531 
z
" transform="scale(0.015625)"/>
       </defs>
       <use xlink:href="#DejaVuSans-31"/>
       <use xlink:href="#DejaVuSans-2e" x="63.623047"/>
       <use xlink:href="#DejaVuSans-30" x="95.410156"/>
      </g>
     </g>
    </g>
    <g id="xtick_15">
     <g id="line2d_29">
      <g>
       <use xlink:href="#m2faddcb267" x="528.678158" y="548.521875" style="stroke: #000000; stroke-width: 0.8"/>
      </g>
     </g>
     <g id="text_23">
      <!-- 1.2 -->
      <g transform="translate(520.726595 563.120312)scale(0.1 -0.1)">
       <use xlink:href="#DejaVuSans-31"/>
       <use xlink:href="#DejaVuSans-2e" x="63.623047"/>
       <use xlink:href="#DejaVuSans-32" x="95.410156"/>
      </g>
     </g>
    </g>
   </g>
   <g id="matplotlib.axis_6">
    <g id="ytick_11">
     <g id="line2d_30">
      <g>
       <use xlink:href="#m2813d0e2a3" x="41.711875" y="548.521875" style="stroke: #000000; stroke-width: 0.8"/>
      </g>
     </g>
     <g id="text_24">
      <!-- 0 -->
      <g transform="translate(28.349375 552.321094)scale(0.1 -0.1)">
       <use xlink:href="#DejaVuSans-30"/>
      </g>
     </g>
    </g>
    <g id="ytick_12">
     <g id="line2d_31">
      <g>
       <use xlink:href="#m2813d0e2a3" x="41.711875" y="515.296927" style="stroke: #000000; stroke-width: 0.8"/>
      </g>
     </g>
     <g id="text_25">
      <!-- 2 -->
      <g transform="translate(28.349375 519.096146)scale(0.1 -0.1)">
       <use xlink:href="#DejaVuSans-32"/>
      </g>
     </g>
    </g>
    <g id="ytick_13">
     <g id="line2d_32">
      <g>
       <use xlink:href="#m2813d0e2a3" x="41.711875" y="482.071979" style="stroke: #000000; stroke-width: 0.8"/>
      </g>
     </g>
     <g id="text_26">
      <!-- 4 -->
      <g transform="translate(28.349375 485.871198)scale(0.1 -0.1)">
       <use xlink:href="#DejaVuSans-34"/>
      </g>
     </g>
    </g>
    <g id="ytick_14">
     <g id="line2d_33">
      <g>
       <use xlink:href="#m2813d0e2a3" x="41.711875" y="448.847032" style="stroke: #000000; stroke-width: 0.8"/>
      </g>
     </g>
     <g id="text_27">
      <!-- 6 -->
      <g transform="translate(28.349375 452.64625)scale(0.1 -0.1)">
       <use xlink:href="#DejaVuSans-36"/>
      </g>
     </g>
    </g>
    <g id="ytick_15">
     <g id="line2d_34">
      <g>
       <use xlink:href="#m2813d0e2a3" x="41.711875" y="415.622084" style="stroke: #000000; stroke-width: 0.8"/>
      </g>
     </g>
     <g id="text_28">
      <!-- 8 -->
      <g transform="translate(28.349375 419.421302)scale(0.1 -0.1)">
       <use xlink:href="#DejaVuSans-38"/>
      </g>
     </g>
    </g>
    <g id="text_29">
     <!-- Fraction of cells -->
     <g transform="translate(21.437812 532.638021)rotate(-90)scale(0.14 -0.14)">
      <use xlink:href="#DejaVuSans-46"/>
      <use xlink:href="#DejaVuSans-72" x="50.269531"/>
      <use xlink:href="#DejaVuSans-61" x="91.382812"/>
      <use xlink:href="#DejaVuSans-63" x="152.662109"/>
      <use xlink:href="#DejaVuSans-74" x="207.642578"/>
      <use xlink:href="#DejaVuSans-69" x="246.851562"/>
      <use xlink:href="#DejaVuSans-6f" x="274.634766"/>
      <use xlink:href="#DejaVuSans-6e" x="335.816406"/>
      <use xlink:href="#DejaVuSans-20" x="399.195312"/>
      <use xlink:href="#DejaVuSans-6f" x="430.982422"/>
      <use xlink:href="#DejaVuSans-66" x="492.164062"/>
      <use xlink:href="#DejaVuSans-20" x="527.369141"/>
      <use xlink:href="#DejaVuSans-63" x="559.15625"/>
      <use xlink:href="#DejaVuSans-65" x="614.136719"/>
      <use xlink:href="#DejaVuSans-6c" x="675.660156"/>
      <use xlink:href="#DejaVuSans-6c" x="703.443359"/>
      <use xlink:href="#DejaVuSans-73" x="731.226562"/>
     </g>
    </g>
   </g>
   <g id="line2d_35">
    <path d="M -1 548.433206 
L 5.396483 548.361662 
L 16.674105 547.899283 
L 27.951727 546.511464 
L 39.22935 543.091816 
L 50.506972 536.158618 
L 61.784594 524.58476 
L 73.062217 508.734025 
L 84.339839 491.162737 
L 95.617461 475.984293 
L 106.895084 466.961252 
L 118.172706 465.65553 
L 129.450328 471.095814 
L 140.72795 480.959702 
L 152.005573 492.846956 
L 163.283195 504.668096 
L 174.560817 514.665078 
L 185.83844 521.826307 
L 197.116062 526.350723 
L 208.393684 529.364912 
L 219.671307 532.019652 
L 230.948929 534.849491 
L 242.226551 537.782396 
L 253.504174 540.412936 
L 264.781796 542.218609 
L 276.059418 542.828055 
L 287.33704 542.373016 
L 298.614663 541.587826 
L 309.892285 541.39315 
L 321.169907 542.253548 
L 332.44753 543.910027 
L 343.725152 545.70204 
L 355.002774 547.092683 
L 366.280397 547.922558 
L 377.558019 548.314398 
L 388.835641 548.462731 
L 400.113263 548.50803 
L 411.390886 548.519221 
L 422.668508 548.521459 
L 433.94613 548.521822 
L 445.223753 548.521869 
L 456.501375 548.521875 
L 467.778997 548.521875 
L 479.05662 548.521875 
L 490.334242 548.521875 
L 501.611864 548.521875 
L 512.889487 548.521875 
L 524.167109 548.521875 
L 535.444731 548.521875 
L 546.722353 548.521875 
L 557.999976 548.521875 
L 569.277598 548.521875 
L 577 548.521875 
" clip-path="url(#p835f0611e6)" style="fill: none; stroke: #1f77b4; stroke-width: 1.5; stroke-linecap: square"/>
   </g>
   <g id="line2d_36">
    <path d="M -1 548.521872 
L 5.396483 548.521869 
L 16.674105 548.521813 
L 27.951727 548.521337 
L 39.22935 548.518151 
L 50.506972 548.50133 
L 61.784594 548.431438 
L 73.062217 548.203654 
L 84.339839 547.623826 
L 95.617461 546.477717 
L 106.895084 544.730849 
L 118.172706 542.68452 
L 129.450328 540.787677 
L 140.72795 539.13789 
L 152.005573 537.21513 
L 163.283195 534.280603 
L 174.560817 530.096181 
L 185.83844 525.168172 
L 197.116062 520.270963 
L 208.393684 515.858631 
L 219.671307 511.929322 
L 230.948929 508.170678 
L 242.226551 504.055643 
L 253.504174 499.061893 
L 264.781796 493.244752 
L 276.059418 487.762271 
L 287.33704 484.617994 
L 298.614663 485.538297 
L 309.892285 490.87636 
L 321.169907 499.4471 
L 332.44753 509.244877 
L 343.725152 518.393346 
L 355.002774 525.824321 
L 366.280397 531.436842 
L 377.558019 535.746318 
L 388.835641 539.334576 
L 400.113263 542.458607 
L 411.390886 545.013229 
L 422.668508 546.804008 
L 433.94613 547.827431 
L 445.223753 548.293647 
L 456.501375 548.461461 
L 467.778997 548.509065 
L 479.05662 548.519706 
L 490.334242 548.521582 
L 501.611864 548.521844 
L 512.889487 548.521872 
L 524.167109 548.521875 
L 535.444731 548.521875 
L 546.722353 548.521875 
L 557.999976 548.521875 
L 569.277598 548.521875 
L 577 548.521875 
" clip-path="url(#p835f0611e6)" style="fill: none; stroke: #ff7f0e; stroke-width: 1.5; stroke-linecap: square"/>
   </g>
   <g id="patch_139">
    <path d="M 41.711875 548.521875 
L 41.711875 407.090417 
" style="fill: none; stroke: #000000; stroke-width: 0.8; stroke-linejoin: miter; stroke-linecap: square"/>
   </g>
   <g id="patch_140">
    <path d="M 565.2 548.521875 
L 565.2 407.090417 
" style="fill: none; stroke: #000000; stroke-width: 0.8; stroke-linejoin: miter; stroke-linecap: square"/>
   </g>
   <g id="patch_141">
    <path d="M 41.711875 548.521875 
L 565.2 548.521875 
" style="fill: none; stroke: #000000; stroke-width: 0.8; stroke-linejoin: miter; stroke-linecap: square"/>
   </g>
   <g id="patch_142">
    <path d="M 41.711875 407.090417 
L 565.2 407.090417 
" style="fill: none; stroke: #000000; stroke-width: 0.8; stroke-linejoin: miter; stroke-linecap: square"/>
   </g>
   <g id="text_30">
    <!-- jasp cells -->
    <g transform="translate(271.214375 401.090417)scale(0.14 -0.14)">
     <defs>
      <path id="DejaVuSans-6a" d="M 603 3500 
L 1178 3500 
L 1178 -63 
Q 1178 -731 923 -1031 
Q 669 -1331 103 -1331 
L -116 -1331 
L -116 -844 
L 38 -844 
Q 366 -844 484 -692 
Q 603 -541 603 -63 
L 603 3500 
z
M 603 4863 
L 1178 4863 
L 1178 4134 
L 603 4134 
L 603 4863 
z
" transform="scale(0.015625)"/>
      <path id="DejaVuSans-70" d="M 1159 525 
L 1159 -1331 
L 581 -1331 
L 581 3500 
L 1159 3500 
L 1159 2969 
Q 1341 3281 1617 3432 
Q 1894 3584 2278 3584 
Q 2916 3584 3314 3078 
Q 3713 2572 3713 1747 
Q 3713 922 3314 415 
Q 2916 -91 2278 -91 
Q 1894 -91 1617 61 
Q 1341 213 1159 525 
z
M 3116 1747 
Q 3116 2381 2855 2742 
Q 2594 3103 2138 3103 
Q 1681 3103 1420 2742 
Q 1159 2381 1159 1747 
Q 1159 1113 1420 752 
Q 1681 391 2138 391 
Q 2594 391 2855 752 
Q 3116 1113 3116 1747 
z
" transform="scale(0.015625)"/>
     </defs>
     <use xlink:href="#DejaVuSans-6a"/>
     <use xlink:href="#DejaVuSans-61" x="27.783203"/>
     <use xlink:href="#DejaVuSans-73" x="89.0625"/>
     <use xlink:href="#DejaVuSans-70" x="141.162109"/>
     <use xlink:href="#DejaVuSans-20" x="204.638672"/>
     <use xlink:href="#DejaVuSans-63" x="236.425781"/>
     <use xlink:href="#DejaVuSans-65" x="291.40625"/>
     <use xlink:href="#DejaVuSans-6c" x="352.929688"/>
     <use xlink:href="#DejaVuSans-6c" x="380.712891"/>
     <use xlink:href="#DejaVuSans-73" x="408.496094"/>
    </g>
   </g>
   <g id="legend_3">
    <g id="patch_143">
     <path d="M 487.966875 451.917917 
L 556.8 451.917917 
Q 559.2 451.917917 559.2 449.517917 
L 559.2 415.490417 
Q 559.2 413.090417 556.8 413.090417 
L 487.966875 413.090417 
Q 485.566875 413.090417 485.566875 415.490417 
L 485.566875 449.517917 
Q 485.566875 451.917917 487.966875 451.917917 
z
" style="fill: #ffffff; opacity: 0.8; stroke: #cccccc; stroke-linejoin: miter"/>
    </g>
    <g id="patch_144">
     <path d="M 490.366875 427.008542 
L 514.366875 427.008542 
L 514.366875 418.608542 
L 490.366875 418.608542 
z
" style="fill: #1f77b4; opacity: 0.4"/>
    </g>
    <g id="text_31">
     <!-- dlm8 -->
     <g transform="translate(523.966875 427.008542)scale(0.12 -0.12)">
      <use xlink:href="#DejaVuSans-64"/>
      <use xlink:href="#DejaVuSans-6c" x="63.476562"/>
      <use xlink:href="#DejaVuSans-6d" x="91.259766"/>
      <use xlink:href="#DejaVuSans-38" x="188.671875"/>
     </g>
    </g>
    <g id="patch_145">
     <path d="M 490.366875 444.622292 
L 514.366875 444.622292 
L 514.366875 436.222292 
L 490.366875 436.222292 
z
" style="fill: #ff7f0e; opacity: 0.4"/>
    </g>
    <g id="text_32">
     <!-- dunn -->
     <g transform="translate(523.966875 444.622292)scale(0.12 -0.12)">
      <use xlink:href="#DejaVuSans-64"/>
      <use xlink:href="#DejaVuSans-75" x="63.476562"/>
      <use xlink:href="#DejaVuSans-6e" x="126.855469"/>
      <use xlink:href="#DejaVuSans-6e" x="190.234375"/>
     </g>
    </g>
   </g>
  </g>
  <g id="text_33">
   <!-- Histograms of srv distances (a=1, b=0.5) to global mean cell -->
   <g transform="translate(-18.7375 26.716875)scale(0.2 -0.2)">
    <defs>
     <path id="DejaVuSans-48" d="M 628 4666 
L 1259 4666 
L 1259 2753 
L 3553 2753 
L 3553 4666 
L 4184 4666 
L 4184 0 
L 3553 0 
L 3553 2222 
L 1259 2222 
L 1259 0 
L 628 0 
L 628 4666 
z
" transform="scale(0.015625)"/>
     <path id="DejaVuSans-67" d="M 2906 1791 
Q 2906 2416 2648 2759 
Q 2391 3103 1925 3103 
Q 1463 3103 1205 2759 
Q 947 2416 947 1791 
Q 947 1169 1205 825 
Q 1463 481 1925 481 
Q 2391 481 2648 825 
Q 2906 1169 2906 1791 
z
M 3481 434 
Q 3481 -459 3084 -895 
Q 2688 -1331 1869 -1331 
Q 1566 -1331 1297 -1286 
Q 1028 -1241 775 -1147 
L 775 -588 
Q 1028 -725 1275 -790 
Q 1522 -856 1778 -856 
Q 2344 -856 2625 -561 
Q 2906 -266 2906 331 
L 2906 616 
Q 2728 306 2450 153 
Q 2172 0 1784 0 
Q 1141 0 747 490 
Q 353 981 353 1791 
Q 353 2603 747 3093 
Q 1141 3584 1784 3584 
Q 2172 3584 2450 3431 
Q 2728 3278 2906 2969 
L 2906 3500 
L 3481 3500 
L 3481 434 
z
" transform="scale(0.015625)"/>
     <path id="DejaVuSans-76" d="M 191 3500 
L 800 3500 
L 1894 563 
L 2988 3500 
L 3597 3500 
L 2284 0 
L 1503 0 
L 191 3500 
z
" transform="scale(0.015625)"/>
     <path id="DejaVuSans-28" d="M 1984 4856 
Q 1566 4138 1362 3434 
Q 1159 2731 1159 2009 
Q 1159 1288 1364 580 
Q 1569 -128 1984 -844 
L 1484 -844 
Q 1016 -109 783 600 
Q 550 1309 550 2009 
Q 550 2706 781 3412 
Q 1013 4119 1484 4856 
L 1984 4856 
z
" transform="scale(0.015625)"/>
     <path id="DejaVuSans-3d" d="M 678 2906 
L 4684 2906 
L 4684 2381 
L 678 2381 
L 678 2906 
z
M 678 1631 
L 4684 1631 
L 4684 1100 
L 678 1100 
L 678 1631 
z
" transform="scale(0.015625)"/>
     <path id="DejaVuSans-2c" d="M 750 794 
L 1409 794 
L 1409 256 
L 897 -744 
L 494 -744 
L 750 256 
L 750 794 
z
" transform="scale(0.015625)"/>
     <path id="DejaVuSans-62" d="M 3116 1747 
Q 3116 2381 2855 2742 
Q 2594 3103 2138 3103 
Q 1681 3103 1420 2742 
Q 1159 2381 1159 1747 
Q 1159 1113 1420 752 
Q 1681 391 2138 391 
Q 2594 391 2855 752 
Q 3116 1113 3116 1747 
z
M 1159 2969 
Q 1341 3281 1617 3432 
Q 1894 3584 2278 3584 
Q 2916 3584 3314 3078 
Q 3713 2572 3713 1747 
Q 3713 922 3314 415 
Q 2916 -91 2278 -91 
Q 1894 -91 1617 61 
Q 1341 213 1159 525 
L 1159 0 
L 581 0 
L 581 4863 
L 1159 4863 
L 1159 2969 
z
" transform="scale(0.015625)"/>
     <path id="DejaVuSans-35" d="M 691 4666 
L 3169 4666 
L 3169 4134 
L 1269 4134 
L 1269 2991 
Q 1406 3038 1543 3061 
Q 1681 3084 1819 3084 
Q 2600 3084 3056 2656 
Q 3513 2228 3513 1497 
Q 3513 744 3044 326 
Q 2575 -91 1722 -91 
Q 1428 -91 1123 -41 
Q 819 9 494 109 
L 494 744 
Q 775 591 1075 516 
Q 1375 441 1709 441 
Q 2250 441 2565 725 
Q 2881 1009 2881 1497 
Q 2881 1984 2565 2268 
Q 2250 2553 1709 2553 
Q 1456 2553 1204 2497 
Q 953 2441 691 2322 
L 691 4666 
z
" transform="scale(0.015625)"/>
     <path id="DejaVuSans-29" d="M 513 4856 
L 1013 4856 
Q 1481 4119 1714 3412 
Q 1947 2706 1947 2009 
Q 1947 1309 1714 600 
Q 1481 -109 1013 -844 
L 513 -844 
Q 928 -128 1133 580 
Q 1338 1288 1338 2009 
Q 1338 2731 1133 3434 
Q 928 4138 513 4856 
z
" transform="scale(0.015625)"/>
    </defs>
    <use xlink:href="#DejaVuSans-48"/>
    <use xlink:href="#DejaVuSans-69" x="75.195312"/>
    <use xlink:href="#DejaVuSans-73" x="102.978516"/>
    <use xlink:href="#DejaVuSans-74" x="155.078125"/>
    <use xlink:href="#DejaVuSans-6f" x="194.287109"/>
    <use xlink:href="#DejaVuSans-67" x="255.46875"/>
    <use xlink:href="#DejaVuSans-72" x="318.945312"/>
    <use xlink:href="#DejaVuSans-61" x="360.058594"/>
    <use xlink:href="#DejaVuSans-6d" x="421.337891"/>
    <use xlink:href="#DejaVuSans-73" x="518.75"/>
    <use xlink:href="#DejaVuSans-20" x="570.849609"/>
    <use xlink:href="#DejaVuSans-6f" x="602.636719"/>
    <use xlink:href="#DejaVuSans-66" x="663.818359"/>
    <use xlink:href="#DejaVuSans-20" x="699.023438"/>
    <use xlink:href="#DejaVuSans-73" x="730.810547"/>
    <use xlink:href="#DejaVuSans-72" x="782.910156"/>
    <use xlink:href="#DejaVuSans-76" x="824.023438"/>
    <use xlink:href="#DejaVuSans-20" x="883.203125"/>
    <use xlink:href="#DejaVuSans-64" x="914.990234"/>
    <use xlink:href="#DejaVuSans-69" x="978.466797"/>
    <use xlink:href="#DejaVuSans-73" x="1006.25"/>
    <use xlink:href="#DejaVuSans-74" x="1058.349609"/>
    <use xlink:href="#DejaVuSans-61" x="1097.558594"/>
    <use xlink:href="#DejaVuSans-6e" x="1158.837891"/>
    <use xlink:href="#DejaVuSans-63" x="1222.216797"/>
    <use xlink:href="#DejaVuSans-65" x="1277.197266"/>
    <use xlink:href="#DejaVuSans-73" x="1338.720703"/>
    <use xlink:href="#DejaVuSans-20" x="1390.820312"/>
    <use xlink:href="#DejaVuSans-28" x="1422.607422"/>
    <use xlink:href="#DejaVuSans-61" x="1461.621094"/>
    <use xlink:href="#DejaVuSans-3d" x="1522.900391"/>
    <use xlink:href="#DejaVuSans-31" x="1606.689453"/>
    <use xlink:href="#DejaVuSans-2c" x="1670.3125"/>
    <use xlink:href="#DejaVuSans-20" x="1702.099609"/>
    <use xlink:href="#DejaVuSans-62" x="1733.886719"/>
    <use xlink:href="#DejaVuSans-3d" x="1797.363281"/>
    <use xlink:href="#DejaVuSans-30" x="1881.152344"/>
    <use xlink:href="#DejaVuSans-2e" x="1944.775391"/>
    <use xlink:href="#DejaVuSans-35" x="1976.5625"/>
    <use xlink:href="#DejaVuSans-29" x="2040.185547"/>
    <use xlink:href="#DejaVuSans-20" x="2079.199219"/>
    <use xlink:href="#DejaVuSans-74" x="2110.986328"/>
    <use xlink:href="#DejaVuSans-6f" x="2150.195312"/>
    <use xlink:href="#DejaVuSans-20" x="2211.376953"/>
    <use xlink:href="#DejaVuSans-67" x="2243.164062"/>
    <use xlink:href="#DejaVuSans-6c" x="2306.640625"/>
    <use xlink:href="#DejaVuSans-6f" x="2334.423828"/>
    <use xlink:href="#DejaVuSans-62" x="2395.605469"/>
    <use xlink:href="#DejaVuSans-61" x="2459.082031"/>
    <use xlink:href="#DejaVuSans-6c" x="2520.361328"/>
    <use xlink:href="#DejaVuSans-20" x="2548.144531"/>
    <use xlink:href="#DejaVuSans-6d" x="2579.931641"/>
    <use xlink:href="#DejaVuSans-65" x="2677.34375"/>
    <use xlink:href="#DejaVuSans-61" x="2738.867188"/>
    <use xlink:href="#DejaVuSans-6e" x="2800.146484"/>
    <use xlink:href="#DejaVuSans-20" x="2863.525391"/>
    <use xlink:href="#DejaVuSans-63" x="2895.3125"/>
    <use xlink:href="#DejaVuSans-65" x="2950.292969"/>
    <use xlink:href="#DejaVuSans-6c" x="3011.816406"/>
    <use xlink:href="#DejaVuSans-6c" x="3039.599609"/>
   </g>
  </g>
 </g>
 <defs>
  <clipPath id="pc75642abba">
   <rect x="41.711875" y="57.594062" width="523.488125" height="141.431458"/>
  </clipPath>
  <clipPath id="pe97b83705f">
   <rect x="41.711875" y="232.34224" width="523.488125" height="141.431458"/>
  </clipPath>
  <clipPath id="p835f0611e6">
   <rect x="41.711875" y="407.090417" width="523.488125" height="141.431458"/>
  </clipPath>
 </defs>
</svg>
