<?xml version="1.0" encoding="utf-8" standalone="no"?>
<!DOCTYPE svg PUBLIC "-//W3C//DTD SVG 1.1//EN"
  "http://www.w3.org/Graphics/SVG/1.1/DTD/svg11.dtd">
<svg xmlns:xlink="http://www.w3.org/1999/xlink" width="576pt" height="288pt" viewBox="0 0 576 288" xmlns="http://www.w3.org/2000/svg" version="1.1">
 <metadata>
  <rdf:RDF xmlns:dc="http://purl.org/dc/elements/1.1/" xmlns:cc="http://creativecommons.org/ns#" xmlns:rdf="http://www.w3.org/1999/02/22-rdf-syntax-ns#">
   <cc:Work>
    <dc:type rdf:resource="http://purl.org/dc/dcmitype/StillImage"/>
    <dc:date>2022-12-26T16:44:10.363898</dc:date>
    <dc:format>image/svg+xml</dc:format>
    <dc:creator>
     <cc:Agent>
      <dc:title>Matplotlib v3.5.1, https://matplotlib.org/</dc:title>
     </cc:Agent>
    </dc:creator>
   </cc:Work>
  </rdf:RDF>
 </metadata>
 <defs>
  <style type="text/css">*{stroke-linejoin: round; stroke-linecap: butt}</style>
 </defs>
 <g id="figure_1">
  <g id="patch_1">
   <path d="M 0 288 
L 576 288 
L 576 0 
L 0 0 
L 0 288 
z
" style="fill: none"/>
  </g>
  <g id="axes_1">
   <g id="patch_2">
    <path d="M 41.711875 260.521875 
L 565.2 260.521875 
L 565.2 57.594062 
L 41.711875 57.594062 
z
" style="fill: #ffffff"/>
   </g>
   <g id="patch_3">
    <path d="M 41.711875 260.521875 
L 60.886738 260.521875 
L 60.886738 245.129121 
L 41.711875 245.129121 
z
" clip-path="url(#p6d4d23c76f)" style="fill: #2ca02c; opacity: 0.4"/>
   </g>
   <g id="patch_4">
    <path d="M 60.886738 260.521875 
L 80.061602 260.521875 
L 80.061602 193.819939 
L 60.886738 193.819939 
z
" clip-path="url(#p6d4d23c76f)" style="fill: #2ca02c; opacity: 0.4"/>
   </g>
   <g id="patch_5">
    <path d="M 80.061602 260.521875 
L 99.236465 260.521875 
L 99.236465 238.287896 
L 80.061602 238.287896 
z
" clip-path="url(#p6d4d23c76f)" style="fill: #2ca02c; opacity: 0.4"/>
   </g>
   <g id="patch_6">
    <path d="M 99.236465 260.521875 
L 118.411329 260.521875 
L 118.411329 248.549733 
L 99.236465 248.549733 
z
" clip-path="url(#p6d4d23c76f)" style="fill: #2ca02c; opacity: 0.4"/>
   </g>
   <g id="patch_7">
    <path d="M 118.411329 260.521875 
L 137.586192 260.521875 
L 137.586192 243.418815 
L 118.411329 243.418815 
z
" clip-path="url(#p6d4d23c76f)" style="fill: #2ca02c; opacity: 0.4"/>
   </g>
   <g id="patch_8">
    <path d="M 137.586192 260.521875 
L 156.761056 260.521875 
L 156.761056 243.418815 
L 137.586192 243.418815 
z
" clip-path="url(#p6d4d23c76f)" style="fill: #2ca02c; opacity: 0.4"/>
   </g>
   <g id="patch_9">
    <path d="M 156.761056 260.521875 
L 175.935919 260.521875 
L 175.935919 246.839427 
L 156.761056 246.839427 
z
" clip-path="url(#p6d4d23c76f)" style="fill: #2ca02c; opacity: 0.4"/>
   </g>
   <g id="patch_10">
    <path d="M 175.935919 260.521875 
L 195.110782 260.521875 
L 195.110782 245.129121 
L 175.935919 245.129121 
z
" clip-path="url(#p6d4d23c76f)" style="fill: #2ca02c; opacity: 0.4"/>
   </g>
   <g id="patch_11">
    <path d="M 195.110782 260.521875 
L 214.285646 260.521875 
L 214.285646 241.708508 
L 195.110782 241.708508 
z
" clip-path="url(#p6d4d23c76f)" style="fill: #2ca02c; opacity: 0.4"/>
   </g>
   <g id="patch_12">
    <path d="M 214.285646 260.521875 
L 233.460509 260.521875 
L 233.460509 239.998202 
L 214.285646 239.998202 
z
" clip-path="url(#p6d4d23c76f)" style="fill: #2ca02c; opacity: 0.4"/>
   </g>
   <g id="patch_13">
    <path d="M 233.460509 260.521875 
L 252.635373 260.521875 
L 252.635373 243.418815 
L 233.460509 243.418815 
z
" clip-path="url(#p6d4d23c76f)" style="fill: #2ca02c; opacity: 0.4"/>
   </g>
   <g id="patch_14">
    <path d="M 252.635373 260.521875 
L 271.810236 260.521875 
L 271.810236 250.260039 
L 252.635373 250.260039 
z
" clip-path="url(#p6d4d23c76f)" style="fill: #2ca02c; opacity: 0.4"/>
   </g>
   <g id="patch_15">
    <path d="M 271.810236 260.521875 
L 290.9851 260.521875 
L 290.9851 243.418815 
L 271.810236 243.418815 
z
" clip-path="url(#p6d4d23c76f)" style="fill: #2ca02c; opacity: 0.4"/>
   </g>
   <g id="patch_16">
    <path d="M 290.9851 260.521875 
L 310.159963 260.521875 
L 310.159963 253.680651 
L 290.9851 253.680651 
z
" clip-path="url(#p6d4d23c76f)" style="fill: #2ca02c; opacity: 0.4"/>
   </g>
   <g id="patch_17">
    <path d="M 310.159963 260.521875 
L 329.334826 260.521875 
L 329.334826 250.260039 
L 310.159963 250.260039 
z
" clip-path="url(#p6d4d23c76f)" style="fill: #2ca02c; opacity: 0.4"/>
   </g>
   <g id="patch_18">
    <path d="M 329.334826 260.521875 
L 348.50969 260.521875 
L 348.50969 250.260039 
L 329.334826 250.260039 
z
" clip-path="url(#p6d4d23c76f)" style="fill: #2ca02c; opacity: 0.4"/>
   </g>
   <g id="patch_19">
    <path d="M 348.50969 260.521875 
L 367.684553 260.521875 
L 367.684553 246.839427 
L 348.50969 246.839427 
z
" clip-path="url(#p6d4d23c76f)" style="fill: #2ca02c; opacity: 0.4"/>
   </g>
   <g id="patch_20">
    <path d="M 367.684553 260.521875 
L 386.859417 260.521875 
L 386.859417 258.811569 
L 367.684553 258.811569 
z
" clip-path="url(#p6d4d23c76f)" style="fill: #2ca02c; opacity: 0.4"/>
   </g>
   <g id="patch_21">
    <path d="M 386.859417 260.521875 
L 406.03428 260.521875 
L 406.03428 216.053918 
L 386.859417 216.053918 
z
" clip-path="url(#p6d4d23c76f)" style="fill: #2ca02c; opacity: 0.4"/>
   </g>
   <g id="patch_22">
    <path d="M 406.03428 260.521875 
L 425.209144 260.521875 
L 425.209144 67.257292 
L 406.03428 67.257292 
z
" clip-path="url(#p6d4d23c76f)" style="fill: #2ca02c; opacity: 0.4"/>
   </g>
   <g id="patch_23">
    <path d="M 110.403105 260.521875 
L 133.142949 260.521875 
L 133.142949 250.039307 
L 110.403105 250.039307 
z
" clip-path="url(#p6d4d23c76f)" style="fill: #d62728; opacity: 0.4"/>
   </g>
   <g id="patch_24">
    <path d="M 133.142949 260.521875 
L 155.882794 260.521875 
L 155.882794 242.177381 
L 133.142949 242.177381 
z
" clip-path="url(#p6d4d23c76f)" style="fill: #d62728; opacity: 0.4"/>
   </g>
   <g id="patch_25">
    <path d="M 155.882794 260.521875 
L 178.622639 260.521875 
L 178.622639 255.280591 
L 155.882794 255.280591 
z
" clip-path="url(#p6d4d23c76f)" style="fill: #d62728; opacity: 0.4"/>
   </g>
   <g id="patch_26">
    <path d="M 178.622639 260.521875 
L 201.362484 260.521875 
L 201.362484 247.418665 
L 178.622639 247.418665 
z
" clip-path="url(#p6d4d23c76f)" style="fill: #d62728; opacity: 0.4"/>
   </g>
   <g id="patch_27">
    <path d="M 201.362484 260.521875 
L 224.102329 260.521875 
L 224.102329 247.418665 
L 201.362484 247.418665 
z
" clip-path="url(#p6d4d23c76f)" style="fill: #d62728; opacity: 0.4"/>
   </g>
   <g id="patch_28">
    <path d="M 224.102329 260.521875 
L 246.842173 260.521875 
L 246.842173 242.177381 
L 224.102329 242.177381 
z
" clip-path="url(#p6d4d23c76f)" style="fill: #d62728; opacity: 0.4"/>
   </g>
   <g id="patch_29">
    <path d="M 246.842173 260.521875 
L 269.582018 260.521875 
L 269.582018 257.901233 
L 246.842173 257.901233 
z
" clip-path="url(#p6d4d23c76f)" style="fill: #d62728; opacity: 0.4"/>
   </g>
   <g id="patch_30">
    <path d="M 269.582018 260.521875 
L 292.321863 260.521875 
L 292.321863 252.659949 
L 269.582018 252.659949 
z
" clip-path="url(#p6d4d23c76f)" style="fill: #d62728; opacity: 0.4"/>
   </g>
   <g id="patch_31">
    <path d="M 292.321863 260.521875 
L 315.061708 260.521875 
L 315.061708 231.694814 
L 292.321863 231.694814 
z
" clip-path="url(#p6d4d23c76f)" style="fill: #d62728; opacity: 0.4"/>
   </g>
   <g id="patch_32">
    <path d="M 315.061708 260.521875 
L 337.801552 260.521875 
L 337.801552 239.55674 
L 315.061708 239.55674 
z
" clip-path="url(#p6d4d23c76f)" style="fill: #d62728; opacity: 0.4"/>
   </g>
   <g id="patch_33">
    <path d="M 337.801552 260.521875 
L 360.541397 260.521875 
L 360.541397 247.418665 
L 337.801552 247.418665 
z
" clip-path="url(#p6d4d23c76f)" style="fill: #d62728; opacity: 0.4"/>
   </g>
   <g id="patch_34">
    <path d="M 360.541397 260.521875 
L 383.281242 260.521875 
L 383.281242 244.798023 
L 360.541397 244.798023 
z
" clip-path="url(#p6d4d23c76f)" style="fill: #d62728; opacity: 0.4"/>
   </g>
   <g id="patch_35">
    <path d="M 383.281242 260.521875 
L 406.021087 260.521875 
L 406.021087 184.523259 
L 383.281242 184.523259 
z
" clip-path="url(#p6d4d23c76f)" style="fill: #d62728; opacity: 0.4"/>
   </g>
   <g id="patch_36">
    <path d="M 406.021087 260.521875 
L 428.760931 260.521875 
L 428.760931 142.592988 
L 406.021087 142.592988 
z
" clip-path="url(#p6d4d23c76f)" style="fill: #d62728; opacity: 0.4"/>
   </g>
   <g id="patch_37">
    <path d="M 428.760931 260.521875 
L 451.500776 260.521875 
L 451.500776 218.591604 
L 428.760931 218.591604 
z
" clip-path="url(#p6d4d23c76f)" style="fill: #d62728; opacity: 0.4"/>
   </g>
   <g id="patch_38">
    <path d="M 451.500776 260.521875 
L 474.240621 260.521875 
L 474.240621 231.694814 
L 451.500776 231.694814 
z
" clip-path="url(#p6d4d23c76f)" style="fill: #d62728; opacity: 0.4"/>
   </g>
   <g id="patch_39">
    <path d="M 474.240621 260.521875 
L 496.980466 260.521875 
L 496.980466 244.798023 
L 474.240621 244.798023 
z
" clip-path="url(#p6d4d23c76f)" style="fill: #d62728; opacity: 0.4"/>
   </g>
   <g id="patch_40">
    <path d="M 496.980466 260.521875 
L 519.72031 260.521875 
L 519.72031 255.280591 
L 496.980466 255.280591 
z
" clip-path="url(#p6d4d23c76f)" style="fill: #d62728; opacity: 0.4"/>
   </g>
   <g id="patch_41">
    <path d="M 519.72031 260.521875 
L 542.460155 260.521875 
L 542.460155 257.901233 
L 519.72031 257.901233 
z
" clip-path="url(#p6d4d23c76f)" style="fill: #d62728; opacity: 0.4"/>
   </g>
   <g id="patch_42">
    <path d="M 542.460155 260.521875 
L 565.2 260.521875 
L 565.2 257.901233 
L 542.460155 257.901233 
z
" clip-path="url(#p6d4d23c76f)" style="fill: #d62728; opacity: 0.4"/>
   </g>
   <g id="patch_43">
    <path d="M 83.069604 260.521875 
L 100.688959 260.521875 
L 100.688959 245.441797 
L 83.069604 245.441797 
z
" clip-path="url(#p6d4d23c76f)" style="fill: #9467bd; opacity: 0.4"/>
   </g>
   <g id="patch_44">
    <path d="M 100.688959 260.521875 
L 118.308313 260.521875 
L 118.308313 219.051661 
L 100.688959 219.051661 
z
" clip-path="url(#p6d4d23c76f)" style="fill: #9467bd; opacity: 0.4"/>
   </g>
   <g id="patch_45">
    <path d="M 118.308313 260.521875 
L 135.927667 260.521875 
L 135.927667 245.441797 
L 118.308313 245.441797 
z
" clip-path="url(#p6d4d23c76f)" style="fill: #9467bd; opacity: 0.4"/>
   </g>
   <g id="patch_46">
    <path d="M 135.927667 260.521875 
L 153.547021 260.521875 
L 153.547021 234.131739 
L 135.927667 234.131739 
z
" clip-path="url(#p6d4d23c76f)" style="fill: #9467bd; opacity: 0.4"/>
   </g>
   <g id="patch_47">
    <path d="M 153.547021 260.521875 
L 171.166376 260.521875 
L 171.166376 241.671778 
L 153.547021 241.671778 
z
" clip-path="url(#p6d4d23c76f)" style="fill: #9467bd; opacity: 0.4"/>
   </g>
   <g id="patch_48">
    <path d="M 171.166376 260.521875 
L 188.78573 260.521875 
L 188.78573 256.751856 
L 171.166376 256.751856 
z
" clip-path="url(#p6d4d23c76f)" style="fill: #9467bd; opacity: 0.4"/>
   </g>
   <g id="patch_49">
    <path d="M 188.78573 260.521875 
L 206.405084 260.521875 
L 206.405084 249.211817 
L 188.78573 249.211817 
z
" clip-path="url(#p6d4d23c76f)" style="fill: #9467bd; opacity: 0.4"/>
   </g>
   <g id="patch_50">
    <path d="M 206.405084 260.521875 
L 224.024438 260.521875 
L 224.024438 249.211817 
L 206.405084 249.211817 
z
" clip-path="url(#p6d4d23c76f)" style="fill: #9467bd; opacity: 0.4"/>
   </g>
   <g id="patch_51">
    <path d="M 224.024438 260.521875 
L 241.643793 260.521875 
L 241.643793 226.5917 
L 224.024438 226.5917 
z
" clip-path="url(#p6d4d23c76f)" style="fill: #9467bd; opacity: 0.4"/>
   </g>
   <g id="patch_52">
    <path d="M 241.643793 260.521875 
L 259.263147 260.521875 
L 259.263147 252.981836 
L 241.643793 252.981836 
z
" clip-path="url(#p6d4d23c76f)" style="fill: #9467bd; opacity: 0.4"/>
   </g>
   <g id="patch_53">
    <path d="M 259.263147 260.521875 
L 276.882501 260.521875 
L 276.882501 234.131739 
L 259.263147 234.131739 
z
" clip-path="url(#p6d4d23c76f)" style="fill: #9467bd; opacity: 0.4"/>
   </g>
   <g id="patch_54">
    <path d="M 276.882501 260.521875 
L 294.501855 260.521875 
L 294.501855 211.511622 
L 276.882501 211.511622 
z
" clip-path="url(#p6d4d23c76f)" style="fill: #9467bd; opacity: 0.4"/>
   </g>
   <g id="patch_55">
    <path d="M 294.501855 260.521875 
L 312.12121 260.521875 
L 312.12121 237.901758 
L 294.501855 237.901758 
z
" clip-path="url(#p6d4d23c76f)" style="fill: #9467bd; opacity: 0.4"/>
   </g>
   <g id="patch_56">
    <path d="M 312.12121 260.521875 
L 329.740564 260.521875 
L 329.740564 241.671778 
L 312.12121 241.671778 
z
" clip-path="url(#p6d4d23c76f)" style="fill: #9467bd; opacity: 0.4"/>
   </g>
   <g id="patch_57">
    <path d="M 329.740564 260.521875 
L 347.359918 260.521875 
L 347.359918 252.981836 
L 329.740564 252.981836 
z
" clip-path="url(#p6d4d23c76f)" style="fill: #9467bd; opacity: 0.4"/>
   </g>
   <g id="patch_58">
    <path d="M 347.359918 260.521875 
L 364.979273 260.521875 
L 364.979273 237.901758 
L 347.359918 237.901758 
z
" clip-path="url(#p6d4d23c76f)" style="fill: #9467bd; opacity: 0.4"/>
   </g>
   <g id="patch_59">
    <path d="M 364.979273 260.521875 
L 382.598627 260.521875 
L 382.598627 252.981836 
L 364.979273 252.981836 
z
" clip-path="url(#p6d4d23c76f)" style="fill: #9467bd; opacity: 0.4"/>
   </g>
   <g id="patch_60">
    <path d="M 382.598627 260.521875 
L 400.217981 260.521875 
L 400.217981 222.821681 
L 382.598627 222.821681 
z
" clip-path="url(#p6d4d23c76f)" style="fill: #9467bd; opacity: 0.4"/>
   </g>
   <g id="patch_61">
    <path d="M 400.217981 260.521875 
L 417.837335 260.521875 
L 417.837335 68.250883 
L 400.217981 68.250883 
z
" clip-path="url(#p6d4d23c76f)" style="fill: #9467bd; opacity: 0.4"/>
   </g>
   <g id="patch_62">
    <path d="M 417.837335 260.521875 
L 435.45669 260.521875 
L 435.45669 237.901758 
L 417.837335 237.901758 
z
" clip-path="url(#p6d4d23c76f)" style="fill: #9467bd; opacity: 0.4"/>
   </g>
   <g id="matplotlib.axis_1">
    <g id="xtick_1">
     <g id="line2d_1">
      <defs>
       <path id="m87058bfdeb" d="M 0 0 
L 0 3.5 
" style="stroke: #000000; stroke-width: 0.8"/>
      </defs>
      <g>
       <use xlink:href="#m87058bfdeb" x="73.61825" y="260.521875" style="stroke: #000000; stroke-width: 0.8"/>
      </g>
     </g>
     <g id="text_1">
      <!-- 1.00 -->
      <g transform="translate(62.485438 275.120313)scale(0.1 -0.1)">
       <defs>
        <path id="DejaVuSans-31" d="M 794 531 
L 1825 531 
L 1825 4091 
L 703 3866 
L 703 4441 
L 1819 4666 
L 2450 4666 
L 2450 531 
L 3481 531 
L 3481 0 
L 794 0 
L 794 531 
z
" transform="scale(0.015625)"/>
        <path id="DejaVuSans-2e" d="M 684 794 
L 1344 794 
L 1344 0 
L 684 0 
L 684 794 
z
" transform="scale(0.015625)"/>
        <path id="DejaVuSans-30" d="M 2034 4250 
Q 1547 4250 1301 3770 
Q 1056 3291 1056 2328 
Q 1056 1369 1301 889 
Q 1547 409 2034 409 
Q 2525 409 2770 889 
Q 3016 1369 3016 2328 
Q 3016 3291 2770 3770 
Q 2525 4250 2034 4250 
z
M 2034 4750 
Q 2819 4750 3233 4129 
Q 3647 3509 3647 2328 
Q 3647 1150 3233 529 
Q 2819 -91 2034 -91 
Q 1250 -91 836 529 
Q 422 1150 422 2328 
Q 422 3509 836 4129 
Q 1250 4750 2034 4750 
z
" transform="scale(0.015625)"/>
       </defs>
       <use xlink:href="#DejaVuSans-31"/>
       <use xlink:href="#DejaVuSans-2e" x="63.623047"/>
       <use xlink:href="#DejaVuSans-30" x="95.410156"/>
       <use xlink:href="#DejaVuSans-30" x="159.033203"/>
      </g>
     </g>
    </g>
    <g id="xtick_2">
     <g id="line2d_2">
      <g>
       <use xlink:href="#m87058bfdeb" x="132.265637" y="260.521875" style="stroke: #000000; stroke-width: 0.8"/>
      </g>
     </g>
     <g id="text_2">
      <!-- 1.25 -->
      <g transform="translate(121.132824 275.120313)scale(0.1 -0.1)">
       <defs>
        <path id="DejaVuSans-32" d="M 1228 531 
L 3431 531 
L 3431 0 
L 469 0 
L 469 531 
Q 828 903 1448 1529 
Q 2069 2156 2228 2338 
Q 2531 2678 2651 2914 
Q 2772 3150 2772 3378 
Q 2772 3750 2511 3984 
Q 2250 4219 1831 4219 
Q 1534 4219 1204 4116 
Q 875 4013 500 3803 
L 500 4441 
Q 881 4594 1212 4672 
Q 1544 4750 1819 4750 
Q 2544 4750 2975 4387 
Q 3406 4025 3406 3419 
Q 3406 3131 3298 2873 
Q 3191 2616 2906 2266 
Q 2828 2175 2409 1742 
Q 1991 1309 1228 531 
z
" transform="scale(0.015625)"/>
        <path id="DejaVuSans-35" d="M 691 4666 
L 3169 4666 
L 3169 4134 
L 1269 4134 
L 1269 2991 
Q 1406 3038 1543 3061 
Q 1681 3084 1819 3084 
Q 2600 3084 3056 2656 
Q 3513 2228 3513 1497 
Q 3513 744 3044 326 
Q 2575 -91 1722 -91 
Q 1428 -91 1123 -41 
Q 819 9 494 109 
L 494 744 
Q 775 591 1075 516 
Q 1375 441 1709 441 
Q 2250 441 2565 725 
Q 2881 1009 2881 1497 
Q 2881 1984 2565 2268 
Q 2250 2553 1709 2553 
Q 1456 2553 1204 2497 
Q 953 2441 691 2322 
L 691 4666 
z
" transform="scale(0.015625)"/>
       </defs>
       <use xlink:href="#DejaVuSans-31"/>
       <use xlink:href="#DejaVuSans-2e" x="63.623047"/>
       <use xlink:href="#DejaVuSans-32" x="95.410156"/>
       <use xlink:href="#DejaVuSans-35" x="159.033203"/>
      </g>
     </g>
    </g>
    <g id="xtick_3">
     <g id="line2d_3">
      <g>
       <use xlink:href="#m87058bfdeb" x="190.913023" y="260.521875" style="stroke: #000000; stroke-width: 0.8"/>
      </g>
     </g>
     <g id="text_3">
      <!-- 1.50 -->
      <g transform="translate(179.78021 275.120313)scale(0.1 -0.1)">
       <use xlink:href="#DejaVuSans-31"/>
       <use xlink:href="#DejaVuSans-2e" x="63.623047"/>
       <use xlink:href="#DejaVuSans-35" x="95.410156"/>
       <use xlink:href="#DejaVuSans-30" x="159.033203"/>
      </g>
     </g>
    </g>
    <g id="xtick_4">
     <g id="line2d_4">
      <g>
       <use xlink:href="#m87058bfdeb" x="249.560409" y="260.521875" style="stroke: #000000; stroke-width: 0.8"/>
      </g>
     </g>
     <g id="text_4">
      <!-- 1.75 -->
      <g transform="translate(238.427597 275.120313)scale(0.1 -0.1)">
       <defs>
        <path id="DejaVuSans-37" d="M 525 4666 
L 3525 4666 
L 3525 4397 
L 1831 0 
L 1172 0 
L 2766 4134 
L 525 4134 
L 525 4666 
z
" transform="scale(0.015625)"/>
       </defs>
       <use xlink:href="#DejaVuSans-31"/>
       <use xlink:href="#DejaVuSans-2e" x="63.623047"/>
       <use xlink:href="#DejaVuSans-37" x="95.410156"/>
       <use xlink:href="#DejaVuSans-35" x="159.033203"/>
      </g>
     </g>
    </g>
    <g id="xtick_5">
     <g id="line2d_5">
      <g>
       <use xlink:href="#m87058bfdeb" x="308.207795" y="260.521875" style="stroke: #000000; stroke-width: 0.8"/>
      </g>
     </g>
     <g id="text_5">
      <!-- 2.00 -->
      <g transform="translate(297.074983 275.120313)scale(0.1 -0.1)">
       <use xlink:href="#DejaVuSans-32"/>
       <use xlink:href="#DejaVuSans-2e" x="63.623047"/>
       <use xlink:href="#DejaVuSans-30" x="95.410156"/>
       <use xlink:href="#DejaVuSans-30" x="159.033203"/>
      </g>
     </g>
    </g>
    <g id="xtick_6">
     <g id="line2d_6">
      <g>
       <use xlink:href="#m87058bfdeb" x="366.855182" y="260.521875" style="stroke: #000000; stroke-width: 0.8"/>
      </g>
     </g>
     <g id="text_6">
      <!-- 2.25 -->
      <g transform="translate(355.722369 275.120313)scale(0.1 -0.1)">
       <use xlink:href="#DejaVuSans-32"/>
       <use xlink:href="#DejaVuSans-2e" x="63.623047"/>
       <use xlink:href="#DejaVuSans-32" x="95.410156"/>
       <use xlink:href="#DejaVuSans-35" x="159.033203"/>
      </g>
     </g>
    </g>
    <g id="xtick_7">
     <g id="line2d_7">
      <g>
       <use xlink:href="#m87058bfdeb" x="425.502568" y="260.521875" style="stroke: #000000; stroke-width: 0.8"/>
      </g>
     </g>
     <g id="text_7">
      <!-- 2.50 -->
      <g transform="translate(414.369755 275.120313)scale(0.1 -0.1)">
       <use xlink:href="#DejaVuSans-32"/>
       <use xlink:href="#DejaVuSans-2e" x="63.623047"/>
       <use xlink:href="#DejaVuSans-35" x="95.410156"/>
       <use xlink:href="#DejaVuSans-30" x="159.033203"/>
      </g>
     </g>
    </g>
    <g id="xtick_8">
     <g id="line2d_8">
      <g>
       <use xlink:href="#m87058bfdeb" x="484.149954" y="260.521875" style="stroke: #000000; stroke-width: 0.8"/>
      </g>
     </g>
     <g id="text_8">
      <!-- 2.75 -->
      <g transform="translate(473.017142 275.120313)scale(0.1 -0.1)">
       <use xlink:href="#DejaVuSans-32"/>
       <use xlink:href="#DejaVuSans-2e" x="63.623047"/>
       <use xlink:href="#DejaVuSans-37" x="95.410156"/>
       <use xlink:href="#DejaVuSans-35" x="159.033203"/>
      </g>
     </g>
    </g>
    <g id="xtick_9">
     <g id="line2d_9">
      <g>
       <use xlink:href="#m87058bfdeb" x="542.79734" y="260.521875" style="stroke: #000000; stroke-width: 0.8"/>
      </g>
     </g>
     <g id="text_9">
      <!-- 3.00 -->
      <g transform="translate(531.664528 275.120313)scale(0.1 -0.1)">
       <defs>
        <path id="DejaVuSans-33" d="M 2597 2516 
Q 3050 2419 3304 2112 
Q 3559 1806 3559 1356 
Q 3559 666 3084 287 
Q 2609 -91 1734 -91 
Q 1441 -91 1130 -33 
Q 819 25 488 141 
L 488 750 
Q 750 597 1062 519 
Q 1375 441 1716 441 
Q 2309 441 2620 675 
Q 2931 909 2931 1356 
Q 2931 1769 2642 2001 
Q 2353 2234 1838 2234 
L 1294 2234 
L 1294 2753 
L 1863 2753 
Q 2328 2753 2575 2939 
Q 2822 3125 2822 3475 
Q 2822 3834 2567 4026 
Q 2313 4219 1838 4219 
Q 1578 4219 1281 4162 
Q 984 4106 628 3988 
L 628 4550 
Q 988 4650 1302 4700 
Q 1616 4750 1894 4750 
Q 2613 4750 3031 4423 
Q 3450 4097 3450 3541 
Q 3450 3153 3228 2886 
Q 3006 2619 2597 2516 
z
" transform="scale(0.015625)"/>
       </defs>
       <use xlink:href="#DejaVuSans-33"/>
       <use xlink:href="#DejaVuSans-2e" x="63.623047"/>
       <use xlink:href="#DejaVuSans-30" x="95.410156"/>
       <use xlink:href="#DejaVuSans-30" x="159.033203"/>
      </g>
     </g>
    </g>
   </g>
   <g id="matplotlib.axis_2">
    <g id="ytick_1">
     <g id="line2d_10">
      <defs>
       <path id="m8b64bad368" d="M 0 0 
L -3.5 0 
" style="stroke: #000000; stroke-width: 0.8"/>
      </defs>
      <g>
       <use xlink:href="#m8b64bad368" x="41.711875" y="260.521875" style="stroke: #000000; stroke-width: 0.8"/>
      </g>
     </g>
     <g id="text_10">
      <!-- 0 -->
      <g transform="translate(28.349375 264.321094)scale(0.1 -0.1)">
       <use xlink:href="#DejaVuSans-30"/>
      </g>
     </g>
    </g>
    <g id="ytick_2">
     <g id="line2d_11">
      <g>
       <use xlink:href="#m8b64bad368" x="41.711875" y="216.066469" style="stroke: #000000; stroke-width: 0.8"/>
      </g>
     </g>
     <g id="text_11">
      <!-- 1 -->
      <g transform="translate(28.349375 219.865688)scale(0.1 -0.1)">
       <use xlink:href="#DejaVuSans-31"/>
      </g>
     </g>
    </g>
    <g id="ytick_3">
     <g id="line2d_12">
      <g>
       <use xlink:href="#m8b64bad368" x="41.711875" y="171.611064" style="stroke: #000000; stroke-width: 0.8"/>
      </g>
     </g>
     <g id="text_12">
      <!-- 2 -->
      <g transform="translate(28.349375 175.410282)scale(0.1 -0.1)">
       <use xlink:href="#DejaVuSans-32"/>
      </g>
     </g>
    </g>
    <g id="ytick_4">
     <g id="line2d_13">
      <g>
       <use xlink:href="#m8b64bad368" x="41.711875" y="127.155658" style="stroke: #000000; stroke-width: 0.8"/>
      </g>
     </g>
     <g id="text_13">
      <!-- 3 -->
      <g transform="translate(28.349375 130.954877)scale(0.1 -0.1)">
       <use xlink:href="#DejaVuSans-33"/>
      </g>
     </g>
    </g>
    <g id="ytick_5">
     <g id="line2d_14">
      <g>
       <use xlink:href="#m8b64bad368" x="41.711875" y="82.700252" style="stroke: #000000; stroke-width: 0.8"/>
      </g>
     </g>
     <g id="text_14">
      <!-- 4 -->
      <g transform="translate(28.349375 86.499471)scale(0.1 -0.1)">
       <defs>
        <path id="DejaVuSans-34" d="M 2419 4116 
L 825 1625 
L 2419 1625 
L 2419 4116 
z
M 2253 4666 
L 3047 4666 
L 3047 1625 
L 3713 1625 
L 3713 1100 
L 3047 1100 
L 3047 0 
L 2419 0 
L 2419 1100 
L 313 1100 
L 313 1709 
L 2253 4666 
z
" transform="scale(0.015625)"/>
       </defs>
       <use xlink:href="#DejaVuSans-34"/>
      </g>
     </g>
    </g>
    <g id="text_15">
     <!-- Fraction of cells -->
     <g transform="translate(21.437812 213.889844)rotate(-90)scale(0.14 -0.14)">
      <defs>
       <path id="DejaVuSans-46" d="M 628 4666 
L 3309 4666 
L 3309 4134 
L 1259 4134 
L 1259 2759 
L 3109 2759 
L 3109 2228 
L 1259 2228 
L 1259 0 
L 628 0 
L 628 4666 
z
" transform="scale(0.015625)"/>
       <path id="DejaVuSans-72" d="M 2631 2963 
Q 2534 3019 2420 3045 
Q 2306 3072 2169 3072 
Q 1681 3072 1420 2755 
Q 1159 2438 1159 1844 
L 1159 0 
L 581 0 
L 581 3500 
L 1159 3500 
L 1159 2956 
Q 1341 3275 1631 3429 
Q 1922 3584 2338 3584 
Q 2397 3584 2469 3576 
Q 2541 3569 2628 3553 
L 2631 2963 
z
" transform="scale(0.015625)"/>
       <path id="DejaVuSans-61" d="M 2194 1759 
Q 1497 1759 1228 1600 
Q 959 1441 959 1056 
Q 959 750 1161 570 
Q 1363 391 1709 391 
Q 2188 391 2477 730 
Q 2766 1069 2766 1631 
L 2766 1759 
L 2194 1759 
z
M 3341 1997 
L 3341 0 
L 2766 0 
L 2766 531 
Q 2569 213 2275 61 
Q 1981 -91 1556 -91 
Q 1019 -91 701 211 
Q 384 513 384 1019 
Q 384 1609 779 1909 
Q 1175 2209 1959 2209 
L 2766 2209 
L 2766 2266 
Q 2766 2663 2505 2880 
Q 2244 3097 1772 3097 
Q 1472 3097 1187 3025 
Q 903 2953 641 2809 
L 641 3341 
Q 956 3463 1253 3523 
Q 1550 3584 1831 3584 
Q 2591 3584 2966 3190 
Q 3341 2797 3341 1997 
z
" transform="scale(0.015625)"/>
       <path id="DejaVuSans-63" d="M 3122 3366 
L 3122 2828 
Q 2878 2963 2633 3030 
Q 2388 3097 2138 3097 
Q 1578 3097 1268 2742 
Q 959 2388 959 1747 
Q 959 1106 1268 751 
Q 1578 397 2138 397 
Q 2388 397 2633 464 
Q 2878 531 3122 666 
L 3122 134 
Q 2881 22 2623 -34 
Q 2366 -91 2075 -91 
Q 1284 -91 818 406 
Q 353 903 353 1747 
Q 353 2603 823 3093 
Q 1294 3584 2113 3584 
Q 2378 3584 2631 3529 
Q 2884 3475 3122 3366 
z
" transform="scale(0.015625)"/>
       <path id="DejaVuSans-74" d="M 1172 4494 
L 1172 3500 
L 2356 3500 
L 2356 3053 
L 1172 3053 
L 1172 1153 
Q 1172 725 1289 603 
Q 1406 481 1766 481 
L 2356 481 
L 2356 0 
L 1766 0 
Q 1100 0 847 248 
Q 594 497 594 1153 
L 594 3053 
L 172 3053 
L 172 3500 
L 594 3500 
L 594 4494 
L 1172 4494 
z
" transform="scale(0.015625)"/>
       <path id="DejaVuSans-69" d="M 603 3500 
L 1178 3500 
L 1178 0 
L 603 0 
L 603 3500 
z
M 603 4863 
L 1178 4863 
L 1178 4134 
L 603 4134 
L 603 4863 
z
" transform="scale(0.015625)"/>
       <path id="DejaVuSans-6f" d="M 1959 3097 
Q 1497 3097 1228 2736 
Q 959 2375 959 1747 
Q 959 1119 1226 758 
Q 1494 397 1959 397 
Q 2419 397 2687 759 
Q 2956 1122 2956 1747 
Q 2956 2369 2687 2733 
Q 2419 3097 1959 3097 
z
M 1959 3584 
Q 2709 3584 3137 3096 
Q 3566 2609 3566 1747 
Q 3566 888 3137 398 
Q 2709 -91 1959 -91 
Q 1206 -91 779 398 
Q 353 888 353 1747 
Q 353 2609 779 3096 
Q 1206 3584 1959 3584 
z
" transform="scale(0.015625)"/>
       <path id="DejaVuSans-6e" d="M 3513 2113 
L 3513 0 
L 2938 0 
L 2938 2094 
Q 2938 2591 2744 2837 
Q 2550 3084 2163 3084 
Q 1697 3084 1428 2787 
Q 1159 2491 1159 1978 
L 1159 0 
L 581 0 
L 581 3500 
L 1159 3500 
L 1159 2956 
Q 1366 3272 1645 3428 
Q 1925 3584 2291 3584 
Q 2894 3584 3203 3211 
Q 3513 2838 3513 2113 
z
" transform="scale(0.015625)"/>
       <path id="DejaVuSans-20" transform="scale(0.015625)"/>
       <path id="DejaVuSans-66" d="M 2375 4863 
L 2375 4384 
L 1825 4384 
Q 1516 4384 1395 4259 
Q 1275 4134 1275 3809 
L 1275 3500 
L 2222 3500 
L 2222 3053 
L 1275 3053 
L 1275 0 
L 697 0 
L 697 3053 
L 147 3053 
L 147 3500 
L 697 3500 
L 697 3744 
Q 697 4328 969 4595 
Q 1241 4863 1831 4863 
L 2375 4863 
z
" transform="scale(0.015625)"/>
       <path id="DejaVuSans-65" d="M 3597 1894 
L 3597 1613 
L 953 1613 
Q 991 1019 1311 708 
Q 1631 397 2203 397 
Q 2534 397 2845 478 
Q 3156 559 3463 722 
L 3463 178 
Q 3153 47 2828 -22 
Q 2503 -91 2169 -91 
Q 1331 -91 842 396 
Q 353 884 353 1716 
Q 353 2575 817 3079 
Q 1281 3584 2069 3584 
Q 2775 3584 3186 3129 
Q 3597 2675 3597 1894 
z
M 3022 2063 
Q 3016 2534 2758 2815 
Q 2500 3097 2075 3097 
Q 1594 3097 1305 2825 
Q 1016 2553 972 2059 
L 3022 2063 
z
" transform="scale(0.015625)"/>
       <path id="DejaVuSans-6c" d="M 603 4863 
L 1178 4863 
L 1178 0 
L 603 0 
L 603 4863 
z
" transform="scale(0.015625)"/>
       <path id="DejaVuSans-73" d="M 2834 3397 
L 2834 2853 
Q 2591 2978 2328 3040 
Q 2066 3103 1784 3103 
Q 1356 3103 1142 2972 
Q 928 2841 928 2578 
Q 928 2378 1081 2264 
Q 1234 2150 1697 2047 
L 1894 2003 
Q 2506 1872 2764 1633 
Q 3022 1394 3022 966 
Q 3022 478 2636 193 
Q 2250 -91 1575 -91 
Q 1294 -91 989 -36 
Q 684 19 347 128 
L 347 722 
Q 666 556 975 473 
Q 1284 391 1588 391 
Q 1994 391 2212 530 
Q 2431 669 2431 922 
Q 2431 1156 2273 1281 
Q 2116 1406 1581 1522 
L 1381 1569 
Q 847 1681 609 1914 
Q 372 2147 372 2553 
Q 372 3047 722 3315 
Q 1072 3584 1716 3584 
Q 2034 3584 2315 3537 
Q 2597 3491 2834 3397 
z
" transform="scale(0.015625)"/>
      </defs>
      <use xlink:href="#DejaVuSans-46"/>
      <use xlink:href="#DejaVuSans-72" x="50.269531"/>
      <use xlink:href="#DejaVuSans-61" x="91.382812"/>
      <use xlink:href="#DejaVuSans-63" x="152.662109"/>
      <use xlink:href="#DejaVuSans-74" x="207.642578"/>
      <use xlink:href="#DejaVuSans-69" x="246.851562"/>
      <use xlink:href="#DejaVuSans-6f" x="274.634766"/>
      <use xlink:href="#DejaVuSans-6e" x="335.816406"/>
      <use xlink:href="#DejaVuSans-20" x="399.195312"/>
      <use xlink:href="#DejaVuSans-6f" x="430.982422"/>
      <use xlink:href="#DejaVuSans-66" x="492.164062"/>
      <use xlink:href="#DejaVuSans-20" x="527.369141"/>
      <use xlink:href="#DejaVuSans-63" x="559.15625"/>
      <use xlink:href="#DejaVuSans-65" x="614.136719"/>
      <use xlink:href="#DejaVuSans-6c" x="675.660156"/>
      <use xlink:href="#DejaVuSans-6c" x="703.443359"/>
      <use xlink:href="#DejaVuSans-73" x="731.226562"/>
     </g>
    </g>
   </g>
   <g id="line2d_15">
    <path d="M -1 255.67815 
L 0.160918 255.489316 
L 9.639284 253.567623 
L 19.117649 251.306199 
L 28.596014 248.802536 
L 38.07438 246.208146 
L 47.552745 243.711771 
L 57.031111 241.510767 
L 66.509476 239.776616 
L 75.987842 238.623179 
L 85.466207 238.086367 
L 94.944573 238.120765 
L 104.422938 238.6137 
L 113.901304 239.412072 
L 123.379669 240.353987 
L 132.858034 241.296892 
L 142.3364 242.136289 
L 151.814765 242.81294 
L 161.293131 243.310069 
L 170.771496 243.644202 
L 180.249862 243.853642 
L 189.728227 243.987508 
L 199.206593 244.096745 
L 208.684958 244.227257 
L 218.163324 244.414779 
L 227.641689 244.681162 
L 237.120054 245.032047 
L 246.59842 245.456033 
L 256.076785 245.925196 
L 265.555151 246.39633 
L 275.033516 246.811881 
L 284.511882 247.099652 
L 293.990247 247.171242 
L 303.468613 246.920674 
L 312.946978 246.226397 
L 322.425344 244.960789 
L 331.903709 243.010702 
L 341.382074 240.309606 
L 350.86044 236.876899 
L 360.338805 232.854272 
L 369.817171 228.525097 
L 379.295536 224.303425 
L 388.773902 220.685704 
L 398.252267 218.169763 
L 407.730633 217.158142 
L 417.208998 217.871323 
L 426.687364 220.296349 
L 436.165729 224.186924 
L 445.644094 229.115337 
L 455.12246 234.560671 
L 464.600825 240.007841 
L 474.079191 245.031449 
L 483.557556 249.346482 
L 493.035922 252.820359 
L 502.514287 255.452567 
L 511.992653 257.335197 
L 521.471018 258.608888 
L 530.949384 259.425284 
L 540.427749 259.921648 
L 549.906114 260.208181 
L 559.38448 260.365343 
L 568.862845 260.4473 
L 577 260.482201 
" clip-path="url(#p6d4d23c76f)" style="fill: none; stroke: #2ca02c; stroke-width: 1.5; stroke-linecap: square"/>
   </g>
   <g id="line2d_16">
    <path d="M -1 260.51277 
L 0.160918 260.51203 
L 9.639284 260.498018 
L 19.117649 260.467764 
L 28.596014 260.406881 
L 38.07438 260.292664 
L 47.552745 260.092867 
L 57.031111 259.766973 
L 66.509476 259.271402 
L 75.987842 258.569227 
L 85.466207 257.643039 
L 94.944573 256.507337 
L 104.422938 255.21518 
L 113.901304 253.854376 
L 123.379669 252.53167 
L 132.858034 251.348537 
L 142.3364 250.376768 
L 151.814765 249.643381 
L 161.293131 249.131059 
L 170.771496 248.793616 
L 180.249862 248.579186 
L 189.728227 248.450385 
L 199.206593 248.392196 
L 208.684958 248.403886 
L 218.163324 248.478681 
L 227.641689 248.581271 
L 237.120054 248.636008 
L 246.59842 248.535735 
L 256.076785 248.172511 
L 265.555151 247.479817 
L 275.033516 246.466654 
L 284.511882 245.222966 
L 293.990247 243.885363 
L 303.468613 242.569306 
L 312.946978 241.291219 
L 322.425344 239.913382 
L 331.903709 238.141277 
L 341.382074 235.58814 
L 350.86044 231.899305 
L 360.338805 226.90572 
L 369.817171 220.757677 
L 379.295536 213.984042 
L 388.773902 207.436509 
L 398.252267 202.115092 
L 407.730633 198.920003 
L 417.208998 198.413317 
L 426.687364 200.677873 
L 436.165729 205.323197 
L 445.644094 211.626631 
L 455.12246 218.744879 
L 464.600825 225.913571 
L 474.079191 232.574082 
L 483.557556 238.409423 
L 493.035922 243.309235 
L 502.514287 247.301434 
L 511.992653 250.484494 
L 521.471018 252.979242 
L 530.949384 254.903624 
L 540.427749 256.364365 
L 549.906114 257.456676 
L 559.38448 258.265138 
L 568.862845 258.862751 
L 577 259.245518 
" clip-path="url(#p6d4d23c76f)" style="fill: none; stroke: #d62728; stroke-width: 1.5; stroke-linecap: square"/>
   </g>
   <g id="line2d_17">
    <path d="M -1 260.144494 
L 0.160918 260.122092 
L 9.639284 259.819592 
L 19.117649 259.345519 
L 28.596014 258.641857 
L 38.07438 257.653376 
L 47.552745 256.340592 
L 57.031111 254.694879 
L 66.509476 252.752022 
L 75.987842 250.599564 
L 85.466207 248.373767 
L 94.944573 246.244267 
L 104.422938 244.387918 
L 113.901304 242.956951 
L 123.379669 242.048911 
L 132.858034 241.686021 
L 142.3364 241.809484 
L 151.814765 242.290304 
L 161.293131 242.953937 
L 170.771496 243.612541 
L 180.249862 244.097006 
L 189.728227 244.281689 
L 199.206593 244.097623 
L 208.684958 243.533997 
L 218.163324 242.631186 
L 227.641689 241.470169 
L 237.120054 240.161979 
L 246.59842 238.837682 
L 256.076785 237.636231 
L 265.555151 236.686573 
L 275.033516 236.082655 
L 284.511882 235.854551 
L 293.990247 235.943484 
L 303.468613 236.190509 
L 312.946978 236.346995 
L 322.425344 236.110446 
L 331.903709 235.183223 
L 341.382074 233.345808 
L 350.86044 230.530797 
L 360.338805 226.879513 
L 369.817171 222.761444 
L 379.295536 218.740646 
L 388.773902 215.484951 
L 398.252267 213.631963 
L 407.730633 213.644425 
L 417.208998 215.697353 
L 426.687364 219.633631 
L 436.165729 225.003441 
L 445.644094 231.174293 
L 455.12246 237.475065 
L 464.600825 243.329376 
L 474.079191 248.343065 
L 483.557556 252.331351 
L 493.035922 255.293066 
L 502.514287 257.353399 
L 511.992653 258.699456 
L 521.471018 259.526916 
L 530.949384 260.00624 
L 540.427749 260.268195 
L 549.906114 260.403388 
L 559.38448 260.469331 
L 568.862845 260.49975 
L 577 260.511149 
" clip-path="url(#p6d4d23c76f)" style="fill: none; stroke: #9467bd; stroke-width: 1.5; stroke-linecap: square"/>
   </g>
   <g id="patch_63">
    <path d="M 41.711875 260.521875 
L 41.711875 57.594062 
" style="fill: none; stroke: #000000; stroke-width: 0.8; stroke-linejoin: miter; stroke-linecap: square"/>
   </g>
   <g id="patch_64">
    <path d="M 565.2 260.521875 
L 565.2 57.594062 
" style="fill: none; stroke: #000000; stroke-width: 0.8; stroke-linejoin: miter; stroke-linecap: square"/>
   </g>
   <g id="patch_65">
    <path d="M 41.711875 260.521875 
L 565.2 260.521875 
" style="fill: none; stroke: #000000; stroke-width: 0.8; stroke-linejoin: miter; stroke-linecap: square"/>
   </g>
   <g id="patch_66">
    <path d="M 41.711875 57.594062 
L 565.2 57.594062 
" style="fill: none; stroke: #000000; stroke-width: 0.8; stroke-linejoin: miter; stroke-linecap: square"/>
   </g>
   <g id="text_16">
    <!-- jasp cells -->
    <g transform="translate(271.214375 51.594062)scale(0.14 -0.14)">
     <defs>
      <path id="DejaVuSans-6a" d="M 603 3500 
L 1178 3500 
L 1178 -63 
Q 1178 -731 923 -1031 
Q 669 -1331 103 -1331 
L -116 -1331 
L -116 -844 
L 38 -844 
Q 366 -844 484 -692 
Q 603 -541 603 -63 
L 603 3500 
z
M 603 4863 
L 1178 4863 
L 1178 4134 
L 603 4134 
L 603 4863 
z
" transform="scale(0.015625)"/>
      <path id="DejaVuSans-70" d="M 1159 525 
L 1159 -1331 
L 581 -1331 
L 581 3500 
L 1159 3500 
L 1159 2969 
Q 1341 3281 1617 3432 
Q 1894 3584 2278 3584 
Q 2916 3584 3314 3078 
Q 3713 2572 3713 1747 
Q 3713 922 3314 415 
Q 2916 -91 2278 -91 
Q 1894 -91 1617 61 
Q 1341 213 1159 525 
z
M 3116 1747 
Q 3116 2381 2855 2742 
Q 2594 3103 2138 3103 
Q 1681 3103 1420 2742 
Q 1159 2381 1159 1747 
Q 1159 1113 1420 752 
Q 1681 391 2138 391 
Q 2594 391 2855 752 
Q 3116 1113 3116 1747 
z
" transform="scale(0.015625)"/>
     </defs>
     <use xlink:href="#DejaVuSans-6a"/>
     <use xlink:href="#DejaVuSans-61" x="27.783203"/>
     <use xlink:href="#DejaVuSans-73" x="89.0625"/>
     <use xlink:href="#DejaVuSans-70" x="141.162109"/>
     <use xlink:href="#DejaVuSans-20" x="204.638672"/>
     <use xlink:href="#DejaVuSans-63" x="236.425781"/>
     <use xlink:href="#DejaVuSans-65" x="291.40625"/>
     <use xlink:href="#DejaVuSans-6c" x="352.929688"/>
     <use xlink:href="#DejaVuSans-6c" x="380.712891"/>
     <use xlink:href="#DejaVuSans-73" x="408.496094"/>
    </g>
   </g>
   <g id="legend_1">
    <g id="patch_67">
     <path d="M 476.810625 120.035312 
L 556.8 120.035312 
Q 559.2 120.035312 559.2 117.635312 
L 559.2 65.994062 
Q 559.2 63.594062 556.8 63.594062 
L 476.810625 63.594062 
Q 474.410625 63.594062 474.410625 65.994062 
L 474.410625 117.635312 
Q 474.410625 120.035312 476.810625 120.035312 
z
" style="fill: #ffffff; opacity: 0.8; stroke: #cccccc; stroke-linejoin: miter"/>
    </g>
    <g id="patch_68">
     <path d="M 479.210625 77.512187 
L 503.210625 77.512187 
L 503.210625 69.112187 
L 479.210625 69.112187 
z
" style="fill: #2ca02c; opacity: 0.4"/>
    </g>
    <g id="text_17">
     <!-- control -->
     <g transform="translate(512.810625 77.512187)scale(0.12 -0.12)">
      <use xlink:href="#DejaVuSans-63"/>
      <use xlink:href="#DejaVuSans-6f" x="54.980469"/>
      <use xlink:href="#DejaVuSans-6e" x="116.162109"/>
      <use xlink:href="#DejaVuSans-74" x="179.541016"/>
      <use xlink:href="#DejaVuSans-72" x="218.75"/>
      <use xlink:href="#DejaVuSans-6f" x="257.613281"/>
      <use xlink:href="#DejaVuSans-6c" x="318.794922"/>
     </g>
    </g>
    <g id="patch_69">
     <path d="M 479.210625 95.125937 
L 503.210625 95.125937 
L 503.210625 86.725937 
L 479.210625 86.725937 
z
" style="fill: #d62728; opacity: 0.4"/>
    </g>
    <g id="text_18">
     <!-- cytd -->
     <g transform="translate(512.810625 95.125937)scale(0.12 -0.12)">
      <defs>
       <path id="DejaVuSans-79" d="M 2059 -325 
Q 1816 -950 1584 -1140 
Q 1353 -1331 966 -1331 
L 506 -1331 
L 506 -850 
L 844 -850 
Q 1081 -850 1212 -737 
Q 1344 -625 1503 -206 
L 1606 56 
L 191 3500 
L 800 3500 
L 1894 763 
L 2988 3500 
L 3597 3500 
L 2059 -325 
z
" transform="scale(0.015625)"/>
       <path id="DejaVuSans-64" d="M 2906 2969 
L 2906 4863 
L 3481 4863 
L 3481 0 
L 2906 0 
L 2906 525 
Q 2725 213 2448 61 
Q 2172 -91 1784 -91 
Q 1150 -91 751 415 
Q 353 922 353 1747 
Q 353 2572 751 3078 
Q 1150 3584 1784 3584 
Q 2172 3584 2448 3432 
Q 2725 3281 2906 2969 
z
M 947 1747 
Q 947 1113 1208 752 
Q 1469 391 1925 391 
Q 2381 391 2643 752 
Q 2906 1113 2906 1747 
Q 2906 2381 2643 2742 
Q 2381 3103 1925 3103 
Q 1469 3103 1208 2742 
Q 947 2381 947 1747 
z
" transform="scale(0.015625)"/>
      </defs>
      <use xlink:href="#DejaVuSans-63"/>
      <use xlink:href="#DejaVuSans-79" x="54.980469"/>
      <use xlink:href="#DejaVuSans-74" x="114.160156"/>
      <use xlink:href="#DejaVuSans-64" x="153.369141"/>
     </g>
    </g>
    <g id="patch_70">
     <path d="M 479.210625 112.739687 
L 503.210625 112.739687 
L 503.210625 104.339687 
L 479.210625 104.339687 
z
" style="fill: #9467bd; opacity: 0.4"/>
    </g>
    <g id="text_19">
     <!-- jasp -->
     <g transform="translate(512.810625 112.739687)scale(0.12 -0.12)">
      <use xlink:href="#DejaVuSans-6a"/>
      <use xlink:href="#DejaVuSans-61" x="27.783203"/>
      <use xlink:href="#DejaVuSans-73" x="89.0625"/>
      <use xlink:href="#DejaVuSans-70" x="141.162109"/>
     </g>
    </g>
   </g>
  </g>
  <g id="text_20">
   <!-- Histograms of elastic (a=3, b=1) distances to global mean cell -->
   <g transform="translate(-26.423438 20.956875)scale(0.2 -0.2)">
    <defs>
     <path id="DejaVuSans-48" d="M 628 4666 
L 1259 4666 
L 1259 2753 
L 3553 2753 
L 3553 4666 
L 4184 4666 
L 4184 0 
L 3553 0 
L 3553 2222 
L 1259 2222 
L 1259 0 
L 628 0 
L 628 4666 
z
" transform="scale(0.015625)"/>
     <path id="DejaVuSans-67" d="M 2906 1791 
Q 2906 2416 2648 2759 
Q 2391 3103 1925 3103 
Q 1463 3103 1205 2759 
Q 947 2416 947 1791 
Q 947 1169 1205 825 
Q 1463 481 1925 481 
Q 2391 481 2648 825 
Q 2906 1169 2906 1791 
z
M 3481 434 
Q 3481 -459 3084 -895 
Q 2688 -1331 1869 -1331 
Q 1566 -1331 1297 -1286 
Q 1028 -1241 775 -1147 
L 775 -588 
Q 1028 -725 1275 -790 
Q 1522 -856 1778 -856 
Q 2344 -856 2625 -561 
Q 2906 -266 2906 331 
L 2906 616 
Q 2728 306 2450 153 
Q 2172 0 1784 0 
Q 1141 0 747 490 
Q 353 981 353 1791 
Q 353 2603 747 3093 
Q 1141 3584 1784 3584 
Q 2172 3584 2450 3431 
Q 2728 3278 2906 2969 
L 2906 3500 
L 3481 3500 
L 3481 434 
z
" transform="scale(0.015625)"/>
     <path id="DejaVuSans-6d" d="M 3328 2828 
Q 3544 3216 3844 3400 
Q 4144 3584 4550 3584 
Q 5097 3584 5394 3201 
Q 5691 2819 5691 2113 
L 5691 0 
L 5113 0 
L 5113 2094 
Q 5113 2597 4934 2840 
Q 4756 3084 4391 3084 
Q 3944 3084 3684 2787 
Q 3425 2491 3425 1978 
L 3425 0 
L 2847 0 
L 2847 2094 
Q 2847 2600 2669 2842 
Q 2491 3084 2119 3084 
Q 1678 3084 1418 2786 
Q 1159 2488 1159 1978 
L 1159 0 
L 581 0 
L 581 3500 
L 1159 3500 
L 1159 2956 
Q 1356 3278 1631 3431 
Q 1906 3584 2284 3584 
Q 2666 3584 2933 3390 
Q 3200 3197 3328 2828 
z
" transform="scale(0.015625)"/>
     <path id="DejaVuSans-28" d="M 1984 4856 
Q 1566 4138 1362 3434 
Q 1159 2731 1159 2009 
Q 1159 1288 1364 580 
Q 1569 -128 1984 -844 
L 1484 -844 
Q 1016 -109 783 600 
Q 550 1309 550 2009 
Q 550 2706 781 3412 
Q 1013 4119 1484 4856 
L 1984 4856 
z
" transform="scale(0.015625)"/>
     <path id="DejaVuSans-3d" d="M 678 2906 
L 4684 2906 
L 4684 2381 
L 678 2381 
L 678 2906 
z
M 678 1631 
L 4684 1631 
L 4684 1100 
L 678 1100 
L 678 1631 
z
" transform="scale(0.015625)"/>
     <path id="DejaVuSans-2c" d="M 750 794 
L 1409 794 
L 1409 256 
L 897 -744 
L 494 -744 
L 750 256 
L 750 794 
z
" transform="scale(0.015625)"/>
     <path id="DejaVuSans-62" d="M 3116 1747 
Q 3116 2381 2855 2742 
Q 2594 3103 2138 3103 
Q 1681 3103 1420 2742 
Q 1159 2381 1159 1747 
Q 1159 1113 1420 752 
Q 1681 391 2138 391 
Q 2594 391 2855 752 
Q 3116 1113 3116 1747 
z
M 1159 2969 
Q 1341 3281 1617 3432 
Q 1894 3584 2278 3584 
Q 2916 3584 3314 3078 
Q 3713 2572 3713 1747 
Q 3713 922 3314 415 
Q 2916 -91 2278 -91 
Q 1894 -91 1617 61 
Q 1341 213 1159 525 
L 1159 0 
L 581 0 
L 581 4863 
L 1159 4863 
L 1159 2969 
z
" transform="scale(0.015625)"/>
     <path id="DejaVuSans-29" d="M 513 4856 
L 1013 4856 
Q 1481 4119 1714 3412 
Q 1947 2706 1947 2009 
Q 1947 1309 1714 600 
Q 1481 -109 1013 -844 
L 513 -844 
Q 928 -128 1133 580 
Q 1338 1288 1338 2009 
Q 1338 2731 1133 3434 
Q 928 4138 513 4856 
z
" transform="scale(0.015625)"/>
    </defs>
    <use xlink:href="#DejaVuSans-48"/>
    <use xlink:href="#DejaVuSans-69" x="75.195312"/>
    <use xlink:href="#DejaVuSans-73" x="102.978516"/>
    <use xlink:href="#DejaVuSans-74" x="155.078125"/>
    <use xlink:href="#DejaVuSans-6f" x="194.287109"/>
    <use xlink:href="#DejaVuSans-67" x="255.46875"/>
    <use xlink:href="#DejaVuSans-72" x="318.945312"/>
    <use xlink:href="#DejaVuSans-61" x="360.058594"/>
    <use xlink:href="#DejaVuSans-6d" x="421.337891"/>
    <use xlink:href="#DejaVuSans-73" x="518.75"/>
    <use xlink:href="#DejaVuSans-20" x="570.849609"/>
    <use xlink:href="#DejaVuSans-6f" x="602.636719"/>
    <use xlink:href="#DejaVuSans-66" x="663.818359"/>
    <use xlink:href="#DejaVuSans-20" x="699.023438"/>
    <use xlink:href="#DejaVuSans-65" x="730.810547"/>
    <use xlink:href="#DejaVuSans-6c" x="792.333984"/>
    <use xlink:href="#DejaVuSans-61" x="820.117188"/>
    <use xlink:href="#DejaVuSans-73" x="881.396484"/>
    <use xlink:href="#DejaVuSans-74" x="933.496094"/>
    <use xlink:href="#DejaVuSans-69" x="972.705078"/>
    <use xlink:href="#DejaVuSans-63" x="1000.488281"/>
    <use xlink:href="#DejaVuSans-20" x="1055.46875"/>
    <use xlink:href="#DejaVuSans-28" x="1087.255859"/>
    <use xlink:href="#DejaVuSans-61" x="1126.269531"/>
    <use xlink:href="#DejaVuSans-3d" x="1187.548828"/>
    <use xlink:href="#DejaVuSans-33" x="1271.337891"/>
    <use xlink:href="#DejaVuSans-2c" x="1334.960938"/>
    <use xlink:href="#DejaVuSans-20" x="1366.748047"/>
    <use xlink:href="#DejaVuSans-62" x="1398.535156"/>
    <use xlink:href="#DejaVuSans-3d" x="1462.011719"/>
    <use xlink:href="#DejaVuSans-31" x="1545.800781"/>
    <use xlink:href="#DejaVuSans-29" x="1609.423828"/>
    <use xlink:href="#DejaVuSans-20" x="1648.4375"/>
    <use xlink:href="#DejaVuSans-64" x="1680.224609"/>
    <use xlink:href="#DejaVuSans-69" x="1743.701172"/>
    <use xlink:href="#DejaVuSans-73" x="1771.484375"/>
    <use xlink:href="#DejaVuSans-74" x="1823.583984"/>
    <use xlink:href="#DejaVuSans-61" x="1862.792969"/>
    <use xlink:href="#DejaVuSans-6e" x="1924.072266"/>
    <use xlink:href="#DejaVuSans-63" x="1987.451172"/>
    <use xlink:href="#DejaVuSans-65" x="2042.431641"/>
    <use xlink:href="#DejaVuSans-73" x="2103.955078"/>
    <use xlink:href="#DejaVuSans-20" x="2156.054688"/>
    <use xlink:href="#DejaVuSans-74" x="2187.841797"/>
    <use xlink:href="#DejaVuSans-6f" x="2227.050781"/>
    <use xlink:href="#DejaVuSans-20" x="2288.232422"/>
    <use xlink:href="#DejaVuSans-67" x="2320.019531"/>
    <use xlink:href="#DejaVuSans-6c" x="2383.496094"/>
    <use xlink:href="#DejaVuSans-6f" x="2411.279297"/>
    <use xlink:href="#DejaVuSans-62" x="2472.460938"/>
    <use xlink:href="#DejaVuSans-61" x="2535.9375"/>
    <use xlink:href="#DejaVuSans-6c" x="2597.216797"/>
    <use xlink:href="#DejaVuSans-20" x="2625"/>
    <use xlink:href="#DejaVuSans-6d" x="2656.787109"/>
    <use xlink:href="#DejaVuSans-65" x="2754.199219"/>
    <use xlink:href="#DejaVuSans-61" x="2815.722656"/>
    <use xlink:href="#DejaVuSans-6e" x="2877.001953"/>
    <use xlink:href="#DejaVuSans-20" x="2940.380859"/>
    <use xlink:href="#DejaVuSans-63" x="2972.167969"/>
    <use xlink:href="#DejaVuSans-65" x="3027.148438"/>
    <use xlink:href="#DejaVuSans-6c" x="3088.671875"/>
    <use xlink:href="#DejaVuSans-6c" x="3116.455078"/>
   </g>
  </g>
 </g>
 <defs>
  <clipPath id="p6d4d23c76f">
   <rect x="41.711875" y="57.594062" width="523.488125" height="202.927813"/>
  </clipPath>
 </defs>
</svg>
