<?xml version="1.0" encoding="utf-8" standalone="no"?>
<!DOCTYPE svg PUBLIC "-//W3C//DTD SVG 1.1//EN"
  "http://www.w3.org/Graphics/SVG/1.1/DTD/svg11.dtd">
<svg xmlns:xlink="http://www.w3.org/1999/xlink" width="576pt" height="576pt" viewBox="0 0 576 576" xmlns="http://www.w3.org/2000/svg" version="1.1">
 <metadata>
  <rdf:RDF xmlns:dc="http://purl.org/dc/elements/1.1/" xmlns:cc="http://creativecommons.org/ns#" xmlns:rdf="http://www.w3.org/1999/02/22-rdf-syntax-ns#">
   <cc:Work>
    <dc:type rdf:resource="http://purl.org/dc/dcmitype/StillImage"/>
    <dc:date>2022-12-26T16:44:10.639605</dc:date>
    <dc:format>image/svg+xml</dc:format>
    <dc:creator>
     <cc:Agent>
      <dc:title>Matplotlib v3.5.1, https://matplotlib.org/</dc:title>
     </cc:Agent>
    </dc:creator>
   </cc:Work>
  </rdf:RDF>
 </metadata>
 <defs>
  <style type="text/css">*{stroke-linejoin: round; stroke-linecap: butt}</style>
 </defs>
 <g id="figure_1">
  <g id="patch_1">
   <path d="M 0 576 
L 576 576 
L 576 0 
L 0 0 
L 0 576 
z
" style="fill: none"/>
  </g>
  <g id="axes_1">
   <g id="patch_2">
    <path d="M 41.711875 199.025521 
L 565.2 199.025521 
L 565.2 57.594062 
L 41.711875 57.594062 
z
" style="fill: #ffffff"/>
   </g>
   <g id="patch_3">
    <path d="M 53.517185 199.025521 
L 71.970508 199.025521 
L 71.970508 169.392263 
L 53.517185 169.392263 
z
" clip-path="url(#p7a87680027)" style="fill: #1f77b4; opacity: 0.4"/>
   </g>
   <g id="patch_4">
    <path d="M 71.970508 199.025521 
L 90.423831 199.025521 
L 90.423831 177.474061 
L 71.970508 177.474061 
z
" clip-path="url(#p7a87680027)" style="fill: #1f77b4; opacity: 0.4"/>
   </g>
   <g id="patch_5">
    <path d="M 90.423831 199.025521 
L 108.877153 199.025521 
L 108.877153 190.943723 
L 90.423831 190.943723 
z
" clip-path="url(#p7a87680027)" style="fill: #1f77b4; opacity: 0.4"/>
   </g>
   <g id="patch_6">
    <path d="M 108.877153 199.025521 
L 127.330476 199.025521 
L 127.330476 199.025521 
L 108.877153 199.025521 
z
" clip-path="url(#p7a87680027)" style="fill: #1f77b4; opacity: 0.4"/>
   </g>
   <g id="patch_7">
    <path d="M 127.330476 199.025521 
L 145.783799 199.025521 
L 145.783799 174.780128 
L 127.330476 174.780128 
z
" clip-path="url(#p7a87680027)" style="fill: #1f77b4; opacity: 0.4"/>
   </g>
   <g id="patch_8">
    <path d="M 145.783799 199.025521 
L 164.237122 199.025521 
L 164.237122 188.249791 
L 145.783799 188.249791 
z
" clip-path="url(#p7a87680027)" style="fill: #1f77b4; opacity: 0.4"/>
   </g>
   <g id="patch_9">
    <path d="M 164.237122 199.025521 
L 182.690444 199.025521 
L 182.690444 180.167993 
L 164.237122 180.167993 
z
" clip-path="url(#p7a87680027)" style="fill: #1f77b4; opacity: 0.4"/>
   </g>
   <g id="patch_10">
    <path d="M 182.690444 199.025521 
L 201.143767 199.025521 
L 201.143767 196.331588 
L 182.690444 196.331588 
z
" clip-path="url(#p7a87680027)" style="fill: #1f77b4; opacity: 0.4"/>
   </g>
   <g id="patch_11">
    <path d="M 201.143767 199.025521 
L 219.59709 199.025521 
L 219.59709 193.637656 
L 201.143767 193.637656 
z
" clip-path="url(#p7a87680027)" style="fill: #1f77b4; opacity: 0.4"/>
   </g>
   <g id="patch_12">
    <path d="M 219.59709 199.025521 
L 238.050413 199.025521 
L 238.050413 196.331588 
L 219.59709 196.331588 
z
" clip-path="url(#p7a87680027)" style="fill: #1f77b4; opacity: 0.4"/>
   </g>
   <g id="patch_13">
    <path d="M 238.050413 199.025521 
L 256.503736 199.025521 
L 256.503736 193.637656 
L 238.050413 193.637656 
z
" clip-path="url(#p7a87680027)" style="fill: #1f77b4; opacity: 0.4"/>
   </g>
   <g id="patch_14">
    <path d="M 256.503736 199.025521 
L 274.957058 199.025521 
L 274.957058 190.943723 
L 256.503736 190.943723 
z
" clip-path="url(#p7a87680027)" style="fill: #1f77b4; opacity: 0.4"/>
   </g>
   <g id="patch_15">
    <path d="M 274.957058 199.025521 
L 293.410381 199.025521 
L 293.410381 199.025521 
L 274.957058 199.025521 
z
" clip-path="url(#p7a87680027)" style="fill: #1f77b4; opacity: 0.4"/>
   </g>
   <g id="patch_16">
    <path d="M 293.410381 199.025521 
L 311.863704 199.025521 
L 311.863704 190.943723 
L 293.410381 190.943723 
z
" clip-path="url(#p7a87680027)" style="fill: #1f77b4; opacity: 0.4"/>
   </g>
   <g id="patch_17">
    <path d="M 311.863704 199.025521 
L 330.317027 199.025521 
L 330.317027 190.943723 
L 311.863704 190.943723 
z
" clip-path="url(#p7a87680027)" style="fill: #1f77b4; opacity: 0.4"/>
   </g>
   <g id="patch_18">
    <path d="M 330.317027 199.025521 
L 348.770349 199.025521 
L 348.770349 196.331588 
L 330.317027 196.331588 
z
" clip-path="url(#p7a87680027)" style="fill: #1f77b4; opacity: 0.4"/>
   </g>
   <g id="patch_19">
    <path d="M 348.770349 199.025521 
L 367.223672 199.025521 
L 367.223672 190.943723 
L 348.770349 190.943723 
z
" clip-path="url(#p7a87680027)" style="fill: #1f77b4; opacity: 0.4"/>
   </g>
   <g id="patch_20">
    <path d="M 367.223672 199.025521 
L 385.676995 199.025521 
L 385.676995 199.025521 
L 367.223672 199.025521 
z
" clip-path="url(#p7a87680027)" style="fill: #1f77b4; opacity: 0.4"/>
   </g>
   <g id="patch_21">
    <path d="M 385.676995 199.025521 
L 404.130318 199.025521 
L 404.130318 190.943723 
L 385.676995 190.943723 
z
" clip-path="url(#p7a87680027)" style="fill: #1f77b4; opacity: 0.4"/>
   </g>
   <g id="patch_22">
    <path d="M 404.130318 199.025521 
L 422.58364 199.025521 
L 422.58364 64.328894 
L 404.130318 64.328894 
z
" clip-path="url(#p7a87680027)" style="fill: #1f77b4; opacity: 0.4"/>
   </g>
   <g id="patch_23">
    <path d="M 41.711875 199.025521 
L 60.886738 199.025521 
L 60.886738 188.884031 
L 41.711875 188.884031 
z
" clip-path="url(#p7a87680027)" style="fill: #ff7f0e; opacity: 0.4"/>
   </g>
   <g id="patch_24">
    <path d="M 60.886738 199.025521 
L 80.061602 199.025521 
L 80.061602 159.908348 
L 60.886738 159.908348 
z
" clip-path="url(#p7a87680027)" style="fill: #ff7f0e; opacity: 0.4"/>
   </g>
   <g id="patch_25">
    <path d="M 80.061602 199.025521 
L 99.236465 199.025521 
L 99.236465 190.332816 
L 80.061602 190.332816 
z
" clip-path="url(#p7a87680027)" style="fill: #ff7f0e; opacity: 0.4"/>
   </g>
   <g id="patch_26">
    <path d="M 99.236465 199.025521 
L 118.411329 199.025521 
L 118.411329 190.332816 
L 99.236465 190.332816 
z
" clip-path="url(#p7a87680027)" style="fill: #ff7f0e; opacity: 0.4"/>
   </g>
   <g id="patch_27">
    <path d="M 118.411329 199.025521 
L 137.586192 199.025521 
L 137.586192 191.7816 
L 118.411329 191.7816 
z
" clip-path="url(#p7a87680027)" style="fill: #ff7f0e; opacity: 0.4"/>
   </g>
   <g id="patch_28">
    <path d="M 137.586192 199.025521 
L 156.761056 199.025521 
L 156.761056 196.127952 
L 137.586192 196.127952 
z
" clip-path="url(#p7a87680027)" style="fill: #ff7f0e; opacity: 0.4"/>
   </g>
   <g id="patch_29">
    <path d="M 156.761056 199.025521 
L 175.935919 199.025521 
L 175.935919 191.7816 
L 156.761056 191.7816 
z
" clip-path="url(#p7a87680027)" style="fill: #ff7f0e; opacity: 0.4"/>
   </g>
   <g id="patch_30">
    <path d="M 175.935919 199.025521 
L 195.110782 199.025521 
L 195.110782 191.7816 
L 175.935919 191.7816 
z
" clip-path="url(#p7a87680027)" style="fill: #ff7f0e; opacity: 0.4"/>
   </g>
   <g id="patch_31">
    <path d="M 195.110782 199.025521 
L 214.285646 199.025521 
L 214.285646 187.435247 
L 195.110782 187.435247 
z
" clip-path="url(#p7a87680027)" style="fill: #ff7f0e; opacity: 0.4"/>
   </g>
   <g id="patch_32">
    <path d="M 214.285646 199.025521 
L 233.460509 199.025521 
L 233.460509 183.088895 
L 214.285646 183.088895 
z
" clip-path="url(#p7a87680027)" style="fill: #ff7f0e; opacity: 0.4"/>
   </g>
   <g id="patch_33">
    <path d="M 233.460509 199.025521 
L 252.635373 199.025521 
L 252.635373 187.435247 
L 233.460509 187.435247 
z
" clip-path="url(#p7a87680027)" style="fill: #ff7f0e; opacity: 0.4"/>
   </g>
   <g id="patch_34">
    <path d="M 252.635373 199.025521 
L 271.810236 199.025521 
L 271.810236 193.230384 
L 252.635373 193.230384 
z
" clip-path="url(#p7a87680027)" style="fill: #ff7f0e; opacity: 0.4"/>
   </g>
   <g id="patch_35">
    <path d="M 271.810236 199.025521 
L 290.9851 199.025521 
L 290.9851 185.986463 
L 271.810236 185.986463 
z
" clip-path="url(#p7a87680027)" style="fill: #ff7f0e; opacity: 0.4"/>
   </g>
   <g id="patch_36">
    <path d="M 290.9851 199.025521 
L 310.159963 199.025521 
L 310.159963 197.576737 
L 290.9851 197.576737 
z
" clip-path="url(#p7a87680027)" style="fill: #ff7f0e; opacity: 0.4"/>
   </g>
   <g id="patch_37">
    <path d="M 310.159963 199.025521 
L 329.334826 199.025521 
L 329.334826 193.230384 
L 310.159963 193.230384 
z
" clip-path="url(#p7a87680027)" style="fill: #ff7f0e; opacity: 0.4"/>
   </g>
   <g id="patch_38">
    <path d="M 329.334826 199.025521 
L 348.50969 199.025521 
L 348.50969 193.230384 
L 329.334826 193.230384 
z
" clip-path="url(#p7a87680027)" style="fill: #ff7f0e; opacity: 0.4"/>
   </g>
   <g id="patch_39">
    <path d="M 348.50969 199.025521 
L 367.684553 199.025521 
L 367.684553 191.7816 
L 348.50969 191.7816 
z
" clip-path="url(#p7a87680027)" style="fill: #ff7f0e; opacity: 0.4"/>
   </g>
   <g id="patch_40">
    <path d="M 367.684553 199.025521 
L 386.859417 199.025521 
L 386.859417 197.576737 
L 367.684553 197.576737 
z
" clip-path="url(#p7a87680027)" style="fill: #ff7f0e; opacity: 0.4"/>
   </g>
   <g id="patch_41">
    <path d="M 386.859417 199.025521 
L 406.03428 199.025521 
L 406.03428 170.049837 
L 386.859417 170.049837 
z
" clip-path="url(#p7a87680027)" style="fill: #ff7f0e; opacity: 0.4"/>
   </g>
   <g id="patch_42">
    <path d="M 406.03428 199.025521 
L 425.209144 199.025521 
L 425.209144 103.405764 
L 406.03428 103.405764 
z
" clip-path="url(#p7a87680027)" style="fill: #ff7f0e; opacity: 0.4"/>
   </g>
   <g id="matplotlib.axis_1">
    <g id="xtick_1">
     <g id="line2d_1">
      <defs>
       <path id="m0689e56ecb" d="M 0 0 
L 0 3.5 
" style="stroke: #000000; stroke-width: 0.8"/>
      </defs>
      <g>
       <use xlink:href="#m0689e56ecb" x="73.61825" y="199.025521" style="stroke: #000000; stroke-width: 0.8"/>
      </g>
     </g>
    </g>
    <g id="xtick_2">
     <g id="line2d_2">
      <g>
       <use xlink:href="#m0689e56ecb" x="132.265637" y="199.025521" style="stroke: #000000; stroke-width: 0.8"/>
      </g>
     </g>
    </g>
    <g id="xtick_3">
     <g id="line2d_3">
      <g>
       <use xlink:href="#m0689e56ecb" x="190.913023" y="199.025521" style="stroke: #000000; stroke-width: 0.8"/>
      </g>
     </g>
    </g>
    <g id="xtick_4">
     <g id="line2d_4">
      <g>
       <use xlink:href="#m0689e56ecb" x="249.560409" y="199.025521" style="stroke: #000000; stroke-width: 0.8"/>
      </g>
     </g>
    </g>
    <g id="xtick_5">
     <g id="line2d_5">
      <g>
       <use xlink:href="#m0689e56ecb" x="308.207795" y="199.025521" style="stroke: #000000; stroke-width: 0.8"/>
      </g>
     </g>
    </g>
    <g id="xtick_6">
     <g id="line2d_6">
      <g>
       <use xlink:href="#m0689e56ecb" x="366.855182" y="199.025521" style="stroke: #000000; stroke-width: 0.8"/>
      </g>
     </g>
    </g>
    <g id="xtick_7">
     <g id="line2d_7">
      <g>
       <use xlink:href="#m0689e56ecb" x="425.502568" y="199.025521" style="stroke: #000000; stroke-width: 0.8"/>
      </g>
     </g>
    </g>
    <g id="xtick_8">
     <g id="line2d_8">
      <g>
       <use xlink:href="#m0689e56ecb" x="484.149954" y="199.025521" style="stroke: #000000; stroke-width: 0.8"/>
      </g>
     </g>
    </g>
    <g id="xtick_9">
     <g id="line2d_9">
      <g>
       <use xlink:href="#m0689e56ecb" x="542.79734" y="199.025521" style="stroke: #000000; stroke-width: 0.8"/>
      </g>
     </g>
    </g>
   </g>
   <g id="matplotlib.axis_2">
    <g id="ytick_1">
     <g id="line2d_10">
      <defs>
       <path id="ma3e8ad98f2" d="M 0 0 
L -3.5 0 
" style="stroke: #000000; stroke-width: 0.8"/>
      </defs>
      <g>
       <use xlink:href="#ma3e8ad98f2" x="41.711875" y="199.025521" style="stroke: #000000; stroke-width: 0.8"/>
      </g>
     </g>
     <g id="text_1">
      <!-- 0 -->
      <g transform="translate(28.349375 202.82474)scale(0.1 -0.1)">
       <defs>
        <path id="DejaVuSans-30" d="M 2034 4250 
Q 1547 4250 1301 3770 
Q 1056 3291 1056 2328 
Q 1056 1369 1301 889 
Q 1547 409 2034 409 
Q 2525 409 2770 889 
Q 3016 1369 3016 2328 
Q 3016 3291 2770 3770 
Q 2525 4250 2034 4250 
z
M 2034 4750 
Q 2819 4750 3233 4129 
Q 3647 3509 3647 2328 
Q 3647 1150 3233 529 
Q 2819 -91 2034 -91 
Q 1250 -91 836 529 
Q 422 1150 422 2328 
Q 422 3509 836 4129 
Q 1250 4750 2034 4750 
z
" transform="scale(0.015625)"/>
       </defs>
       <use xlink:href="#DejaVuSans-30"/>
      </g>
     </g>
    </g>
    <g id="ytick_2">
     <g id="line2d_11">
      <g>
       <use xlink:href="#ma3e8ad98f2" x="41.711875" y="174.867715" style="stroke: #000000; stroke-width: 0.8"/>
      </g>
     </g>
     <g id="text_2">
      <!-- 1 -->
      <g transform="translate(28.349375 178.666933)scale(0.1 -0.1)">
       <defs>
        <path id="DejaVuSans-31" d="M 794 531 
L 1825 531 
L 1825 4091 
L 703 3866 
L 703 4441 
L 1819 4666 
L 2450 4666 
L 2450 531 
L 3481 531 
L 3481 0 
L 794 0 
L 794 531 
z
" transform="scale(0.015625)"/>
       </defs>
       <use xlink:href="#DejaVuSans-31"/>
      </g>
     </g>
    </g>
    <g id="ytick_3">
     <g id="line2d_12">
      <g>
       <use xlink:href="#ma3e8ad98f2" x="41.711875" y="150.709908" style="stroke: #000000; stroke-width: 0.8"/>
      </g>
     </g>
     <g id="text_3">
      <!-- 2 -->
      <g transform="translate(28.349375 154.509127)scale(0.1 -0.1)">
       <defs>
        <path id="DejaVuSans-32" d="M 1228 531 
L 3431 531 
L 3431 0 
L 469 0 
L 469 531 
Q 828 903 1448 1529 
Q 2069 2156 2228 2338 
Q 2531 2678 2651 2914 
Q 2772 3150 2772 3378 
Q 2772 3750 2511 3984 
Q 2250 4219 1831 4219 
Q 1534 4219 1204 4116 
Q 875 4013 500 3803 
L 500 4441 
Q 881 4594 1212 4672 
Q 1544 4750 1819 4750 
Q 2544 4750 2975 4387 
Q 3406 4025 3406 3419 
Q 3406 3131 3298 2873 
Q 3191 2616 2906 2266 
Q 2828 2175 2409 1742 
Q 1991 1309 1228 531 
z
" transform="scale(0.015625)"/>
       </defs>
       <use xlink:href="#DejaVuSans-32"/>
      </g>
     </g>
    </g>
    <g id="ytick_4">
     <g id="line2d_13">
      <g>
       <use xlink:href="#ma3e8ad98f2" x="41.711875" y="126.552102" style="stroke: #000000; stroke-width: 0.8"/>
      </g>
     </g>
     <g id="text_4">
      <!-- 3 -->
      <g transform="translate(28.349375 130.351321)scale(0.1 -0.1)">
       <defs>
        <path id="DejaVuSans-33" d="M 2597 2516 
Q 3050 2419 3304 2112 
Q 3559 1806 3559 1356 
Q 3559 666 3084 287 
Q 2609 -91 1734 -91 
Q 1441 -91 1130 -33 
Q 819 25 488 141 
L 488 750 
Q 750 597 1062 519 
Q 1375 441 1716 441 
Q 2309 441 2620 675 
Q 2931 909 2931 1356 
Q 2931 1769 2642 2001 
Q 2353 2234 1838 2234 
L 1294 2234 
L 1294 2753 
L 1863 2753 
Q 2328 2753 2575 2939 
Q 2822 3125 2822 3475 
Q 2822 3834 2567 4026 
Q 2313 4219 1838 4219 
Q 1578 4219 1281 4162 
Q 984 4106 628 3988 
L 628 4550 
Q 988 4650 1302 4700 
Q 1616 4750 1894 4750 
Q 2613 4750 3031 4423 
Q 3450 4097 3450 3541 
Q 3450 3153 3228 2886 
Q 3006 2619 2597 2516 
z
" transform="scale(0.015625)"/>
       </defs>
       <use xlink:href="#DejaVuSans-33"/>
      </g>
     </g>
    </g>
    <g id="ytick_5">
     <g id="line2d_14">
      <g>
       <use xlink:href="#ma3e8ad98f2" x="41.711875" y="102.394296" style="stroke: #000000; stroke-width: 0.8"/>
      </g>
     </g>
     <g id="text_5">
      <!-- 4 -->
      <g transform="translate(28.349375 106.193515)scale(0.1 -0.1)">
       <defs>
        <path id="DejaVuSans-34" d="M 2419 4116 
L 825 1625 
L 2419 1625 
L 2419 4116 
z
M 2253 4666 
L 3047 4666 
L 3047 1625 
L 3713 1625 
L 3713 1100 
L 3047 1100 
L 3047 0 
L 2419 0 
L 2419 1100 
L 313 1100 
L 313 1709 
L 2253 4666 
z
" transform="scale(0.015625)"/>
       </defs>
       <use xlink:href="#DejaVuSans-34"/>
      </g>
     </g>
    </g>
    <g id="ytick_6">
     <g id="line2d_15">
      <g>
       <use xlink:href="#ma3e8ad98f2" x="41.711875" y="78.23649" style="stroke: #000000; stroke-width: 0.8"/>
      </g>
     </g>
     <g id="text_6">
      <!-- 5 -->
      <g transform="translate(28.349375 82.035709)scale(0.1 -0.1)">
       <defs>
        <path id="DejaVuSans-35" d="M 691 4666 
L 3169 4666 
L 3169 4134 
L 1269 4134 
L 1269 2991 
Q 1406 3038 1543 3061 
Q 1681 3084 1819 3084 
Q 2600 3084 3056 2656 
Q 3513 2228 3513 1497 
Q 3513 744 3044 326 
Q 2575 -91 1722 -91 
Q 1428 -91 1123 -41 
Q 819 9 494 109 
L 494 744 
Q 775 591 1075 516 
Q 1375 441 1709 441 
Q 2250 441 2565 725 
Q 2881 1009 2881 1497 
Q 2881 1984 2565 2268 
Q 2250 2553 1709 2553 
Q 1456 2553 1204 2497 
Q 953 2441 691 2322 
L 691 4666 
z
" transform="scale(0.015625)"/>
       </defs>
       <use xlink:href="#DejaVuSans-35"/>
      </g>
     </g>
    </g>
    <g id="text_7">
     <!-- Fraction of cells -->
     <g transform="translate(21.437812 183.141667)rotate(-90)scale(0.14 -0.14)">
      <defs>
       <path id="DejaVuSans-46" d="M 628 4666 
L 3309 4666 
L 3309 4134 
L 1259 4134 
L 1259 2759 
L 3109 2759 
L 3109 2228 
L 1259 2228 
L 1259 0 
L 628 0 
L 628 4666 
z
" transform="scale(0.015625)"/>
       <path id="DejaVuSans-72" d="M 2631 2963 
Q 2534 3019 2420 3045 
Q 2306 3072 2169 3072 
Q 1681 3072 1420 2755 
Q 1159 2438 1159 1844 
L 1159 0 
L 581 0 
L 581 3500 
L 1159 3500 
L 1159 2956 
Q 1341 3275 1631 3429 
Q 1922 3584 2338 3584 
Q 2397 3584 2469 3576 
Q 2541 3569 2628 3553 
L 2631 2963 
z
" transform="scale(0.015625)"/>
       <path id="DejaVuSans-61" d="M 2194 1759 
Q 1497 1759 1228 1600 
Q 959 1441 959 1056 
Q 959 750 1161 570 
Q 1363 391 1709 391 
Q 2188 391 2477 730 
Q 2766 1069 2766 1631 
L 2766 1759 
L 2194 1759 
z
M 3341 1997 
L 3341 0 
L 2766 0 
L 2766 531 
Q 2569 213 2275 61 
Q 1981 -91 1556 -91 
Q 1019 -91 701 211 
Q 384 513 384 1019 
Q 384 1609 779 1909 
Q 1175 2209 1959 2209 
L 2766 2209 
L 2766 2266 
Q 2766 2663 2505 2880 
Q 2244 3097 1772 3097 
Q 1472 3097 1187 3025 
Q 903 2953 641 2809 
L 641 3341 
Q 956 3463 1253 3523 
Q 1550 3584 1831 3584 
Q 2591 3584 2966 3190 
Q 3341 2797 3341 1997 
z
" transform="scale(0.015625)"/>
       <path id="DejaVuSans-63" d="M 3122 3366 
L 3122 2828 
Q 2878 2963 2633 3030 
Q 2388 3097 2138 3097 
Q 1578 3097 1268 2742 
Q 959 2388 959 1747 
Q 959 1106 1268 751 
Q 1578 397 2138 397 
Q 2388 397 2633 464 
Q 2878 531 3122 666 
L 3122 134 
Q 2881 22 2623 -34 
Q 2366 -91 2075 -91 
Q 1284 -91 818 406 
Q 353 903 353 1747 
Q 353 2603 823 3093 
Q 1294 3584 2113 3584 
Q 2378 3584 2631 3529 
Q 2884 3475 3122 3366 
z
" transform="scale(0.015625)"/>
       <path id="DejaVuSans-74" d="M 1172 4494 
L 1172 3500 
L 2356 3500 
L 2356 3053 
L 1172 3053 
L 1172 1153 
Q 1172 725 1289 603 
Q 1406 481 1766 481 
L 2356 481 
L 2356 0 
L 1766 0 
Q 1100 0 847 248 
Q 594 497 594 1153 
L 594 3053 
L 172 3053 
L 172 3500 
L 594 3500 
L 594 4494 
L 1172 4494 
z
" transform="scale(0.015625)"/>
       <path id="DejaVuSans-69" d="M 603 3500 
L 1178 3500 
L 1178 0 
L 603 0 
L 603 3500 
z
M 603 4863 
L 1178 4863 
L 1178 4134 
L 603 4134 
L 603 4863 
z
" transform="scale(0.015625)"/>
       <path id="DejaVuSans-6f" d="M 1959 3097 
Q 1497 3097 1228 2736 
Q 959 2375 959 1747 
Q 959 1119 1226 758 
Q 1494 397 1959 397 
Q 2419 397 2687 759 
Q 2956 1122 2956 1747 
Q 2956 2369 2687 2733 
Q 2419 3097 1959 3097 
z
M 1959 3584 
Q 2709 3584 3137 3096 
Q 3566 2609 3566 1747 
Q 3566 888 3137 398 
Q 2709 -91 1959 -91 
Q 1206 -91 779 398 
Q 353 888 353 1747 
Q 353 2609 779 3096 
Q 1206 3584 1959 3584 
z
" transform="scale(0.015625)"/>
       <path id="DejaVuSans-6e" d="M 3513 2113 
L 3513 0 
L 2938 0 
L 2938 2094 
Q 2938 2591 2744 2837 
Q 2550 3084 2163 3084 
Q 1697 3084 1428 2787 
Q 1159 2491 1159 1978 
L 1159 0 
L 581 0 
L 581 3500 
L 1159 3500 
L 1159 2956 
Q 1366 3272 1645 3428 
Q 1925 3584 2291 3584 
Q 2894 3584 3203 3211 
Q 3513 2838 3513 2113 
z
" transform="scale(0.015625)"/>
       <path id="DejaVuSans-20" transform="scale(0.015625)"/>
       <path id="DejaVuSans-66" d="M 2375 4863 
L 2375 4384 
L 1825 4384 
Q 1516 4384 1395 4259 
Q 1275 4134 1275 3809 
L 1275 3500 
L 2222 3500 
L 2222 3053 
L 1275 3053 
L 1275 0 
L 697 0 
L 697 3053 
L 147 3053 
L 147 3500 
L 697 3500 
L 697 3744 
Q 697 4328 969 4595 
Q 1241 4863 1831 4863 
L 2375 4863 
z
" transform="scale(0.015625)"/>
       <path id="DejaVuSans-65" d="M 3597 1894 
L 3597 1613 
L 953 1613 
Q 991 1019 1311 708 
Q 1631 397 2203 397 
Q 2534 397 2845 478 
Q 3156 559 3463 722 
L 3463 178 
Q 3153 47 2828 -22 
Q 2503 -91 2169 -91 
Q 1331 -91 842 396 
Q 353 884 353 1716 
Q 353 2575 817 3079 
Q 1281 3584 2069 3584 
Q 2775 3584 3186 3129 
Q 3597 2675 3597 1894 
z
M 3022 2063 
Q 3016 2534 2758 2815 
Q 2500 3097 2075 3097 
Q 1594 3097 1305 2825 
Q 1016 2553 972 2059 
L 3022 2063 
z
" transform="scale(0.015625)"/>
       <path id="DejaVuSans-6c" d="M 603 4863 
L 1178 4863 
L 1178 0 
L 603 0 
L 603 4863 
z
" transform="scale(0.015625)"/>
       <path id="DejaVuSans-73" d="M 2834 3397 
L 2834 2853 
Q 2591 2978 2328 3040 
Q 2066 3103 1784 3103 
Q 1356 3103 1142 2972 
Q 928 2841 928 2578 
Q 928 2378 1081 2264 
Q 1234 2150 1697 2047 
L 1894 2003 
Q 2506 1872 2764 1633 
Q 3022 1394 3022 966 
Q 3022 478 2636 193 
Q 2250 -91 1575 -91 
Q 1294 -91 989 -36 
Q 684 19 347 128 
L 347 722 
Q 666 556 975 473 
Q 1284 391 1588 391 
Q 1994 391 2212 530 
Q 2431 669 2431 922 
Q 2431 1156 2273 1281 
Q 2116 1406 1581 1522 
L 1381 1569 
Q 847 1681 609 1914 
Q 372 2147 372 2553 
Q 372 3047 722 3315 
Q 1072 3584 1716 3584 
Q 2034 3584 2315 3537 
Q 2597 3491 2834 3397 
z
" transform="scale(0.015625)"/>
      </defs>
      <use xlink:href="#DejaVuSans-46"/>
      <use xlink:href="#DejaVuSans-72" x="50.269531"/>
      <use xlink:href="#DejaVuSans-61" x="91.382812"/>
      <use xlink:href="#DejaVuSans-63" x="152.662109"/>
      <use xlink:href="#DejaVuSans-74" x="207.642578"/>
      <use xlink:href="#DejaVuSans-69" x="246.851562"/>
      <use xlink:href="#DejaVuSans-6f" x="274.634766"/>
      <use xlink:href="#DejaVuSans-6e" x="335.816406"/>
      <use xlink:href="#DejaVuSans-20" x="399.195312"/>
      <use xlink:href="#DejaVuSans-6f" x="430.982422"/>
      <use xlink:href="#DejaVuSans-66" x="492.164062"/>
      <use xlink:href="#DejaVuSans-20" x="527.369141"/>
      <use xlink:href="#DejaVuSans-63" x="559.15625"/>
      <use xlink:href="#DejaVuSans-65" x="614.136719"/>
      <use xlink:href="#DejaVuSans-6c" x="675.660156"/>
      <use xlink:href="#DejaVuSans-6c" x="703.443359"/>
      <use xlink:href="#DejaVuSans-73" x="731.226562"/>
     </g>
    </g>
   </g>
   <g id="line2d_16">
    <path d="M -1 195.816803 
L 0.160918 195.725438 
L 9.639284 194.871888 
L 19.117649 193.929679 
L 28.596014 192.927343 
L 38.07438 191.901164 
L 47.552745 190.892068 
L 57.031111 189.941685 
L 66.509476 189.088243 
L 75.987842 188.363021 
L 85.466207 187.787952 
L 94.944573 187.374707 
L 104.422938 187.125236 
L 113.901304 187.033431 
L 123.379669 187.087344 
L 132.858034 187.271387 
L 142.3364 187.568047 
L 151.814765 187.958906 
L 161.293131 188.425021 
L 170.771496 188.946889 
L 180.249862 189.504331 
L 189.728227 190.076558 
L 199.206593 190.642559 
L 208.684958 191.181758 
L 218.163324 191.674757 
L 227.641689 192.103922 
L 237.120054 192.453549 
L 246.59842 192.709506 
L 256.076785 192.858345 
L 265.555151 192.886097 
L 275.033516 192.777098 
L 284.511882 192.513352 
L 293.990247 192.074923 
L 303.468613 191.44182 
L 312.946978 190.597595 
L 322.425344 189.5345 
L 331.903709 188.259601 
L 341.382074 186.80074 
L 350.86044 185.210904 
L 360.338805 183.569462 
L 369.817171 181.979071 
L 379.295536 180.557755 
L 388.773902 179.426723 
L 398.252267 178.695535 
L 407.730633 178.447119 
L 417.208998 178.725458 
L 426.687364 179.528434 
L 436.165729 180.807362 
L 445.644094 182.473399 
L 455.12246 184.409568 
L 464.600825 186.486067 
L 474.079191 188.57603 
L 483.557556 190.569052 
L 493.035922 192.380563 
L 502.514287 193.956183 
L 511.992653 195.271262 
L 521.471018 196.326677 
L 530.949384 197.142366 
L 540.427749 197.750176 
L 549.906114 198.187247 
L 559.38448 198.490775 
L 568.862845 198.694465 
L 577 198.807919 
" clip-path="url(#p7a87680027)" style="fill: none; stroke: #1f77b4; stroke-width: 1.5; stroke-linecap: square"/>
   </g>
   <g id="line2d_17">
    <path d="M -1 195.869372 
L 0.160918 195.762314 
L 9.639284 194.726645 
L 19.117649 193.561271 
L 28.596014 192.320875 
L 38.07438 191.079406 
L 47.552745 189.921948 
L 57.031111 188.932995 
L 66.509476 188.183265 
L 75.987842 187.717855 
L 85.466207 187.548446 
L 94.944573 187.651381 
L 104.422938 187.972055 
L 113.901304 188.434538 
L 123.379669 188.95425 
L 132.858034 189.451002 
L 142.3364 189.859983 
L 151.814765 190.139034 
L 161.293131 190.271559 
L 170.771496 190.265315 
L 180.249862 190.147961 
L 189.728227 189.96053 
L 199.206593 189.750017 
L 208.684958 189.562142 
L 218.163324 189.435102 
L 227.641689 189.394924 
L 237.120054 189.452686 
L 246.59842 189.603614 
L 256.076785 189.827724 
L 265.555151 190.091511 
L 275.033516 190.350117 
L 284.511882 190.54968 
L 293.990247 190.629904 
L 303.468613 190.527442 
L 312.946978 190.180918 
L 322.425344 189.538413 
L 331.903709 188.567554 
L 341.382074 187.267267 
L 350.86044 185.678869 
L 360.338805 183.893112 
L 369.817171 182.049556 
L 379.295536 180.325732 
L 388.773902 178.915871 
L 398.252267 178.002068 
L 407.730633 177.723514 
L 417.208998 178.150938 
L 426.687364 179.2727 
L 436.165729 180.99629 
L 445.644094 183.164997 
L 455.12246 185.585523 
L 464.600825 188.059794 
L 474.079191 190.413708 
L 483.557556 192.517228 
L 493.035922 194.293181 
L 502.514287 195.715276 
L 511.992653 196.798256 
L 521.471018 197.584158 
L 530.949384 198.128434 
L 540.427749 198.488576 
L 549.906114 198.716464 
L 559.38448 198.854463 
L 568.862845 198.934481 
L 577 198.972642 
" clip-path="url(#p7a87680027)" style="fill: none; stroke: #ff7f0e; stroke-width: 1.5; stroke-linecap: square"/>
   </g>
   <g id="patch_43">
    <path d="M 41.711875 199.025521 
L 41.711875 57.594062 
" style="fill: none; stroke: #000000; stroke-width: 0.8; stroke-linejoin: miter; stroke-linecap: square"/>
   </g>
   <g id="patch_44">
    <path d="M 565.2 199.025521 
L 565.2 57.594062 
" style="fill: none; stroke: #000000; stroke-width: 0.8; stroke-linejoin: miter; stroke-linecap: square"/>
   </g>
   <g id="patch_45">
    <path d="M 41.711875 199.025521 
L 565.2 199.025521 
" style="fill: none; stroke: #000000; stroke-width: 0.8; stroke-linejoin: miter; stroke-linecap: square"/>
   </g>
   <g id="patch_46">
    <path d="M 41.711875 57.594062 
L 565.2 57.594062 
" style="fill: none; stroke: #000000; stroke-width: 0.8; stroke-linejoin: miter; stroke-linecap: square"/>
   </g>
   <g id="text_8">
    <!-- control cells -->
    <g transform="translate(261.27875 51.594062)scale(0.14 -0.14)">
     <use xlink:href="#DejaVuSans-63"/>
     <use xlink:href="#DejaVuSans-6f" x="54.980469"/>
     <use xlink:href="#DejaVuSans-6e" x="116.162109"/>
     <use xlink:href="#DejaVuSans-74" x="179.541016"/>
     <use xlink:href="#DejaVuSans-72" x="218.75"/>
     <use xlink:href="#DejaVuSans-6f" x="257.613281"/>
     <use xlink:href="#DejaVuSans-6c" x="318.794922"/>
     <use xlink:href="#DejaVuSans-20" x="346.578125"/>
     <use xlink:href="#DejaVuSans-63" x="378.365234"/>
     <use xlink:href="#DejaVuSans-65" x="433.345703"/>
     <use xlink:href="#DejaVuSans-6c" x="494.869141"/>
     <use xlink:href="#DejaVuSans-6c" x="522.652344"/>
     <use xlink:href="#DejaVuSans-73" x="550.435547"/>
    </g>
   </g>
   <g id="legend_1">
    <g id="patch_47">
     <path d="M 487.966875 102.421562 
L 556.8 102.421562 
Q 559.2 102.421562 559.2 100.021562 
L 559.2 65.994062 
Q 559.2 63.594062 556.8 63.594062 
L 487.966875 63.594062 
Q 485.566875 63.594062 485.566875 65.994062 
L 485.566875 100.021562 
Q 485.566875 102.421562 487.966875 102.421562 
z
" style="fill: #ffffff; opacity: 0.8; stroke: #cccccc; stroke-linejoin: miter"/>
    </g>
    <g id="patch_48">
     <path d="M 490.366875 77.512187 
L 514.366875 77.512187 
L 514.366875 69.112187 
L 490.366875 69.112187 
z
" style="fill: #1f77b4; opacity: 0.4"/>
    </g>
    <g id="text_9">
     <!-- dlm8 -->
     <g transform="translate(523.966875 77.512187)scale(0.12 -0.12)">
      <defs>
       <path id="DejaVuSans-64" d="M 2906 2969 
L 2906 4863 
L 3481 4863 
L 3481 0 
L 2906 0 
L 2906 525 
Q 2725 213 2448 61 
Q 2172 -91 1784 -91 
Q 1150 -91 751 415 
Q 353 922 353 1747 
Q 353 2572 751 3078 
Q 1150 3584 1784 3584 
Q 2172 3584 2448 3432 
Q 2725 3281 2906 2969 
z
M 947 1747 
Q 947 1113 1208 752 
Q 1469 391 1925 391 
Q 2381 391 2643 752 
Q 2906 1113 2906 1747 
Q 2906 2381 2643 2742 
Q 2381 3103 1925 3103 
Q 1469 3103 1208 2742 
Q 947 2381 947 1747 
z
" transform="scale(0.015625)"/>
       <path id="DejaVuSans-6d" d="M 3328 2828 
Q 3544 3216 3844 3400 
Q 4144 3584 4550 3584 
Q 5097 3584 5394 3201 
Q 5691 2819 5691 2113 
L 5691 0 
L 5113 0 
L 5113 2094 
Q 5113 2597 4934 2840 
Q 4756 3084 4391 3084 
Q 3944 3084 3684 2787 
Q 3425 2491 3425 1978 
L 3425 0 
L 2847 0 
L 2847 2094 
Q 2847 2600 2669 2842 
Q 2491 3084 2119 3084 
Q 1678 3084 1418 2786 
Q 1159 2488 1159 1978 
L 1159 0 
L 581 0 
L 581 3500 
L 1159 3500 
L 1159 2956 
Q 1356 3278 1631 3431 
Q 1906 3584 2284 3584 
Q 2666 3584 2933 3390 
Q 3200 3197 3328 2828 
z
" transform="scale(0.015625)"/>
       <path id="DejaVuSans-38" d="M 2034 2216 
Q 1584 2216 1326 1975 
Q 1069 1734 1069 1313 
Q 1069 891 1326 650 
Q 1584 409 2034 409 
Q 2484 409 2743 651 
Q 3003 894 3003 1313 
Q 3003 1734 2745 1975 
Q 2488 2216 2034 2216 
z
M 1403 2484 
Q 997 2584 770 2862 
Q 544 3141 544 3541 
Q 544 4100 942 4425 
Q 1341 4750 2034 4750 
Q 2731 4750 3128 4425 
Q 3525 4100 3525 3541 
Q 3525 3141 3298 2862 
Q 3072 2584 2669 2484 
Q 3125 2378 3379 2068 
Q 3634 1759 3634 1313 
Q 3634 634 3220 271 
Q 2806 -91 2034 -91 
Q 1263 -91 848 271 
Q 434 634 434 1313 
Q 434 1759 690 2068 
Q 947 2378 1403 2484 
z
M 1172 3481 
Q 1172 3119 1398 2916 
Q 1625 2713 2034 2713 
Q 2441 2713 2670 2916 
Q 2900 3119 2900 3481 
Q 2900 3844 2670 4047 
Q 2441 4250 2034 4250 
Q 1625 4250 1398 4047 
Q 1172 3844 1172 3481 
z
" transform="scale(0.015625)"/>
      </defs>
      <use xlink:href="#DejaVuSans-64"/>
      <use xlink:href="#DejaVuSans-6c" x="63.476562"/>
      <use xlink:href="#DejaVuSans-6d" x="91.259766"/>
      <use xlink:href="#DejaVuSans-38" x="188.671875"/>
     </g>
    </g>
    <g id="patch_49">
     <path d="M 490.366875 95.125937 
L 514.366875 95.125937 
L 514.366875 86.725937 
L 490.366875 86.725937 
z
" style="fill: #ff7f0e; opacity: 0.4"/>
    </g>
    <g id="text_10">
     <!-- dunn -->
     <g transform="translate(523.966875 95.125937)scale(0.12 -0.12)">
      <defs>
       <path id="DejaVuSans-75" d="M 544 1381 
L 544 3500 
L 1119 3500 
L 1119 1403 
Q 1119 906 1312 657 
Q 1506 409 1894 409 
Q 2359 409 2629 706 
Q 2900 1003 2900 1516 
L 2900 3500 
L 3475 3500 
L 3475 0 
L 2900 0 
L 2900 538 
Q 2691 219 2414 64 
Q 2138 -91 1772 -91 
Q 1169 -91 856 284 
Q 544 659 544 1381 
z
M 1991 3584 
L 1991 3584 
z
" transform="scale(0.015625)"/>
      </defs>
      <use xlink:href="#DejaVuSans-64"/>
      <use xlink:href="#DejaVuSans-75" x="63.476562"/>
      <use xlink:href="#DejaVuSans-6e" x="126.855469"/>
      <use xlink:href="#DejaVuSans-6e" x="190.234375"/>
     </g>
    </g>
   </g>
  </g>
  <g id="axes_2">
   <g id="patch_50">
    <path d="M 41.711875 373.773698 
L 565.2 373.773698 
L 565.2 232.34224 
L 41.711875 232.34224 
z
" style="fill: #ffffff"/>
   </g>
   <g id="patch_51">
    <path d="M 110.403105 373.773698 
L 133.142949 373.773698 
L 133.142949 361.616743 
L 110.403105 361.616743 
z
" clip-path="url(#p44bb8def2c)" style="fill: #1f77b4; opacity: 0.4"/>
   </g>
   <g id="patch_52">
    <path d="M 133.142949 373.773698 
L 155.882794 373.773698 
L 155.882794 352.499028 
L 133.142949 352.499028 
z
" clip-path="url(#p44bb8def2c)" style="fill: #1f77b4; opacity: 0.4"/>
   </g>
   <g id="patch_53">
    <path d="M 155.882794 373.773698 
L 178.622639 373.773698 
L 178.622639 367.695221 
L 155.882794 367.695221 
z
" clip-path="url(#p44bb8def2c)" style="fill: #1f77b4; opacity: 0.4"/>
   </g>
   <g id="patch_54">
    <path d="M 178.622639 373.773698 
L 201.362484 373.773698 
L 201.362484 358.577505 
L 178.622639 358.577505 
z
" clip-path="url(#p44bb8def2c)" style="fill: #1f77b4; opacity: 0.4"/>
   </g>
   <g id="patch_55">
    <path d="M 201.362484 373.773698 
L 224.102329 373.773698 
L 224.102329 361.616743 
L 201.362484 361.616743 
z
" clip-path="url(#p44bb8def2c)" style="fill: #1f77b4; opacity: 0.4"/>
   </g>
   <g id="patch_56">
    <path d="M 224.102329 373.773698 
L 246.842173 373.773698 
L 246.842173 361.616743 
L 224.102329 361.616743 
z
" clip-path="url(#p44bb8def2c)" style="fill: #1f77b4; opacity: 0.4"/>
   </g>
   <g id="patch_57">
    <path d="M 246.842173 373.773698 
L 269.582018 373.773698 
L 269.582018 370.734459 
L 246.842173 370.734459 
z
" clip-path="url(#p44bb8def2c)" style="fill: #1f77b4; opacity: 0.4"/>
   </g>
   <g id="patch_58">
    <path d="M 269.582018 373.773698 
L 292.321863 373.773698 
L 292.321863 370.734459 
L 269.582018 370.734459 
z
" clip-path="url(#p44bb8def2c)" style="fill: #1f77b4; opacity: 0.4"/>
   </g>
   <g id="patch_59">
    <path d="M 292.321863 373.773698 
L 315.061708 373.773698 
L 315.061708 352.499028 
L 292.321863 352.499028 
z
" clip-path="url(#p44bb8def2c)" style="fill: #1f77b4; opacity: 0.4"/>
   </g>
   <g id="patch_60">
    <path d="M 315.061708 373.773698 
L 337.801552 373.773698 
L 337.801552 364.655982 
L 315.061708 364.655982 
z
" clip-path="url(#p44bb8def2c)" style="fill: #1f77b4; opacity: 0.4"/>
   </g>
   <g id="patch_61">
    <path d="M 337.801552 373.773698 
L 360.541397 373.773698 
L 360.541397 367.695221 
L 337.801552 367.695221 
z
" clip-path="url(#p44bb8def2c)" style="fill: #1f77b4; opacity: 0.4"/>
   </g>
   <g id="patch_62">
    <path d="M 360.541397 373.773698 
L 383.281242 373.773698 
L 383.281242 367.695221 
L 360.541397 367.695221 
z
" clip-path="url(#p44bb8def2c)" style="fill: #1f77b4; opacity: 0.4"/>
   </g>
   <g id="patch_63">
    <path d="M 383.281242 373.773698 
L 406.021087 373.773698 
L 406.021087 334.263596 
L 383.281242 334.263596 
z
" clip-path="url(#p44bb8def2c)" style="fill: #1f77b4; opacity: 0.4"/>
   </g>
   <g id="patch_64">
    <path d="M 406.021087 373.773698 
L 428.760931 373.773698 
L 428.760931 328.185119 
L 406.021087 328.185119 
z
" clip-path="url(#p44bb8def2c)" style="fill: #1f77b4; opacity: 0.4"/>
   </g>
   <g id="patch_65">
    <path d="M 428.760931 373.773698 
L 451.500776 373.773698 
L 451.500776 361.616743 
L 428.760931 361.616743 
z
" clip-path="url(#p44bb8def2c)" style="fill: #1f77b4; opacity: 0.4"/>
   </g>
   <g id="patch_66">
    <path d="M 451.500776 373.773698 
L 474.240621 373.773698 
L 474.240621 361.616743 
L 451.500776 361.616743 
z
" clip-path="url(#p44bb8def2c)" style="fill: #1f77b4; opacity: 0.4"/>
   </g>
   <g id="patch_67">
    <path d="M 474.240621 373.773698 
L 496.980466 373.773698 
L 496.980466 373.773698 
L 474.240621 373.773698 
z
" clip-path="url(#p44bb8def2c)" style="fill: #1f77b4; opacity: 0.4"/>
   </g>
   <g id="patch_68">
    <path d="M 496.980466 373.773698 
L 519.72031 373.773698 
L 519.72031 367.695221 
L 496.980466 367.695221 
z
" clip-path="url(#p44bb8def2c)" style="fill: #1f77b4; opacity: 0.4"/>
   </g>
   <g id="patch_69">
    <path d="M 519.72031 373.773698 
L 542.460155 373.773698 
L 542.460155 370.734459 
L 519.72031 370.734459 
z
" clip-path="url(#p44bb8def2c)" style="fill: #1f77b4; opacity: 0.4"/>
   </g>
   <g id="patch_70">
    <path d="M 542.460155 373.773698 
L 565.2 373.773698 
L 565.2 370.734459 
L 542.460155 370.734459 
z
" clip-path="url(#p44bb8def2c)" style="fill: #1f77b4; opacity: 0.4"/>
   </g>
   <g id="patch_71">
    <path d="M 205.698131 373.773698 
L 220.075107 373.773698 
L 220.075107 369.535164 
L 205.698131 369.535164 
z
" clip-path="url(#p44bb8def2c)" style="fill: #ff7f0e; opacity: 0.4"/>
   </g>
   <g id="patch_72">
    <path d="M 220.075107 373.773698 
L 234.452083 373.773698 
L 234.452083 365.29663 
L 220.075107 365.29663 
z
" clip-path="url(#p44bb8def2c)" style="fill: #ff7f0e; opacity: 0.4"/>
   </g>
   <g id="patch_73">
    <path d="M 234.452083 373.773698 
L 248.829059 373.773698 
L 248.829059 369.535164 
L 234.452083 369.535164 
z
" clip-path="url(#p44bb8def2c)" style="fill: #ff7f0e; opacity: 0.4"/>
   </g>
   <g id="patch_74">
    <path d="M 248.829059 373.773698 
L 263.206035 373.773698 
L 263.206035 373.773698 
L 248.829059 373.773698 
z
" clip-path="url(#p44bb8def2c)" style="fill: #ff7f0e; opacity: 0.4"/>
   </g>
   <g id="patch_75">
    <path d="M 263.206035 373.773698 
L 277.583012 373.773698 
L 277.583012 369.535164 
L 263.206035 369.535164 
z
" clip-path="url(#p44bb8def2c)" style="fill: #ff7f0e; opacity: 0.4"/>
   </g>
   <g id="patch_76">
    <path d="M 277.583012 373.773698 
L 291.959988 373.773698 
L 291.959988 369.535164 
L 277.583012 369.535164 
z
" clip-path="url(#p44bb8def2c)" style="fill: #ff7f0e; opacity: 0.4"/>
   </g>
   <g id="patch_77">
    <path d="M 291.959988 373.773698 
L 306.336964 373.773698 
L 306.336964 361.058097 
L 291.959988 361.058097 
z
" clip-path="url(#p44bb8def2c)" style="fill: #ff7f0e; opacity: 0.4"/>
   </g>
   <g id="patch_78">
    <path d="M 306.336964 373.773698 
L 320.71394 373.773698 
L 320.71394 361.058097 
L 306.336964 361.058097 
z
" clip-path="url(#p44bb8def2c)" style="fill: #ff7f0e; opacity: 0.4"/>
   </g>
   <g id="patch_79">
    <path d="M 320.71394 373.773698 
L 335.090916 373.773698 
L 335.090916 361.058097 
L 320.71394 361.058097 
z
" clip-path="url(#p44bb8def2c)" style="fill: #ff7f0e; opacity: 0.4"/>
   </g>
   <g id="patch_80">
    <path d="M 335.090916 373.773698 
L 349.467893 373.773698 
L 349.467893 369.535164 
L 335.090916 369.535164 
z
" clip-path="url(#p44bb8def2c)" style="fill: #ff7f0e; opacity: 0.4"/>
   </g>
   <g id="patch_81">
    <path d="M 349.467893 373.773698 
L 363.844869 373.773698 
L 363.844869 361.058097 
L 349.467893 361.058097 
z
" clip-path="url(#p44bb8def2c)" style="fill: #ff7f0e; opacity: 0.4"/>
   </g>
   <g id="patch_82">
    <path d="M 363.844869 373.773698 
L 378.221845 373.773698 
L 378.221845 361.058097 
L 363.844869 361.058097 
z
" clip-path="url(#p44bb8def2c)" style="fill: #ff7f0e; opacity: 0.4"/>
   </g>
   <g id="patch_83">
    <path d="M 378.221845 373.773698 
L 392.598821 373.773698 
L 392.598821 361.058097 
L 378.221845 361.058097 
z
" clip-path="url(#p44bb8def2c)" style="fill: #ff7f0e; opacity: 0.4"/>
   </g>
   <g id="patch_84">
    <path d="M 392.598821 373.773698 
L 406.975797 373.773698 
L 406.975797 314.434226 
L 392.598821 314.434226 
z
" clip-path="url(#p44bb8def2c)" style="fill: #ff7f0e; opacity: 0.4"/>
   </g>
   <g id="patch_85">
    <path d="M 406.975797 373.773698 
L 421.352773 373.773698 
L 421.352773 276.287422 
L 406.975797 276.287422 
z
" clip-path="url(#p44bb8def2c)" style="fill: #ff7f0e; opacity: 0.4"/>
   </g>
   <g id="patch_86">
    <path d="M 421.352773 373.773698 
L 435.72975 373.773698 
L 435.72975 327.149827 
L 421.352773 327.149827 
z
" clip-path="url(#p44bb8def2c)" style="fill: #ff7f0e; opacity: 0.4"/>
   </g>
   <g id="patch_87">
    <path d="M 435.72975 373.773698 
L 450.106726 373.773698 
L 450.106726 344.103962 
L 435.72975 344.103962 
z
" clip-path="url(#p44bb8def2c)" style="fill: #ff7f0e; opacity: 0.4"/>
   </g>
   <g id="patch_88">
    <path d="M 450.106726 373.773698 
L 464.483702 373.773698 
L 464.483702 344.103962 
L 450.106726 344.103962 
z
" clip-path="url(#p44bb8def2c)" style="fill: #ff7f0e; opacity: 0.4"/>
   </g>
   <g id="patch_89">
    <path d="M 464.483702 373.773698 
L 478.860678 373.773698 
L 478.860678 365.29663 
L 464.483702 365.29663 
z
" clip-path="url(#p44bb8def2c)" style="fill: #ff7f0e; opacity: 0.4"/>
   </g>
   <g id="patch_90">
    <path d="M 478.860678 373.773698 
L 493.237654 373.773698 
L 493.237654 356.819563 
L 478.860678 356.819563 
z
" clip-path="url(#p44bb8def2c)" style="fill: #ff7f0e; opacity: 0.4"/>
   </g>
   <g id="matplotlib.axis_3">
    <g id="xtick_10">
     <g id="line2d_18">
      <g>
       <use xlink:href="#m0689e56ecb" x="73.61825" y="373.773698" style="stroke: #000000; stroke-width: 0.8"/>
      </g>
     </g>
    </g>
    <g id="xtick_11">
     <g id="line2d_19">
      <g>
       <use xlink:href="#m0689e56ecb" x="132.265637" y="373.773698" style="stroke: #000000; stroke-width: 0.8"/>
      </g>
     </g>
    </g>
    <g id="xtick_12">
     <g id="line2d_20">
      <g>
       <use xlink:href="#m0689e56ecb" x="190.913023" y="373.773698" style="stroke: #000000; stroke-width: 0.8"/>
      </g>
     </g>
    </g>
    <g id="xtick_13">
     <g id="line2d_21">
      <g>
       <use xlink:href="#m0689e56ecb" x="249.560409" y="373.773698" style="stroke: #000000; stroke-width: 0.8"/>
      </g>
     </g>
    </g>
    <g id="xtick_14">
     <g id="line2d_22">
      <g>
       <use xlink:href="#m0689e56ecb" x="308.207795" y="373.773698" style="stroke: #000000; stroke-width: 0.8"/>
      </g>
     </g>
    </g>
    <g id="xtick_15">
     <g id="line2d_23">
      <g>
       <use xlink:href="#m0689e56ecb" x="366.855182" y="373.773698" style="stroke: #000000; stroke-width: 0.8"/>
      </g>
     </g>
    </g>
    <g id="xtick_16">
     <g id="line2d_24">
      <g>
       <use xlink:href="#m0689e56ecb" x="425.502568" y="373.773698" style="stroke: #000000; stroke-width: 0.8"/>
      </g>
     </g>
    </g>
    <g id="xtick_17">
     <g id="line2d_25">
      <g>
       <use xlink:href="#m0689e56ecb" x="484.149954" y="373.773698" style="stroke: #000000; stroke-width: 0.8"/>
      </g>
     </g>
    </g>
    <g id="xtick_18">
     <g id="line2d_26">
      <g>
       <use xlink:href="#m0689e56ecb" x="542.79734" y="373.773698" style="stroke: #000000; stroke-width: 0.8"/>
      </g>
     </g>
    </g>
   </g>
   <g id="matplotlib.axis_4">
    <g id="ytick_7">
     <g id="line2d_27">
      <g>
       <use xlink:href="#ma3e8ad98f2" x="41.711875" y="373.773698" style="stroke: #000000; stroke-width: 0.8"/>
      </g>
     </g>
     <g id="text_11">
      <!-- 0 -->
      <g transform="translate(28.349375 377.572917)scale(0.1 -0.1)">
       <use xlink:href="#DejaVuSans-30"/>
      </g>
     </g>
    </g>
    <g id="ytick_8">
     <g id="line2d_28">
      <g>
       <use xlink:href="#ma3e8ad98f2" x="41.711875" y="349.615892" style="stroke: #000000; stroke-width: 0.8"/>
      </g>
     </g>
     <g id="text_12">
      <!-- 1 -->
      <g transform="translate(28.349375 353.41511)scale(0.1 -0.1)">
       <use xlink:href="#DejaVuSans-31"/>
      </g>
     </g>
    </g>
    <g id="ytick_9">
     <g id="line2d_29">
      <g>
       <use xlink:href="#ma3e8ad98f2" x="41.711875" y="325.458086" style="stroke: #000000; stroke-width: 0.8"/>
      </g>
     </g>
     <g id="text_13">
      <!-- 2 -->
      <g transform="translate(28.349375 329.257304)scale(0.1 -0.1)">
       <use xlink:href="#DejaVuSans-32"/>
      </g>
     </g>
    </g>
    <g id="ytick_10">
     <g id="line2d_30">
      <g>
       <use xlink:href="#ma3e8ad98f2" x="41.711875" y="301.300279" style="stroke: #000000; stroke-width: 0.8"/>
      </g>
     </g>
     <g id="text_14">
      <!-- 3 -->
      <g transform="translate(28.349375 305.099498)scale(0.1 -0.1)">
       <use xlink:href="#DejaVuSans-33"/>
      </g>
     </g>
    </g>
    <g id="ytick_11">
     <g id="line2d_31">
      <g>
       <use xlink:href="#ma3e8ad98f2" x="41.711875" y="277.142473" style="stroke: #000000; stroke-width: 0.8"/>
      </g>
     </g>
     <g id="text_15">
      <!-- 4 -->
      <g transform="translate(28.349375 280.941692)scale(0.1 -0.1)">
       <use xlink:href="#DejaVuSans-34"/>
      </g>
     </g>
    </g>
    <g id="ytick_12">
     <g id="line2d_32">
      <g>
       <use xlink:href="#ma3e8ad98f2" x="41.711875" y="252.984667" style="stroke: #000000; stroke-width: 0.8"/>
      </g>
     </g>
     <g id="text_16">
      <!-- 5 -->
      <g transform="translate(28.349375 256.783886)scale(0.1 -0.1)">
       <use xlink:href="#DejaVuSans-35"/>
      </g>
     </g>
    </g>
    <g id="text_17">
     <!-- Fraction of cells -->
     <g transform="translate(21.437812 357.889844)rotate(-90)scale(0.14 -0.14)">
      <use xlink:href="#DejaVuSans-46"/>
      <use xlink:href="#DejaVuSans-72" x="50.269531"/>
      <use xlink:href="#DejaVuSans-61" x="91.382812"/>
      <use xlink:href="#DejaVuSans-63" x="152.662109"/>
      <use xlink:href="#DejaVuSans-74" x="207.642578"/>
      <use xlink:href="#DejaVuSans-69" x="246.851562"/>
      <use xlink:href="#DejaVuSans-6f" x="274.634766"/>
      <use xlink:href="#DejaVuSans-6e" x="335.816406"/>
      <use xlink:href="#DejaVuSans-20" x="399.195312"/>
      <use xlink:href="#DejaVuSans-6f" x="430.982422"/>
      <use xlink:href="#DejaVuSans-66" x="492.164062"/>
      <use xlink:href="#DejaVuSans-20" x="527.369141"/>
      <use xlink:href="#DejaVuSans-63" x="559.15625"/>
      <use xlink:href="#DejaVuSans-65" x="614.136719"/>
      <use xlink:href="#DejaVuSans-6c" x="675.660156"/>
      <use xlink:href="#DejaVuSans-6c" x="703.443359"/>
      <use xlink:href="#DejaVuSans-73" x="731.226562"/>
     </g>
    </g>
   </g>
   <g id="line2d_33">
    <path d="M -1 373.614672 
L 0.160918 373.606326 
L 9.639284 373.500673 
L 19.117649 373.342848 
L 28.596014 373.115739 
L 38.07438 372.80099 
L 47.552745 372.380994 
L 57.031111 371.841573 
L 66.509476 371.175045 
L 75.987842 370.383151 
L 85.466207 369.479196 
L 94.944573 368.488795 
L 104.422938 367.448782 
L 113.901304 366.404236 
L 123.379669 365.403976 
L 132.858034 364.495268 
L 142.3364 363.718657 
L 151.814765 363.103815 
L 161.293131 362.666974 
L 170.771496 362.410147 
L 180.249862 362.321938 
L 189.728227 362.379492 
L 199.206593 362.551142 
L 208.684958 362.7994 
L 218.163324 363.084139 
L 227.641689 363.365889 
L 237.120054 363.609098 
L 246.59842 363.784975 
L 256.076785 363.873325 
L 265.555151 363.862746 
L 275.033516 363.748799 
L 284.511882 363.530386 
L 293.990247 363.205287 
L 303.468613 362.766445 
L 312.946978 362.200767 
L 322.425344 361.49174 
L 331.903709 360.626073 
L 341.382074 359.603171 
L 350.86044 358.444915 
L 360.338805 357.20257 
L 369.817171 355.957924 
L 379.295536 354.817061 
L 388.773902 353.89713 
L 398.252267 353.308551 
L 407.730633 353.136557 
L 417.208998 353.426362 
L 426.687364 354.175414 
L 436.165729 355.334373 
L 445.644094 356.816264 
L 455.12246 358.511322 
L 464.600825 360.303994 
L 474.079191 362.088458 
L 483.557556 363.779958 
L 493.035922 365.320592 
L 502.514287 366.679681 
L 511.992653 367.849941 
L 521.471018 368.841238 
L 530.949384 369.673715 
L 540.427749 370.371674 
L 549.906114 370.959011 
L 559.38448 371.456453 
L 568.862845 371.880392 
L 577 372.191613 
" clip-path="url(#p44bb8def2c)" style="fill: none; stroke: #1f77b4; stroke-width: 1.5; stroke-linecap: square"/>
   </g>
   <g id="line2d_34">
    <path d="M -1 373.773698 
L 0.160918 373.773698 
L 9.639284 373.773698 
L 19.117649 373.773698 
L 28.596014 373.773698 
L 38.07438 373.773698 
L 47.552745 373.773698 
L 57.031111 373.773698 
L 66.509476 373.773698 
L 75.987842 373.773698 
L 85.466207 373.773695 
L 94.944573 373.773678 
L 104.422938 373.773578 
L 113.901304 373.77309 
L 123.379669 373.771066 
L 132.858034 373.763939 
L 142.3364 373.742607 
L 151.814765 373.688256 
L 161.293131 373.570035 
L 170.771496 373.349291 
L 180.249862 372.992558 
L 189.728227 372.488658 
L 199.206593 371.861976 
L 208.684958 371.178123 
L 218.163324 370.539132 
L 227.641689 370.056047 
L 237.120054 369.790149 
L 246.59842 369.689479 
L 256.076785 369.577748 
L 265.555151 369.224657 
L 275.033516 368.461372 
L 284.511882 367.275 
L 293.990247 365.836307 
L 303.468613 364.441865 
L 312.946978 363.376697 
L 322.425344 362.749954 
L 331.903709 362.392972 
L 341.382074 361.87016 
L 350.86044 360.564475 
L 360.338805 357.786341 
L 369.817171 352.955606 
L 379.295536 345.948545 
L 388.773902 337.509919 
L 398.252267 329.356396 
L 407.730633 323.648386 
L 417.208998 322.001998 
L 426.687364 324.694079 
L 436.165729 330.629958 
L 445.644094 338.039276 
L 455.12246 345.344213 
L 464.600825 351.660441 
L 474.079191 356.795963 
L 483.557556 360.95474 
L 493.035922 364.411548 
L 502.514287 367.316464 
L 511.992653 369.670368 
L 521.471018 371.42161 
L 530.949384 372.577086 
L 540.427749 373.239652 
L 549.906114 373.566291 
L 559.38448 373.703989 
L 568.862845 373.753498 
L 577 373.766519 
" clip-path="url(#p44bb8def2c)" style="fill: none; stroke: #ff7f0e; stroke-width: 1.5; stroke-linecap: square"/>
   </g>
   <g id="patch_91">
    <path d="M 41.711875 373.773698 
L 41.711875 232.34224 
" style="fill: none; stroke: #000000; stroke-width: 0.8; stroke-linejoin: miter; stroke-linecap: square"/>
   </g>
   <g id="patch_92">
    <path d="M 565.2 373.773698 
L 565.2 232.34224 
" style="fill: none; stroke: #000000; stroke-width: 0.8; stroke-linejoin: miter; stroke-linecap: square"/>
   </g>
   <g id="patch_93">
    <path d="M 41.711875 373.773698 
L 565.2 373.773698 
" style="fill: none; stroke: #000000; stroke-width: 0.8; stroke-linejoin: miter; stroke-linecap: square"/>
   </g>
   <g id="patch_94">
    <path d="M 41.711875 232.34224 
L 565.2 232.34224 
" style="fill: none; stroke: #000000; stroke-width: 0.8; stroke-linejoin: miter; stroke-linecap: square"/>
   </g>
   <g id="text_18">
    <!-- cytd cells -->
    <g transform="translate(270.359062 226.34224)scale(0.14 -0.14)">
     <defs>
      <path id="DejaVuSans-79" d="M 2059 -325 
Q 1816 -950 1584 -1140 
Q 1353 -1331 966 -1331 
L 506 -1331 
L 506 -850 
L 844 -850 
Q 1081 -850 1212 -737 
Q 1344 -625 1503 -206 
L 1606 56 
L 191 3500 
L 800 3500 
L 1894 763 
L 2988 3500 
L 3597 3500 
L 2059 -325 
z
" transform="scale(0.015625)"/>
     </defs>
     <use xlink:href="#DejaVuSans-63"/>
     <use xlink:href="#DejaVuSans-79" x="54.980469"/>
     <use xlink:href="#DejaVuSans-74" x="114.160156"/>
     <use xlink:href="#DejaVuSans-64" x="153.369141"/>
     <use xlink:href="#DejaVuSans-20" x="216.845703"/>
     <use xlink:href="#DejaVuSans-63" x="248.632812"/>
     <use xlink:href="#DejaVuSans-65" x="303.613281"/>
     <use xlink:href="#DejaVuSans-6c" x="365.136719"/>
     <use xlink:href="#DejaVuSans-6c" x="392.919922"/>
     <use xlink:href="#DejaVuSans-73" x="420.703125"/>
    </g>
   </g>
   <g id="legend_2">
    <g id="patch_95">
     <path d="M 487.966875 277.16974 
L 556.8 277.16974 
Q 559.2 277.16974 559.2 274.76974 
L 559.2 240.74224 
Q 559.2 238.34224 556.8 238.34224 
L 487.966875 238.34224 
Q 485.566875 238.34224 485.566875 240.74224 
L 485.566875 274.76974 
Q 485.566875 277.16974 487.966875 277.16974 
z
" style="fill: #ffffff; opacity: 0.8; stroke: #cccccc; stroke-linejoin: miter"/>
    </g>
    <g id="patch_96">
     <path d="M 490.366875 252.260365 
L 514.366875 252.260365 
L 514.366875 243.860365 
L 490.366875 243.860365 
z
" style="fill: #1f77b4; opacity: 0.4"/>
    </g>
    <g id="text_19">
     <!-- dlm8 -->
     <g transform="translate(523.966875 252.260365)scale(0.12 -0.12)">
      <use xlink:href="#DejaVuSans-64"/>
      <use xlink:href="#DejaVuSans-6c" x="63.476562"/>
      <use xlink:href="#DejaVuSans-6d" x="91.259766"/>
      <use xlink:href="#DejaVuSans-38" x="188.671875"/>
     </g>
    </g>
    <g id="patch_97">
     <path d="M 490.366875 269.874115 
L 514.366875 269.874115 
L 514.366875 261.474115 
L 490.366875 261.474115 
z
" style="fill: #ff7f0e; opacity: 0.4"/>
    </g>
    <g id="text_20">
     <!-- dunn -->
     <g transform="translate(523.966875 269.874115)scale(0.12 -0.12)">
      <use xlink:href="#DejaVuSans-64"/>
      <use xlink:href="#DejaVuSans-75" x="63.476562"/>
      <use xlink:href="#DejaVuSans-6e" x="126.855469"/>
      <use xlink:href="#DejaVuSans-6e" x="190.234375"/>
     </g>
    </g>
   </g>
  </g>
  <g id="axes_3">
   <g id="patch_98">
    <path d="M 41.711875 548.521875 
L 565.2 548.521875 
L 565.2 407.090417 
L 41.711875 407.090417 
z
" style="fill: #ffffff"/>
   </g>
   <g id="patch_99">
    <path d="M 83.069604 548.521875 
L 99.844005 548.521875 
L 99.844005 526.725342 
L 83.069604 526.725342 
z
" clip-path="url(#p2988be2220)" style="fill: #1f77b4; opacity: 0.4"/>
   </g>
   <g id="patch_100">
    <path d="M 99.844005 548.521875 
L 116.618406 548.521875 
L 116.618406 504.928808 
L 99.844005 504.928808 
z
" clip-path="url(#p2988be2220)" style="fill: #1f77b4; opacity: 0.4"/>
   </g>
   <g id="patch_101">
    <path d="M 116.618406 548.521875 
L 133.392807 548.521875 
L 133.392807 510.377942 
L 116.618406 510.377942 
z
" clip-path="url(#p2988be2220)" style="fill: #1f77b4; opacity: 0.4"/>
   </g>
   <g id="patch_102">
    <path d="M 133.392807 548.521875 
L 150.167208 548.521875 
L 150.167208 515.827075 
L 133.392807 515.827075 
z
" clip-path="url(#p2988be2220)" style="fill: #1f77b4; opacity: 0.4"/>
   </g>
   <g id="patch_103">
    <path d="M 150.167208 548.521875 
L 166.941609 548.521875 
L 166.941609 532.174475 
L 150.167208 532.174475 
z
" clip-path="url(#p2988be2220)" style="fill: #1f77b4; opacity: 0.4"/>
   </g>
   <g id="patch_104">
    <path d="M 166.941609 548.521875 
L 183.71601 548.521875 
L 183.71601 543.072742 
L 166.941609 543.072742 
z
" clip-path="url(#p2988be2220)" style="fill: #1f77b4; opacity: 0.4"/>
   </g>
   <g id="patch_105">
    <path d="M 183.71601 548.521875 
L 200.490411 548.521875 
L 200.490411 548.521875 
L 183.71601 548.521875 
z
" clip-path="url(#p2988be2220)" style="fill: #1f77b4; opacity: 0.4"/>
   </g>
   <g id="patch_106">
    <path d="M 200.490411 548.521875 
L 217.264812 548.521875 
L 217.264812 537.623608 
L 200.490411 537.623608 
z
" clip-path="url(#p2988be2220)" style="fill: #1f77b4; opacity: 0.4"/>
   </g>
   <g id="patch_107">
    <path d="M 217.264812 548.521875 
L 234.039213 548.521875 
L 234.039213 548.521875 
L 217.264812 548.521875 
z
" clip-path="url(#p2988be2220)" style="fill: #1f77b4; opacity: 0.4"/>
   </g>
   <g id="patch_108">
    <path d="M 234.039213 548.521875 
L 250.813614 548.521875 
L 250.813614 537.623608 
L 234.039213 537.623608 
z
" clip-path="url(#p2988be2220)" style="fill: #1f77b4; opacity: 0.4"/>
   </g>
   <g id="patch_109">
    <path d="M 250.813614 548.521875 
L 267.588015 548.521875 
L 267.588015 548.521875 
L 250.813614 548.521875 
z
" clip-path="url(#p2988be2220)" style="fill: #1f77b4; opacity: 0.4"/>
   </g>
   <g id="patch_110">
    <path d="M 267.588015 548.521875 
L 284.362416 548.521875 
L 284.362416 543.072742 
L 267.588015 543.072742 
z
" clip-path="url(#p2988be2220)" style="fill: #1f77b4; opacity: 0.4"/>
   </g>
   <g id="patch_111">
    <path d="M 284.362416 548.521875 
L 301.136817 548.521875 
L 301.136817 548.521875 
L 284.362416 548.521875 
z
" clip-path="url(#p2988be2220)" style="fill: #1f77b4; opacity: 0.4"/>
   </g>
   <g id="patch_112">
    <path d="M 301.136817 548.521875 
L 317.911218 548.521875 
L 317.911218 548.521875 
L 301.136817 548.521875 
z
" clip-path="url(#p2988be2220)" style="fill: #1f77b4; opacity: 0.4"/>
   </g>
   <g id="patch_113">
    <path d="M 317.911218 548.521875 
L 334.685619 548.521875 
L 334.685619 543.072742 
L 317.911218 543.072742 
z
" clip-path="url(#p2988be2220)" style="fill: #1f77b4; opacity: 0.4"/>
   </g>
   <g id="patch_114">
    <path d="M 334.685619 548.521875 
L 351.46002 548.521875 
L 351.46002 543.072742 
L 334.685619 543.072742 
z
" clip-path="url(#p2988be2220)" style="fill: #1f77b4; opacity: 0.4"/>
   </g>
   <g id="patch_115">
    <path d="M 351.46002 548.521875 
L 368.234422 548.521875 
L 368.234422 543.072742 
L 351.46002 543.072742 
z
" clip-path="url(#p2988be2220)" style="fill: #1f77b4; opacity: 0.4"/>
   </g>
   <g id="patch_116">
    <path d="M 368.234422 548.521875 
L 385.008823 548.521875 
L 385.008823 532.174475 
L 368.234422 532.174475 
z
" clip-path="url(#p2988be2220)" style="fill: #1f77b4; opacity: 0.4"/>
   </g>
   <g id="patch_117">
    <path d="M 385.008823 548.521875 
L 401.783224 548.521875 
L 401.783224 532.174475 
L 385.008823 532.174475 
z
" clip-path="url(#p2988be2220)" style="fill: #1f77b4; opacity: 0.4"/>
   </g>
   <g id="patch_118">
    <path d="M 401.783224 548.521875 
L 418.557625 548.521875 
L 418.557625 444.988342 
L 401.783224 444.988342 
z
" clip-path="url(#p2988be2220)" style="fill: #1f77b4; opacity: 0.4"/>
   </g>
   <g id="patch_119">
    <path d="M 140.409779 548.521875 
L 155.162124 548.521875 
L 155.162124 544.478151 
L 140.409779 544.478151 
z
" clip-path="url(#p2988be2220)" style="fill: #ff7f0e; opacity: 0.4"/>
   </g>
   <g id="patch_120">
    <path d="M 155.162124 548.521875 
L 169.91447 548.521875 
L 169.91447 540.434428 
L 155.162124 540.434428 
z
" clip-path="url(#p2988be2220)" style="fill: #ff7f0e; opacity: 0.4"/>
   </g>
   <g id="patch_121">
    <path d="M 169.91447 548.521875 
L 184.666815 548.521875 
L 184.666815 548.521875 
L 169.91447 548.521875 
z
" clip-path="url(#p2988be2220)" style="fill: #ff7f0e; opacity: 0.4"/>
   </g>
   <g id="patch_122">
    <path d="M 184.666815 548.521875 
L 199.419161 548.521875 
L 199.419161 544.478151 
L 184.666815 544.478151 
z
" clip-path="url(#p2988be2220)" style="fill: #ff7f0e; opacity: 0.4"/>
   </g>
   <g id="patch_123">
    <path d="M 199.419161 548.521875 
L 214.171506 548.521875 
L 214.171506 540.434428 
L 199.419161 540.434428 
z
" clip-path="url(#p2988be2220)" style="fill: #ff7f0e; opacity: 0.4"/>
   </g>
   <g id="patch_124">
    <path d="M 214.171506 548.521875 
L 228.923852 548.521875 
L 228.923852 532.346981 
L 214.171506 532.346981 
z
" clip-path="url(#p2988be2220)" style="fill: #ff7f0e; opacity: 0.4"/>
   </g>
   <g id="patch_125">
    <path d="M 228.923852 548.521875 
L 243.676197 548.521875 
L 243.676197 528.303257 
L 228.923852 528.303257 
z
" clip-path="url(#p2988be2220)" style="fill: #ff7f0e; opacity: 0.4"/>
   </g>
   <g id="patch_126">
    <path d="M 243.676197 548.521875 
L 258.428543 548.521875 
L 258.428543 544.478151 
L 243.676197 544.478151 
z
" clip-path="url(#p2988be2220)" style="fill: #ff7f0e; opacity: 0.4"/>
   </g>
   <g id="patch_127">
    <path d="M 258.428543 548.521875 
L 273.180889 548.521875 
L 273.180889 532.346981 
L 258.428543 532.346981 
z
" clip-path="url(#p2988be2220)" style="fill: #ff7f0e; opacity: 0.4"/>
   </g>
   <g id="patch_128">
    <path d="M 273.180889 548.521875 
L 287.933234 548.521875 
L 287.933234 508.084639 
L 273.180889 508.084639 
z
" clip-path="url(#p2988be2220)" style="fill: #ff7f0e; opacity: 0.4"/>
   </g>
   <g id="patch_129">
    <path d="M 287.933234 548.521875 
L 302.68558 548.521875 
L 302.68558 512.128362 
L 287.933234 512.128362 
z
" clip-path="url(#p2988be2220)" style="fill: #ff7f0e; opacity: 0.4"/>
   </g>
   <g id="patch_130">
    <path d="M 302.68558 548.521875 
L 317.437925 548.521875 
L 317.437925 532.346981 
L 302.68558 532.346981 
z
" clip-path="url(#p2988be2220)" style="fill: #ff7f0e; opacity: 0.4"/>
   </g>
   <g id="patch_131">
    <path d="M 317.437925 548.521875 
L 332.190271 548.521875 
L 332.190271 540.434428 
L 317.437925 540.434428 
z
" clip-path="url(#p2988be2220)" style="fill: #ff7f0e; opacity: 0.4"/>
   </g>
   <g id="patch_132">
    <path d="M 332.190271 548.521875 
L 346.942616 548.521875 
L 346.942616 544.478151 
L 332.190271 544.478151 
z
" clip-path="url(#p2988be2220)" style="fill: #ff7f0e; opacity: 0.4"/>
   </g>
   <g id="patch_133">
    <path d="M 346.942616 548.521875 
L 361.694962 548.521875 
L 361.694962 536.390704 
L 346.942616 536.390704 
z
" clip-path="url(#p2988be2220)" style="fill: #ff7f0e; opacity: 0.4"/>
   </g>
   <g id="patch_134">
    <path d="M 361.694962 548.521875 
L 376.447307 548.521875 
L 376.447307 540.434428 
L 361.694962 540.434428 
z
" clip-path="url(#p2988be2220)" style="fill: #ff7f0e; opacity: 0.4"/>
   </g>
   <g id="patch_135">
    <path d="M 376.447307 548.521875 
L 391.199653 548.521875 
L 391.199653 548.521875 
L 376.447307 548.521875 
z
" clip-path="url(#p2988be2220)" style="fill: #ff7f0e; opacity: 0.4"/>
   </g>
   <g id="patch_136">
    <path d="M 391.199653 548.521875 
L 405.951999 548.521875 
L 405.951999 463.603679 
L 391.199653 463.603679 
z
" clip-path="url(#p2988be2220)" style="fill: #ff7f0e; opacity: 0.4"/>
   </g>
   <g id="patch_137">
    <path d="M 405.951999 548.521875 
L 420.704344 548.521875 
L 420.704344 467.647403 
L 405.951999 467.647403 
z
" clip-path="url(#p2988be2220)" style="fill: #ff7f0e; opacity: 0.4"/>
   </g>
   <g id="patch_138">
    <path d="M 420.704344 548.521875 
L 435.45669 548.521875 
L 435.45669 536.390704 
L 420.704344 536.390704 
z
" clip-path="url(#p2988be2220)" style="fill: #ff7f0e; opacity: 0.4"/>
   </g>
   <g id="matplotlib.axis_5">
    <g id="xtick_19">
     <g id="line2d_35">
      <g>
       <use xlink:href="#m0689e56ecb" x="73.61825" y="548.521875" style="stroke: #000000; stroke-width: 0.8"/>
      </g>
     </g>
     <g id="text_21">
      <!-- 1.00 -->
      <g transform="translate(62.485438 563.120312)scale(0.1 -0.1)">
       <defs>
        <path id="DejaVuSans-2e" d="M 684 794 
L 1344 794 
L 1344 0 
L 684 0 
L 684 794 
z
" transform="scale(0.015625)"/>
       </defs>
       <use xlink:href="#DejaVuSans-31"/>
       <use xlink:href="#DejaVuSans-2e" x="63.623047"/>
       <use xlink:href="#DejaVuSans-30" x="95.410156"/>
       <use xlink:href="#DejaVuSans-30" x="159.033203"/>
      </g>
     </g>
    </g>
    <g id="xtick_20">
     <g id="line2d_36">
      <g>
       <use xlink:href="#m0689e56ecb" x="132.265637" y="548.521875" style="stroke: #000000; stroke-width: 0.8"/>
      </g>
     </g>
     <g id="text_22">
      <!-- 1.25 -->
      <g transform="translate(121.132824 563.120312)scale(0.1 -0.1)">
       <use xlink:href="#DejaVuSans-31"/>
       <use xlink:href="#DejaVuSans-2e" x="63.623047"/>
       <use xlink:href="#DejaVuSans-32" x="95.410156"/>
       <use xlink:href="#DejaVuSans-35" x="159.033203"/>
      </g>
     </g>
    </g>
    <g id="xtick_21">
     <g id="line2d_37">
      <g>
       <use xlink:href="#m0689e56ecb" x="190.913023" y="548.521875" style="stroke: #000000; stroke-width: 0.8"/>
      </g>
     </g>
     <g id="text_23">
      <!-- 1.50 -->
      <g transform="translate(179.78021 563.120312)scale(0.1 -0.1)">
       <use xlink:href="#DejaVuSans-31"/>
       <use xlink:href="#DejaVuSans-2e" x="63.623047"/>
       <use xlink:href="#DejaVuSans-35" x="95.410156"/>
       <use xlink:href="#DejaVuSans-30" x="159.033203"/>
      </g>
     </g>
    </g>
    <g id="xtick_22">
     <g id="line2d_38">
      <g>
       <use xlink:href="#m0689e56ecb" x="249.560409" y="548.521875" style="stroke: #000000; stroke-width: 0.8"/>
      </g>
     </g>
     <g id="text_24">
      <!-- 1.75 -->
      <g transform="translate(238.427597 563.120312)scale(0.1 -0.1)">
       <defs>
        <path id="DejaVuSans-37" d="M 525 4666 
L 3525 4666 
L 3525 4397 
L 1831 0 
L 1172 0 
L 2766 4134 
L 525 4134 
L 525 4666 
z
" transform="scale(0.015625)"/>
       </defs>
       <use xlink:href="#DejaVuSans-31"/>
       <use xlink:href="#DejaVuSans-2e" x="63.623047"/>
       <use xlink:href="#DejaVuSans-37" x="95.410156"/>
       <use xlink:href="#DejaVuSans-35" x="159.033203"/>
      </g>
     </g>
    </g>
    <g id="xtick_23">
     <g id="line2d_39">
      <g>
       <use xlink:href="#m0689e56ecb" x="308.207795" y="548.521875" style="stroke: #000000; stroke-width: 0.8"/>
      </g>
     </g>
     <g id="text_25">
      <!-- 2.00 -->
      <g transform="translate(297.074983 563.120312)scale(0.1 -0.1)">
       <use xlink:href="#DejaVuSans-32"/>
       <use xlink:href="#DejaVuSans-2e" x="63.623047"/>
       <use xlink:href="#DejaVuSans-30" x="95.410156"/>
       <use xlink:href="#DejaVuSans-30" x="159.033203"/>
      </g>
     </g>
    </g>
    <g id="xtick_24">
     <g id="line2d_40">
      <g>
       <use xlink:href="#m0689e56ecb" x="366.855182" y="548.521875" style="stroke: #000000; stroke-width: 0.8"/>
      </g>
     </g>
     <g id="text_26">
      <!-- 2.25 -->
      <g transform="translate(355.722369 563.120312)scale(0.1 -0.1)">
       <use xlink:href="#DejaVuSans-32"/>
       <use xlink:href="#DejaVuSans-2e" x="63.623047"/>
       <use xlink:href="#DejaVuSans-32" x="95.410156"/>
       <use xlink:href="#DejaVuSans-35" x="159.033203"/>
      </g>
     </g>
    </g>
    <g id="xtick_25">
     <g id="line2d_41">
      <g>
       <use xlink:href="#m0689e56ecb" x="425.502568" y="548.521875" style="stroke: #000000; stroke-width: 0.8"/>
      </g>
     </g>
     <g id="text_27">
      <!-- 2.50 -->
      <g transform="translate(414.369755 563.120312)scale(0.1 -0.1)">
       <use xlink:href="#DejaVuSans-32"/>
       <use xlink:href="#DejaVuSans-2e" x="63.623047"/>
       <use xlink:href="#DejaVuSans-35" x="95.410156"/>
       <use xlink:href="#DejaVuSans-30" x="159.033203"/>
      </g>
     </g>
    </g>
    <g id="xtick_26">
     <g id="line2d_42">
      <g>
       <use xlink:href="#m0689e56ecb" x="484.149954" y="548.521875" style="stroke: #000000; stroke-width: 0.8"/>
      </g>
     </g>
     <g id="text_28">
      <!-- 2.75 -->
      <g transform="translate(473.017142 563.120312)scale(0.1 -0.1)">
       <use xlink:href="#DejaVuSans-32"/>
       <use xlink:href="#DejaVuSans-2e" x="63.623047"/>
       <use xlink:href="#DejaVuSans-37" x="95.410156"/>
       <use xlink:href="#DejaVuSans-35" x="159.033203"/>
      </g>
     </g>
    </g>
    <g id="xtick_27">
     <g id="line2d_43">
      <g>
       <use xlink:href="#m0689e56ecb" x="542.79734" y="548.521875" style="stroke: #000000; stroke-width: 0.8"/>
      </g>
     </g>
     <g id="text_29">
      <!-- 3.00 -->
      <g transform="translate(531.664528 563.120312)scale(0.1 -0.1)">
       <use xlink:href="#DejaVuSans-33"/>
       <use xlink:href="#DejaVuSans-2e" x="63.623047"/>
       <use xlink:href="#DejaVuSans-30" x="95.410156"/>
       <use xlink:href="#DejaVuSans-30" x="159.033203"/>
      </g>
     </g>
    </g>
   </g>
   <g id="matplotlib.axis_6">
    <g id="ytick_13">
     <g id="line2d_44">
      <g>
       <use xlink:href="#ma3e8ad98f2" x="41.711875" y="548.521875" style="stroke: #000000; stroke-width: 0.8"/>
      </g>
     </g>
     <g id="text_30">
      <!-- 0 -->
      <g transform="translate(28.349375 552.321094)scale(0.1 -0.1)">
       <use xlink:href="#DejaVuSans-30"/>
      </g>
     </g>
    </g>
    <g id="ytick_14">
     <g id="line2d_45">
      <g>
       <use xlink:href="#ma3e8ad98f2" x="41.711875" y="524.364069" style="stroke: #000000; stroke-width: 0.8"/>
      </g>
     </g>
     <g id="text_31">
      <!-- 1 -->
      <g transform="translate(28.349375 528.163288)scale(0.1 -0.1)">
       <use xlink:href="#DejaVuSans-31"/>
      </g>
     </g>
    </g>
    <g id="ytick_15">
     <g id="line2d_46">
      <g>
       <use xlink:href="#ma3e8ad98f2" x="41.711875" y="500.206263" style="stroke: #000000; stroke-width: 0.8"/>
      </g>
     </g>
     <g id="text_32">
      <!-- 2 -->
      <g transform="translate(28.349375 504.005481)scale(0.1 -0.1)">
       <use xlink:href="#DejaVuSans-32"/>
      </g>
     </g>
    </g>
    <g id="ytick_16">
     <g id="line2d_47">
      <g>
       <use xlink:href="#ma3e8ad98f2" x="41.711875" y="476.048456" style="stroke: #000000; stroke-width: 0.8"/>
      </g>
     </g>
     <g id="text_33">
      <!-- 3 -->
      <g transform="translate(28.349375 479.847675)scale(0.1 -0.1)">
       <use xlink:href="#DejaVuSans-33"/>
      </g>
     </g>
    </g>
    <g id="ytick_17">
     <g id="line2d_48">
      <g>
       <use xlink:href="#ma3e8ad98f2" x="41.711875" y="451.89065" style="stroke: #000000; stroke-width: 0.8"/>
      </g>
     </g>
     <g id="text_34">
      <!-- 4 -->
      <g transform="translate(28.349375 455.689869)scale(0.1 -0.1)">
       <use xlink:href="#DejaVuSans-34"/>
      </g>
     </g>
    </g>
    <g id="ytick_18">
     <g id="line2d_49">
      <g>
       <use xlink:href="#ma3e8ad98f2" x="41.711875" y="427.732844" style="stroke: #000000; stroke-width: 0.8"/>
      </g>
     </g>
     <g id="text_35">
      <!-- 5 -->
      <g transform="translate(28.349375 431.532063)scale(0.1 -0.1)">
       <use xlink:href="#DejaVuSans-35"/>
      </g>
     </g>
    </g>
    <g id="text_36">
     <!-- Fraction of cells -->
     <g transform="translate(21.437812 532.638021)rotate(-90)scale(0.14 -0.14)">
      <use xlink:href="#DejaVuSans-46"/>
      <use xlink:href="#DejaVuSans-72" x="50.269531"/>
      <use xlink:href="#DejaVuSans-61" x="91.382812"/>
      <use xlink:href="#DejaVuSans-63" x="152.662109"/>
      <use xlink:href="#DejaVuSans-74" x="207.642578"/>
      <use xlink:href="#DejaVuSans-69" x="246.851562"/>
      <use xlink:href="#DejaVuSans-6f" x="274.634766"/>
      <use xlink:href="#DejaVuSans-6e" x="335.816406"/>
      <use xlink:href="#DejaVuSans-20" x="399.195312"/>
      <use xlink:href="#DejaVuSans-6f" x="430.982422"/>
      <use xlink:href="#DejaVuSans-66" x="492.164062"/>
      <use xlink:href="#DejaVuSans-20" x="527.369141"/>
      <use xlink:href="#DejaVuSans-63" x="559.15625"/>
      <use xlink:href="#DejaVuSans-65" x="614.136719"/>
      <use xlink:href="#DejaVuSans-6c" x="675.660156"/>
      <use xlink:href="#DejaVuSans-6c" x="703.443359"/>
      <use xlink:href="#DejaVuSans-73" x="731.226562"/>
     </g>
    </g>
   </g>
   <g id="line2d_50">
    <path d="M -1 546.229417 
L 0.160918 546.15185 
L 9.639284 545.361867 
L 19.117649 544.404836 
L 28.596014 543.279893 
L 38.07438 541.998426 
L 47.552745 540.586016 
L 57.031111 539.083072 
L 66.509476 537.543778 
L 75.987842 536.033193 
L 85.466207 534.622597 
L 94.944573 533.383538 
L 104.422938 532.381242 
L 113.901304 531.668265 
L 123.379669 531.279275 
L 132.858034 531.227698 
L 142.3364 531.504705 
L 151.814765 532.080645 
L 161.293131 532.908626 
L 170.771496 533.929644 
L 180.249862 535.07845 
L 189.728227 536.28928 
L 199.206593 537.500721 
L 208.684958 538.659157 
L 218.163324 539.720591 
L 227.641689 540.650886 
L 237.120054 541.424765 
L 246.59842 542.024051 
L 256.076785 542.435692 
L 265.555151 542.650112 
L 275.033516 542.660282 
L 284.511882 542.461762 
L 293.990247 542.053765 
L 303.468613 541.441091 
L 312.946978 540.636572 
L 322.425344 539.663561 
L 331.903709 538.557857 
L 341.382074 537.368492 
L 350.86044 536.156876 
L 360.338805 534.994024 
L 369.817171 533.955869 
L 379.295536 533.117024 
L 388.773902 532.543719 
L 398.252267 532.286845 
L 407.730633 532.376198 
L 417.208998 532.816838 
L 426.687364 533.588249 
L 436.165729 534.646493 
L 445.644094 535.929073 
L 455.12246 537.361762 
L 464.600825 538.866356 
L 474.079191 540.368226 
L 483.557556 541.802639 
L 493.035922 543.119157 
L 502.514287 544.283773 
L 511.992653 545.278875 
L 521.471018 546.101431 
L 530.949384 546.759991 
L 540.427749 547.271155 
L 549.906114 547.656083 
L 559.38448 547.937474 
L 568.862845 548.137257 
L 577 548.255572 
" clip-path="url(#p2988be2220)" style="fill: none; stroke: #1f77b4; stroke-width: 1.5; stroke-linecap: square"/>
   </g>
   <g id="line2d_51">
    <path d="M -1 548.521845 
L 0.160918 548.521842 
L 9.639284 548.52175 
L 19.117649 548.521438 
L 28.596014 548.520477 
L 38.07438 548.517784 
L 47.552745 548.510901 
L 57.031111 548.494872 
L 66.509476 548.460856 
L 75.987842 548.395101 
L 85.466207 548.279353 
L 94.944573 548.093863 
L 104.422938 547.823238 
L 113.901304 547.463292 
L 123.379669 547.024867 
L 132.858034 546.530045 
L 142.3364 545.999183 
L 151.814765 545.43329 
L 161.293131 544.801883 
L 170.771496 544.046623 
L 180.249862 543.103158 
L 189.728227 541.931113 
L 199.206593 540.533663 
L 208.684958 538.952032 
L 218.163324 537.237171 
L 227.641689 535.420642 
L 237.120054 533.513437 
L 246.59842 531.54494 
L 256.076785 529.621526 
L 265.555151 527.958889 
L 275.033516 526.847858 
L 284.511882 526.552595 
L 293.990247 527.186819 
L 303.468613 528.632818 
L 312.946978 530.544112 
L 322.425344 532.424233 
L 331.903709 533.738281 
L 341.382074 534.015559 
L 350.86044 532.933236 
L 360.338805 530.398231 
L 369.817171 526.635048 
L 379.295536 522.242382 
L 388.773902 518.143907 
L 398.252267 515.381374 
L 407.730633 514.789218 
L 417.208998 516.689458 
L 426.687364 520.76763 
L 436.165729 526.201988 
L 445.644094 531.976742 
L 455.12246 537.217318 
L 464.600825 541.399945 
L 474.079191 544.382358 
L 483.557556 546.300669 
L 493.035922 547.420895 
L 502.514287 548.017528 
L 511.992653 548.308295 
L 521.471018 548.43826 
L 530.949384 548.491621 
L 540.427749 548.511763 
L 549.906114 548.518755 
L 559.38448 548.520987 
L 568.862845 548.521642 
L 577 548.521794 
" clip-path="url(#p2988be2220)" style="fill: none; stroke: #ff7f0e; stroke-width: 1.5; stroke-linecap: square"/>
   </g>
   <g id="patch_139">
    <path d="M 41.711875 548.521875 
L 41.711875 407.090417 
" style="fill: none; stroke: #000000; stroke-width: 0.8; stroke-linejoin: miter; stroke-linecap: square"/>
   </g>
   <g id="patch_140">
    <path d="M 565.2 548.521875 
L 565.2 407.090417 
" style="fill: none; stroke: #000000; stroke-width: 0.8; stroke-linejoin: miter; stroke-linecap: square"/>
   </g>
   <g id="patch_141">
    <path d="M 41.711875 548.521875 
L 565.2 548.521875 
" style="fill: none; stroke: #000000; stroke-width: 0.8; stroke-linejoin: miter; stroke-linecap: square"/>
   </g>
   <g id="patch_142">
    <path d="M 41.711875 407.090417 
L 565.2 407.090417 
" style="fill: none; stroke: #000000; stroke-width: 0.8; stroke-linejoin: miter; stroke-linecap: square"/>
   </g>
   <g id="text_37">
    <!-- jasp cells -->
    <g transform="translate(271.214375 401.090417)scale(0.14 -0.14)">
     <defs>
      <path id="DejaVuSans-6a" d="M 603 3500 
L 1178 3500 
L 1178 -63 
Q 1178 -731 923 -1031 
Q 669 -1331 103 -1331 
L -116 -1331 
L -116 -844 
L 38 -844 
Q 366 -844 484 -692 
Q 603 -541 603 -63 
L 603 3500 
z
M 603 4863 
L 1178 4863 
L 1178 4134 
L 603 4134 
L 603 4863 
z
" transform="scale(0.015625)"/>
      <path id="DejaVuSans-70" d="M 1159 525 
L 1159 -1331 
L 581 -1331 
L 581 3500 
L 1159 3500 
L 1159 2969 
Q 1341 3281 1617 3432 
Q 1894 3584 2278 3584 
Q 2916 3584 3314 3078 
Q 3713 2572 3713 1747 
Q 3713 922 3314 415 
Q 2916 -91 2278 -91 
Q 1894 -91 1617 61 
Q 1341 213 1159 525 
z
M 3116 1747 
Q 3116 2381 2855 2742 
Q 2594 3103 2138 3103 
Q 1681 3103 1420 2742 
Q 1159 2381 1159 1747 
Q 1159 1113 1420 752 
Q 1681 391 2138 391 
Q 2594 391 2855 752 
Q 3116 1113 3116 1747 
z
" transform="scale(0.015625)"/>
     </defs>
     <use xlink:href="#DejaVuSans-6a"/>
     <use xlink:href="#DejaVuSans-61" x="27.783203"/>
     <use xlink:href="#DejaVuSans-73" x="89.0625"/>
     <use xlink:href="#DejaVuSans-70" x="141.162109"/>
     <use xlink:href="#DejaVuSans-20" x="204.638672"/>
     <use xlink:href="#DejaVuSans-63" x="236.425781"/>
     <use xlink:href="#DejaVuSans-65" x="291.40625"/>
     <use xlink:href="#DejaVuSans-6c" x="352.929688"/>
     <use xlink:href="#DejaVuSans-6c" x="380.712891"/>
     <use xlink:href="#DejaVuSans-73" x="408.496094"/>
    </g>
   </g>
   <g id="legend_3">
    <g id="patch_143">
     <path d="M 487.966875 451.917917 
L 556.8 451.917917 
Q 559.2 451.917917 559.2 449.517917 
L 559.2 415.490417 
Q 559.2 413.090417 556.8 413.090417 
L 487.966875 413.090417 
Q 485.566875 413.090417 485.566875 415.490417 
L 485.566875 449.517917 
Q 485.566875 451.917917 487.966875 451.917917 
z
" style="fill: #ffffff; opacity: 0.8; stroke: #cccccc; stroke-linejoin: miter"/>
    </g>
    <g id="patch_144">
     <path d="M 490.366875 427.008542 
L 514.366875 427.008542 
L 514.366875 418.608542 
L 490.366875 418.608542 
z
" style="fill: #1f77b4; opacity: 0.4"/>
    </g>
    <g id="text_38">
     <!-- dlm8 -->
     <g transform="translate(523.966875 427.008542)scale(0.12 -0.12)">
      <use xlink:href="#DejaVuSans-64"/>
      <use xlink:href="#DejaVuSans-6c" x="63.476562"/>
      <use xlink:href="#DejaVuSans-6d" x="91.259766"/>
      <use xlink:href="#DejaVuSans-38" x="188.671875"/>
     </g>
    </g>
    <g id="patch_145">
     <path d="M 490.366875 444.622292 
L 514.366875 444.622292 
L 514.366875 436.222292 
L 490.366875 436.222292 
z
" style="fill: #ff7f0e; opacity: 0.4"/>
    </g>
    <g id="text_39">
     <!-- dunn -->
     <g transform="translate(523.966875 444.622292)scale(0.12 -0.12)">
      <use xlink:href="#DejaVuSans-64"/>
      <use xlink:href="#DejaVuSans-75" x="63.476562"/>
      <use xlink:href="#DejaVuSans-6e" x="126.855469"/>
      <use xlink:href="#DejaVuSans-6e" x="190.234375"/>
     </g>
    </g>
   </g>
  </g>
  <g id="text_40">
   <!-- Histograms of elastic (a=3, b=1) distances to global mean cell -->
   <g transform="translate(-26.423438 26.716875)scale(0.2 -0.2)">
    <defs>
     <path id="DejaVuSans-48" d="M 628 4666 
L 1259 4666 
L 1259 2753 
L 3553 2753 
L 3553 4666 
L 4184 4666 
L 4184 0 
L 3553 0 
L 3553 2222 
L 1259 2222 
L 1259 0 
L 628 0 
L 628 4666 
z
" transform="scale(0.015625)"/>
     <path id="DejaVuSans-67" d="M 2906 1791 
Q 2906 2416 2648 2759 
Q 2391 3103 1925 3103 
Q 1463 3103 1205 2759 
Q 947 2416 947 1791 
Q 947 1169 1205 825 
Q 1463 481 1925 481 
Q 2391 481 2648 825 
Q 2906 1169 2906 1791 
z
M 3481 434 
Q 3481 -459 3084 -895 
Q 2688 -1331 1869 -1331 
Q 1566 -1331 1297 -1286 
Q 1028 -1241 775 -1147 
L 775 -588 
Q 1028 -725 1275 -790 
Q 1522 -856 1778 -856 
Q 2344 -856 2625 -561 
Q 2906 -266 2906 331 
L 2906 616 
Q 2728 306 2450 153 
Q 2172 0 1784 0 
Q 1141 0 747 490 
Q 353 981 353 1791 
Q 353 2603 747 3093 
Q 1141 3584 1784 3584 
Q 2172 3584 2450 3431 
Q 2728 3278 2906 2969 
L 2906 3500 
L 3481 3500 
L 3481 434 
z
" transform="scale(0.015625)"/>
     <path id="DejaVuSans-28" d="M 1984 4856 
Q 1566 4138 1362 3434 
Q 1159 2731 1159 2009 
Q 1159 1288 1364 580 
Q 1569 -128 1984 -844 
L 1484 -844 
Q 1016 -109 783 600 
Q 550 1309 550 2009 
Q 550 2706 781 3412 
Q 1013 4119 1484 4856 
L 1984 4856 
z
" transform="scale(0.015625)"/>
     <path id="DejaVuSans-3d" d="M 678 2906 
L 4684 2906 
L 4684 2381 
L 678 2381 
L 678 2906 
z
M 678 1631 
L 4684 1631 
L 4684 1100 
L 678 1100 
L 678 1631 
z
" transform="scale(0.015625)"/>
     <path id="DejaVuSans-2c" d="M 750 794 
L 1409 794 
L 1409 256 
L 897 -744 
L 494 -744 
L 750 256 
L 750 794 
z
" transform="scale(0.015625)"/>
     <path id="DejaVuSans-62" d="M 3116 1747 
Q 3116 2381 2855 2742 
Q 2594 3103 2138 3103 
Q 1681 3103 1420 2742 
Q 1159 2381 1159 1747 
Q 1159 1113 1420 752 
Q 1681 391 2138 391 
Q 2594 391 2855 752 
Q 3116 1113 3116 1747 
z
M 1159 2969 
Q 1341 3281 1617 3432 
Q 1894 3584 2278 3584 
Q 2916 3584 3314 3078 
Q 3713 2572 3713 1747 
Q 3713 922 3314 415 
Q 2916 -91 2278 -91 
Q 1894 -91 1617 61 
Q 1341 213 1159 525 
L 1159 0 
L 581 0 
L 581 4863 
L 1159 4863 
L 1159 2969 
z
" transform="scale(0.015625)"/>
     <path id="DejaVuSans-29" d="M 513 4856 
L 1013 4856 
Q 1481 4119 1714 3412 
Q 1947 2706 1947 2009 
Q 1947 1309 1714 600 
Q 1481 -109 1013 -844 
L 513 -844 
Q 928 -128 1133 580 
Q 1338 1288 1338 2009 
Q 1338 2731 1133 3434 
Q 928 4138 513 4856 
z
" transform="scale(0.015625)"/>
    </defs>
    <use xlink:href="#DejaVuSans-48"/>
    <use xlink:href="#DejaVuSans-69" x="75.195312"/>
    <use xlink:href="#DejaVuSans-73" x="102.978516"/>
    <use xlink:href="#DejaVuSans-74" x="155.078125"/>
    <use xlink:href="#DejaVuSans-6f" x="194.287109"/>
    <use xlink:href="#DejaVuSans-67" x="255.46875"/>
    <use xlink:href="#DejaVuSans-72" x="318.945312"/>
    <use xlink:href="#DejaVuSans-61" x="360.058594"/>
    <use xlink:href="#DejaVuSans-6d" x="421.337891"/>
    <use xlink:href="#DejaVuSans-73" x="518.75"/>
    <use xlink:href="#DejaVuSans-20" x="570.849609"/>
    <use xlink:href="#DejaVuSans-6f" x="602.636719"/>
    <use xlink:href="#DejaVuSans-66" x="663.818359"/>
    <use xlink:href="#DejaVuSans-20" x="699.023438"/>
    <use xlink:href="#DejaVuSans-65" x="730.810547"/>
    <use xlink:href="#DejaVuSans-6c" x="792.333984"/>
    <use xlink:href="#DejaVuSans-61" x="820.117188"/>
    <use xlink:href="#DejaVuSans-73" x="881.396484"/>
    <use xlink:href="#DejaVuSans-74" x="933.496094"/>
    <use xlink:href="#DejaVuSans-69" x="972.705078"/>
    <use xlink:href="#DejaVuSans-63" x="1000.488281"/>
    <use xlink:href="#DejaVuSans-20" x="1055.46875"/>
    <use xlink:href="#DejaVuSans-28" x="1087.255859"/>
    <use xlink:href="#DejaVuSans-61" x="1126.269531"/>
    <use xlink:href="#DejaVuSans-3d" x="1187.548828"/>
    <use xlink:href="#DejaVuSans-33" x="1271.337891"/>
    <use xlink:href="#DejaVuSans-2c" x="1334.960938"/>
    <use xlink:href="#DejaVuSans-20" x="1366.748047"/>
    <use xlink:href="#DejaVuSans-62" x="1398.535156"/>
    <use xlink:href="#DejaVuSans-3d" x="1462.011719"/>
    <use xlink:href="#DejaVuSans-31" x="1545.800781"/>
    <use xlink:href="#DejaVuSans-29" x="1609.423828"/>
    <use xlink:href="#DejaVuSans-20" x="1648.4375"/>
    <use xlink:href="#DejaVuSans-64" x="1680.224609"/>
    <use xlink:href="#DejaVuSans-69" x="1743.701172"/>
    <use xlink:href="#DejaVuSans-73" x="1771.484375"/>
    <use xlink:href="#DejaVuSans-74" x="1823.583984"/>
    <use xlink:href="#DejaVuSans-61" x="1862.792969"/>
    <use xlink:href="#DejaVuSans-6e" x="1924.072266"/>
    <use xlink:href="#DejaVuSans-63" x="1987.451172"/>
    <use xlink:href="#DejaVuSans-65" x="2042.431641"/>
    <use xlink:href="#DejaVuSans-73" x="2103.955078"/>
    <use xlink:href="#DejaVuSans-20" x="2156.054688"/>
    <use xlink:href="#DejaVuSans-74" x="2187.841797"/>
    <use xlink:href="#DejaVuSans-6f" x="2227.050781"/>
    <use xlink:href="#DejaVuSans-20" x="2288.232422"/>
    <use xlink:href="#DejaVuSans-67" x="2320.019531"/>
    <use xlink:href="#DejaVuSans-6c" x="2383.496094"/>
    <use xlink:href="#DejaVuSans-6f" x="2411.279297"/>
    <use xlink:href="#DejaVuSans-62" x="2472.460938"/>
    <use xlink:href="#DejaVuSans-61" x="2535.9375"/>
    <use xlink:href="#DejaVuSans-6c" x="2597.216797"/>
    <use xlink:href="#DejaVuSans-20" x="2625"/>
    <use xlink:href="#DejaVuSans-6d" x="2656.787109"/>
    <use xlink:href="#DejaVuSans-65" x="2754.199219"/>
    <use xlink:href="#DejaVuSans-61" x="2815.722656"/>
    <use xlink:href="#DejaVuSans-6e" x="2877.001953"/>
    <use xlink:href="#DejaVuSans-20" x="2940.380859"/>
    <use xlink:href="#DejaVuSans-63" x="2972.167969"/>
    <use xlink:href="#DejaVuSans-65" x="3027.148438"/>
    <use xlink:href="#DejaVuSans-6c" x="3088.671875"/>
    <use xlink:href="#DejaVuSans-6c" x="3116.455078"/>
   </g>
  </g>
 </g>
 <defs>
  <clipPath id="p7a87680027">
   <rect x="41.711875" y="57.594062" width="523.488125" height="141.431458"/>
  </clipPath>
  <clipPath id="p44bb8def2c">
   <rect x="41.711875" y="232.34224" width="523.488125" height="141.431458"/>
  </clipPath>
  <clipPath id="p2988be2220">
   <rect x="41.711875" y="407.090417" width="523.488125" height="141.431458"/>
  </clipPath>
 </defs>
</svg>
