<?xml version="1.0" encoding="utf-8" standalone="no"?>
<!DOCTYPE svg PUBLIC "-//W3C//DTD SVG 1.1//EN"
  "http://www.w3.org/Graphics/SVG/1.1/DTD/svg11.dtd">
<svg xmlns:xlink="http://www.w3.org/1999/xlink" width="576pt" height="576pt" viewBox="0 0 576 576" xmlns="http://www.w3.org/2000/svg" version="1.1">
 <metadata>
  <rdf:RDF xmlns:dc="http://purl.org/dc/elements/1.1/" xmlns:cc="http://creativecommons.org/ns#" xmlns:rdf="http://www.w3.org/1999/02/22-rdf-syntax-ns#">
   <cc:Work>
    <dc:type rdf:resource="http://purl.org/dc/dcmitype/StillImage"/>
    <dc:date>2022-12-26T16:44:13.022380</dc:date>
    <dc:format>image/svg+xml</dc:format>
    <dc:creator>
     <cc:Agent>
      <dc:title>Matplotlib v3.5.1, https://matplotlib.org/</dc:title>
     </cc:Agent>
    </dc:creator>
   </cc:Work>
  </rdf:RDF>
 </metadata>
 <defs>
  <style type="text/css">*{stroke-linejoin: round; stroke-linecap: butt}</style>
 </defs>
 <g id="figure_1">
  <g id="patch_1">
   <path d="M 0 576 
L 576 576 
L 576 0 
L 0 0 
L 0 576 
z
" style="fill: none"/>
  </g>
  <g id="axes_1">
   <g id="patch_2">
    <path d="M 41.711875 199.025521 
L 565.2 199.025521 
L 565.2 57.594062 
L 41.711875 57.594062 
z
" style="fill: #ffffff"/>
   </g>
   <g id="patch_3">
    <path d="M 143.251706 199.025521 
L 148.531877 199.025521 
L 148.531877 175.675218 
L 143.251706 175.675218 
z
" clip-path="url(#p6e7b11d1b1)" style="fill: #1f77b4; opacity: 0.4"/>
   </g>
   <g id="patch_4">
    <path d="M 148.531877 199.025521 
L 153.812049 199.025521 
L 153.812049 99.786732 
L 148.531877 99.786732 
z
" clip-path="url(#p6e7b11d1b1)" style="fill: #1f77b4; opacity: 0.4"/>
   </g>
   <g id="patch_5">
    <path d="M 153.812049 199.025521 
L 159.09222 199.025521 
L 159.09222 93.949156 
L 153.812049 93.949156 
z
" clip-path="url(#p6e7b11d1b1)" style="fill: #1f77b4; opacity: 0.4"/>
   </g>
   <g id="patch_6">
    <path d="M 159.09222 199.025521 
L 164.372392 199.025521 
L 164.372392 123.137035 
L 159.09222 123.137035 
z
" clip-path="url(#p6e7b11d1b1)" style="fill: #1f77b4; opacity: 0.4"/>
   </g>
   <g id="patch_7">
    <path d="M 164.372392 199.025521 
L 169.652563 199.025521 
L 169.652563 164.000066 
L 164.372392 164.000066 
z
" clip-path="url(#p6e7b11d1b1)" style="fill: #1f77b4; opacity: 0.4"/>
   </g>
   <g id="patch_8">
    <path d="M 169.652563 199.025521 
L 174.932735 199.025521 
L 174.932735 158.16249 
L 169.652563 158.16249 
z
" clip-path="url(#p6e7b11d1b1)" style="fill: #1f77b4; opacity: 0.4"/>
   </g>
   <g id="patch_9">
    <path d="M 174.932735 199.025521 
L 180.212906 199.025521 
L 180.212906 181.512793 
L 174.932735 181.512793 
z
" clip-path="url(#p6e7b11d1b1)" style="fill: #1f77b4; opacity: 0.4"/>
   </g>
   <g id="patch_10">
    <path d="M 180.212906 199.025521 
L 185.493077 199.025521 
L 185.493077 128.974611 
L 180.212906 128.974611 
z
" clip-path="url(#p6e7b11d1b1)" style="fill: #1f77b4; opacity: 0.4"/>
   </g>
   <g id="patch_11">
    <path d="M 185.493077 199.025521 
L 190.773249 199.025521 
L 190.773249 164.000066 
L 185.493077 164.000066 
z
" clip-path="url(#p6e7b11d1b1)" style="fill: #1f77b4; opacity: 0.4"/>
   </g>
   <g id="patch_12">
    <path d="M 190.773249 199.025521 
L 196.05342 199.025521 
L 196.05342 158.16249 
L 190.773249 158.16249 
z
" clip-path="url(#p6e7b11d1b1)" style="fill: #1f77b4; opacity: 0.4"/>
   </g>
   <g id="patch_13">
    <path d="M 196.05342 199.025521 
L 201.333592 199.025521 
L 201.333592 175.675218 
L 196.05342 175.675218 
z
" clip-path="url(#p6e7b11d1b1)" style="fill: #1f77b4; opacity: 0.4"/>
   </g>
   <g id="patch_14">
    <path d="M 201.333592 199.025521 
L 206.613763 199.025521 
L 206.613763 181.512793 
L 201.333592 181.512793 
z
" clip-path="url(#p6e7b11d1b1)" style="fill: #1f77b4; opacity: 0.4"/>
   </g>
   <g id="patch_15">
    <path d="M 206.613763 199.025521 
L 211.893934 199.025521 
L 211.893934 175.675218 
L 206.613763 175.675218 
z
" clip-path="url(#p6e7b11d1b1)" style="fill: #1f77b4; opacity: 0.4"/>
   </g>
   <g id="patch_16">
    <path d="M 211.893934 199.025521 
L 217.174106 199.025521 
L 217.174106 175.675218 
L 211.893934 175.675218 
z
" clip-path="url(#p6e7b11d1b1)" style="fill: #1f77b4; opacity: 0.4"/>
   </g>
   <g id="patch_17">
    <path d="M 217.174106 199.025521 
L 222.454277 199.025521 
L 222.454277 193.187945 
L 217.174106 193.187945 
z
" clip-path="url(#p6e7b11d1b1)" style="fill: #1f77b4; opacity: 0.4"/>
   </g>
   <g id="patch_18">
    <path d="M 222.454277 199.025521 
L 227.734449 199.025521 
L 227.734449 187.350369 
L 222.454277 187.350369 
z
" clip-path="url(#p6e7b11d1b1)" style="fill: #1f77b4; opacity: 0.4"/>
   </g>
   <g id="patch_19">
    <path d="M 227.734449 199.025521 
L 233.01462 199.025521 
L 233.01462 193.187945 
L 227.734449 193.187945 
z
" clip-path="url(#p6e7b11d1b1)" style="fill: #1f77b4; opacity: 0.4"/>
   </g>
   <g id="patch_20">
    <path d="M 233.01462 199.025521 
L 238.294792 199.025521 
L 238.294792 199.025521 
L 233.01462 199.025521 
z
" clip-path="url(#p6e7b11d1b1)" style="fill: #1f77b4; opacity: 0.4"/>
   </g>
   <g id="patch_21">
    <path d="M 238.294792 199.025521 
L 243.574963 199.025521 
L 243.574963 193.187945 
L 238.294792 193.187945 
z
" clip-path="url(#p6e7b11d1b1)" style="fill: #1f77b4; opacity: 0.4"/>
   </g>
   <g id="patch_22">
    <path d="M 243.574963 199.025521 
L 248.855134 199.025521 
L 248.855134 193.187945 
L 243.574963 193.187945 
z
" clip-path="url(#p6e7b11d1b1)" style="fill: #1f77b4; opacity: 0.4"/>
   </g>
   <g id="patch_23">
    <path d="M 149.925005 199.025521 
L 157.259293 199.025521 
L 157.259293 156.751871 
L 149.925005 156.751871 
z
" clip-path="url(#p6e7b11d1b1)" style="fill: #ff7f0e; opacity: 0.4"/>
   </g>
   <g id="patch_24">
    <path d="M 157.259293 199.025521 
L 164.593582 199.025521 
L 164.593582 98.038468 
L 157.259293 98.038468 
z
" clip-path="url(#p6e7b11d1b1)" style="fill: #ff7f0e; opacity: 0.4"/>
   </g>
   <g id="patch_25">
    <path d="M 164.593582 199.025521 
L 171.927871 199.025521 
L 171.927871 149.706263 
L 164.593582 149.706263 
z
" clip-path="url(#p6e7b11d1b1)" style="fill: #ff7f0e; opacity: 0.4"/>
   </g>
   <g id="patch_26">
    <path d="M 171.927871 199.025521 
L 179.262159 199.025521 
L 179.262159 175.54016 
L 171.927871 175.54016 
z
" clip-path="url(#p6e7b11d1b1)" style="fill: #ff7f0e; opacity: 0.4"/>
   </g>
   <g id="patch_27">
    <path d="M 179.262159 199.025521 
L 186.596448 199.025521 
L 186.596448 184.934304 
L 179.262159 184.934304 
z
" clip-path="url(#p6e7b11d1b1)" style="fill: #ff7f0e; opacity: 0.4"/>
   </g>
   <g id="patch_28">
    <path d="M 186.596448 199.025521 
L 193.930737 199.025521 
L 193.930737 173.191624 
L 186.596448 173.191624 
z
" clip-path="url(#p6e7b11d1b1)" style="fill: #ff7f0e; opacity: 0.4"/>
   </g>
   <g id="patch_29">
    <path d="M 193.930737 199.025521 
L 201.265025 199.025521 
L 201.265025 182.585768 
L 193.930737 182.585768 
z
" clip-path="url(#p6e7b11d1b1)" style="fill: #ff7f0e; opacity: 0.4"/>
   </g>
   <g id="patch_30">
    <path d="M 201.265025 199.025521 
L 208.599314 199.025521 
L 208.599314 166.146015 
L 201.265025 166.146015 
z
" clip-path="url(#p6e7b11d1b1)" style="fill: #ff7f0e; opacity: 0.4"/>
   </g>
   <g id="patch_31">
    <path d="M 208.599314 199.025521 
L 215.933603 199.025521 
L 215.933603 175.54016 
L 208.599314 175.54016 
z
" clip-path="url(#p6e7b11d1b1)" style="fill: #ff7f0e; opacity: 0.4"/>
   </g>
   <g id="patch_32">
    <path d="M 215.933603 199.025521 
L 223.267891 199.025521 
L 223.267891 166.146015 
L 215.933603 166.146015 
z
" clip-path="url(#p6e7b11d1b1)" style="fill: #ff7f0e; opacity: 0.4"/>
   </g>
   <g id="patch_33">
    <path d="M 223.267891 199.025521 
L 230.60218 199.025521 
L 230.60218 168.494552 
L 223.267891 168.494552 
z
" clip-path="url(#p6e7b11d1b1)" style="fill: #ff7f0e; opacity: 0.4"/>
   </g>
   <g id="patch_34">
    <path d="M 230.60218 199.025521 
L 237.936468 199.025521 
L 237.936468 189.631376 
L 230.60218 189.631376 
z
" clip-path="url(#p6e7b11d1b1)" style="fill: #ff7f0e; opacity: 0.4"/>
   </g>
   <g id="patch_35">
    <path d="M 237.936468 199.025521 
L 245.270757 199.025521 
L 245.270757 177.888696 
L 237.936468 177.888696 
z
" clip-path="url(#p6e7b11d1b1)" style="fill: #ff7f0e; opacity: 0.4"/>
   </g>
   <g id="patch_36">
    <path d="M 245.270757 199.025521 
L 252.605046 199.025521 
L 252.605046 182.585768 
L 245.270757 182.585768 
z
" clip-path="url(#p6e7b11d1b1)" style="fill: #ff7f0e; opacity: 0.4"/>
   </g>
   <g id="patch_37">
    <path d="M 252.605046 199.025521 
L 259.939334 199.025521 
L 259.939334 180.237232 
L 252.605046 180.237232 
z
" clip-path="url(#p6e7b11d1b1)" style="fill: #ff7f0e; opacity: 0.4"/>
   </g>
   <g id="patch_38">
    <path d="M 259.939334 199.025521 
L 267.273623 199.025521 
L 267.273623 199.025521 
L 259.939334 199.025521 
z
" clip-path="url(#p6e7b11d1b1)" style="fill: #ff7f0e; opacity: 0.4"/>
   </g>
   <g id="patch_39">
    <path d="M 267.273623 199.025521 
L 274.607912 199.025521 
L 274.607912 189.631376 
L 267.273623 189.631376 
z
" clip-path="url(#p6e7b11d1b1)" style="fill: #ff7f0e; opacity: 0.4"/>
   </g>
   <g id="patch_40">
    <path d="M 274.607912 199.025521 
L 281.9422 199.025521 
L 281.9422 191.979913 
L 274.607912 191.979913 
z
" clip-path="url(#p6e7b11d1b1)" style="fill: #ff7f0e; opacity: 0.4"/>
   </g>
   <g id="patch_41">
    <path d="M 281.9422 199.025521 
L 289.276489 199.025521 
L 289.276489 196.676985 
L 281.9422 196.676985 
z
" clip-path="url(#p6e7b11d1b1)" style="fill: #ff7f0e; opacity: 0.4"/>
   </g>
   <g id="patch_42">
    <path d="M 289.276489 199.025521 
L 296.610778 199.025521 
L 296.610778 196.676985 
L 289.276489 196.676985 
z
" clip-path="url(#p6e7b11d1b1)" style="fill: #ff7f0e; opacity: 0.4"/>
   </g>
   <g id="matplotlib.axis_1">
    <g id="xtick_1">
     <g id="line2d_1">
      <defs>
       <path id="m96cfaee6c1" d="M 0 0 
L 0 3.5 
" style="stroke: #000000; stroke-width: 0.8"/>
      </defs>
      <g>
       <use xlink:href="#m96cfaee6c1" x="65.50679" y="199.025521" style="stroke: #000000; stroke-width: 0.8"/>
      </g>
     </g>
    </g>
    <g id="xtick_2">
     <g id="line2d_2">
      <g>
       <use xlink:href="#m96cfaee6c1" x="124.994077" y="199.025521" style="stroke: #000000; stroke-width: 0.8"/>
      </g>
     </g>
    </g>
    <g id="xtick_3">
     <g id="line2d_3">
      <g>
       <use xlink:href="#m96cfaee6c1" x="184.481364" y="199.025521" style="stroke: #000000; stroke-width: 0.8"/>
      </g>
     </g>
    </g>
    <g id="xtick_4">
     <g id="line2d_4">
      <g>
       <use xlink:href="#m96cfaee6c1" x="243.968651" y="199.025521" style="stroke: #000000; stroke-width: 0.8"/>
      </g>
     </g>
    </g>
    <g id="xtick_5">
     <g id="line2d_5">
      <g>
       <use xlink:href="#m96cfaee6c1" x="303.455938" y="199.025521" style="stroke: #000000; stroke-width: 0.8"/>
      </g>
     </g>
    </g>
    <g id="xtick_6">
     <g id="line2d_6">
      <g>
       <use xlink:href="#m96cfaee6c1" x="362.943224" y="199.025521" style="stroke: #000000; stroke-width: 0.8"/>
      </g>
     </g>
    </g>
    <g id="xtick_7">
     <g id="line2d_7">
      <g>
       <use xlink:href="#m96cfaee6c1" x="422.430511" y="199.025521" style="stroke: #000000; stroke-width: 0.8"/>
      </g>
     </g>
    </g>
    <g id="xtick_8">
     <g id="line2d_8">
      <g>
       <use xlink:href="#m96cfaee6c1" x="481.917798" y="199.025521" style="stroke: #000000; stroke-width: 0.8"/>
      </g>
     </g>
    </g>
    <g id="xtick_9">
     <g id="line2d_9">
      <g>
       <use xlink:href="#m96cfaee6c1" x="541.405085" y="199.025521" style="stroke: #000000; stroke-width: 0.8"/>
      </g>
     </g>
    </g>
   </g>
   <g id="matplotlib.axis_2">
    <g id="ytick_1">
     <g id="line2d_10">
      <defs>
       <path id="m547da971de" d="M 0 0 
L -3.5 0 
" style="stroke: #000000; stroke-width: 0.8"/>
      </defs>
      <g>
       <use xlink:href="#m547da971de" x="41.711875" y="199.025521" style="stroke: #000000; stroke-width: 0.8"/>
      </g>
     </g>
     <g id="text_1">
      <!-- 0 -->
      <g transform="translate(28.349375 202.82474)scale(0.1 -0.1)">
       <defs>
        <path id="DejaVuSans-30" d="M 2034 4250 
Q 1547 4250 1301 3770 
Q 1056 3291 1056 2328 
Q 1056 1369 1301 889 
Q 1547 409 2034 409 
Q 2525 409 2770 889 
Q 3016 1369 3016 2328 
Q 3016 3291 2770 3770 
Q 2525 4250 2034 4250 
z
M 2034 4750 
Q 2819 4750 3233 4129 
Q 3647 3509 3647 2328 
Q 3647 1150 3233 529 
Q 2819 -91 2034 -91 
Q 1250 -91 836 529 
Q 422 1150 422 2328 
Q 422 3509 836 4129 
Q 1250 4750 2034 4750 
z
" transform="scale(0.015625)"/>
       </defs>
       <use xlink:href="#DejaVuSans-30"/>
      </g>
     </g>
    </g>
    <g id="ytick_2">
     <g id="line2d_11">
      <g>
       <use xlink:href="#m547da971de" x="41.711875" y="169.49091" style="stroke: #000000; stroke-width: 0.8"/>
      </g>
     </g>
     <g id="text_2">
      <!-- 2 -->
      <g transform="translate(28.349375 173.290129)scale(0.1 -0.1)">
       <defs>
        <path id="DejaVuSans-32" d="M 1228 531 
L 3431 531 
L 3431 0 
L 469 0 
L 469 531 
Q 828 903 1448 1529 
Q 2069 2156 2228 2338 
Q 2531 2678 2651 2914 
Q 2772 3150 2772 3378 
Q 2772 3750 2511 3984 
Q 2250 4219 1831 4219 
Q 1534 4219 1204 4116 
Q 875 4013 500 3803 
L 500 4441 
Q 881 4594 1212 4672 
Q 1544 4750 1819 4750 
Q 2544 4750 2975 4387 
Q 3406 4025 3406 3419 
Q 3406 3131 3298 2873 
Q 3191 2616 2906 2266 
Q 2828 2175 2409 1742 
Q 1991 1309 1228 531 
z
" transform="scale(0.015625)"/>
       </defs>
       <use xlink:href="#DejaVuSans-32"/>
      </g>
     </g>
    </g>
    <g id="ytick_3">
     <g id="line2d_12">
      <g>
       <use xlink:href="#m547da971de" x="41.711875" y="139.9563" style="stroke: #000000; stroke-width: 0.8"/>
      </g>
     </g>
     <g id="text_3">
      <!-- 4 -->
      <g transform="translate(28.349375 143.755519)scale(0.1 -0.1)">
       <defs>
        <path id="DejaVuSans-34" d="M 2419 4116 
L 825 1625 
L 2419 1625 
L 2419 4116 
z
M 2253 4666 
L 3047 4666 
L 3047 1625 
L 3713 1625 
L 3713 1100 
L 3047 1100 
L 3047 0 
L 2419 0 
L 2419 1100 
L 313 1100 
L 313 1709 
L 2253 4666 
z
" transform="scale(0.015625)"/>
       </defs>
       <use xlink:href="#DejaVuSans-34"/>
      </g>
     </g>
    </g>
    <g id="ytick_4">
     <g id="line2d_13">
      <g>
       <use xlink:href="#m547da971de" x="41.711875" y="110.421689" style="stroke: #000000; stroke-width: 0.8"/>
      </g>
     </g>
     <g id="text_4">
      <!-- 6 -->
      <g transform="translate(28.349375 114.220908)scale(0.1 -0.1)">
       <defs>
        <path id="DejaVuSans-36" d="M 2113 2584 
Q 1688 2584 1439 2293 
Q 1191 2003 1191 1497 
Q 1191 994 1439 701 
Q 1688 409 2113 409 
Q 2538 409 2786 701 
Q 3034 994 3034 1497 
Q 3034 2003 2786 2293 
Q 2538 2584 2113 2584 
z
M 3366 4563 
L 3366 3988 
Q 3128 4100 2886 4159 
Q 2644 4219 2406 4219 
Q 1781 4219 1451 3797 
Q 1122 3375 1075 2522 
Q 1259 2794 1537 2939 
Q 1816 3084 2150 3084 
Q 2853 3084 3261 2657 
Q 3669 2231 3669 1497 
Q 3669 778 3244 343 
Q 2819 -91 2113 -91 
Q 1303 -91 875 529 
Q 447 1150 447 2328 
Q 447 3434 972 4092 
Q 1497 4750 2381 4750 
Q 2619 4750 2861 4703 
Q 3103 4656 3366 4563 
z
" transform="scale(0.015625)"/>
       </defs>
       <use xlink:href="#DejaVuSans-36"/>
      </g>
     </g>
    </g>
    <g id="ytick_5">
     <g id="line2d_14">
      <g>
       <use xlink:href="#m547da971de" x="41.711875" y="80.887079" style="stroke: #000000; stroke-width: 0.8"/>
      </g>
     </g>
     <g id="text_5">
      <!-- 8 -->
      <g transform="translate(28.349375 84.686297)scale(0.1 -0.1)">
       <defs>
        <path id="DejaVuSans-38" d="M 2034 2216 
Q 1584 2216 1326 1975 
Q 1069 1734 1069 1313 
Q 1069 891 1326 650 
Q 1584 409 2034 409 
Q 2484 409 2743 651 
Q 3003 894 3003 1313 
Q 3003 1734 2745 1975 
Q 2488 2216 2034 2216 
z
M 1403 2484 
Q 997 2584 770 2862 
Q 544 3141 544 3541 
Q 544 4100 942 4425 
Q 1341 4750 2034 4750 
Q 2731 4750 3128 4425 
Q 3525 4100 3525 3541 
Q 3525 3141 3298 2862 
Q 3072 2584 2669 2484 
Q 3125 2378 3379 2068 
Q 3634 1759 3634 1313 
Q 3634 634 3220 271 
Q 2806 -91 2034 -91 
Q 1263 -91 848 271 
Q 434 634 434 1313 
Q 434 1759 690 2068 
Q 947 2378 1403 2484 
z
M 1172 3481 
Q 1172 3119 1398 2916 
Q 1625 2713 2034 2713 
Q 2441 2713 2670 2916 
Q 2900 3119 2900 3481 
Q 2900 3844 2670 4047 
Q 2441 4250 2034 4250 
Q 1625 4250 1398 4047 
Q 1172 3844 1172 3481 
z
" transform="scale(0.015625)"/>
       </defs>
       <use xlink:href="#DejaVuSans-38"/>
      </g>
     </g>
    </g>
    <g id="text_6">
     <!-- Fraction of cells -->
     <g transform="translate(21.437812 183.141667)rotate(-90)scale(0.14 -0.14)">
      <defs>
       <path id="DejaVuSans-46" d="M 628 4666 
L 3309 4666 
L 3309 4134 
L 1259 4134 
L 1259 2759 
L 3109 2759 
L 3109 2228 
L 1259 2228 
L 1259 0 
L 628 0 
L 628 4666 
z
" transform="scale(0.015625)"/>
       <path id="DejaVuSans-72" d="M 2631 2963 
Q 2534 3019 2420 3045 
Q 2306 3072 2169 3072 
Q 1681 3072 1420 2755 
Q 1159 2438 1159 1844 
L 1159 0 
L 581 0 
L 581 3500 
L 1159 3500 
L 1159 2956 
Q 1341 3275 1631 3429 
Q 1922 3584 2338 3584 
Q 2397 3584 2469 3576 
Q 2541 3569 2628 3553 
L 2631 2963 
z
" transform="scale(0.015625)"/>
       <path id="DejaVuSans-61" d="M 2194 1759 
Q 1497 1759 1228 1600 
Q 959 1441 959 1056 
Q 959 750 1161 570 
Q 1363 391 1709 391 
Q 2188 391 2477 730 
Q 2766 1069 2766 1631 
L 2766 1759 
L 2194 1759 
z
M 3341 1997 
L 3341 0 
L 2766 0 
L 2766 531 
Q 2569 213 2275 61 
Q 1981 -91 1556 -91 
Q 1019 -91 701 211 
Q 384 513 384 1019 
Q 384 1609 779 1909 
Q 1175 2209 1959 2209 
L 2766 2209 
L 2766 2266 
Q 2766 2663 2505 2880 
Q 2244 3097 1772 3097 
Q 1472 3097 1187 3025 
Q 903 2953 641 2809 
L 641 3341 
Q 956 3463 1253 3523 
Q 1550 3584 1831 3584 
Q 2591 3584 2966 3190 
Q 3341 2797 3341 1997 
z
" transform="scale(0.015625)"/>
       <path id="DejaVuSans-63" d="M 3122 3366 
L 3122 2828 
Q 2878 2963 2633 3030 
Q 2388 3097 2138 3097 
Q 1578 3097 1268 2742 
Q 959 2388 959 1747 
Q 959 1106 1268 751 
Q 1578 397 2138 397 
Q 2388 397 2633 464 
Q 2878 531 3122 666 
L 3122 134 
Q 2881 22 2623 -34 
Q 2366 -91 2075 -91 
Q 1284 -91 818 406 
Q 353 903 353 1747 
Q 353 2603 823 3093 
Q 1294 3584 2113 3584 
Q 2378 3584 2631 3529 
Q 2884 3475 3122 3366 
z
" transform="scale(0.015625)"/>
       <path id="DejaVuSans-74" d="M 1172 4494 
L 1172 3500 
L 2356 3500 
L 2356 3053 
L 1172 3053 
L 1172 1153 
Q 1172 725 1289 603 
Q 1406 481 1766 481 
L 2356 481 
L 2356 0 
L 1766 0 
Q 1100 0 847 248 
Q 594 497 594 1153 
L 594 3053 
L 172 3053 
L 172 3500 
L 594 3500 
L 594 4494 
L 1172 4494 
z
" transform="scale(0.015625)"/>
       <path id="DejaVuSans-69" d="M 603 3500 
L 1178 3500 
L 1178 0 
L 603 0 
L 603 3500 
z
M 603 4863 
L 1178 4863 
L 1178 4134 
L 603 4134 
L 603 4863 
z
" transform="scale(0.015625)"/>
       <path id="DejaVuSans-6f" d="M 1959 3097 
Q 1497 3097 1228 2736 
Q 959 2375 959 1747 
Q 959 1119 1226 758 
Q 1494 397 1959 397 
Q 2419 397 2687 759 
Q 2956 1122 2956 1747 
Q 2956 2369 2687 2733 
Q 2419 3097 1959 3097 
z
M 1959 3584 
Q 2709 3584 3137 3096 
Q 3566 2609 3566 1747 
Q 3566 888 3137 398 
Q 2709 -91 1959 -91 
Q 1206 -91 779 398 
Q 353 888 353 1747 
Q 353 2609 779 3096 
Q 1206 3584 1959 3584 
z
" transform="scale(0.015625)"/>
       <path id="DejaVuSans-6e" d="M 3513 2113 
L 3513 0 
L 2938 0 
L 2938 2094 
Q 2938 2591 2744 2837 
Q 2550 3084 2163 3084 
Q 1697 3084 1428 2787 
Q 1159 2491 1159 1978 
L 1159 0 
L 581 0 
L 581 3500 
L 1159 3500 
L 1159 2956 
Q 1366 3272 1645 3428 
Q 1925 3584 2291 3584 
Q 2894 3584 3203 3211 
Q 3513 2838 3513 2113 
z
" transform="scale(0.015625)"/>
       <path id="DejaVuSans-20" transform="scale(0.015625)"/>
       <path id="DejaVuSans-66" d="M 2375 4863 
L 2375 4384 
L 1825 4384 
Q 1516 4384 1395 4259 
Q 1275 4134 1275 3809 
L 1275 3500 
L 2222 3500 
L 2222 3053 
L 1275 3053 
L 1275 0 
L 697 0 
L 697 3053 
L 147 3053 
L 147 3500 
L 697 3500 
L 697 3744 
Q 697 4328 969 4595 
Q 1241 4863 1831 4863 
L 2375 4863 
z
" transform="scale(0.015625)"/>
       <path id="DejaVuSans-65" d="M 3597 1894 
L 3597 1613 
L 953 1613 
Q 991 1019 1311 708 
Q 1631 397 2203 397 
Q 2534 397 2845 478 
Q 3156 559 3463 722 
L 3463 178 
Q 3153 47 2828 -22 
Q 2503 -91 2169 -91 
Q 1331 -91 842 396 
Q 353 884 353 1716 
Q 353 2575 817 3079 
Q 1281 3584 2069 3584 
Q 2775 3584 3186 3129 
Q 3597 2675 3597 1894 
z
M 3022 2063 
Q 3016 2534 2758 2815 
Q 2500 3097 2075 3097 
Q 1594 3097 1305 2825 
Q 1016 2553 972 2059 
L 3022 2063 
z
" transform="scale(0.015625)"/>
       <path id="DejaVuSans-6c" d="M 603 4863 
L 1178 4863 
L 1178 0 
L 603 0 
L 603 4863 
z
" transform="scale(0.015625)"/>
       <path id="DejaVuSans-73" d="M 2834 3397 
L 2834 2853 
Q 2591 2978 2328 3040 
Q 2066 3103 1784 3103 
Q 1356 3103 1142 2972 
Q 928 2841 928 2578 
Q 928 2378 1081 2264 
Q 1234 2150 1697 2047 
L 1894 2003 
Q 2506 1872 2764 1633 
Q 3022 1394 3022 966 
Q 3022 478 2636 193 
Q 2250 -91 1575 -91 
Q 1294 -91 989 -36 
Q 684 19 347 128 
L 347 722 
Q 666 556 975 473 
Q 1284 391 1588 391 
Q 1994 391 2212 530 
Q 2431 669 2431 922 
Q 2431 1156 2273 1281 
Q 2116 1406 1581 1522 
L 1381 1569 
Q 847 1681 609 1914 
Q 372 2147 372 2553 
Q 372 3047 722 3315 
Q 1072 3584 1716 3584 
Q 2034 3584 2315 3537 
Q 2597 3491 2834 3397 
z
" transform="scale(0.015625)"/>
      </defs>
      <use xlink:href="#DejaVuSans-46"/>
      <use xlink:href="#DejaVuSans-72" x="50.269531"/>
      <use xlink:href="#DejaVuSans-61" x="91.382812"/>
      <use xlink:href="#DejaVuSans-63" x="152.662109"/>
      <use xlink:href="#DejaVuSans-74" x="207.642578"/>
      <use xlink:href="#DejaVuSans-69" x="246.851562"/>
      <use xlink:href="#DejaVuSans-6f" x="274.634766"/>
      <use xlink:href="#DejaVuSans-6e" x="335.816406"/>
      <use xlink:href="#DejaVuSans-20" x="399.195312"/>
      <use xlink:href="#DejaVuSans-6f" x="430.982422"/>
      <use xlink:href="#DejaVuSans-66" x="492.164062"/>
      <use xlink:href="#DejaVuSans-20" x="527.369141"/>
      <use xlink:href="#DejaVuSans-63" x="559.15625"/>
      <use xlink:href="#DejaVuSans-65" x="614.136719"/>
      <use xlink:href="#DejaVuSans-6c" x="675.660156"/>
      <use xlink:href="#DejaVuSans-6c" x="703.443359"/>
      <use xlink:href="#DejaVuSans-73" x="731.226562"/>
     </g>
    </g>
   </g>
   <g id="line2d_15">
    <path d="M 65.50679 199.025521 
L 70.313843 199.025521 
L 75.120897 199.025521 
L 79.92795 199.025521 
L 84.735004 199.025521 
L 89.542057 199.025521 
L 94.349111 199.02552 
L 99.156164 199.025501 
L 103.963218 199.025273 
L 108.770271 199.023096 
L 113.577325 199.006972 
L 118.384378 198.913777 
L 123.191432 198.492291 
L 127.998485 196.999163 
L 132.805539 192.86493 
L 137.612592 183.97887 
L 142.419646 169.364064 
L 147.226699 151.518369 
L 152.033753 136.547624 
L 156.840806 130.366947 
L 161.64786 134.036518 
L 166.454913 143.103676 
L 171.261967 151.491244 
L 176.06902 155.981155 
L 180.876074 157.536204 
L 185.683127 159.055382 
L 190.49018 162.323481 
L 195.297234 167.015033 
L 200.104287 171.829209 
L 204.911341 175.940471 
L 209.718394 179.463022 
L 214.525448 182.855397 
L 219.332501 186.172003 
L 224.139555 189.090488 
L 228.946608 191.416892 
L 233.753662 193.190232 
L 238.560715 194.478856 
L 243.367769 195.406868 
L 248.174822 196.216764 
L 252.981876 197.069174 
L 257.788929 197.885579 
L 262.595983 198.492576 
L 267.403036 198.830041 
L 272.21009 198.969969 
L 277.017143 199.013383 
L 281.824197 199.023492 
L 286.63125 199.025262 
L 291.438304 199.025496 
L 296.245357 199.025519 
L 301.052411 199.025521 
L 305.859464 199.025521 
L 310.666518 199.025521 
L 315.473571 199.025521 
L 320.280625 199.025521 
L 325.087678 199.025521 
L 329.894732 199.025521 
L 334.701785 199.025521 
L 339.508839 199.025521 
L 344.315892 199.025521 
L 349.122946 199.025521 
L 353.929999 199.025521 
L 358.737053 199.025521 
L 363.544106 199.025521 
L 368.35116 199.025521 
L 373.158213 199.025521 
L 377.965267 199.025521 
L 382.77232 199.025521 
L 387.579374 199.025521 
L 392.386427 199.025521 
L 397.193481 199.025521 
L 402.000534 199.025521 
L 406.807588 199.025521 
L 411.614641 199.025521 
L 416.421695 199.025521 
L 421.228748 199.025521 
L 426.035801 199.025521 
L 430.842855 199.025521 
L 435.649908 199.025521 
L 440.456962 199.025521 
L 445.264015 199.025521 
L 450.071069 199.025521 
L 454.878122 199.025521 
L 459.685176 199.025521 
L 464.492229 199.025521 
L 469.299283 199.025521 
L 474.106336 199.025521 
L 478.91339 199.025521 
L 483.720443 199.025521 
L 488.527497 199.025521 
L 493.33455 199.025521 
L 498.141604 199.025521 
L 502.948657 199.025521 
L 507.755711 199.025521 
L 512.562764 199.025521 
L 517.369818 199.025521 
L 522.176871 199.025521 
L 526.983925 199.025521 
L 531.790978 199.025521 
L 536.598032 199.025521 
L 541.405085 199.025521 
" clip-path="url(#p6e7b11d1b1)" style="fill: none; stroke: #1f77b4; stroke-width: 1.5; stroke-linecap: square"/>
   </g>
   <g id="line2d_16">
    <path d="M 65.50679 199.025521 
L 70.313843 199.025521 
L 75.120897 199.025521 
L 79.92795 199.025521 
L 84.735004 199.025518 
L 89.542057 199.025501 
L 94.349111 199.025386 
L 99.156164 199.024724 
L 103.963218 199.021418 
L 108.770271 199.007107 
L 113.577325 198.95337 
L 118.384378 198.778456 
L 123.191432 198.285316 
L 127.998485 197.083018 
L 132.805539 194.554969 
L 137.612592 189.9908 
L 142.419646 182.968326 
L 147.226699 173.881704 
L 152.033753 164.248241 
L 156.840806 156.378674 
L 161.64786 152.382916 
L 166.454913 153.076104 
L 171.261967 157.557964 
L 176.06902 163.762346 
L 180.876074 169.536512 
L 185.683127 173.510851 
L 190.49018 175.345808 
L 195.297234 175.459302 
L 200.104287 174.584358 
L 204.911341 173.430649 
L 209.718394 172.534575 
L 214.525448 172.24162 
L 219.332501 172.717161 
L 224.139555 173.930632 
L 228.946608 175.656771 
L 233.753662 177.573183 
L 238.560715 179.439522 
L 243.367769 181.2218 
L 248.174822 183.042586 
L 252.981876 185.001588 
L 257.788929 187.041423 
L 262.595983 188.982181 
L 267.403036 190.673617 
L 272.21009 192.104273 
L 277.017143 193.369784 
L 281.824197 194.555411 
L 286.63125 195.660559 
L 291.438304 196.623048 
L 296.245357 197.390389 
L 301.052411 197.959044 
L 305.859464 198.361759 
L 310.666518 198.637645 
L 315.473571 198.817407 
L 320.280625 198.925123 
L 325.087678 198.98266 
L 329.894732 199.009499 
L 334.701785 199.020311 
L 339.508839 199.024053 
L 344.315892 199.025163 
L 349.122946 199.025446 
L 353.929999 199.025507 
L 358.737053 199.025519 
L 363.544106 199.025521 
L 368.35116 199.025521 
L 373.158213 199.025521 
L 377.965267 199.025521 
L 382.77232 199.025521 
L 387.579374 199.025521 
L 392.386427 199.025521 
L 397.193481 199.025521 
L 402.000534 199.025521 
L 406.807588 199.025521 
L 411.614641 199.025521 
L 416.421695 199.025521 
L 421.228748 199.025521 
L 426.035801 199.025521 
L 430.842855 199.025521 
L 435.649908 199.025521 
L 440.456962 199.025521 
L 445.264015 199.025521 
L 450.071069 199.025521 
L 454.878122 199.025521 
L 459.685176 199.025521 
L 464.492229 199.025521 
L 469.299283 199.025521 
L 474.106336 199.025521 
L 478.91339 199.025521 
L 483.720443 199.025521 
L 488.527497 199.025521 
L 493.33455 199.025521 
L 498.141604 199.025521 
L 502.948657 199.025521 
L 507.755711 199.025521 
L 512.562764 199.025521 
L 517.369818 199.025521 
L 522.176871 199.025521 
L 526.983925 199.025521 
L 531.790978 199.025521 
L 536.598032 199.025521 
L 541.405085 199.025521 
" clip-path="url(#p6e7b11d1b1)" style="fill: none; stroke: #ff7f0e; stroke-width: 1.5; stroke-linecap: square"/>
   </g>
   <g id="patch_43">
    <path d="M 41.711875 199.025521 
L 41.711875 57.594062 
" style="fill: none; stroke: #000000; stroke-width: 0.8; stroke-linejoin: miter; stroke-linecap: square"/>
   </g>
   <g id="patch_44">
    <path d="M 565.2 199.025521 
L 565.2 57.594062 
" style="fill: none; stroke: #000000; stroke-width: 0.8; stroke-linejoin: miter; stroke-linecap: square"/>
   </g>
   <g id="patch_45">
    <path d="M 41.711875 199.025521 
L 565.2 199.025521 
" style="fill: none; stroke: #000000; stroke-width: 0.8; stroke-linejoin: miter; stroke-linecap: square"/>
   </g>
   <g id="patch_46">
    <path d="M 41.711875 57.594062 
L 565.2 57.594062 
" style="fill: none; stroke: #000000; stroke-width: 0.8; stroke-linejoin: miter; stroke-linecap: square"/>
   </g>
   <g id="text_7">
    <!-- control cells -->
    <g transform="translate(261.27875 51.594062)scale(0.14 -0.14)">
     <use xlink:href="#DejaVuSans-63"/>
     <use xlink:href="#DejaVuSans-6f" x="54.980469"/>
     <use xlink:href="#DejaVuSans-6e" x="116.162109"/>
     <use xlink:href="#DejaVuSans-74" x="179.541016"/>
     <use xlink:href="#DejaVuSans-72" x="218.75"/>
     <use xlink:href="#DejaVuSans-6f" x="257.613281"/>
     <use xlink:href="#DejaVuSans-6c" x="318.794922"/>
     <use xlink:href="#DejaVuSans-20" x="346.578125"/>
     <use xlink:href="#DejaVuSans-63" x="378.365234"/>
     <use xlink:href="#DejaVuSans-65" x="433.345703"/>
     <use xlink:href="#DejaVuSans-6c" x="494.869141"/>
     <use xlink:href="#DejaVuSans-6c" x="522.652344"/>
     <use xlink:href="#DejaVuSans-73" x="550.435547"/>
    </g>
   </g>
   <g id="legend_1">
    <g id="patch_47">
     <path d="M 487.966875 102.421562 
L 556.8 102.421562 
Q 559.2 102.421562 559.2 100.021562 
L 559.2 65.994062 
Q 559.2 63.594062 556.8 63.594062 
L 487.966875 63.594062 
Q 485.566875 63.594062 485.566875 65.994062 
L 485.566875 100.021562 
Q 485.566875 102.421562 487.966875 102.421562 
z
" style="fill: #ffffff; opacity: 0.8; stroke: #cccccc; stroke-linejoin: miter"/>
    </g>
    <g id="patch_48">
     <path d="M 490.366875 77.512187 
L 514.366875 77.512187 
L 514.366875 69.112187 
L 490.366875 69.112187 
z
" style="fill: #1f77b4; opacity: 0.4"/>
    </g>
    <g id="text_8">
     <!-- dlm8 -->
     <g transform="translate(523.966875 77.512187)scale(0.12 -0.12)">
      <defs>
       <path id="DejaVuSans-64" d="M 2906 2969 
L 2906 4863 
L 3481 4863 
L 3481 0 
L 2906 0 
L 2906 525 
Q 2725 213 2448 61 
Q 2172 -91 1784 -91 
Q 1150 -91 751 415 
Q 353 922 353 1747 
Q 353 2572 751 3078 
Q 1150 3584 1784 3584 
Q 2172 3584 2448 3432 
Q 2725 3281 2906 2969 
z
M 947 1747 
Q 947 1113 1208 752 
Q 1469 391 1925 391 
Q 2381 391 2643 752 
Q 2906 1113 2906 1747 
Q 2906 2381 2643 2742 
Q 2381 3103 1925 3103 
Q 1469 3103 1208 2742 
Q 947 2381 947 1747 
z
" transform="scale(0.015625)"/>
       <path id="DejaVuSans-6d" d="M 3328 2828 
Q 3544 3216 3844 3400 
Q 4144 3584 4550 3584 
Q 5097 3584 5394 3201 
Q 5691 2819 5691 2113 
L 5691 0 
L 5113 0 
L 5113 2094 
Q 5113 2597 4934 2840 
Q 4756 3084 4391 3084 
Q 3944 3084 3684 2787 
Q 3425 2491 3425 1978 
L 3425 0 
L 2847 0 
L 2847 2094 
Q 2847 2600 2669 2842 
Q 2491 3084 2119 3084 
Q 1678 3084 1418 2786 
Q 1159 2488 1159 1978 
L 1159 0 
L 581 0 
L 581 3500 
L 1159 3500 
L 1159 2956 
Q 1356 3278 1631 3431 
Q 1906 3584 2284 3584 
Q 2666 3584 2933 3390 
Q 3200 3197 3328 2828 
z
" transform="scale(0.015625)"/>
      </defs>
      <use xlink:href="#DejaVuSans-64"/>
      <use xlink:href="#DejaVuSans-6c" x="63.476562"/>
      <use xlink:href="#DejaVuSans-6d" x="91.259766"/>
      <use xlink:href="#DejaVuSans-38" x="188.671875"/>
     </g>
    </g>
    <g id="patch_49">
     <path d="M 490.366875 95.125937 
L 514.366875 95.125937 
L 514.366875 86.725937 
L 490.366875 86.725937 
z
" style="fill: #ff7f0e; opacity: 0.4"/>
    </g>
    <g id="text_9">
     <!-- dunn -->
     <g transform="translate(523.966875 95.125937)scale(0.12 -0.12)">
      <defs>
       <path id="DejaVuSans-75" d="M 544 1381 
L 544 3500 
L 1119 3500 
L 1119 1403 
Q 1119 906 1312 657 
Q 1506 409 1894 409 
Q 2359 409 2629 706 
Q 2900 1003 2900 1516 
L 2900 3500 
L 3475 3500 
L 3475 0 
L 2900 0 
L 2900 538 
Q 2691 219 2414 64 
Q 2138 -91 1772 -91 
Q 1169 -91 856 284 
Q 544 659 544 1381 
z
M 1991 3584 
L 1991 3584 
z
" transform="scale(0.015625)"/>
      </defs>
      <use xlink:href="#DejaVuSans-64"/>
      <use xlink:href="#DejaVuSans-75" x="63.476562"/>
      <use xlink:href="#DejaVuSans-6e" x="126.855469"/>
      <use xlink:href="#DejaVuSans-6e" x="190.234375"/>
     </g>
    </g>
   </g>
  </g>
  <g id="axes_2">
   <g id="patch_50">
    <path d="M 41.711875 373.773698 
L 565.2 373.773698 
L 565.2 232.34224 
L 41.711875 232.34224 
z
" style="fill: #ffffff"/>
   </g>
   <g id="patch_51">
    <path d="M 171.747288 373.773698 
L 181.055292 373.773698 
L 181.055292 350.754776 
L 171.747288 350.754776 
z
" clip-path="url(#p9648309d37)" style="fill: #1f77b4; opacity: 0.4"/>
   </g>
   <g id="patch_52">
    <path d="M 181.055292 373.773698 
L 190.363297 373.773698 
L 190.363297 350.754776 
L 181.055292 350.754776 
z
" clip-path="url(#p9648309d37)" style="fill: #1f77b4; opacity: 0.4"/>
   </g>
   <g id="patch_53">
    <path d="M 190.363297 373.773698 
L 199.671301 373.773698 
L 199.671301 327.735854 
L 190.363297 327.735854 
z
" clip-path="url(#p9648309d37)" style="fill: #1f77b4; opacity: 0.4"/>
   </g>
   <g id="patch_54">
    <path d="M 199.671301 373.773698 
L 208.979305 373.773698 
L 208.979305 346.150991 
L 199.671301 346.150991 
z
" clip-path="url(#p9648309d37)" style="fill: #1f77b4; opacity: 0.4"/>
   </g>
   <g id="patch_55">
    <path d="M 208.979305 373.773698 
L 218.287309 373.773698 
L 218.287309 346.150991 
L 208.979305 346.150991 
z
" clip-path="url(#p9648309d37)" style="fill: #1f77b4; opacity: 0.4"/>
   </g>
   <g id="patch_56">
    <path d="M 218.287309 373.773698 
L 227.595314 373.773698 
L 227.595314 336.943422 
L 218.287309 336.943422 
z
" clip-path="url(#p9648309d37)" style="fill: #1f77b4; opacity: 0.4"/>
   </g>
   <g id="patch_57">
    <path d="M 227.595314 373.773698 
L 236.903318 373.773698 
L 236.903318 355.35856 
L 227.595314 355.35856 
z
" clip-path="url(#p9648309d37)" style="fill: #1f77b4; opacity: 0.4"/>
   </g>
   <g id="patch_58">
    <path d="M 236.903318 373.773698 
L 246.211322 373.773698 
L 246.211322 364.566129 
L 236.903318 364.566129 
z
" clip-path="url(#p9648309d37)" style="fill: #1f77b4; opacity: 0.4"/>
   </g>
   <g id="patch_59">
    <path d="M 246.211322 373.773698 
L 255.519326 373.773698 
L 255.519326 332.339638 
L 246.211322 332.339638 
z
" clip-path="url(#p9648309d37)" style="fill: #1f77b4; opacity: 0.4"/>
   </g>
   <g id="patch_60">
    <path d="M 255.519326 373.773698 
L 264.827331 373.773698 
L 264.827331 346.150991 
L 255.519326 346.150991 
z
" clip-path="url(#p9648309d37)" style="fill: #1f77b4; opacity: 0.4"/>
   </g>
   <g id="patch_61">
    <path d="M 264.827331 373.773698 
L 274.135335 373.773698 
L 274.135335 355.35856 
L 264.827331 355.35856 
z
" clip-path="url(#p9648309d37)" style="fill: #1f77b4; opacity: 0.4"/>
   </g>
   <g id="patch_62">
    <path d="M 274.135335 373.773698 
L 283.443339 373.773698 
L 283.443339 369.169913 
L 274.135335 369.169913 
z
" clip-path="url(#p9648309d37)" style="fill: #1f77b4; opacity: 0.4"/>
   </g>
   <g id="patch_63">
    <path d="M 283.443339 373.773698 
L 292.751343 373.773698 
L 292.751343 364.566129 
L 283.443339 364.566129 
z
" clip-path="url(#p9648309d37)" style="fill: #1f77b4; opacity: 0.4"/>
   </g>
   <g id="patch_64">
    <path d="M 292.751343 373.773698 
L 302.059348 373.773698 
L 302.059348 364.566129 
L 292.751343 364.566129 
z
" clip-path="url(#p9648309d37)" style="fill: #1f77b4; opacity: 0.4"/>
   </g>
   <g id="patch_65">
    <path d="M 302.059348 373.773698 
L 311.367352 373.773698 
L 311.367352 369.169913 
L 302.059348 369.169913 
z
" clip-path="url(#p9648309d37)" style="fill: #1f77b4; opacity: 0.4"/>
   </g>
   <g id="patch_66">
    <path d="M 311.367352 373.773698 
L 320.675356 373.773698 
L 320.675356 369.169913 
L 311.367352 369.169913 
z
" clip-path="url(#p9648309d37)" style="fill: #1f77b4; opacity: 0.4"/>
   </g>
   <g id="patch_67">
    <path d="M 320.675356 373.773698 
L 329.983361 373.773698 
L 329.983361 355.35856 
L 320.675356 355.35856 
z
" clip-path="url(#p9648309d37)" style="fill: #1f77b4; opacity: 0.4"/>
   </g>
   <g id="patch_68">
    <path d="M 329.983361 373.773698 
L 339.291365 373.773698 
L 339.291365 359.962345 
L 329.983361 359.962345 
z
" clip-path="url(#p9648309d37)" style="fill: #1f77b4; opacity: 0.4"/>
   </g>
   <g id="patch_69">
    <path d="M 339.291365 373.773698 
L 348.599369 373.773698 
L 348.599369 369.169913 
L 339.291365 369.169913 
z
" clip-path="url(#p9648309d37)" style="fill: #1f77b4; opacity: 0.4"/>
   </g>
   <g id="patch_70">
    <path d="M 348.599369 373.773698 
L 357.907373 373.773698 
L 357.907373 364.566129 
L 348.599369 364.566129 
z
" clip-path="url(#p9648309d37)" style="fill: #1f77b4; opacity: 0.4"/>
   </g>
   <g id="patch_71">
    <path d="M 191.648872 373.773698 
L 199.768472 373.773698 
L 199.768472 369.120325 
L 191.648872 369.120325 
z
" clip-path="url(#p9648309d37)" style="fill: #ff7f0e; opacity: 0.4"/>
   </g>
   <g id="patch_72">
    <path d="M 199.768472 373.773698 
L 207.888072 373.773698 
L 207.888072 373.773698 
L 199.768472 373.773698 
z
" clip-path="url(#p9648309d37)" style="fill: #ff7f0e; opacity: 0.4"/>
   </g>
   <g id="patch_73">
    <path d="M 207.888072 373.773698 
L 216.007672 373.773698 
L 216.007672 369.120325 
L 207.888072 369.120325 
z
" clip-path="url(#p9648309d37)" style="fill: #ff7f0e; opacity: 0.4"/>
   </g>
   <g id="patch_74">
    <path d="M 216.007672 373.773698 
L 224.127272 373.773698 
L 224.127272 373.773698 
L 216.007672 373.773698 
z
" clip-path="url(#p9648309d37)" style="fill: #ff7f0e; opacity: 0.4"/>
   </g>
   <g id="patch_75">
    <path d="M 224.127272 373.773698 
L 232.246872 373.773698 
L 232.246872 359.81358 
L 224.127272 359.81358 
z
" clip-path="url(#p9648309d37)" style="fill: #ff7f0e; opacity: 0.4"/>
   </g>
   <g id="patch_76">
    <path d="M 232.246872 373.773698 
L 240.366472 373.773698 
L 240.366472 355.160208 
L 232.246872 355.160208 
z
" clip-path="url(#p9648309d37)" style="fill: #ff7f0e; opacity: 0.4"/>
   </g>
   <g id="patch_77">
    <path d="M 240.366472 373.773698 
L 248.486072 373.773698 
L 248.486072 359.81358 
L 240.366472 359.81358 
z
" clip-path="url(#p9648309d37)" style="fill: #ff7f0e; opacity: 0.4"/>
   </g>
   <g id="patch_78">
    <path d="M 248.486072 373.773698 
L 256.605672 373.773698 
L 256.605672 350.506835 
L 248.486072 350.506835 
z
" clip-path="url(#p9648309d37)" style="fill: #ff7f0e; opacity: 0.4"/>
   </g>
   <g id="patch_79">
    <path d="M 256.605672 373.773698 
L 264.725272 373.773698 
L 264.725272 336.546718 
L 256.605672 336.546718 
z
" clip-path="url(#p9648309d37)" style="fill: #ff7f0e; opacity: 0.4"/>
   </g>
   <g id="patch_80">
    <path d="M 264.725272 373.773698 
L 272.844872 373.773698 
L 272.844872 345.853463 
L 264.725272 345.853463 
z
" clip-path="url(#p9648309d37)" style="fill: #ff7f0e; opacity: 0.4"/>
   </g>
   <g id="patch_81">
    <path d="M 272.844872 373.773698 
L 280.964472 373.773698 
L 280.964472 341.20009 
L 272.844872 341.20009 
z
" clip-path="url(#p9648309d37)" style="fill: #ff7f0e; opacity: 0.4"/>
   </g>
   <g id="patch_82">
    <path d="M 280.964472 373.773698 
L 289.084072 373.773698 
L 289.084072 327.239972 
L 280.964472 327.239972 
z
" clip-path="url(#p9648309d37)" style="fill: #ff7f0e; opacity: 0.4"/>
   </g>
   <g id="patch_83">
    <path d="M 289.084072 373.773698 
L 297.203672 373.773698 
L 297.203672 336.546718 
L 289.084072 336.546718 
z
" clip-path="url(#p9648309d37)" style="fill: #ff7f0e; opacity: 0.4"/>
   </g>
   <g id="patch_84">
    <path d="M 297.203672 373.773698 
L 305.323272 373.773698 
L 305.323272 331.893345 
L 297.203672 331.893345 
z
" clip-path="url(#p9648309d37)" style="fill: #ff7f0e; opacity: 0.4"/>
   </g>
   <g id="patch_85">
    <path d="M 305.323272 373.773698 
L 313.442872 373.773698 
L 313.442872 336.546718 
L 305.323272 336.546718 
z
" clip-path="url(#p9648309d37)" style="fill: #ff7f0e; opacity: 0.4"/>
   </g>
   <g id="patch_86">
    <path d="M 313.442872 373.773698 
L 321.562472 373.773698 
L 321.562472 350.506835 
L 313.442872 350.506835 
z
" clip-path="url(#p9648309d37)" style="fill: #ff7f0e; opacity: 0.4"/>
   </g>
   <g id="patch_87">
    <path d="M 321.562472 373.773698 
L 329.682072 373.773698 
L 329.682072 341.20009 
L 321.562472 341.20009 
z
" clip-path="url(#p9648309d37)" style="fill: #ff7f0e; opacity: 0.4"/>
   </g>
   <g id="patch_88">
    <path d="M 329.682072 373.773698 
L 337.801672 373.773698 
L 337.801672 350.506835 
L 329.682072 350.506835 
z
" clip-path="url(#p9648309d37)" style="fill: #ff7f0e; opacity: 0.4"/>
   </g>
   <g id="patch_89">
    <path d="M 337.801672 373.773698 
L 345.921272 373.773698 
L 345.921272 373.773698 
L 337.801672 373.773698 
z
" clip-path="url(#p9648309d37)" style="fill: #ff7f0e; opacity: 0.4"/>
   </g>
   <g id="patch_90">
    <path d="M 345.921272 373.773698 
L 354.040872 373.773698 
L 354.040872 359.81358 
L 345.921272 359.81358 
z
" clip-path="url(#p9648309d37)" style="fill: #ff7f0e; opacity: 0.4"/>
   </g>
   <g id="matplotlib.axis_3">
    <g id="xtick_10">
     <g id="line2d_17">
      <g>
       <use xlink:href="#m96cfaee6c1" x="65.50679" y="373.773698" style="stroke: #000000; stroke-width: 0.8"/>
      </g>
     </g>
    </g>
    <g id="xtick_11">
     <g id="line2d_18">
      <g>
       <use xlink:href="#m96cfaee6c1" x="124.994077" y="373.773698" style="stroke: #000000; stroke-width: 0.8"/>
      </g>
     </g>
    </g>
    <g id="xtick_12">
     <g id="line2d_19">
      <g>
       <use xlink:href="#m96cfaee6c1" x="184.481364" y="373.773698" style="stroke: #000000; stroke-width: 0.8"/>
      </g>
     </g>
    </g>
    <g id="xtick_13">
     <g id="line2d_20">
      <g>
       <use xlink:href="#m96cfaee6c1" x="243.968651" y="373.773698" style="stroke: #000000; stroke-width: 0.8"/>
      </g>
     </g>
    </g>
    <g id="xtick_14">
     <g id="line2d_21">
      <g>
       <use xlink:href="#m96cfaee6c1" x="303.455938" y="373.773698" style="stroke: #000000; stroke-width: 0.8"/>
      </g>
     </g>
    </g>
    <g id="xtick_15">
     <g id="line2d_22">
      <g>
       <use xlink:href="#m96cfaee6c1" x="362.943224" y="373.773698" style="stroke: #000000; stroke-width: 0.8"/>
      </g>
     </g>
    </g>
    <g id="xtick_16">
     <g id="line2d_23">
      <g>
       <use xlink:href="#m96cfaee6c1" x="422.430511" y="373.773698" style="stroke: #000000; stroke-width: 0.8"/>
      </g>
     </g>
    </g>
    <g id="xtick_17">
     <g id="line2d_24">
      <g>
       <use xlink:href="#m96cfaee6c1" x="481.917798" y="373.773698" style="stroke: #000000; stroke-width: 0.8"/>
      </g>
     </g>
    </g>
    <g id="xtick_18">
     <g id="line2d_25">
      <g>
       <use xlink:href="#m96cfaee6c1" x="541.405085" y="373.773698" style="stroke: #000000; stroke-width: 0.8"/>
      </g>
     </g>
    </g>
   </g>
   <g id="matplotlib.axis_4">
    <g id="ytick_6">
     <g id="line2d_26">
      <g>
       <use xlink:href="#m547da971de" x="41.711875" y="373.773698" style="stroke: #000000; stroke-width: 0.8"/>
      </g>
     </g>
     <g id="text_10">
      <!-- 0 -->
      <g transform="translate(28.349375 377.572917)scale(0.1 -0.1)">
       <use xlink:href="#DejaVuSans-30"/>
      </g>
     </g>
    </g>
    <g id="ytick_7">
     <g id="line2d_27">
      <g>
       <use xlink:href="#m547da971de" x="41.711875" y="344.239087" style="stroke: #000000; stroke-width: 0.8"/>
      </g>
     </g>
     <g id="text_11">
      <!-- 2 -->
      <g transform="translate(28.349375 348.038306)scale(0.1 -0.1)">
       <use xlink:href="#DejaVuSans-32"/>
      </g>
     </g>
    </g>
    <g id="ytick_8">
     <g id="line2d_28">
      <g>
       <use xlink:href="#m547da971de" x="41.711875" y="314.704477" style="stroke: #000000; stroke-width: 0.8"/>
      </g>
     </g>
     <g id="text_12">
      <!-- 4 -->
      <g transform="translate(28.349375 318.503696)scale(0.1 -0.1)">
       <use xlink:href="#DejaVuSans-34"/>
      </g>
     </g>
    </g>
    <g id="ytick_9">
     <g id="line2d_29">
      <g>
       <use xlink:href="#m547da971de" x="41.711875" y="285.169866" style="stroke: #000000; stroke-width: 0.8"/>
      </g>
     </g>
     <g id="text_13">
      <!-- 6 -->
      <g transform="translate(28.349375 288.969085)scale(0.1 -0.1)">
       <use xlink:href="#DejaVuSans-36"/>
      </g>
     </g>
    </g>
    <g id="ytick_10">
     <g id="line2d_30">
      <g>
       <use xlink:href="#m547da971de" x="41.711875" y="255.635256" style="stroke: #000000; stroke-width: 0.8"/>
      </g>
     </g>
     <g id="text_14">
      <!-- 8 -->
      <g transform="translate(28.349375 259.434475)scale(0.1 -0.1)">
       <use xlink:href="#DejaVuSans-38"/>
      </g>
     </g>
    </g>
    <g id="text_15">
     <!-- Fraction of cells -->
     <g transform="translate(21.437812 357.889844)rotate(-90)scale(0.14 -0.14)">
      <use xlink:href="#DejaVuSans-46"/>
      <use xlink:href="#DejaVuSans-72" x="50.269531"/>
      <use xlink:href="#DejaVuSans-61" x="91.382812"/>
      <use xlink:href="#DejaVuSans-63" x="152.662109"/>
      <use xlink:href="#DejaVuSans-74" x="207.642578"/>
      <use xlink:href="#DejaVuSans-69" x="246.851562"/>
      <use xlink:href="#DejaVuSans-6f" x="274.634766"/>
      <use xlink:href="#DejaVuSans-6e" x="335.816406"/>
      <use xlink:href="#DejaVuSans-20" x="399.195312"/>
      <use xlink:href="#DejaVuSans-6f" x="430.982422"/>
      <use xlink:href="#DejaVuSans-66" x="492.164062"/>
      <use xlink:href="#DejaVuSans-20" x="527.369141"/>
      <use xlink:href="#DejaVuSans-63" x="559.15625"/>
      <use xlink:href="#DejaVuSans-65" x="614.136719"/>
      <use xlink:href="#DejaVuSans-6c" x="675.660156"/>
      <use xlink:href="#DejaVuSans-6c" x="703.443359"/>
      <use xlink:href="#DejaVuSans-73" x="731.226562"/>
     </g>
    </g>
   </g>
   <g id="line2d_31">
    <path d="M 65.50679 373.773696 
L 70.313843 373.773691 
L 75.120897 373.773674 
L 79.92795 373.773623 
L 84.735004 373.773477 
L 89.542057 373.773077 
L 94.349111 373.772045 
L 99.156164 373.769517 
L 103.963218 373.763652 
L 108.770271 373.750751 
L 113.577325 373.723853 
L 118.384378 373.670675 
L 123.191432 373.570981 
L 127.998485 373.393721 
L 132.805539 373.094764 
L 137.612592 372.616478 
L 142.419646 371.890612 
L 147.226699 370.845699 
L 152.033753 369.419172 
L 156.840806 367.572822 
L 161.64786 365.308422 
L 166.454913 362.679066 
L 171.261967 359.791843 
L 176.06902 356.799246 
L 180.876074 353.879837 
L 185.683127 351.212177 
L 190.49018 348.948294 
L 195.297234 347.193055 
L 200.104287 345.993579 
L 204.911341 345.339392 
L 209.718394 345.171129 
L 214.525448 345.394472 
L 219.332501 345.896725 
L 224.139555 346.564766 
L 228.946608 347.303471 
L 233.753662 348.052421 
L 238.560715 348.796812 
L 243.367769 349.567755 
L 248.174822 350.429288 
L 252.981876 351.454073 
L 257.788929 352.694801 
L 262.595983 354.161015 
L 267.403036 355.809512 
L 272.21009 357.551304 
L 277.017143 359.271721 
L 281.824197 360.855763 
L 286.63125 362.210131 
L 291.438304 363.276384 
L 296.245357 364.034309 
L 301.052411 364.498375 
L 305.859464 364.711346 
L 310.666518 364.737829 
L 315.473571 364.658074 
L 320.280625 364.560651 
L 325.087678 364.532742 
L 329.894732 364.648488 
L 334.701785 364.957763 
L 339.508839 365.478671 
L 344.315892 366.1962 
L 349.122946 367.067452 
L 353.929999 368.031706 
L 358.737053 369.02231 
L 363.544106 369.977461 
L 368.35116 370.847929 
L 373.158213 371.601012 
L 377.965267 372.221083 
L 382.77232 372.707561 
L 387.579374 373.071317 
L 392.386427 373.33044 
L 397.193481 373.506156 
L 402.000534 373.619477 
L 406.807588 373.688912 
L 411.614641 373.729294 
L 416.421695 373.751569 
L 421.228748 373.763213 
L 426.035801 373.768979 
L 430.842855 373.771681 
L 435.649908 373.77288 
L 440.456962 373.773384 
L 445.264015 373.773583 
L 450.071069 373.773658 
L 454.878122 373.773685 
L 459.685176 373.773694 
L 464.492229 373.773697 
L 469.299283 373.773698 
L 474.106336 373.773698 
L 478.91339 373.773698 
L 483.720443 373.773698 
L 488.527497 373.773698 
L 493.33455 373.773698 
L 498.141604 373.773698 
L 502.948657 373.773698 
L 507.755711 373.773698 
L 512.562764 373.773698 
L 517.369818 373.773698 
L 522.176871 373.773698 
L 526.983925 373.773698 
L 531.790978 373.773698 
L 536.598032 373.773698 
L 541.405085 373.773698 
" clip-path="url(#p9648309d37)" style="fill: none; stroke: #1f77b4; stroke-width: 1.5; stroke-linecap: square"/>
   </g>
   <g id="line2d_32">
    <path d="M 65.50679 373.773698 
L 70.313843 373.773698 
L 75.120897 373.773698 
L 79.92795 373.773698 
L 84.735004 373.773698 
L 89.542057 373.773698 
L 94.349111 373.773698 
L 99.156164 373.773698 
L 103.963218 373.773698 
L 108.770271 373.773698 
L 113.577325 373.773698 
L 118.384378 373.773698 
L 123.191432 373.773696 
L 127.998485 373.773687 
L 132.805539 373.773637 
L 137.612592 373.773414 
L 142.419646 373.772535 
L 147.226699 373.769518 
L 152.033753 373.760525 
L 156.840806 373.737271 
L 161.64786 373.685293 
L 166.454913 373.585247 
L 171.261967 373.420312 
L 176.06902 373.188944 
L 180.876074 372.914491 
L 185.683127 372.638409 
L 190.49018 372.391372 
L 195.297234 372.155447 
L 200.104287 371.843851 
L 204.911341 371.316556 
L 209.718394 370.426086 
L 214.525448 369.070632 
L 219.332501 367.231685 
L 224.139555 364.980567 
L 228.946608 362.445968 
L 233.753662 359.75318 
L 238.560715 356.974648 
L 243.367769 354.13667 
L 248.174822 351.279122 
L 252.981876 348.501238 
L 257.788929 345.929325 
L 262.595983 343.630888 
L 267.403036 341.575491 
L 272.21009 339.701681 
L 277.017143 338.028206 
L 281.824197 336.692852 
L 286.63125 335.882354 
L 291.438304 335.73135 
L 296.245357 336.279368 
L 301.052411 337.486709 
L 305.859464 339.25349 
L 310.666518 341.429492 
L 315.473571 343.857171 
L 320.280625 346.452189 
L 325.087678 349.243302 
L 329.894732 352.302586 
L 334.701785 355.613579 
L 339.508839 359.006356 
L 344.315892 362.225816 
L 349.122946 365.064099 
L 353.929999 367.436294 
L 358.737053 369.355372 
L 363.544106 370.863436 
L 368.35116 371.993687 
L 373.158213 372.778972 
L 377.965267 373.27224 
L 382.77232 373.547708 
L 387.579374 373.683198 
L 392.386427 373.741619 
L 397.193481 373.763658 
L 402.000534 373.770928 
L 406.807588 373.773025 
L 411.614641 373.773554 
L 416.421695 373.773671 
L 421.228748 373.773693 
L 426.035801 373.773697 
L 430.842855 373.773698 
L 435.649908 373.773698 
L 440.456962 373.773698 
L 445.264015 373.773698 
L 450.071069 373.773698 
L 454.878122 373.773698 
L 459.685176 373.773698 
L 464.492229 373.773698 
L 469.299283 373.773698 
L 474.106336 373.773698 
L 478.91339 373.773698 
L 483.720443 373.773698 
L 488.527497 373.773698 
L 493.33455 373.773698 
L 498.141604 373.773698 
L 502.948657 373.773698 
L 507.755711 373.773698 
L 512.562764 373.773698 
L 517.369818 373.773698 
L 522.176871 373.773698 
L 526.983925 373.773698 
L 531.790978 373.773698 
L 536.598032 373.773698 
L 541.405085 373.773698 
" clip-path="url(#p9648309d37)" style="fill: none; stroke: #ff7f0e; stroke-width: 1.5; stroke-linecap: square"/>
   </g>
   <g id="patch_91">
    <path d="M 41.711875 373.773698 
L 41.711875 232.34224 
" style="fill: none; stroke: #000000; stroke-width: 0.8; stroke-linejoin: miter; stroke-linecap: square"/>
   </g>
   <g id="patch_92">
    <path d="M 565.2 373.773698 
L 565.2 232.34224 
" style="fill: none; stroke: #000000; stroke-width: 0.8; stroke-linejoin: miter; stroke-linecap: square"/>
   </g>
   <g id="patch_93">
    <path d="M 41.711875 373.773698 
L 565.2 373.773698 
" style="fill: none; stroke: #000000; stroke-width: 0.8; stroke-linejoin: miter; stroke-linecap: square"/>
   </g>
   <g id="patch_94">
    <path d="M 41.711875 232.34224 
L 565.2 232.34224 
" style="fill: none; stroke: #000000; stroke-width: 0.8; stroke-linejoin: miter; stroke-linecap: square"/>
   </g>
   <g id="text_16">
    <!-- cytd cells -->
    <g transform="translate(270.359062 226.34224)scale(0.14 -0.14)">
     <defs>
      <path id="DejaVuSans-79" d="M 2059 -325 
Q 1816 -950 1584 -1140 
Q 1353 -1331 966 -1331 
L 506 -1331 
L 506 -850 
L 844 -850 
Q 1081 -850 1212 -737 
Q 1344 -625 1503 -206 
L 1606 56 
L 191 3500 
L 800 3500 
L 1894 763 
L 2988 3500 
L 3597 3500 
L 2059 -325 
z
" transform="scale(0.015625)"/>
     </defs>
     <use xlink:href="#DejaVuSans-63"/>
     <use xlink:href="#DejaVuSans-79" x="54.980469"/>
     <use xlink:href="#DejaVuSans-74" x="114.160156"/>
     <use xlink:href="#DejaVuSans-64" x="153.369141"/>
     <use xlink:href="#DejaVuSans-20" x="216.845703"/>
     <use xlink:href="#DejaVuSans-63" x="248.632812"/>
     <use xlink:href="#DejaVuSans-65" x="303.613281"/>
     <use xlink:href="#DejaVuSans-6c" x="365.136719"/>
     <use xlink:href="#DejaVuSans-6c" x="392.919922"/>
     <use xlink:href="#DejaVuSans-73" x="420.703125"/>
    </g>
   </g>
   <g id="legend_2">
    <g id="patch_95">
     <path d="M 487.966875 277.16974 
L 556.8 277.16974 
Q 559.2 277.16974 559.2 274.76974 
L 559.2 240.74224 
Q 559.2 238.34224 556.8 238.34224 
L 487.966875 238.34224 
Q 485.566875 238.34224 485.566875 240.74224 
L 485.566875 274.76974 
Q 485.566875 277.16974 487.966875 277.16974 
z
" style="fill: #ffffff; opacity: 0.8; stroke: #cccccc; stroke-linejoin: miter"/>
    </g>
    <g id="patch_96">
     <path d="M 490.366875 252.260365 
L 514.366875 252.260365 
L 514.366875 243.860365 
L 490.366875 243.860365 
z
" style="fill: #1f77b4; opacity: 0.4"/>
    </g>
    <g id="text_17">
     <!-- dlm8 -->
     <g transform="translate(523.966875 252.260365)scale(0.12 -0.12)">
      <use xlink:href="#DejaVuSans-64"/>
      <use xlink:href="#DejaVuSans-6c" x="63.476562"/>
      <use xlink:href="#DejaVuSans-6d" x="91.259766"/>
      <use xlink:href="#DejaVuSans-38" x="188.671875"/>
     </g>
    </g>
    <g id="patch_97">
     <path d="M 490.366875 269.874115 
L 514.366875 269.874115 
L 514.366875 261.474115 
L 490.366875 261.474115 
z
" style="fill: #ff7f0e; opacity: 0.4"/>
    </g>
    <g id="text_18">
     <!-- dunn -->
     <g transform="translate(523.966875 269.874115)scale(0.12 -0.12)">
      <use xlink:href="#DejaVuSans-64"/>
      <use xlink:href="#DejaVuSans-75" x="63.476562"/>
      <use xlink:href="#DejaVuSans-6e" x="126.855469"/>
      <use xlink:href="#DejaVuSans-6e" x="190.234375"/>
     </g>
    </g>
   </g>
  </g>
  <g id="axes_3">
   <g id="patch_98">
    <path d="M 41.711875 548.521875 
L 565.2 548.521875 
L 565.2 407.090417 
L 41.711875 407.090417 
z
" style="fill: #ffffff"/>
   </g>
   <g id="patch_99">
    <path d="M 158.054321 548.521875 
L 163.103471 548.521875 
L 163.103471 503.622999 
L 158.054321 503.622999 
z
" clip-path="url(#p06546cb258)" style="fill: #1f77b4; opacity: 0.4"/>
   </g>
   <g id="patch_100">
    <path d="M 163.103471 548.521875 
L 168.15262 548.521875 
L 168.15262 413.825248 
L 163.103471 413.825248 
z
" clip-path="url(#p06546cb258)" style="fill: #1f77b4; opacity: 0.4"/>
   </g>
   <g id="patch_101">
    <path d="M 168.15262 548.521875 
L 173.20177 548.521875 
L 173.20177 458.724124 
L 168.15262 458.724124 
z
" clip-path="url(#p06546cb258)" style="fill: #1f77b4; opacity: 0.4"/>
   </g>
   <g id="patch_102">
    <path d="M 173.20177 548.521875 
L 178.250919 548.521875 
L 178.250919 447.499405 
L 173.20177 447.499405 
z
" clip-path="url(#p06546cb258)" style="fill: #1f77b4; opacity: 0.4"/>
   </g>
   <g id="patch_103">
    <path d="M 178.250919 548.521875 
L 183.300069 548.521875 
L 183.300069 458.724124 
L 178.250919 458.724124 
z
" clip-path="url(#p06546cb258)" style="fill: #1f77b4; opacity: 0.4"/>
   </g>
   <g id="patch_104">
    <path d="M 183.300069 548.521875 
L 188.349219 548.521875 
L 188.349219 514.847718 
L 183.300069 514.847718 
z
" clip-path="url(#p06546cb258)" style="fill: #1f77b4; opacity: 0.4"/>
   </g>
   <g id="patch_105">
    <path d="M 188.349219 548.521875 
L 193.398368 548.521875 
L 193.398368 503.622999 
L 188.349219 503.622999 
z
" clip-path="url(#p06546cb258)" style="fill: #1f77b4; opacity: 0.4"/>
   </g>
   <g id="patch_106">
    <path d="M 193.398368 548.521875 
L 198.447518 548.521875 
L 198.447518 514.847718 
L 193.398368 514.847718 
z
" clip-path="url(#p06546cb258)" style="fill: #1f77b4; opacity: 0.4"/>
   </g>
   <g id="patch_107">
    <path d="M 198.447518 548.521875 
L 203.496668 548.521875 
L 203.496668 537.297156 
L 198.447518 537.297156 
z
" clip-path="url(#p06546cb258)" style="fill: #1f77b4; opacity: 0.4"/>
   </g>
   <g id="patch_108">
    <path d="M 203.496668 548.521875 
L 208.545817 548.521875 
L 208.545817 526.072437 
L 203.496668 526.072437 
z
" clip-path="url(#p06546cb258)" style="fill: #1f77b4; opacity: 0.4"/>
   </g>
   <g id="patch_109">
    <path d="M 208.545817 548.521875 
L 213.594967 548.521875 
L 213.594967 526.072437 
L 208.545817 526.072437 
z
" clip-path="url(#p06546cb258)" style="fill: #1f77b4; opacity: 0.4"/>
   </g>
   <g id="patch_110">
    <path d="M 213.594967 548.521875 
L 218.644117 548.521875 
L 218.644117 537.297156 
L 213.594967 537.297156 
z
" clip-path="url(#p06546cb258)" style="fill: #1f77b4; opacity: 0.4"/>
   </g>
   <g id="patch_111">
    <path d="M 218.644117 548.521875 
L 223.693266 548.521875 
L 223.693266 548.521875 
L 218.644117 548.521875 
z
" clip-path="url(#p06546cb258)" style="fill: #1f77b4; opacity: 0.4"/>
   </g>
   <g id="patch_112">
    <path d="M 223.693266 548.521875 
L 228.742416 548.521875 
L 228.742416 526.072437 
L 223.693266 526.072437 
z
" clip-path="url(#p06546cb258)" style="fill: #1f77b4; opacity: 0.4"/>
   </g>
   <g id="patch_113">
    <path d="M 228.742416 548.521875 
L 233.791566 548.521875 
L 233.791566 548.521875 
L 228.742416 548.521875 
z
" clip-path="url(#p06546cb258)" style="fill: #1f77b4; opacity: 0.4"/>
   </g>
   <g id="patch_114">
    <path d="M 233.791566 548.521875 
L 238.840715 548.521875 
L 238.840715 548.521875 
L 233.791566 548.521875 
z
" clip-path="url(#p06546cb258)" style="fill: #1f77b4; opacity: 0.4"/>
   </g>
   <g id="patch_115">
    <path d="M 238.840715 548.521875 
L 243.889865 548.521875 
L 243.889865 548.521875 
L 238.840715 548.521875 
z
" clip-path="url(#p06546cb258)" style="fill: #1f77b4; opacity: 0.4"/>
   </g>
   <g id="patch_116">
    <path d="M 243.889865 548.521875 
L 248.939015 548.521875 
L 248.939015 526.072437 
L 243.889865 526.072437 
z
" clip-path="url(#p06546cb258)" style="fill: #1f77b4; opacity: 0.4"/>
   </g>
   <g id="patch_117">
    <path d="M 248.939015 548.521875 
L 253.988164 548.521875 
L 253.988164 548.521875 
L 248.939015 548.521875 
z
" clip-path="url(#p06546cb258)" style="fill: #1f77b4; opacity: 0.4"/>
   </g>
   <g id="patch_118">
    <path d="M 253.988164 548.521875 
L 259.037314 548.521875 
L 259.037314 537.297156 
L 253.988164 537.297156 
z
" clip-path="url(#p06546cb258)" style="fill: #1f77b4; opacity: 0.4"/>
   </g>
   <g id="patch_119">
    <path d="M 186.117693 548.521875 
L 191.391088 548.521875 
L 191.391088 527.479597 
L 186.117693 527.479597 
z
" clip-path="url(#p06546cb258)" style="fill: #ff7f0e; opacity: 0.4"/>
   </g>
   <g id="patch_120">
    <path d="M 191.391088 548.521875 
L 196.664483 548.521875 
L 196.664483 534.49369 
L 191.391088 534.49369 
z
" clip-path="url(#p06546cb258)" style="fill: #ff7f0e; opacity: 0.4"/>
   </g>
   <g id="patch_121">
    <path d="M 196.664483 548.521875 
L 201.937878 548.521875 
L 201.937878 534.49369 
L 196.664483 534.49369 
z
" clip-path="url(#p06546cb258)" style="fill: #ff7f0e; opacity: 0.4"/>
   </g>
   <g id="patch_122">
    <path d="M 201.937878 548.521875 
L 207.211273 548.521875 
L 207.211273 541.507782 
L 201.937878 541.507782 
z
" clip-path="url(#p06546cb258)" style="fill: #ff7f0e; opacity: 0.4"/>
   </g>
   <g id="patch_123">
    <path d="M 207.211273 548.521875 
L 212.484669 548.521875 
L 212.484669 513.451412 
L 207.211273 513.451412 
z
" clip-path="url(#p06546cb258)" style="fill: #ff7f0e; opacity: 0.4"/>
   </g>
   <g id="patch_124">
    <path d="M 212.484669 548.521875 
L 217.758064 548.521875 
L 217.758064 513.451412 
L 212.484669 513.451412 
z
" clip-path="url(#p06546cb258)" style="fill: #ff7f0e; opacity: 0.4"/>
   </g>
   <g id="patch_125">
    <path d="M 217.758064 548.521875 
L 223.031459 548.521875 
L 223.031459 527.479597 
L 217.758064 527.479597 
z
" clip-path="url(#p06546cb258)" style="fill: #ff7f0e; opacity: 0.4"/>
   </g>
   <g id="patch_126">
    <path d="M 223.031459 548.521875 
L 228.304854 548.521875 
L 228.304854 478.380949 
L 223.031459 478.380949 
z
" clip-path="url(#p06546cb258)" style="fill: #ff7f0e; opacity: 0.4"/>
   </g>
   <g id="patch_127">
    <path d="M 228.304854 548.521875 
L 233.578249 548.521875 
L 233.578249 506.43732 
L 228.304854 506.43732 
z
" clip-path="url(#p06546cb258)" style="fill: #ff7f0e; opacity: 0.4"/>
   </g>
   <g id="patch_128">
    <path d="M 233.578249 548.521875 
L 238.851644 548.521875 
L 238.851644 513.451412 
L 233.578249 513.451412 
z
" clip-path="url(#p06546cb258)" style="fill: #ff7f0e; opacity: 0.4"/>
   </g>
   <g id="patch_129">
    <path d="M 238.851644 548.521875 
L 244.125039 548.521875 
L 244.125039 492.409134 
L 238.851644 492.409134 
z
" clip-path="url(#p06546cb258)" style="fill: #ff7f0e; opacity: 0.4"/>
   </g>
   <g id="patch_130">
    <path d="M 244.125039 548.521875 
L 249.398434 548.521875 
L 249.398434 478.380949 
L 244.125039 478.380949 
z
" clip-path="url(#p06546cb258)" style="fill: #ff7f0e; opacity: 0.4"/>
   </g>
   <g id="patch_131">
    <path d="M 249.398434 548.521875 
L 254.671829 548.521875 
L 254.671829 464.352764 
L 249.398434 464.352764 
z
" clip-path="url(#p06546cb258)" style="fill: #ff7f0e; opacity: 0.4"/>
   </g>
   <g id="patch_132">
    <path d="M 254.671829 548.521875 
L 259.945224 548.521875 
L 259.945224 513.451412 
L 254.671829 513.451412 
z
" clip-path="url(#p06546cb258)" style="fill: #ff7f0e; opacity: 0.4"/>
   </g>
   <g id="patch_133">
    <path d="M 259.945224 548.521875 
L 265.218619 548.521875 
L 265.218619 485.395042 
L 259.945224 485.395042 
z
" clip-path="url(#p06546cb258)" style="fill: #ff7f0e; opacity: 0.4"/>
   </g>
   <g id="patch_134">
    <path d="M 265.218619 548.521875 
L 270.492014 548.521875 
L 270.492014 527.479597 
L 265.218619 527.479597 
z
" clip-path="url(#p06546cb258)" style="fill: #ff7f0e; opacity: 0.4"/>
   </g>
   <g id="patch_135">
    <path d="M 270.492014 548.521875 
L 275.765409 548.521875 
L 275.765409 534.49369 
L 270.492014 534.49369 
z
" clip-path="url(#p06546cb258)" style="fill: #ff7f0e; opacity: 0.4"/>
   </g>
   <g id="patch_136">
    <path d="M 275.765409 548.521875 
L 281.038804 548.521875 
L 281.038804 534.49369 
L 275.765409 534.49369 
z
" clip-path="url(#p06546cb258)" style="fill: #ff7f0e; opacity: 0.4"/>
   </g>
   <g id="patch_137">
    <path d="M 281.038804 548.521875 
L 286.312199 548.521875 
L 286.312199 541.507782 
L 281.038804 541.507782 
z
" clip-path="url(#p06546cb258)" style="fill: #ff7f0e; opacity: 0.4"/>
   </g>
   <g id="patch_138">
    <path d="M 286.312199 548.521875 
L 291.585594 548.521875 
L 291.585594 541.507782 
L 286.312199 541.507782 
z
" clip-path="url(#p06546cb258)" style="fill: #ff7f0e; opacity: 0.4"/>
   </g>
   <g id="matplotlib.axis_5">
    <g id="xtick_19">
     <g id="line2d_33">
      <g>
       <use xlink:href="#m96cfaee6c1" x="65.50679" y="548.521875" style="stroke: #000000; stroke-width: 0.8"/>
      </g>
     </g>
     <g id="text_19">
      <!-- 0.00 -->
      <g transform="translate(54.373977 563.120312)scale(0.1 -0.1)">
       <defs>
        <path id="DejaVuSans-2e" d="M 684 794 
L 1344 794 
L 1344 0 
L 684 0 
L 684 794 
z
" transform="scale(0.015625)"/>
       </defs>
       <use xlink:href="#DejaVuSans-30"/>
       <use xlink:href="#DejaVuSans-2e" x="63.623047"/>
       <use xlink:href="#DejaVuSans-30" x="95.410156"/>
       <use xlink:href="#DejaVuSans-30" x="159.033203"/>
      </g>
     </g>
    </g>
    <g id="xtick_20">
     <g id="line2d_34">
      <g>
       <use xlink:href="#m96cfaee6c1" x="124.994077" y="548.521875" style="stroke: #000000; stroke-width: 0.8"/>
      </g>
     </g>
     <g id="text_20">
      <!-- 0.25 -->
      <g transform="translate(113.861264 563.120312)scale(0.1 -0.1)">
       <defs>
        <path id="DejaVuSans-35" d="M 691 4666 
L 3169 4666 
L 3169 4134 
L 1269 4134 
L 1269 2991 
Q 1406 3038 1543 3061 
Q 1681 3084 1819 3084 
Q 2600 3084 3056 2656 
Q 3513 2228 3513 1497 
Q 3513 744 3044 326 
Q 2575 -91 1722 -91 
Q 1428 -91 1123 -41 
Q 819 9 494 109 
L 494 744 
Q 775 591 1075 516 
Q 1375 441 1709 441 
Q 2250 441 2565 725 
Q 2881 1009 2881 1497 
Q 2881 1984 2565 2268 
Q 2250 2553 1709 2553 
Q 1456 2553 1204 2497 
Q 953 2441 691 2322 
L 691 4666 
z
" transform="scale(0.015625)"/>
       </defs>
       <use xlink:href="#DejaVuSans-30"/>
       <use xlink:href="#DejaVuSans-2e" x="63.623047"/>
       <use xlink:href="#DejaVuSans-32" x="95.410156"/>
       <use xlink:href="#DejaVuSans-35" x="159.033203"/>
      </g>
     </g>
    </g>
    <g id="xtick_21">
     <g id="line2d_35">
      <g>
       <use xlink:href="#m96cfaee6c1" x="184.481364" y="548.521875" style="stroke: #000000; stroke-width: 0.8"/>
      </g>
     </g>
     <g id="text_21">
      <!-- 0.50 -->
      <g transform="translate(173.348551 563.120312)scale(0.1 -0.1)">
       <use xlink:href="#DejaVuSans-30"/>
       <use xlink:href="#DejaVuSans-2e" x="63.623047"/>
       <use xlink:href="#DejaVuSans-35" x="95.410156"/>
       <use xlink:href="#DejaVuSans-30" x="159.033203"/>
      </g>
     </g>
    </g>
    <g id="xtick_22">
     <g id="line2d_36">
      <g>
       <use xlink:href="#m96cfaee6c1" x="243.968651" y="548.521875" style="stroke: #000000; stroke-width: 0.8"/>
      </g>
     </g>
     <g id="text_22">
      <!-- 0.75 -->
      <g transform="translate(232.835838 563.120312)scale(0.1 -0.1)">
       <defs>
        <path id="DejaVuSans-37" d="M 525 4666 
L 3525 4666 
L 3525 4397 
L 1831 0 
L 1172 0 
L 2766 4134 
L 525 4134 
L 525 4666 
z
" transform="scale(0.015625)"/>
       </defs>
       <use xlink:href="#DejaVuSans-30"/>
       <use xlink:href="#DejaVuSans-2e" x="63.623047"/>
       <use xlink:href="#DejaVuSans-37" x="95.410156"/>
       <use xlink:href="#DejaVuSans-35" x="159.033203"/>
      </g>
     </g>
    </g>
    <g id="xtick_23">
     <g id="line2d_37">
      <g>
       <use xlink:href="#m96cfaee6c1" x="303.455938" y="548.521875" style="stroke: #000000; stroke-width: 0.8"/>
      </g>
     </g>
     <g id="text_23">
      <!-- 1.00 -->
      <g transform="translate(292.323125 563.120312)scale(0.1 -0.1)">
       <defs>
        <path id="DejaVuSans-31" d="M 794 531 
L 1825 531 
L 1825 4091 
L 703 3866 
L 703 4441 
L 1819 4666 
L 2450 4666 
L 2450 531 
L 3481 531 
L 3481 0 
L 794 0 
L 794 531 
z
" transform="scale(0.015625)"/>
       </defs>
       <use xlink:href="#DejaVuSans-31"/>
       <use xlink:href="#DejaVuSans-2e" x="63.623047"/>
       <use xlink:href="#DejaVuSans-30" x="95.410156"/>
       <use xlink:href="#DejaVuSans-30" x="159.033203"/>
      </g>
     </g>
    </g>
    <g id="xtick_24">
     <g id="line2d_38">
      <g>
       <use xlink:href="#m96cfaee6c1" x="362.943224" y="548.521875" style="stroke: #000000; stroke-width: 0.8"/>
      </g>
     </g>
     <g id="text_24">
      <!-- 1.25 -->
      <g transform="translate(351.810412 563.120312)scale(0.1 -0.1)">
       <use xlink:href="#DejaVuSans-31"/>
       <use xlink:href="#DejaVuSans-2e" x="63.623047"/>
       <use xlink:href="#DejaVuSans-32" x="95.410156"/>
       <use xlink:href="#DejaVuSans-35" x="159.033203"/>
      </g>
     </g>
    </g>
    <g id="xtick_25">
     <g id="line2d_39">
      <g>
       <use xlink:href="#m96cfaee6c1" x="422.430511" y="548.521875" style="stroke: #000000; stroke-width: 0.8"/>
      </g>
     </g>
     <g id="text_25">
      <!-- 1.50 -->
      <g transform="translate(411.297699 563.120312)scale(0.1 -0.1)">
       <use xlink:href="#DejaVuSans-31"/>
       <use xlink:href="#DejaVuSans-2e" x="63.623047"/>
       <use xlink:href="#DejaVuSans-35" x="95.410156"/>
       <use xlink:href="#DejaVuSans-30" x="159.033203"/>
      </g>
     </g>
    </g>
    <g id="xtick_26">
     <g id="line2d_40">
      <g>
       <use xlink:href="#m96cfaee6c1" x="481.917798" y="548.521875" style="stroke: #000000; stroke-width: 0.8"/>
      </g>
     </g>
     <g id="text_26">
      <!-- 1.75 -->
      <g transform="translate(470.784986 563.120312)scale(0.1 -0.1)">
       <use xlink:href="#DejaVuSans-31"/>
       <use xlink:href="#DejaVuSans-2e" x="63.623047"/>
       <use xlink:href="#DejaVuSans-37" x="95.410156"/>
       <use xlink:href="#DejaVuSans-35" x="159.033203"/>
      </g>
     </g>
    </g>
    <g id="xtick_27">
     <g id="line2d_41">
      <g>
       <use xlink:href="#m96cfaee6c1" x="541.405085" y="548.521875" style="stroke: #000000; stroke-width: 0.8"/>
      </g>
     </g>
     <g id="text_27">
      <!-- 2.00 -->
      <g transform="translate(530.272273 563.120312)scale(0.1 -0.1)">
       <use xlink:href="#DejaVuSans-32"/>
       <use xlink:href="#DejaVuSans-2e" x="63.623047"/>
       <use xlink:href="#DejaVuSans-30" x="95.410156"/>
       <use xlink:href="#DejaVuSans-30" x="159.033203"/>
      </g>
     </g>
    </g>
   </g>
   <g id="matplotlib.axis_6">
    <g id="ytick_11">
     <g id="line2d_42">
      <g>
       <use xlink:href="#m547da971de" x="41.711875" y="548.521875" style="stroke: #000000; stroke-width: 0.8"/>
      </g>
     </g>
     <g id="text_28">
      <!-- 0 -->
      <g transform="translate(28.349375 552.321094)scale(0.1 -0.1)">
       <use xlink:href="#DejaVuSans-30"/>
      </g>
     </g>
    </g>
    <g id="ytick_12">
     <g id="line2d_43">
      <g>
       <use xlink:href="#m547da971de" x="41.711875" y="518.987264" style="stroke: #000000; stroke-width: 0.8"/>
      </g>
     </g>
     <g id="text_29">
      <!-- 2 -->
      <g transform="translate(28.349375 522.786483)scale(0.1 -0.1)">
       <use xlink:href="#DejaVuSans-32"/>
      </g>
     </g>
    </g>
    <g id="ytick_13">
     <g id="line2d_44">
      <g>
       <use xlink:href="#m547da971de" x="41.711875" y="489.452654" style="stroke: #000000; stroke-width: 0.8"/>
      </g>
     </g>
     <g id="text_30">
      <!-- 4 -->
      <g transform="translate(28.349375 493.251873)scale(0.1 -0.1)">
       <use xlink:href="#DejaVuSans-34"/>
      </g>
     </g>
    </g>
    <g id="ytick_14">
     <g id="line2d_45">
      <g>
       <use xlink:href="#m547da971de" x="41.711875" y="459.918043" style="stroke: #000000; stroke-width: 0.8"/>
      </g>
     </g>
     <g id="text_31">
      <!-- 6 -->
      <g transform="translate(28.349375 463.717262)scale(0.1 -0.1)">
       <use xlink:href="#DejaVuSans-36"/>
      </g>
     </g>
    </g>
    <g id="ytick_15">
     <g id="line2d_46">
      <g>
       <use xlink:href="#m547da971de" x="41.711875" y="430.383433" style="stroke: #000000; stroke-width: 0.8"/>
      </g>
     </g>
     <g id="text_32">
      <!-- 8 -->
      <g transform="translate(28.349375 434.182652)scale(0.1 -0.1)">
       <use xlink:href="#DejaVuSans-38"/>
      </g>
     </g>
    </g>
    <g id="text_33">
     <!-- Fraction of cells -->
     <g transform="translate(21.437812 532.638021)rotate(-90)scale(0.14 -0.14)">
      <use xlink:href="#DejaVuSans-46"/>
      <use xlink:href="#DejaVuSans-72" x="50.269531"/>
      <use xlink:href="#DejaVuSans-61" x="91.382812"/>
      <use xlink:href="#DejaVuSans-63" x="152.662109"/>
      <use xlink:href="#DejaVuSans-74" x="207.642578"/>
      <use xlink:href="#DejaVuSans-69" x="246.851562"/>
      <use xlink:href="#DejaVuSans-6f" x="274.634766"/>
      <use xlink:href="#DejaVuSans-6e" x="335.816406"/>
      <use xlink:href="#DejaVuSans-20" x="399.195312"/>
      <use xlink:href="#DejaVuSans-6f" x="430.982422"/>
      <use xlink:href="#DejaVuSans-66" x="492.164062"/>
      <use xlink:href="#DejaVuSans-20" x="527.369141"/>
      <use xlink:href="#DejaVuSans-63" x="559.15625"/>
      <use xlink:href="#DejaVuSans-65" x="614.136719"/>
      <use xlink:href="#DejaVuSans-6c" x="675.660156"/>
      <use xlink:href="#DejaVuSans-6c" x="703.443359"/>
      <use xlink:href="#DejaVuSans-73" x="731.226562"/>
     </g>
    </g>
   </g>
   <g id="line2d_47">
    <path d="M 65.50679 548.521875 
L 70.313843 548.521875 
L 75.120897 548.521875 
L 79.92795 548.521875 
L 84.735004 548.521875 
L 89.542057 548.521875 
L 94.349111 548.521875 
L 99.156164 548.521875 
L 103.963218 548.521874 
L 108.770271 548.521864 
L 113.577325 548.521738 
L 118.384378 548.52055 
L 123.191432 548.511705 
L 127.998485 548.459631 
L 132.805539 548.216525 
L 137.612592 547.314802 
L 142.419646 544.655197 
L 147.226699 538.424543 
L 152.033753 526.878432 
L 156.840806 510.10325 
L 161.64786 491.350143 
L 166.454913 475.986003 
L 171.261967 468.383426 
L 176.06902 469.607336 
L 180.876074 477.665526 
L 185.683127 489.229635 
L 190.49018 501.218815 
L 195.297234 511.701743 
L 200.104287 520.030903 
L 204.911341 526.384616 
L 209.718394 531.181718 
L 214.525448 534.739252 
L 219.332501 537.294215 
L 224.139555 539.148751 
L 228.946608 540.549822 
L 233.753662 541.488226 
L 238.560715 541.914066 
L 243.367769 542.099857 
L 248.174822 542.493092 
L 252.981876 543.281594 
L 257.788929 544.348169 
L 262.595983 545.51761 
L 267.403036 546.633175 
L 272.21009 547.526707 
L 277.017143 548.096374 
L 281.824197 548.377143 
L 286.63125 548.483126 
L 291.438304 548.513753 
L 296.245357 548.520546 
L 301.052411 548.521705 
L 305.859464 548.521858 
L 310.666518 548.521874 
L 315.473571 548.521875 
L 320.280625 548.521875 
L 325.087678 548.521875 
L 329.894732 548.521875 
L 334.701785 548.521875 
L 339.508839 548.521875 
L 344.315892 548.521875 
L 349.122946 548.521875 
L 353.929999 548.521875 
L 358.737053 548.521875 
L 363.544106 548.521875 
L 368.35116 548.521875 
L 373.158213 548.521875 
L 377.965267 548.521875 
L 382.77232 548.521875 
L 387.579374 548.521875 
L 392.386427 548.521875 
L 397.193481 548.521875 
L 402.000534 548.521875 
L 406.807588 548.521875 
L 411.614641 548.521875 
L 416.421695 548.521875 
L 421.228748 548.521875 
L 426.035801 548.521875 
L 430.842855 548.521875 
L 435.649908 548.521875 
L 440.456962 548.521875 
L 445.264015 548.521875 
L 450.071069 548.521875 
L 454.878122 548.521875 
L 459.685176 548.521875 
L 464.492229 548.521875 
L 469.299283 548.521875 
L 474.106336 548.521875 
L 478.91339 548.521875 
L 483.720443 548.521875 
L 488.527497 548.521875 
L 493.33455 548.521875 
L 498.141604 548.521875 
L 502.948657 548.521875 
L 507.755711 548.521875 
L 512.562764 548.521875 
L 517.369818 548.521875 
L 522.176871 548.521875 
L 526.983925 548.521875 
L 531.790978 548.521875 
L 536.598032 548.521875 
L 541.405085 548.521875 
" clip-path="url(#p06546cb258)" style="fill: none; stroke: #1f77b4; stroke-width: 1.5; stroke-linecap: square"/>
   </g>
   <g id="line2d_48">
    <path d="M 65.50679 548.521875 
L 70.313843 548.521875 
L 75.120897 548.521875 
L 79.92795 548.521875 
L 84.735004 548.521875 
L 89.542057 548.521875 
L 94.349111 548.521875 
L 99.156164 548.521875 
L 103.963218 548.521875 
L 108.770271 548.521875 
L 113.577325 548.521875 
L 118.384378 548.521875 
L 123.191432 548.521875 
L 127.998485 548.521875 
L 132.805539 548.521875 
L 137.612592 548.521873 
L 142.419646 548.521841 
L 147.226699 548.521502 
L 152.033753 548.518737 
L 156.840806 548.501607 
L 161.64786 548.421096 
L 166.454913 548.13444 
L 171.261967 547.362503 
L 176.06902 545.791288 
L 180.876074 543.362334 
L 185.683127 540.435812 
L 190.49018 537.435947 
L 195.297234 534.309206 
L 200.104287 530.63218 
L 204.911341 526.303391 
L 209.718394 521.707471 
L 214.525448 517.090931 
L 219.332501 512.405597 
L 224.139555 507.977925 
L 228.946608 504.377445 
L 233.753662 501.19916 
L 238.560715 497.17625 
L 243.367769 492.294993 
L 248.174822 488.887097 
L 252.981876 489.78457 
L 257.788929 495.81313 
L 262.595983 505.402359 
L 267.403036 515.965578 
L 272.21009 525.329628 
L 277.017143 532.49414 
L 281.824197 537.584436 
L 286.63125 541.200038 
L 291.438304 543.842597 
L 296.245357 545.775178 
L 301.052411 547.105971 
L 305.859464 547.908464 
L 310.666518 548.306368 
L 315.473571 548.461985 
L 320.280625 548.508916 
L 325.087678 548.519712 
L 329.894732 548.521598 
L 334.701785 548.521848 
L 339.508839 548.521873 
L 344.315892 548.521875 
L 349.122946 548.521875 
L 353.929999 548.521875 
L 358.737053 548.521875 
L 363.544106 548.521875 
L 368.35116 548.521875 
L 373.158213 548.521875 
L 377.965267 548.521875 
L 382.77232 548.521875 
L 387.579374 548.521875 
L 392.386427 548.521875 
L 397.193481 548.521875 
L 402.000534 548.521875 
L 406.807588 548.521875 
L 411.614641 548.521875 
L 416.421695 548.521875 
L 421.228748 548.521875 
L 426.035801 548.521875 
L 430.842855 548.521875 
L 435.649908 548.521875 
L 440.456962 548.521875 
L 445.264015 548.521875 
L 450.071069 548.521875 
L 454.878122 548.521875 
L 459.685176 548.521875 
L 464.492229 548.521875 
L 469.299283 548.521875 
L 474.106336 548.521875 
L 478.91339 548.521875 
L 483.720443 548.521875 
L 488.527497 548.521875 
L 493.33455 548.521875 
L 498.141604 548.521875 
L 502.948657 548.521875 
L 507.755711 548.521875 
L 512.562764 548.521875 
L 517.369818 548.521875 
L 522.176871 548.521875 
L 526.983925 548.521875 
L 531.790978 548.521875 
L 536.598032 548.521875 
L 541.405085 548.521875 
" clip-path="url(#p06546cb258)" style="fill: none; stroke: #ff7f0e; stroke-width: 1.5; stroke-linecap: square"/>
   </g>
   <g id="patch_139">
    <path d="M 41.711875 548.521875 
L 41.711875 407.090417 
" style="fill: none; stroke: #000000; stroke-width: 0.8; stroke-linejoin: miter; stroke-linecap: square"/>
   </g>
   <g id="patch_140">
    <path d="M 565.2 548.521875 
L 565.2 407.090417 
" style="fill: none; stroke: #000000; stroke-width: 0.8; stroke-linejoin: miter; stroke-linecap: square"/>
   </g>
   <g id="patch_141">
    <path d="M 41.711875 548.521875 
L 565.2 548.521875 
" style="fill: none; stroke: #000000; stroke-width: 0.8; stroke-linejoin: miter; stroke-linecap: square"/>
   </g>
   <g id="patch_142">
    <path d="M 41.711875 407.090417 
L 565.2 407.090417 
" style="fill: none; stroke: #000000; stroke-width: 0.8; stroke-linejoin: miter; stroke-linecap: square"/>
   </g>
   <g id="text_34">
    <!-- jasp cells -->
    <g transform="translate(271.214375 401.090417)scale(0.14 -0.14)">
     <defs>
      <path id="DejaVuSans-6a" d="M 603 3500 
L 1178 3500 
L 1178 -63 
Q 1178 -731 923 -1031 
Q 669 -1331 103 -1331 
L -116 -1331 
L -116 -844 
L 38 -844 
Q 366 -844 484 -692 
Q 603 -541 603 -63 
L 603 3500 
z
M 603 4863 
L 1178 4863 
L 1178 4134 
L 603 4134 
L 603 4863 
z
" transform="scale(0.015625)"/>
      <path id="DejaVuSans-70" d="M 1159 525 
L 1159 -1331 
L 581 -1331 
L 581 3500 
L 1159 3500 
L 1159 2969 
Q 1341 3281 1617 3432 
Q 1894 3584 2278 3584 
Q 2916 3584 3314 3078 
Q 3713 2572 3713 1747 
Q 3713 922 3314 415 
Q 2916 -91 2278 -91 
Q 1894 -91 1617 61 
Q 1341 213 1159 525 
z
M 3116 1747 
Q 3116 2381 2855 2742 
Q 2594 3103 2138 3103 
Q 1681 3103 1420 2742 
Q 1159 2381 1159 1747 
Q 1159 1113 1420 752 
Q 1681 391 2138 391 
Q 2594 391 2855 752 
Q 3116 1113 3116 1747 
z
" transform="scale(0.015625)"/>
     </defs>
     <use xlink:href="#DejaVuSans-6a"/>
     <use xlink:href="#DejaVuSans-61" x="27.783203"/>
     <use xlink:href="#DejaVuSans-73" x="89.0625"/>
     <use xlink:href="#DejaVuSans-70" x="141.162109"/>
     <use xlink:href="#DejaVuSans-20" x="204.638672"/>
     <use xlink:href="#DejaVuSans-63" x="236.425781"/>
     <use xlink:href="#DejaVuSans-65" x="291.40625"/>
     <use xlink:href="#DejaVuSans-6c" x="352.929688"/>
     <use xlink:href="#DejaVuSans-6c" x="380.712891"/>
     <use xlink:href="#DejaVuSans-73" x="408.496094"/>
    </g>
   </g>
   <g id="legend_3">
    <g id="patch_143">
     <path d="M 487.966875 451.917917 
L 556.8 451.917917 
Q 559.2 451.917917 559.2 449.517917 
L 559.2 415.490417 
Q 559.2 413.090417 556.8 413.090417 
L 487.966875 413.090417 
Q 485.566875 413.090417 485.566875 415.490417 
L 485.566875 449.517917 
Q 485.566875 451.917917 487.966875 451.917917 
z
" style="fill: #ffffff; opacity: 0.8; stroke: #cccccc; stroke-linejoin: miter"/>
    </g>
    <g id="patch_144">
     <path d="M 490.366875 427.008542 
L 514.366875 427.008542 
L 514.366875 418.608542 
L 490.366875 418.608542 
z
" style="fill: #1f77b4; opacity: 0.4"/>
    </g>
    <g id="text_35">
     <!-- dlm8 -->
     <g transform="translate(523.966875 427.008542)scale(0.12 -0.12)">
      <use xlink:href="#DejaVuSans-64"/>
      <use xlink:href="#DejaVuSans-6c" x="63.476562"/>
      <use xlink:href="#DejaVuSans-6d" x="91.259766"/>
      <use xlink:href="#DejaVuSans-38" x="188.671875"/>
     </g>
    </g>
    <g id="patch_145">
     <path d="M 490.366875 444.622292 
L 514.366875 444.622292 
L 514.366875 436.222292 
L 490.366875 436.222292 
z
" style="fill: #ff7f0e; opacity: 0.4"/>
    </g>
    <g id="text_36">
     <!-- dunn -->
     <g transform="translate(523.966875 444.622292)scale(0.12 -0.12)">
      <use xlink:href="#DejaVuSans-64"/>
      <use xlink:href="#DejaVuSans-75" x="63.476562"/>
      <use xlink:href="#DejaVuSans-6e" x="126.855469"/>
      <use xlink:href="#DejaVuSans-6e" x="190.234375"/>
     </g>
    </g>
   </g>
  </g>
  <g id="text_37">
   <!-- Histograms of elastic distances to *own* mean cell -->
   <g transform="translate(32.740625 26.716875)scale(0.2 -0.2)">
    <defs>
     <path id="DejaVuSans-48" d="M 628 4666 
L 1259 4666 
L 1259 2753 
L 3553 2753 
L 3553 4666 
L 4184 4666 
L 4184 0 
L 3553 0 
L 3553 2222 
L 1259 2222 
L 1259 0 
L 628 0 
L 628 4666 
z
" transform="scale(0.015625)"/>
     <path id="DejaVuSans-67" d="M 2906 1791 
Q 2906 2416 2648 2759 
Q 2391 3103 1925 3103 
Q 1463 3103 1205 2759 
Q 947 2416 947 1791 
Q 947 1169 1205 825 
Q 1463 481 1925 481 
Q 2391 481 2648 825 
Q 2906 1169 2906 1791 
z
M 3481 434 
Q 3481 -459 3084 -895 
Q 2688 -1331 1869 -1331 
Q 1566 -1331 1297 -1286 
Q 1028 -1241 775 -1147 
L 775 -588 
Q 1028 -725 1275 -790 
Q 1522 -856 1778 -856 
Q 2344 -856 2625 -561 
Q 2906 -266 2906 331 
L 2906 616 
Q 2728 306 2450 153 
Q 2172 0 1784 0 
Q 1141 0 747 490 
Q 353 981 353 1791 
Q 353 2603 747 3093 
Q 1141 3584 1784 3584 
Q 2172 3584 2450 3431 
Q 2728 3278 2906 2969 
L 2906 3500 
L 3481 3500 
L 3481 434 
z
" transform="scale(0.015625)"/>
     <path id="DejaVuSans-2a" d="M 3009 3897 
L 1888 3291 
L 3009 2681 
L 2828 2375 
L 1778 3009 
L 1778 1831 
L 1422 1831 
L 1422 3009 
L 372 2375 
L 191 2681 
L 1313 3291 
L 191 3897 
L 372 4206 
L 1422 3572 
L 1422 4750 
L 1778 4750 
L 1778 3572 
L 2828 4206 
L 3009 3897 
z
" transform="scale(0.015625)"/>
     <path id="DejaVuSans-77" d="M 269 3500 
L 844 3500 
L 1563 769 
L 2278 3500 
L 2956 3500 
L 3675 769 
L 4391 3500 
L 4966 3500 
L 4050 0 
L 3372 0 
L 2619 2869 
L 1863 0 
L 1184 0 
L 269 3500 
z
" transform="scale(0.015625)"/>
    </defs>
    <use xlink:href="#DejaVuSans-48"/>
    <use xlink:href="#DejaVuSans-69" x="75.195312"/>
    <use xlink:href="#DejaVuSans-73" x="102.978516"/>
    <use xlink:href="#DejaVuSans-74" x="155.078125"/>
    <use xlink:href="#DejaVuSans-6f" x="194.287109"/>
    <use xlink:href="#DejaVuSans-67" x="255.46875"/>
    <use xlink:href="#DejaVuSans-72" x="318.945312"/>
    <use xlink:href="#DejaVuSans-61" x="360.058594"/>
    <use xlink:href="#DejaVuSans-6d" x="421.337891"/>
    <use xlink:href="#DejaVuSans-73" x="518.75"/>
    <use xlink:href="#DejaVuSans-20" x="570.849609"/>
    <use xlink:href="#DejaVuSans-6f" x="602.636719"/>
    <use xlink:href="#DejaVuSans-66" x="663.818359"/>
    <use xlink:href="#DejaVuSans-20" x="699.023438"/>
    <use xlink:href="#DejaVuSans-65" x="730.810547"/>
    <use xlink:href="#DejaVuSans-6c" x="792.333984"/>
    <use xlink:href="#DejaVuSans-61" x="820.117188"/>
    <use xlink:href="#DejaVuSans-73" x="881.396484"/>
    <use xlink:href="#DejaVuSans-74" x="933.496094"/>
    <use xlink:href="#DejaVuSans-69" x="972.705078"/>
    <use xlink:href="#DejaVuSans-63" x="1000.488281"/>
    <use xlink:href="#DejaVuSans-20" x="1055.46875"/>
    <use xlink:href="#DejaVuSans-64" x="1087.255859"/>
    <use xlink:href="#DejaVuSans-69" x="1150.732422"/>
    <use xlink:href="#DejaVuSans-73" x="1178.515625"/>
    <use xlink:href="#DejaVuSans-74" x="1230.615234"/>
    <use xlink:href="#DejaVuSans-61" x="1269.824219"/>
    <use xlink:href="#DejaVuSans-6e" x="1331.103516"/>
    <use xlink:href="#DejaVuSans-63" x="1394.482422"/>
    <use xlink:href="#DejaVuSans-65" x="1449.462891"/>
    <use xlink:href="#DejaVuSans-73" x="1510.986328"/>
    <use xlink:href="#DejaVuSans-20" x="1563.085938"/>
    <use xlink:href="#DejaVuSans-74" x="1594.873047"/>
    <use xlink:href="#DejaVuSans-6f" x="1634.082031"/>
    <use xlink:href="#DejaVuSans-20" x="1695.263672"/>
    <use xlink:href="#DejaVuSans-2a" x="1727.050781"/>
    <use xlink:href="#DejaVuSans-6f" x="1777.050781"/>
    <use xlink:href="#DejaVuSans-77" x="1838.232422"/>
    <use xlink:href="#DejaVuSans-6e" x="1920.019531"/>
    <use xlink:href="#DejaVuSans-2a" x="1983.398438"/>
    <use xlink:href="#DejaVuSans-20" x="2033.398438"/>
    <use xlink:href="#DejaVuSans-6d" x="2065.185547"/>
    <use xlink:href="#DejaVuSans-65" x="2162.597656"/>
    <use xlink:href="#DejaVuSans-61" x="2224.121094"/>
    <use xlink:href="#DejaVuSans-6e" x="2285.400391"/>
    <use xlink:href="#DejaVuSans-20" x="2348.779297"/>
    <use xlink:href="#DejaVuSans-63" x="2380.566406"/>
    <use xlink:href="#DejaVuSans-65" x="2435.546875"/>
    <use xlink:href="#DejaVuSans-6c" x="2497.070312"/>
    <use xlink:href="#DejaVuSans-6c" x="2524.853516"/>
   </g>
  </g>
 </g>
 <defs>
  <clipPath id="p6e7b11d1b1">
   <rect x="41.711875" y="57.594062" width="523.488125" height="141.431458"/>
  </clipPath>
  <clipPath id="p9648309d37">
   <rect x="41.711875" y="232.34224" width="523.488125" height="141.431458"/>
  </clipPath>
  <clipPath id="p06546cb258">
   <rect x="41.711875" y="407.090417" width="523.488125" height="141.431458"/>
  </clipPath>
 </defs>
</svg>
