<?xml version="1.0" encoding="utf-8" standalone="no"?>
<!DOCTYPE svg PUBLIC "-//W3C//DTD SVG 1.1//EN"
  "http://www.w3.org/Graphics/SVG/1.1/DTD/svg11.dtd">
<svg xmlns:xlink="http://www.w3.org/1999/xlink" width="1080pt" height="360pt" viewBox="0 0 1080 360" xmlns="http://www.w3.org/2000/svg" version="1.1">
 <metadata>
  <rdf:RDF xmlns:dc="http://purl.org/dc/elements/1.1/" xmlns:cc="http://creativecommons.org/ns#" xmlns:rdf="http://www.w3.org/1999/02/22-rdf-syntax-ns#">
   <cc:Work>
    <dc:type rdf:resource="http://purl.org/dc/dcmitype/StillImage"/>
    <dc:date>2022-12-26T16:43:16.358984</dc:date>
    <dc:format>image/svg+xml</dc:format>
    <dc:creator>
     <cc:Agent>
      <dc:title>Matplotlib v3.5.1, https://matplotlib.org/</dc:title>
     </cc:Agent>
    </dc:creator>
   </cc:Work>
  </rdf:RDF>
 </metadata>
 <defs>
  <style type="text/css">*{stroke-linejoin: round; stroke-linecap: butt}</style>
 </defs>
 <g id="figure_1">
  <g id="patch_1">
   <path d="M 0 360 
L 1080 360 
L 1080 0 
L 0 0 
L 0 360 
z
" style="fill: none"/>
  </g>
  <g id="axes_1">
   <g id="line2d_1">
    <path d="M 313.474484 49.819329 
L 313.474484 56.535208 
L 306.758605 63.251087 
L 300.042726 63.251087 
L 296.684787 59.893148 
L 293.326847 63.251087 
L 289.968908 63.251087 
L 286.610968 66.609027 
L 279.895089 66.609027 
L 273.17921 73.324906 
L 266.463331 73.324906 
L 263.105392 69.966966 
L 263.105392 66.609027 
L 263.105392 69.966966 
L 246.315694 86.756664 
L 242.957755 86.756664 
L 242.957755 90.114603 
L 239.599815 93.472543 
L 239.599815 96.830482 
L 236.241876 100.188422 
L 229.525997 100.188422 
L 222.810118 106.904301 
L 216.094239 106.904301 
L 209.37836 100.188422 
L 209.37836 96.830482 
L 199.304541 96.830482 
L 195.946602 93.472543 
L 189.230723 100.188422 
L 185.872783 100.188422 
L 182.514844 103.546361 
L 182.514844 113.62018 
L 189.230723 120.336059 
L 189.230723 127.051938 
L 185.872783 130.409877 
L 185.872783 137.125756 
L 179.156904 143.841635 
L 179.156904 147.199575 
L 169.083086 157.273393 
L 165.725146 157.273393 
L 159.009267 163.989272 
L 155.651328 163.989272 
L 152.293388 167.347212 
L 155.651328 170.705151 
L 159.009267 170.705151 
L 165.725146 177.42103 
L 165.725146 180.77897 
L 175.798965 190.852788 
L 179.156904 187.494849 
L 189.230723 187.494849 
L 192.588662 190.852788 
L 192.588662 194.210728 
L 195.946602 197.568667 
L 199.304541 197.568667 
L 206.02042 204.284546 
L 206.02042 207.642486 
L 209.37836 211.000425 
L 212.736299 207.642486 
L 212.736299 204.284546 
L 222.810118 194.210728 
L 226.168057 194.210728 
L 226.168057 187.494849 
L 229.525997 184.136909 
L 236.241876 184.136909 
L 239.599815 187.494849 
L 239.599815 194.210728 
L 236.241876 197.568667 
L 232.883936 197.568667 
L 232.883936 204.284546 
L 236.241876 207.642486 
L 236.241876 214.358365 
L 253.031573 214.358365 
L 259.747452 221.074244 
L 259.747452 231.148062 
L 263.105392 234.506002 
L 263.105392 241.221881 
L 259.747452 244.57982 
L 259.747452 247.93776 
L 256.389513 251.295699 
L 256.389513 254.653639 
L 253.031573 258.011578 
L 253.031573 264.727457 
L 249.673634 268.085397 
L 253.031573 271.443336 
L 256.389513 271.443336 
L 263.105392 278.159215 
L 266.463331 278.159215 
L 269.821271 281.517155 
L 273.17921 278.159215 
L 279.895089 278.159215 
L 289.968908 288.233034 
L 289.968908 298.306852 
L 286.610968 301.664792 
L 286.610968 305.022731 
L 300.042726 305.022731 
L 303.400666 301.664792 
L 323.548303 301.664792 
L 330.264182 308.380671 
L 336.980061 301.664792 
L 336.980061 298.306852 
L 340.338 294.948913 
L 347.053879 294.948913 
L 353.769758 301.664792 
L 357.127698 301.664792 
L 357.127698 288.233034 
L 360.485637 284.875094 
L 360.485637 278.159215 
L 363.843577 274.801276 
L 363.843577 271.443336 
L 373.917395 261.369518 
L 390.707093 261.369518 
L 394.065032 258.011578 
L 427.644428 258.011578 
L 434.360307 251.295699 
L 444.434125 251.295699 
L 454.507944 241.221881 
L 457.865883 241.221881 
L 461.223823 237.863941 
L 461.223823 234.506002 
L 471.297641 224.432183 
L 474.655581 224.432183 
L 478.01352 221.074244 
L 498.161157 221.074244 
L 498.161157 217.716304 
L 491.445278 211.000425 
L 491.445278 197.568667 
L 488.087339 194.210728 
L 488.087339 187.494849 
L 484.729399 184.136909 
L 484.729399 174.063091 
L 494.803218 163.989272 
L 494.803218 160.631333 
L 491.445278 157.273393 
L 491.445278 153.915454 
L 488.087339 150.557514 
L 488.087339 127.051938 
L 481.37146 127.051938 
L 474.655581 120.336059 
L 471.297641 120.336059 
L 467.939702 123.693998 
L 464.581762 123.693998 
L 461.223823 127.051938 
L 447.792065 127.051938 
L 444.434125 123.693998 
L 444.434125 110.26224 
L 441.076186 106.904301 
L 437.718246 106.904301 
L 431.002367 100.188422 
L 431.002367 96.830482 
L 427.644428 93.472543 
L 424.286488 93.472543 
L 420.928549 90.114603 
L 414.21267 90.114603 
L 410.85473 86.756664 
L 407.49679 86.756664 
L 404.138851 83.398724 
L 404.138851 76.682845 
L 400.780911 76.682845 
L 397.422972 73.324906 
L 397.422972 63.251087 
L 390.707093 63.251087 
L 387.349153 59.893148 
L 336.980061 59.893148 
L 333.622121 56.535208 
L 333.622121 53.177269 
L 326.906242 53.177269 
L 323.548303 49.819329 
L 323.548303 49.819329 
" clip-path="url(#p877e0970ca)" style="fill: none; stroke: #1f77b4; stroke-width: 1.5; stroke-linecap: square"/>
   </g>
   <g id="text_1">
    <!-- Original curve (166 points) -->
    <g transform="translate(244.654773 37.2)scale(0.12 -0.12)">
     <defs>
      <path id="DejaVuSans-4f" d="M 2522 4238 
Q 1834 4238 1429 3725 
Q 1025 3213 1025 2328 
Q 1025 1447 1429 934 
Q 1834 422 2522 422 
Q 3209 422 3611 934 
Q 4013 1447 4013 2328 
Q 4013 3213 3611 3725 
Q 3209 4238 2522 4238 
z
M 2522 4750 
Q 3503 4750 4090 4092 
Q 4678 3434 4678 2328 
Q 4678 1225 4090 567 
Q 3503 -91 2522 -91 
Q 1538 -91 948 565 
Q 359 1222 359 2328 
Q 359 3434 948 4092 
Q 1538 4750 2522 4750 
z
" transform="scale(0.015625)"/>
      <path id="DejaVuSans-72" d="M 2631 2963 
Q 2534 3019 2420 3045 
Q 2306 3072 2169 3072 
Q 1681 3072 1420 2755 
Q 1159 2438 1159 1844 
L 1159 0 
L 581 0 
L 581 3500 
L 1159 3500 
L 1159 2956 
Q 1341 3275 1631 3429 
Q 1922 3584 2338 3584 
Q 2397 3584 2469 3576 
Q 2541 3569 2628 3553 
L 2631 2963 
z
" transform="scale(0.015625)"/>
      <path id="DejaVuSans-69" d="M 603 3500 
L 1178 3500 
L 1178 0 
L 603 0 
L 603 3500 
z
M 603 4863 
L 1178 4863 
L 1178 4134 
L 603 4134 
L 603 4863 
z
" transform="scale(0.015625)"/>
      <path id="DejaVuSans-67" d="M 2906 1791 
Q 2906 2416 2648 2759 
Q 2391 3103 1925 3103 
Q 1463 3103 1205 2759 
Q 947 2416 947 1791 
Q 947 1169 1205 825 
Q 1463 481 1925 481 
Q 2391 481 2648 825 
Q 2906 1169 2906 1791 
z
M 3481 434 
Q 3481 -459 3084 -895 
Q 2688 -1331 1869 -1331 
Q 1566 -1331 1297 -1286 
Q 1028 -1241 775 -1147 
L 775 -588 
Q 1028 -725 1275 -790 
Q 1522 -856 1778 -856 
Q 2344 -856 2625 -561 
Q 2906 -266 2906 331 
L 2906 616 
Q 2728 306 2450 153 
Q 2172 0 1784 0 
Q 1141 0 747 490 
Q 353 981 353 1791 
Q 353 2603 747 3093 
Q 1141 3584 1784 3584 
Q 2172 3584 2450 3431 
Q 2728 3278 2906 2969 
L 2906 3500 
L 3481 3500 
L 3481 434 
z
" transform="scale(0.015625)"/>
      <path id="DejaVuSans-6e" d="M 3513 2113 
L 3513 0 
L 2938 0 
L 2938 2094 
Q 2938 2591 2744 2837 
Q 2550 3084 2163 3084 
Q 1697 3084 1428 2787 
Q 1159 2491 1159 1978 
L 1159 0 
L 581 0 
L 581 3500 
L 1159 3500 
L 1159 2956 
Q 1366 3272 1645 3428 
Q 1925 3584 2291 3584 
Q 2894 3584 3203 3211 
Q 3513 2838 3513 2113 
z
" transform="scale(0.015625)"/>
      <path id="DejaVuSans-61" d="M 2194 1759 
Q 1497 1759 1228 1600 
Q 959 1441 959 1056 
Q 959 750 1161 570 
Q 1363 391 1709 391 
Q 2188 391 2477 730 
Q 2766 1069 2766 1631 
L 2766 1759 
L 2194 1759 
z
M 3341 1997 
L 3341 0 
L 2766 0 
L 2766 531 
Q 2569 213 2275 61 
Q 1981 -91 1556 -91 
Q 1019 -91 701 211 
Q 384 513 384 1019 
Q 384 1609 779 1909 
Q 1175 2209 1959 2209 
L 2766 2209 
L 2766 2266 
Q 2766 2663 2505 2880 
Q 2244 3097 1772 3097 
Q 1472 3097 1187 3025 
Q 903 2953 641 2809 
L 641 3341 
Q 956 3463 1253 3523 
Q 1550 3584 1831 3584 
Q 2591 3584 2966 3190 
Q 3341 2797 3341 1997 
z
" transform="scale(0.015625)"/>
      <path id="DejaVuSans-6c" d="M 603 4863 
L 1178 4863 
L 1178 0 
L 603 0 
L 603 4863 
z
" transform="scale(0.015625)"/>
      <path id="DejaVuSans-20" transform="scale(0.015625)"/>
      <path id="DejaVuSans-63" d="M 3122 3366 
L 3122 2828 
Q 2878 2963 2633 3030 
Q 2388 3097 2138 3097 
Q 1578 3097 1268 2742 
Q 959 2388 959 1747 
Q 959 1106 1268 751 
Q 1578 397 2138 397 
Q 2388 397 2633 464 
Q 2878 531 3122 666 
L 3122 134 
Q 2881 22 2623 -34 
Q 2366 -91 2075 -91 
Q 1284 -91 818 406 
Q 353 903 353 1747 
Q 353 2603 823 3093 
Q 1294 3584 2113 3584 
Q 2378 3584 2631 3529 
Q 2884 3475 3122 3366 
z
" transform="scale(0.015625)"/>
      <path id="DejaVuSans-75" d="M 544 1381 
L 544 3500 
L 1119 3500 
L 1119 1403 
Q 1119 906 1312 657 
Q 1506 409 1894 409 
Q 2359 409 2629 706 
Q 2900 1003 2900 1516 
L 2900 3500 
L 3475 3500 
L 3475 0 
L 2900 0 
L 2900 538 
Q 2691 219 2414 64 
Q 2138 -91 1772 -91 
Q 1169 -91 856 284 
Q 544 659 544 1381 
z
M 1991 3584 
L 1991 3584 
z
" transform="scale(0.015625)"/>
      <path id="DejaVuSans-76" d="M 191 3500 
L 800 3500 
L 1894 563 
L 2988 3500 
L 3597 3500 
L 2284 0 
L 1503 0 
L 191 3500 
z
" transform="scale(0.015625)"/>
      <path id="DejaVuSans-65" d="M 3597 1894 
L 3597 1613 
L 953 1613 
Q 991 1019 1311 708 
Q 1631 397 2203 397 
Q 2534 397 2845 478 
Q 3156 559 3463 722 
L 3463 178 
Q 3153 47 2828 -22 
Q 2503 -91 2169 -91 
Q 1331 -91 842 396 
Q 353 884 353 1716 
Q 353 2575 817 3079 
Q 1281 3584 2069 3584 
Q 2775 3584 3186 3129 
Q 3597 2675 3597 1894 
z
M 3022 2063 
Q 3016 2534 2758 2815 
Q 2500 3097 2075 3097 
Q 1594 3097 1305 2825 
Q 1016 2553 972 2059 
L 3022 2063 
z
" transform="scale(0.015625)"/>
      <path id="DejaVuSans-28" d="M 1984 4856 
Q 1566 4138 1362 3434 
Q 1159 2731 1159 2009 
Q 1159 1288 1364 580 
Q 1569 -128 1984 -844 
L 1484 -844 
Q 1016 -109 783 600 
Q 550 1309 550 2009 
Q 550 2706 781 3412 
Q 1013 4119 1484 4856 
L 1984 4856 
z
" transform="scale(0.015625)"/>
      <path id="DejaVuSans-31" d="M 794 531 
L 1825 531 
L 1825 4091 
L 703 3866 
L 703 4441 
L 1819 4666 
L 2450 4666 
L 2450 531 
L 3481 531 
L 3481 0 
L 794 0 
L 794 531 
z
" transform="scale(0.015625)"/>
      <path id="DejaVuSans-36" d="M 2113 2584 
Q 1688 2584 1439 2293 
Q 1191 2003 1191 1497 
Q 1191 994 1439 701 
Q 1688 409 2113 409 
Q 2538 409 2786 701 
Q 3034 994 3034 1497 
Q 3034 2003 2786 2293 
Q 2538 2584 2113 2584 
z
M 3366 4563 
L 3366 3988 
Q 3128 4100 2886 4159 
Q 2644 4219 2406 4219 
Q 1781 4219 1451 3797 
Q 1122 3375 1075 2522 
Q 1259 2794 1537 2939 
Q 1816 3084 2150 3084 
Q 2853 3084 3261 2657 
Q 3669 2231 3669 1497 
Q 3669 778 3244 343 
Q 2819 -91 2113 -91 
Q 1303 -91 875 529 
Q 447 1150 447 2328 
Q 447 3434 972 4092 
Q 1497 4750 2381 4750 
Q 2619 4750 2861 4703 
Q 3103 4656 3366 4563 
z
" transform="scale(0.015625)"/>
      <path id="DejaVuSans-70" d="M 1159 525 
L 1159 -1331 
L 581 -1331 
L 581 3500 
L 1159 3500 
L 1159 2969 
Q 1341 3281 1617 3432 
Q 1894 3584 2278 3584 
Q 2916 3584 3314 3078 
Q 3713 2572 3713 1747 
Q 3713 922 3314 415 
Q 2916 -91 2278 -91 
Q 1894 -91 1617 61 
Q 1341 213 1159 525 
z
M 3116 1747 
Q 3116 2381 2855 2742 
Q 2594 3103 2138 3103 
Q 1681 3103 1420 2742 
Q 1159 2381 1159 1747 
Q 1159 1113 1420 752 
Q 1681 391 2138 391 
Q 2594 391 2855 752 
Q 3116 1113 3116 1747 
z
" transform="scale(0.015625)"/>
      <path id="DejaVuSans-6f" d="M 1959 3097 
Q 1497 3097 1228 2736 
Q 959 2375 959 1747 
Q 959 1119 1226 758 
Q 1494 397 1959 397 
Q 2419 397 2687 759 
Q 2956 1122 2956 1747 
Q 2956 2369 2687 2733 
Q 2419 3097 1959 3097 
z
M 1959 3584 
Q 2709 3584 3137 3096 
Q 3566 2609 3566 1747 
Q 3566 888 3137 398 
Q 2709 -91 1959 -91 
Q 1206 -91 779 398 
Q 353 888 353 1747 
Q 353 2609 779 3096 
Q 1206 3584 1959 3584 
z
" transform="scale(0.015625)"/>
      <path id="DejaVuSans-74" d="M 1172 4494 
L 1172 3500 
L 2356 3500 
L 2356 3053 
L 1172 3053 
L 1172 1153 
Q 1172 725 1289 603 
Q 1406 481 1766 481 
L 2356 481 
L 2356 0 
L 1766 0 
Q 1100 0 847 248 
Q 594 497 594 1153 
L 594 3053 
L 172 3053 
L 172 3500 
L 594 3500 
L 594 4494 
L 1172 4494 
z
" transform="scale(0.015625)"/>
      <path id="DejaVuSans-73" d="M 2834 3397 
L 2834 2853 
Q 2591 2978 2328 3040 
Q 2066 3103 1784 3103 
Q 1356 3103 1142 2972 
Q 928 2841 928 2578 
Q 928 2378 1081 2264 
Q 1234 2150 1697 2047 
L 1894 2003 
Q 2506 1872 2764 1633 
Q 3022 1394 3022 966 
Q 3022 478 2636 193 
Q 2250 -91 1575 -91 
Q 1294 -91 989 -36 
Q 684 19 347 128 
L 347 722 
Q 666 556 975 473 
Q 1284 391 1588 391 
Q 1994 391 2212 530 
Q 2431 669 2431 922 
Q 2431 1156 2273 1281 
Q 2116 1406 1581 1522 
L 1381 1569 
Q 847 1681 609 1914 
Q 372 2147 372 2553 
Q 372 3047 722 3315 
Q 1072 3584 1716 3584 
Q 2034 3584 2315 3537 
Q 2597 3491 2834 3397 
z
" transform="scale(0.015625)"/>
      <path id="DejaVuSans-29" d="M 513 4856 
L 1013 4856 
Q 1481 4119 1714 3412 
Q 1947 2706 1947 2009 
Q 1947 1309 1714 600 
Q 1481 -109 1013 -844 
L 513 -844 
Q 928 -128 1133 580 
Q 1338 1288 1338 2009 
Q 1338 2731 1133 3434 
Q 928 4138 513 4856 
z
" transform="scale(0.015625)"/>
     </defs>
     <use xlink:href="#DejaVuSans-4f"/>
     <use xlink:href="#DejaVuSans-72" x="78.710938"/>
     <use xlink:href="#DejaVuSans-69" x="119.824219"/>
     <use xlink:href="#DejaVuSans-67" x="147.607422"/>
     <use xlink:href="#DejaVuSans-69" x="211.083984"/>
     <use xlink:href="#DejaVuSans-6e" x="238.867188"/>
     <use xlink:href="#DejaVuSans-61" x="302.246094"/>
     <use xlink:href="#DejaVuSans-6c" x="363.525391"/>
     <use xlink:href="#DejaVuSans-20" x="391.308594"/>
     <use xlink:href="#DejaVuSans-63" x="423.095703"/>
     <use xlink:href="#DejaVuSans-75" x="478.076172"/>
     <use xlink:href="#DejaVuSans-72" x="541.455078"/>
     <use xlink:href="#DejaVuSans-76" x="582.568359"/>
     <use xlink:href="#DejaVuSans-65" x="641.748047"/>
     <use xlink:href="#DejaVuSans-20" x="703.271484"/>
     <use xlink:href="#DejaVuSans-28" x="735.058594"/>
     <use xlink:href="#DejaVuSans-31" x="774.072266"/>
     <use xlink:href="#DejaVuSans-36" x="837.695312"/>
     <use xlink:href="#DejaVuSans-36" x="901.318359"/>
     <use xlink:href="#DejaVuSans-20" x="964.941406"/>
     <use xlink:href="#DejaVuSans-70" x="996.728516"/>
     <use xlink:href="#DejaVuSans-6f" x="1060.205078"/>
     <use xlink:href="#DejaVuSans-69" x="1121.386719"/>
     <use xlink:href="#DejaVuSans-6e" x="1149.169922"/>
     <use xlink:href="#DejaVuSans-74" x="1212.548828"/>
     <use xlink:href="#DejaVuSans-73" x="1251.757812"/>
     <use xlink:href="#DejaVuSans-29" x="1303.857422"/>
    </g>
   </g>
  </g>
  <g id="axes_2">
   <g id="line2d_2">
    <path d="M 769.426402 50.347094 
L 769.426402 55.9392 
L 764.979858 61.531306 
L 759.387649 63.822018 
L 754.873665 62.744 
L 752.077355 60.958576 
L 749.281456 63.754629 
L 746.485146 63.822018 
L 743.689247 65.978004 
L 739.310143 67.190749 
L 733.717935 69.212008 
L 728.125726 73.928211 
L 722.533517 73.928211 
L 719.602738 71.266936 
L 718.895436 68.470883 
L 718.895436 68.706668 
L 714.17913 75.275683 
L 701.681269 87.403136 
L 698.88537 87.403136 
L 698.683049 89.997073 
L 696.661893 92.793126 
L 695.314318 95.589128 
L 694.438415 98.385181 
L 691.339034 100.87806 
L 685.747237 100.87806 
L 680.155028 105.931157 
L 674.562819 107.615522 
L 668.971022 104.853138 
L 664.995738 100.069546 
L 664.288436 97.509329 
L 655.900329 97.509329 
L 652.430437 95.05017 
L 647.747852 97.91356 
L 643.469497 100.87806 
L 640.673598 101.619185 
L 638.04589 104.75208 
L 638.04589 113.140239 
L 642.829636 119.136576 
L 644.783352 124.728682 
L 643.536938 129.074323 
L 641.414621 132.544112 
L 641.212299 138.136218 
L 635.620502 143.728324 
L 634.677158 146.995997 
L 629.421741 153.295508 
L 623.391992 158.146489 
L 619.98954 159.359234 
L 614.431052 164.883951 
L 611.635153 164.883951 
L 608.838843 167.140994 
L 609.411675 169.937047 
L 612.207574 171.621413 
L 615.542585 172.699431 
L 621.134794 178.291486 
L 621.202234 181.121259 
L 627.771095 188.296621 
L 632.925352 190.216823 
L 637.810259 188.465068 
L 645.255023 188.936689 
L 648.050922 191.732742 
L 648.152083 194.528795 
L 650.2744 197.324848 
L 653.070299 198.571262 
L 656.843261 200.525132 
L 661.627007 205.712955 
L 661.627007 208.509008 
L 664.254716 211.305061 
L 667.050615 209.991258 
L 668.364469 207.195205 
L 671.093339 202.58006 
L 678.807453 195.20253 
L 681.603763 195.20253 
L 681.839394 190.082045 
L 683.82683 186.477529 
L 688.037744 185.096337 
L 692.78777 185.93852 
L 695.314318 189.004078 
L 695.314318 194.596184 
L 692.82149 197.69541 
L 690.025591 198.571262 
L 688.576856 201.266257 
L 689.351598 206.083517 
L 691.945587 209.081686 
L 691.945587 214.673792 
L 704.072937 215.414917 
L 712.494764 219.120542 
L 715.526704 225.992731 
L 716.234006 232.965977 
L 718.895436 235.896757 
L 718.895436 241.488863 
L 716.537488 244.722919 
L 715.526704 247.51892 
L 714.314011 250.314922 
L 712.157973 253.111026 
L 712.090533 255.907028 
L 709.294634 258.703132 
L 708.789242 263.789846 
L 707.071157 267.663969 
L 706.565765 270.459971 
L 709.362075 272.683345 
L 712.157973 272.683345 
L 717.750182 278.275451 
L 721.118913 279.420808 
L 723.914812 281.071453 
L 726.710711 281.71152 
L 730.012413 279.420808 
L 735.60421 279.420808 
L 743.925288 287.606799 
L 745.845284 295.99501 
L 744.262079 301.216502 
L 742.476553 304.012503 
L 744.228359 306.370656 
L 755.412365 306.370656 
L 758.612907 303.70933 
L 771.85179 303.001925 
L 782.564535 306.033763 
L 788.156744 307.852906 
L 793.007519 302.631414 
L 793.007519 299.83531 
L 795.601508 297.039308 
L 800.418563 296.264463 
L 806.010772 299.161522 
L 810.727078 303.001925 
L 813.219906 301.789231 
L 813.219906 290.605019 
L 815.746454 287.000453 
L 816.588637 282.250529 
L 817.969932 278.039616 
L 819.957368 275.243614 
L 820.66467 271.975941 
L 829.052778 263.58773 
L 842.359512 262.577152 
L 848.793904 260.690671 
L 863.414081 259.208421 
L 885.445303 257.726171 
L 891.206113 252.470959 
L 899.59422 252.470959 
L 907.982328 245.295545 
L 912.732354 242.364766 
L 915.528253 241.118352 
L 917.65057 238.322247 
L 917.95364 235.32413 
L 926.341748 226.935971 
L 930.08099 225.52111 
L 932.8773 223.769356 
L 941.568478 222.152379 
L 954.706612 221.546032 
L 954.639171 218.716259 
L 949.046962 213.124205 
L 947.969149 203.018011 
L 946.284784 196.886896 
L 944.600418 192.979156 
L 944.061306 187.926059 
L 941.265407 185.130006 
L 941.231687 176.809236 
L 947.800548 168.421129 
L 951.33788 163.266974 
L 950.293376 160.470921 
L 947.969149 157.674868 
L 947.969149 154.878815 
L 945.274 152.082762 
L 944.600418 136.55291 
L 941.501038 127.827909 
L 935.90924 125.874039 
L 930.721263 121.090447 
L 927.925364 121.090447 
L 925.129054 123.718053 
L 922.333155 124.459178 
L 919.537256 125.941428 
L 914.012488 127.827909 
L 903.838854 127.491015 
L 901.042544 124.695014 
L 900.806914 114.218258 
L 898.819478 108.996714 
L 892.385086 105.931157 
L 887.33199 100.608555 
L 887.33199 97.812502 
L 884.839162 95.016449 
L 882.043263 94.140598 
L 879.246953 92.793126 
L 875.676312 90.771867 
L 870.286013 90.569751 
L 867.490114 87.773698 
L 864.694216 87.403136 
L 861.897906 85.550323 
L 860.382141 81.474188 
L 859.674839 77.296942 
L 856.878529 77.162216 
L 854.08263 74.366163 
L 853.644679 66.853856 
L 850.073627 63.822018 
L 845.694523 62.609273 
L 833.937684 60.453287 
L 792.940079 60.385898 
L 790.14418 57.589845 
L 789.638788 54.793844 
L 786.202617 53.715825 
L 781.756073 52.570469 
L 777.814509 50.347094 
L 777.814509 50.347094 
" clip-path="url(#p52a2e5cd1c)" style="fill: none; stroke: #1f77b4; stroke-width: 1.5; stroke-linecap: square"/>
   </g>
   <g id="text_2">
    <!-- Interpolated curve (200 points) -->
    <g transform="translate(687.918665 37.2)scale(0.12 -0.12)">
     <defs>
      <path id="DejaVuSans-49" d="M 628 4666 
L 1259 4666 
L 1259 0 
L 628 0 
L 628 4666 
z
" transform="scale(0.015625)"/>
      <path id="DejaVuSans-64" d="M 2906 2969 
L 2906 4863 
L 3481 4863 
L 3481 0 
L 2906 0 
L 2906 525 
Q 2725 213 2448 61 
Q 2172 -91 1784 -91 
Q 1150 -91 751 415 
Q 353 922 353 1747 
Q 353 2572 751 3078 
Q 1150 3584 1784 3584 
Q 2172 3584 2448 3432 
Q 2725 3281 2906 2969 
z
M 947 1747 
Q 947 1113 1208 752 
Q 1469 391 1925 391 
Q 2381 391 2643 752 
Q 2906 1113 2906 1747 
Q 2906 2381 2643 2742 
Q 2381 3103 1925 3103 
Q 1469 3103 1208 2742 
Q 947 2381 947 1747 
z
" transform="scale(0.015625)"/>
      <path id="DejaVuSans-32" d="M 1228 531 
L 3431 531 
L 3431 0 
L 469 0 
L 469 531 
Q 828 903 1448 1529 
Q 2069 2156 2228 2338 
Q 2531 2678 2651 2914 
Q 2772 3150 2772 3378 
Q 2772 3750 2511 3984 
Q 2250 4219 1831 4219 
Q 1534 4219 1204 4116 
Q 875 4013 500 3803 
L 500 4441 
Q 881 4594 1212 4672 
Q 1544 4750 1819 4750 
Q 2544 4750 2975 4387 
Q 3406 4025 3406 3419 
Q 3406 3131 3298 2873 
Q 3191 2616 2906 2266 
Q 2828 2175 2409 1742 
Q 1991 1309 1228 531 
z
" transform="scale(0.015625)"/>
      <path id="DejaVuSans-30" d="M 2034 4250 
Q 1547 4250 1301 3770 
Q 1056 3291 1056 2328 
Q 1056 1369 1301 889 
Q 1547 409 2034 409 
Q 2525 409 2770 889 
Q 3016 1369 3016 2328 
Q 3016 3291 2770 3770 
Q 2525 4250 2034 4250 
z
M 2034 4750 
Q 2819 4750 3233 4129 
Q 3647 3509 3647 2328 
Q 3647 1150 3233 529 
Q 2819 -91 2034 -91 
Q 1250 -91 836 529 
Q 422 1150 422 2328 
Q 422 3509 836 4129 
Q 1250 4750 2034 4750 
z
" transform="scale(0.015625)"/>
     </defs>
     <use xlink:href="#DejaVuSans-49"/>
     <use xlink:href="#DejaVuSans-6e" x="29.492188"/>
     <use xlink:href="#DejaVuSans-74" x="92.871094"/>
     <use xlink:href="#DejaVuSans-65" x="132.080078"/>
     <use xlink:href="#DejaVuSans-72" x="193.603516"/>
     <use xlink:href="#DejaVuSans-70" x="234.716797"/>
     <use xlink:href="#DejaVuSans-6f" x="298.193359"/>
     <use xlink:href="#DejaVuSans-6c" x="359.375"/>
     <use xlink:href="#DejaVuSans-61" x="387.158203"/>
     <use xlink:href="#DejaVuSans-74" x="448.4375"/>
     <use xlink:href="#DejaVuSans-65" x="487.646484"/>
     <use xlink:href="#DejaVuSans-64" x="549.169922"/>
     <use xlink:href="#DejaVuSans-20" x="612.646484"/>
     <use xlink:href="#DejaVuSans-63" x="644.433594"/>
     <use xlink:href="#DejaVuSans-75" x="699.414062"/>
     <use xlink:href="#DejaVuSans-72" x="762.792969"/>
     <use xlink:href="#DejaVuSans-76" x="803.90625"/>
     <use xlink:href="#DejaVuSans-65" x="863.085938"/>
     <use xlink:href="#DejaVuSans-20" x="924.609375"/>
     <use xlink:href="#DejaVuSans-28" x="956.396484"/>
     <use xlink:href="#DejaVuSans-32" x="995.410156"/>
     <use xlink:href="#DejaVuSans-30" x="1059.033203"/>
     <use xlink:href="#DejaVuSans-30" x="1122.65625"/>
     <use xlink:href="#DejaVuSans-20" x="1186.279297"/>
     <use xlink:href="#DejaVuSans-70" x="1218.066406"/>
     <use xlink:href="#DejaVuSans-6f" x="1281.542969"/>
     <use xlink:href="#DejaVuSans-69" x="1342.724609"/>
     <use xlink:href="#DejaVuSans-6e" x="1370.507812"/>
     <use xlink:href="#DejaVuSans-74" x="1433.886719"/>
     <use xlink:href="#DejaVuSans-73" x="1473.095703"/>
     <use xlink:href="#DejaVuSans-29" x="1525.195312"/>
    </g>
   </g>
  </g>
 </g>
 <defs>
  <clipPath id="p877e0970ca">
   <rect x="135" y="43.2" width="380.454545" height="271.8"/>
  </clipPath>
  <clipPath id="p52a2e5cd1c">
   <rect x="591.545455" y="43.2" width="380.454545" height="271.8"/>
  </clipPath>
 </defs>
</svg>
