solid STL generated by MeshLab
  facet normal 2.695690e-001 -7.001720e-002 9.604323e-001
    outer loop
      vertex  -1.730778e-002 -2.206785e-002 -1.054347e-002
      vertex  -5.317893e-003 2.829032e-002 -1.023753e-002
      vertex  -5.404312e-002 -2.073785e-002 -1.358332e-004
    endloop
  endfacet
  facet normal -1.623354e-001 1.984250e-001 9.665789e-001
    outer loop
      vertex  6.087431e-003 -5.373264e-002 -1.139504e-004
      vertex  5.474702e-002 -1.076422e-003 -2.751230e-003
      vertex  -1.730778e-002 -2.206785e-002 -1.054347e-002
    endloop
  endfacet
  facet normal 6.707342e-001 -6.511044e-001 -3.552165e-001
    outer loop
      vertex  -1.004377e-002 4.221739e-002 4.447833e-002
      vertex  -4.737297e-002 1.033968e-002 3.242299e-002
      vertex  -3.744183e-002 3.819902e-002 1.097853e-004
    endloop
  endfacet
  facet normal 1.359367e-001 -4.700230e-001 8.721237e-001
    outer loop
      vertex  -3.744183e-002 3.819902e-002 1.097853e-004
      vertex  -5.317893e-003 2.829032e-002 -1.023753e-002
      vertex  1.260781e-002 5.276289e-002 1.576811e-004
    endloop
  endfacet
  facet normal 2.821116e-001 -8.344801e-002 9.557455e-001
    outer loop
      vertex  -5.404312e-002 -2.073785e-002 -1.358332e-004
      vertex  -5.317893e-003 2.829032e-002 -1.023753e-002
      vertex  -3.744183e-002 3.819902e-002 1.097853e-004
    endloop
  endfacet
  facet normal 3.651352e-001 -7.671183e-002 -9.277885e-001
    outer loop
      vertex  -1.004377e-002 4.221739e-002 4.447833e-002
      vertex  -2.770314e-002 -3.295686e-002 4.374400e-002
      vertex  -4.737297e-002 1.033968e-002 3.242299e-002
    endloop
  endfacet
  facet normal -7.866660e-001 -6.169518e-001 2.295663e-002
    outer loop
      vertex  5.474702e-002 -1.076422e-003 -2.751230e-003
      vertex  3.925912e-002 2.024418e-002 3.950143e-002
      vertex  1.260781e-002 5.276289e-002 1.576811e-004
    endloop
  endfacet
  facet normal -2.311901e-001 -2.319983e-001 9.448429e-001
    outer loop
      vertex  5.474702e-002 -1.076422e-003 -2.751230e-003
      vertex  1.260781e-002 5.276289e-002 1.576811e-004
      vertex  -5.317893e-003 2.829032e-002 -1.023753e-002
    endloop
  endfacet
  facet normal 2.784565e-001 -9.566528e-001 -8.530794e-002
    outer loop
      vertex  -1.004377e-002 4.221739e-002 4.447833e-002
      vertex  -3.744183e-002 3.819902e-002 1.097853e-004
      vertex  1.260781e-002 5.276289e-002 1.576811e-004
    endloop
  endfacet
  facet normal -9.197367e-001 8.936638e-002 -3.822275e-001
    outer loop
      vertex  3.264198e-002 -2.758173e-002 4.424206e-002
      vertex  3.925912e-002 2.024418e-002 3.950143e-002
      vertex  5.474702e-002 -1.076422e-003 -2.751230e-003
    endloop
  endfacet
  facet normal 9.606407e-001 -2.708496e-001 6.172596e-002
    outer loop
      vertex  -5.404312e-002 -2.073785e-002 -1.358332e-004
      vertex  -3.744183e-002 3.819902e-002 1.097853e-004
      vertex  -4.737297e-002 1.033968e-002 3.242299e-002
    endloop
  endfacet
  facet normal -7.329314e-001 6.792216e-001 3.833532e-002
    outer loop
      vertex  6.087431e-003 -5.373264e-002 -1.139504e-004
      vertex  3.264198e-002 -2.758173e-002 4.424206e-002
      vertex  5.474702e-002 -1.076422e-003 -2.751230e-003
    endloop
  endfacet
  facet normal -7.429042e-002 8.778751e-001 -4.730922e-001
    outer loop
      vertex  3.264198e-002 -2.758173e-002 4.424206e-002
      vertex  6.087431e-003 -5.373264e-002 -1.139504e-004
      vertex  -2.770314e-002 -3.295686e-002 4.374400e-002
    endloop
  endfacet
  facet normal -4.062134e-001 -8.202236e-001 -4.027704e-001
    outer loop
      vertex  3.925912e-002 2.024418e-002 3.950143e-002
      vertex  -1.004377e-002 4.221739e-002 4.447833e-002
      vertex  1.260781e-002 5.276289e-002 1.576811e-004
    endloop
  endfacet
  facet normal 8.562536e-001 2.745988e-001 -4.375217e-001
    outer loop
      vertex  -4.737297e-002 1.033968e-002 3.242299e-002
      vertex  -2.770314e-002 -3.295686e-002 4.374400e-002
      vertex  -5.404312e-002 -2.073785e-002 -1.358332e-004
    endloop
  endfacet
  facet normal 4.805901e-001 8.758103e-001 -4.460366e-002
    outer loop
      vertex  -5.404312e-002 -2.073785e-002 -1.358332e-004
      vertex  -2.770314e-002 -3.295686e-002 4.374400e-002
      vertex  6.087431e-003 -5.373264e-002 -1.139504e-004
    endloop
  endfacet
  facet normal 2.565282e-001 4.680645e-001 8.456411e-001
    outer loop
      vertex  6.087431e-003 -5.373264e-002 -1.139504e-004
      vertex  -1.730778e-002 -2.206785e-002 -1.054347e-002
      vertex  -5.404312e-002 -2.073785e-002 -1.358332e-004
    endloop
  endfacet
  facet normal -1.135372e-001 2.099758e-002 9.933118e-001
    outer loop
      vertex  5.474702e-002 -1.076422e-003 -2.751230e-003
      vertex  -5.317893e-003 2.829032e-002 -1.023753e-002
      vertex  -1.730778e-002 -2.206785e-002 -1.054347e-002
    endloop
  endfacet
  facet normal 7.540769e-003 7.996351e-003 -9.999396e-001
    outer loop
      vertex  3.264198e-002 -2.758173e-002 4.424206e-002
      vertex  -2.770314e-002 -3.295686e-002 4.374400e-002
      vertex  -1.004377e-002 4.221739e-002 4.447833e-002
    endloop
  endfacet
  facet normal -1.350081e-001 -7.922112e-002 -9.876724e-001
    outer loop
      vertex  -1.004377e-002 4.221739e-002 4.447833e-002
      vertex  3.925912e-002 2.024418e-002 3.950143e-002
      vertex  3.264198e-002 -2.758173e-002 4.424206e-002
    endloop
  endfacet
endsolid vcg
