ply
format ascii 1.0
comment https://github.com/mikedh/trimesh
element vertex 8
property float x
property float y
property float z
element face 12
property list uchar int vertex_indices
end_header
1.00000000 1.00000000 1.00000000
1.00000000 -1.00000000 1.00000000
1.00000000 -1.00000000 -1.00000000
1.00000000 1.00000000 -1.00000000
-1.00000000 1.00000000 1.00000000
-1.00000000 -1.00000000 1.00000000
-1.00000000 -1.00000000 -1.00000000
-1.00000000 1.00000000 -1.00000000
3 0 1 4
3 1 4 5
3 0 3 4
3 3 4 7
3 1 2 3
3 0 1 3
3 1 2 5
3 2 5 6
3 5 6 7
3 4 5 7
3 2 6 7
3 2 3 7